<?xml version="1.0" encoding="UTF-8" standalone="no"?>
<!-- Created with Inkscape (http://www.inkscape.org/) -->

<svg
   xmlns:dc="http://purl.org/dc/elements/1.1/"
   xmlns:cc="http://creativecommons.org/ns#"
   xmlns:rdf="http://www.w3.org/1999/02/22-rdf-syntax-ns#"
   xmlns:svg="http://www.w3.org/2000/svg"
   xmlns="http://www.w3.org/2000/svg"
   xmlns:sodipodi="http://sodipodi.sourceforge.net/DTD/sodipodi-0.dtd"
   xmlns:inkscape="http://www.inkscape.org/namespaces/inkscape"
   height="300"
   width="248"
   version="1.0"
   id="svg128"
   sodipodi:docname="Bohusläns_vapen.svg"
   inkscape:version="0.92.3 (2405546, 2018-03-11)">
  <defs
     id="defs132" />
  <sodipodi:namedview
     pagecolor="#ffffff"
     bordercolor="#666666"
     borderopacity="1"
     objecttolerance="10"
     gridtolerance="10"
     guidetolerance="10"
     inkscape:pageopacity="0"
     inkscape:pageshadow="2"
     inkscape:window-width="1920"
     inkscape:window-height="1017"
     id="namedview130"
     showgrid="false"
     inkscape:zoom="1.5733333"
     inkscape:cx="-8.9298637"
     inkscape:cy="172.97275"
     inkscape:window-x="-4"
     inkscape:window-y="-4"
     inkscape:window-maximized="1"
     inkscape:current-layer="svg128" />
  <metadata
     id="metadata2">
    <rdf:RDF>
      <cc:Work
         rdf:about="">
        <dc:format>image/svg+xml</dc:format>
        <dc:type
           rdf:resource="http://purl.org/dc/dcmitype/StillImage" />
        <dc:title />
      </cc:Work>
    </rdf:RDF>
  </metadata>
  <path
     d="m168.68,152.21c-1.3418,0-2.4299,1.0881-2.4299,2.4299v2.4299h9.7192v4.8598h-14.58v-7.2896c0.0137-3.9648,3.2642-7.2896,7.2897-7.2896,1.3406,0.00091,2.4299-1.0881,2.4299-2.4299,0-1.3406-1.0892-2.4287-2.4299-2.4287h-7.2897l4.8598-4.8598h2.4299c3.9637,0.0137,7.2896,3.2642,7.2896,7.2885,0,4.0254-3.2654,7.2897-7.2896,7.2897zm55.885-14.578,0,24.298-4.8598,0,0-19.438zm-220.56-0.00091,4.8598,0,0,19.439,9.7192,0,0,4.8598-14.579,0zm193.84-4.86c-9.3915,0-17.008,7.6177-17.008,17.009,0,9.3927,7.6165,17.009,17.008,17.009,9.3926,0,17.009-7.6165,17.009-17.009,0-9.3915-7.6165-17.009-17.009-17.009zm12.149,17.009c0,6.709-5.4404,12.149-12.149,12.149-6.7079,0-12.149-5.4404-12.149-12.149,0-6.7079,5.4415-12.149,12.149-12.149,6.709,0,12.149,5.4415,12.149,12.149zm-84.494-7.2885c2.6836,0,4.8598,2.1762,4.8598,4.8598v4.8586c0,2.6836-2.1762,4.8598-4.8598,4.8598h-4.8598v-14.578zm0,19.438c5.3672,0,9.7192-4.3523,9.7192-9.7192v-4.8586c0-5.3672-4.3523-9.7192-9.7192-9.7192h-9.7249v24.298zm-19.439-24.298,4.86,0,0,24.298-4.86,0zm-82.613,0,14.579,0,0,4.8598-9.7192,0,0,4.8586,9.7192,0,0,4.8598-9.7192,0,0,4.8598,9.7192,0,0,4.8598-14.579,0zm72.895,0,4.8597,0,0,24.298-4.8597,0-9.7192-15.255,0,15.255-4.8597,0,0-24.298,4.8597,0,9.7192,15.255zm-41.305,4.8586,4.8584,0c4.0251,0,7.2897,3.2642,7.2897,7.2897,0,4.0254-3.325,7.2759-7.2897,7.2896h-4.8584v-4.8598h4.8584c1.3417,0,2.4299-1.0881,2.4299-2.4299s-1.0882-2.4299-2.4299-2.4299h-4.8584zm4.8584,24.299c9.3923,0,17.009-7.6165,17.009-17.009,0-9.3915-7.6167-17.009-17.009-17.009-9.3922,0-17.009,7.6177-17.009,17.009,0,9.3926,7.6168,17.009,17.009,17.009zm-12.154-17.031c0-6.7079,5.4406-12.149,12.149-12.149,6.7087,0,12.149,5.4415,12.149,12.149,0,6.709-5.4406,12.149-12.149,12.149-6.7087,0-12.149-5.4404-12.149-12.149zm188.98,2.4299-7.2896,0,0-4.8598,7.2896,0c1.3418,0.00093,2.4299-1.0881,2.4299-2.4299,0-1.3407-1.0881-2.4287-2.4299-2.4287h-7.2896l4.8598-4.8598h2.4299c3.9648,0.0137,7.2896,3.2642,7.2896,7.2885,0,1.8676-0.7029,3.5706-1.8572,4.8609,1.1543,1.2892,1.8572,2.9922,1.8572,4.8586,0,4.0254-3.3248,7.2759-7.2896,7.2896h-7.2896v-4.8598h7.2896c1.3418,0,2.4299-1.0881,2.4299-2.4299s-1.0881-2.4299-2.4299-2.4299z"
     fill="#800080"
     id="path4" />
  <path
     d="m247,1.0001,0,214.77c0,82.42-84.912,44.012-123,82.791-38.089-38.77-123-0.37-123-82.79v-214.77z"
     stroke="#000"
     stroke-miterlimit="4"
     stroke-dasharray="none"
     stroke-width="2"
     fill="#FFF"
     id="path6"
     style="fill:#ffffff" />
  <g
     id="layer1"
     inkscape:label="Layer 1"
     transform="matrix(3.7795276,0,0,3.7795276,-87.737855,-34.472983)">
    <path
       sodipodi:nodetypes="cccccccccccccccccccccccccccc"
       style="fill:none;stroke:#ffffff;stroke-width:0.79374999;stroke-miterlimit:4;stroke-dasharray:none;stroke-opacity:1"
       inkscape:connector-curvature="0"
       id="path70-0-9"
       stroke-miterlimit="4"
       d="m 69.833526,29.127181 c -1.976059,-0.816372 -3.960275,-1.894602 -5.877711,-3.336131 -1.196128,-0.89969 -1.52863,-2.105475 -1.009782,-3.304911 1.355302,-1.077489 0.850609,-2.474807 -0.0848,-3.127904 -0.868839,-0.60661 -2.109579,-0.570548 -2.575986,0.961072 0.400579,0.518478 0.727131,1.028753 1.059262,1.639465 l -0.170714,0.09298 C 60.548211,20.901 59.398943,19.852165 58.322909,21.362936 c -0.400949,0.563113 -0.492442,1.377262 -0.155093,2.13487 0.874765,-0.01079 1.680739,-0.102653 2.610191,0.113067 l -0.01601,0.194519 c -1.53011,-0.127945 -3.588012,-0.268526 -2.985821,2.006177 0.586158,2.213715 2.187681,1.269762 3.125788,0.0082 l 0.15621,0.115671 c -0.486122,0.653838 -0.997135,1.174538 -1.592607,1.655815 0.165135,1.867456 2.608713,2.325291 3.709988,0.816001 -0.856933,1.132523 -1.254522,2.264305 -0.642699,3.39672 0.413226,-0.64344 0.841666,-1.225496 1.377262,-1.377261 -0.784384,1.187555 -0.640451,2.242369 -0.550836,3.304909 0.549328,-0.882226 1.083045,-1.787869 1.881954,-2.295181 0.443336,0.447808 0.904531,0.860266 1.376521,1.251162 l 0.10042,-0.419153 7.94e-4,-0.0021 -0.0021,-2.64e-4 c 0.05467,-0.228365 0.131662,-0.454872 0.231339,-0.677651 0.09968,-0.221668 0.219067,-0.432938 0.359278,-0.633014 0.525912,-0.748692 1.353819,-1.369801 2.52613,-1.828033 z" />
    <path
       sodipodi:nodetypes="cccccccccccccccccccccccccccc"
       style="fill:#003d8f;fill-opacity:1;fill-rule:evenodd;stroke-width:0"
       inkscape:connector-curvature="0"
       id="path80-9-0"
       d="m 69.833269,29.127181 c -1.976067,-0.816372 -3.960283,-1.894602 -5.877454,-3.336131 -1.196128,-0.89969 -1.52863,-2.105475 -1.009782,-3.304911 1.355302,-1.077489 0.850609,-2.474807 -0.0848,-3.127904 -0.868839,-0.60661 -2.109579,-0.570548 -2.575986,0.961072 0.400579,0.518478 0.727131,1.028753 1.059262,1.639465 l -0.170717,0.09298 C 60.548211,20.901 59.39894,19.852165 58.322906,21.362936 c -0.400949,0.563113 -0.492442,1.377262 -0.155093,2.13487 0.874765,-0.01079 1.680739,-0.102653 2.610191,0.113067 l -0.01598,0.194519 c -1.530109,-0.127945 -3.588011,-0.268526 -2.98582,2.006177 0.586158,2.213715 2.187681,1.269762 3.125788,0.0082 l 0.15621,0.11567 c -0.486122,0.653842 -0.997135,1.174542 -1.592607,1.655819 0.165132,1.867456 2.608713,2.325291 3.709988,0.816001 -0.856933,1.132523 -1.254522,2.264305 -0.6427,3.39672 0.413227,-0.64344 0.841666,-1.225496 1.377262,-1.377261 -0.784383,1.187555 -0.64045,2.242369 -0.550836,3.304909 0.549328,-0.882226 1.083046,-1.787869 1.881955,-2.295181 0.443336,0.447807 0.904531,0.860266 1.376521,1.251162 l 0.100423,-0.419153 7.93e-4,-0.0021 -0.0021,-2.64e-4 c 0.05467,-0.228365 0.131664,-0.454872 0.231341,-0.677651 0.09968,-0.221668 0.219064,-0.432938 0.359278,-0.633014 0.525912,-0.748692 1.35382,-1.369801 2.526135,-1.828033 z" />
    <path
       inkscape:connector-curvature="0"
       id="path110-7"
       d="m 58.895368,29.772852 c 0,0 1.586648,0.166996 2.381829,-1.019828 1.309934,-1.923614 -1.732814,-0.955112 -1.671074,-0.508054 0.25812,1.097561 -0.710755,1.527882 -0.710755,1.527882 z"
       style="fill:#ffcd50;fill-rule:evenodd;stroke-width:0.37192857" />
    <path
       inkscape:connector-curvature="0"
       id="path112-6"
       d="m 61.707148,17.781875 c 0,0 1.551313,0.370813 1.906505,1.754388 0.595085,2.249795 -1.951881,0.324321 -1.745088,-0.07699 0.608846,-0.949161 -0.161417,-1.677398 -0.161417,-1.677398 z"
       style="fill:#ffcd50;fill-rule:evenodd;stroke-width:0.37192857" />
    <path
       inkscape:connector-curvature="0"
       id="path114-5"
       d="m 57.27376,20.857724 c 0,0 1.525651,-0.465654 2.53246,0.548223 1.651735,1.639462 -1.519698,1.267161 -1.544246,0.816384 0.04463,-1.126572 -0.988214,-1.364607 -0.988214,-1.364607 z"
       style="fill:#ffcd50;fill-rule:evenodd;stroke-width:0.37192857" />
    <path
       inkscape:connector-curvature="0"
       id="path116-9"
       d="m 56.611725,26.157707 c 0,0 0.685467,-1.440479 2.112555,-1.499988 2.324555,-0.113439 -0.08926,1.9768 -0.438504,1.690787 -0.801505,-0.792951 -1.674051,-0.190799 -1.674051,-0.190799 z"
       style="fill:#ffcd50;fill-rule:evenodd;stroke-width:0.37192857" />
  </g>
  <path
     d="m79.083,35.114,63.417,0,0,76.018-63.417,0,0-76.018z"
     fill-rule="evenodd"
     stroke="#FFF"
     stroke-miterlimit="4"
     stroke-dasharray="none"
     stroke-width="1.5"
     fill="#d20000"
     id="path8" />
  <path
     d="m73.625,18.312,0,22.062,74.344,0,0-22.062-17.031,0,0,11.344-11.656,0,0-11.344-17,0,0,11.344-11.656,0,0-11.344z"
     fill-rule="evenodd"
     stroke="#FFF"
     stroke-miterlimit="4"
     stroke-dasharray="none"
     stroke-width="1.5"
     fill="#d20000"
     id="path10" />
  <path
     d="m155.62,115.63-89.652,0,0,144.68,89.652,0,0-144.68z"
     fill-rule="evenodd"
     stroke="#FFF"
     stroke-miterlimit="4"
     stroke-dasharray="none"
     stroke-width="1.5"
     fill="#d20000"
     id="path12" />
  <path
     d="m59.344,84.469,0,36.531,102.91,0,0-36.531-19.531,0,0,16.781-8.2812,0,0-16.781-19.5,0,0,16.781-8.2812,0,0-16.781-19.531,0,0,16.781-8.25,0,0-16.781z"
     fill-rule="evenodd"
     stroke="#FFF"
     stroke-miterlimit="4"
     stroke-dasharray="none"
     stroke-width="1.5"
     fill="#d20000"
     id="path14" />
  <path
     d="m110.79,29.953,0,9.6345m28.689-9.6345,0,9.6345m-57.377-9.6345,0,9.6345"
     stroke="#500"
     stroke-miterlimit="4"
     stroke-dasharray="none"
     stroke-width="1"
     fill="none"
     id="path16" />
  <path
     d="m154.38,201.18-87.17,0m0,14.786,87.17,0m0-44.35-87.17,0m0,14.784,87.17,0m0,59.131-87.17,0m0-14.781,87.17,0m-87.172-103.48h87.17m0,29.564-87.17,0m0-14.781,87.17,0"
     stroke="#500"
     stroke-miterlimit="4"
     stroke-dasharray="none"
     stroke-width="1"
     fill="none"
     id="path18" />
  <path
     d="m147.89,171.67,0,14.782-7.1537,4.9439-22.794,0-7.1551-4.9439-7.1551,4.9439-22.792,0-7.1551-4.9439,0-14.782,74.205,0z"
     fill-rule="evenodd"
     stroke="#500"
     stroke-dasharray="none"
     stroke-miterlimit="4"
     stroke-width="1"
     fill="#d20000"
     id="path20" />
  <path
     d="m147.89,121.75,0,5.5728m0,14.782,0,14.78m0,44.342,0,14.784m0,14.782,0,14.78m-74.205-123.82,0,5.5728m0,14.782,0,14.78m0,44.342,0,14.784m0,14.782,0,14.78m37.104-123.82,0,5.5728m0,14.782,0,14.78m0,14.781,0,14.782m0,14.778,0,14.784m0,14.782,0,14.78m-18.549-118.26v14.781m0,14.782,0,14.78m37.102-44.343,0,14.781m0,14.782,0,14.78m-3.2739,14.815-4.9031-14.818m11.452,14.818,4.9031-14.818m-42.007,14.818,4.9045-14.818m-11.453,14.82-4.903-14.82"
     stroke="#500"
     stroke-miterlimit="4"
     stroke-dasharray="none"
     stroke-width="1"
     fill="none"
     id="path22" />
  <path
     d="m135.21,92.99,6.5199,0m-61.881,0,6.5276,0m21.04,0,6.7655,0m27.548-14.784-61.881,0m0-14.785,61.881,0m-61.881-14.785,61.881,0"
     stroke="#500"
     stroke-miterlimit="4"
     stroke-dasharray="none"
     stroke-width="1"
     fill="none"
     id="path24" />
  <path
     d="m110.79,78.205,0,14.78m18.55-29.558,0,14.78m-37.102-14.78,0,14.78m18.553-29.566,0,14.784m18.55-22.188,0,7.4084m-37.099-7.409v7.4084"
     stroke="#500"
     stroke-miterlimit="4"
     stroke-dasharray="none"
     stroke-width="1"
     fill="none"
     id="path26" />
  <path
     d="m152.47,101.16,0,14.881m-27.788-14.881,0,14.881m-27.787-14.881,0,14.881m-27.787-14.881,0,14.881"
     stroke="#500"
     stroke-miterlimit="4"
     stroke-dasharray="none"
     stroke-width="1"
     fill="none"
     id="path28" />
  <g
     transform="matrix(1.4057143,0,0,1.4057143,-294.39399,-448.0483)"
     fill-rule="evenodd"
     id="g38">
    <path
       d="m284.4,456.32c0-5.166-4.188-9.355-9.354-9.355-5.165,0-9.354,4.189-9.354,9.355v47.597h18.708v-47.597z"
       fill="#ffcd50"
       id="path30" />
    <path
       d="m278.94,473.6c0.861,0,1.559,0.698,1.559,1.559,0,0.556-0.293,1.044-0.732,1.32l0.455,3.963h-2.564l0.455-3.962c-0.439-0.276-0.732-0.764-0.732-1.321,0-0.861,0.698-1.559,1.559-1.559z"
       fill="#000"
       id="path32" />
    <path
       d="m265.05,461.32,10.98,0c0.172-0.732-0.126-1.516-0.755-1.942,1.321-0.898,3.232,0.319,2.805,1.976,0.907,0.124,1.709,0.58,2.285,1.24-0.576,0.66-1.378,1.116-2.286,1.241,0.424,1.658-1.481,2.877-2.804,1.978,0.63-0.428,0.926-1.21,0.755-1.942h-10.98v-2.551z"
       fill="#000"
       id="path34" />
    <path
       d="m265.05,486.56,10.98,0c0.172-0.732-0.126-1.516-0.755-1.942,1.321-0.898,3.232,0.319,2.805,1.976,0.907,0.124,1.709,0.58,2.285,1.24-0.576,0.66-1.378,1.116-2.286,1.241,0.424,1.658-1.481,2.877-2.804,1.978,0.63-0.428,0.926-1.21,0.755-1.942h-10.98v-2.551z"
       fill="#000"
       id="path36" />
  </g>
  <g
     transform="matrix(1.4057143,0,0,1.4057143,-294.39399,-448.0483)"
     fill-rule="evenodd"
     id="g48">
    <path
       d="m310.79,456.32c0-5.166-4.189-9.355-9.355-9.355-5.165,0-9.354,4.189-9.354,9.355v47.597h18.709v-47.597z"
       fill="#ffcd50"
       id="path40" />
    <path
       d="m297.54,473.6c-0.861,0-1.56,0.698-1.56,1.559,0,0.556,0.293,1.044,0.733,1.32l-0.455,3.963h2.563l-0.455-3.962c0.44-0.276,0.732-0.764,0.732-1.321,0-0.861-0.698-1.559-1.558-1.559z"
       fill="#000"
       id="path42" />
    <path
       d="m311.44,461.32-10.98,0c-0.173-0.732,0.126-1.516,0.755-1.942-1.322-0.898-3.232,0.319-2.805,1.976-0.908,0.124-1.709,0.58-2.286,1.24,0.577,0.66,1.379,1.116,2.286,1.241-0.424,1.658,1.481,2.877,2.805,1.978-0.63-0.428-0.927-1.21-0.755-1.942h10.98v-2.551z"
       fill="#000"
       id="path44" />
    <path
       d="m311.44,486.56-10.98,0c-0.173-0.732,0.126-1.516,0.755-1.942-1.322-0.898-3.232,0.319-2.805,1.976-0.908,0.124-1.709,0.58-2.286,1.24,0.577,0.66,1.379,1.116,2.286,1.241-0.424,1.658,1.481,2.877,2.805,1.978-0.63-0.428-0.927-1.21-0.755-1.942h10.98v-2.551z"
       fill="#000"
       id="path46" />
  </g>
  <path
     d="m81.896,45.831,7.5318,0m5.6257,0,31.477,0m5.6271,0,7.5304,0m-57.792,14.78,26.083,0,0-9.1554m5.6271,9.1554,26.082,0,0-9.1554m-57.792,23.938,7.5318,0,0-9.1568m5.6257,9.1568,31.477,0,0-9.1568m5.6271,9.1568,7.5304,0,0-9.1568m-57.792,23.938,4.0766,0m22.006,0,0-9.1568m27.572,9.1568,4.137,0,0-9.1568m5.4612-48.549,0,5.0831-2.8803,0m-5.6243-5.0831,0,5.0831-23.041,0m-5.6229-5.0831,0,5.0831-23.04,0m-5.6243-5.0831,0,5.0831-2.8803,0m57.326-10.707,11.386,0-0.001-5.717m-40.049,5.717,11.386,0,0-5.717m-40.05,5.717,11.386,0,0-5.717"
     stroke="#500"
     stroke-miterlimit="4"
     stroke-dasharray="none"
     stroke-width="0.5"
     fill="none"
     id="path50" />
  <path
     d="m68.779,168.81,20.649,0,0-9.1568m5.6257,9.1568,31.477,0,0-9.1568m5.6271,9.1568,20.649,0,0-9.1568m-84.027-5.6243,2.0973,0,0-9.1554m5.6257,9.1554,31.477,0,0-9.1554m5.6271,9.1554,31.475,0,0-9.1554m5.6271,9.1554,2.0973,0,0-9.1554m-84.027-5.6243,20.649,0,0-9.1582m5.6257,9.1582,31.477,0,0-9.1582m5.6271,9.1582,20.649,0,0-9.1582m-84.027-5.6243,2.0973,0m5.6257,0,31.477,0m5.6271,0,31.475,0m5.6271,0,2.0973,0m-84.027,58.788,2.0973,0,0-8.8209m79.832,8.8209,2.0973,0,0-8.8209m-76.745-87.158,0,11.175-13.904,0m41.692-11.175,0,11.175-13.904,0m69.482-11.175,0,11.175-13.904,0m-13.884-11.175,0,11.175-13.904,0m-55.578,14.781,4.1384,0,0-9.1568m5.6271,9.1568,22.162,0,0-9.1568m5.6257,9.1568,22.162,0,0-9.1568m5.6271,9.1568,22.162,0,0-9.1568m5.6257,9.1568,4.1384,0,0-9.1568m-90.647,94.295,7.4995,0,0-6.3777m31.924,6.3777,5.18,0,0-6.746m31.922,6.746,7.5009,0,0-9.154m-2.0973,23.939,2.0973,0,0-8.8223m-84.027,8.8223,2.0973,0,0-8.8223m74.428,23.605,7.5009,0,0-9.1554m-44.603,9.1554,5.18,0,0-9.1554m-44.603,9.1554,7.4995,0,0-9.1554m-7.4995,38.716,7.4995,0,0-9.1554m31.924,9.1554,5.18,0,0-9.1554m31.922,9.1554,7.5009,0,0-9.1554m-2.0973-5.6271,2.0973,0,0-8.8209m-84.027,8.8209,2.0973,0,0-8.8209m25.636-59.415-1.088,3.288c-2.1311-0.42875-4.2368-0.43015-6.3679,0m-7.0061-3.288,1.774,5.3628c-2.4375,1.5126-4.4407,3.6745-5.7578,6.2259m41.086-11.589,1.774,5.3614c-2.4347,1.5125-4.4421,3.6773-5.7592,6.2259m18.449-11.587-1.0894,3.2894c-2.1325-0.42733-4.2382-0.43015-6.3665-0.001m11.599,2.0748c2.4375,1.5126,4.4421,3.6759,5.7592,6.2259l1.5646-1.0824v-10.506m-44.426,5.3614c2.4375,1.5125,4.4421,3.6788,5.7578,6.2273l1.5646-1.081v-10.508"
     stroke="#500"
     stroke-miterlimit="4"
     stroke-dasharray="none"
     stroke-width="0.5"
     fill="none"
     id="path52" />
  <g
     fill-rule="evenodd"
     transform="matrix(1.4057143,0,0,1.4057143,-294.39399,-448.0483)"
     stroke="#FFF"
     stroke-miterlimit="4"
     stroke-dasharray="none"
     stroke-width="1.06707316"
     id="g68">
    <path
       d="m229.73,499.54,8.979,0,1.26-31.824-11.5,0,1.261,31.824z"
       fill="#003d8f"
       id="path54" />
    <path
       d="m228.79,475.86,11.11-6.414m-10.916,11.292,10.713-6.185m-10.52,11.063,10.318-5.957m-10.125,10.835,9.923-5.729m-9.729,10.607,9.527-5.501m-8.11,9.672,7.907-4.566m-10.291-23.994,5.652-3.264"
       fill="none"
       id="path56" />
    <path
       d="m228.46,349.23,5.75-12.459,5.75,12.459,0,117.19-11.5,0,0-117.19z"
       fill="#003d8f"
       id="path58" />
    <path
       d="m234.22,503.96c3.356,0,6.077-2.721,6.077-6.077h-12.154c0,3.356,2.721,6.077,6.077,6.077z"
       fill="#003d8f"
       id="path60" />
    <path
       d="m234.22,341.76,0,125.21"
       fill="none"
       id="path62" />
    <path
       d="m227.8,463.91-12.218-0.671,0,6.675,12.218-0.672,12.84,0,12.218,0.672,0-6.675-12.218,0.788-12.84-0.117z"
       fill="#003d8f"
       id="path64" />
    <path
       d="m240.64,469.24,0-5.215m-12.84-0.117,0,5.332"
       fill="none"
       id="path66" />
  </g>
  <g
     transform="translate(-118)"
     id="g120">
    <path
       d="m 321.4,161.68 c -14.746,-13.349 -25.356,-11.66 -29.003,-3.1825 -1.93,4.487 -4.9875,5.0521 -8.96,4.1946 1.4844,4.0063 3.7659,6.1683 9.341,5.7184 -0.66771,5.0184 2.006,8.5875 3.8123,13.152 3.6661,9.2693 -8.7534,9.9553 -9.341,4.0035 -0.81672,-8.2768 -4.1426,-13.027 -9.5308,-10.294 -5.8225,2.9548 -3.444,9.4028 0,11.819 -5.0521,4.9552 -2.9534,12.58 0.95308,14.677 -8.5594,6.1992 -4.3254,13.666 0.71129,13.676 6.15,0.0113 7.3364,-7.0651 5.7705,-11.96 3.5522,2.2941 7.148,4.584 13.763,2.2857 -0.38094,2.9225 1.4858,4.5124 -0.80125,8.1981 3.4946,-0.50887 5.7184,-3.0504 6.6715,-7.6246 0.4442,2.2238 1.8429,3.1136 1.334,6.6715 4.7822,-2.6371 7.8945,-7.5079 6.0994,-15.059 -2.0003,-8.423 -3.7251,-15.783 -0.21085,-19 1.081,-10.027 6.7952,-11.922 9.3902,-17.276 z m 23.773,-63.458 c 3.5298,-5.7016 10.603,-8.6072 8.5622,-16.18 4.4224,2.2674 7.7525,11.77 0.95729,19.385 2.3026,0.75768 4.0794,-2.0973 4.8033,-3.4454 1.2862,7.4784 -3.5551,14.032 -10.882,14.844 -5.2728,13.68 -0.0323,26.962 7.9971,38.902 3.9163,5.8253 6.337,13.037 6.7348,20.031 0.87154,15.315 -13.181,19.998 -20.142,8.1222 -0.6143,4.7499 -1.8218,9.3396 -4.5601,13.761 -3.3554,5.4148 -3.8235,9.0191 -0.76893,11.056 4.525,3.0152 6.9217,6.4227 6.4143,11.49 -0.22773,3.496 1.3762,4.9326 4.8132,4.3057 -1.4844,4.2762 -4.8666,5.1013 -9.1104,5.2391 2.1254,1.4184 3.9669,1.7501 6.5534,1.3382 -0.95026,3.0757 -4.6838,3.4018 -7.0693,2.7144 -2.4937,2.7074 -4.7415,5.4148 -7.1593,8.1222 -2.2182,2.4839 -3.5663,4.2452 -7.3842,3.4229 -0.6888,0.70708 -1.3776,1.2244 -2.3546,1.8373 1.8893,-0.27974 5.1702,1.0135 5.45,3.9894 0.25865,2.9436 -1.6672,8.1939 -7.612,7.9226 -5.1983,-0.23756 -5.3445,-3.4215 -5.3445,-3.4215 -1.5547,0.65647 -3.1615,1.0965 -4.8483,1.2202 0.86029,2.0284 -0.0436,5.0929 -2.5218,6.4986 -1.781,1.0487 -4.6009,1.3172 -6.9724,0.5651 -6.5436,-2.0706 -4.9636,-9.0317 1.14,-11.649 l -0.85187,-0.22069 c -4.6726,1.3045 -6.3341,5.0395 -6.4129,8.9488 -3.579,1.4184 -6.6195,-0.52011 -7.8369,-3.5396 -2.8227,-6.9948 6.5717,-10.633 12.324,-9.0711 l -0.64663,-0.70848 c -4.1131,-1.1682 -7.6077,-0.33456 -11.355,1.9399 -2.1212,-2.6484 -0.91934,-7.477 2.4994,-8.2782 1.9764,-0.4906 5.2349,0.90668 7.5135,1.8401 2.8002,1.1611 5.5132,0.89122 6.9386,0.48075 7.2675,-2.1831 12.287,-8.6451 16.375,-14.745 4.6065,-6.8754 3.8067,-10.284 2.1662,-12.628 -1.1752,-1.677 -1.8246,-4.0035 -2.3588,-7.0173 -0.39501,3.6563 -3.0813,5.4246 -5.8253,6.3327 5.3726,-8.3781 -6.2864,-30.362 3.8784,-43.133 4.785,-6.0108 7.0145,-11.544 6.7601,-17.919 l -0.60024,0.492 c -0.11808,2.2941 -0.57775,4.3451 -1.4057,6.1317 -5.0788,-9.2468 -15.601,-15.166 -21.678,-24.447 2.3644,-2.8592 8.7337,-7.3167 11.561,-7.9929 -0.58899,-4.0456 -0.23616,-7.3125 0.31067,-10.863 -1.341,3.1755 -2.4431,6.3496 -3.0279,9.5251 -3.8474,0.81109 -8.5847,4.5475 -11.059,7.3294 1.431,5.9602 1.2131,9.393 -3.0673,13.821 0.0351,-4.7274 -2.6765,-8.7056 -3.7167,-9.5518 0.46248,4.3928 0.49903,8.3331 -3.6675,10.613 -1.0515,-4.5784 -4.2214,-7.633 -7.4053,-9.4661 l -0.55386,0.1476 c 6.4269,6.8768 2.7988,17.264 -6.3763,16.218 -0.0309,-3.7406 -0.44842,-7.044 -1.1471,-10.612 l -0.72394,0.14057 c 1.0726,5.4682 2.5739,13.53 -5.1913,13.582 -8.4821,0.0548 -6.6012,-9.0247 -2.4586,-13.522 l -0.72113,-0.37954 c -2.8283,3.0701 -4.3858,6.3088 -4.48,10.26 -3.0293,0.56229 -5.509,-1.1161 -6.836,-3.5058 -3.6745,-6.6195 3.3836,-11.389 9.6544,-10.03 l -0.26147,-0.71973 c -3.451,-0.74784 -6.5928,0.16306 -9.8231,1.5885 -3.5002,-4.5517 0.343,-11.26 6.2484,-11.202 1.8288,0.0183 3.8896,0.9348 6.2189,2.9056 12.765,2.7201 22.143,-10.979 27.098,-20.859 -2.7988,3.0645 -5.5793,6.2512 -8.7674,8.6718 -0.74644,-6.0333 1.3902,-12.067 7.2464,-18.097 -3.1108,0.82235 -5.8351,2.273 -8.0463,4.7288 -0.11386,-7.8059 2.1437,-13.835 7.3463,-18.391 -1.7515,-0.06607 -3.503,0.22491 -5.2546,0.87576 1.2834,-5.3993 5.9827,-9.5982 15.062,-11.84 3.9374,-0.97135 7.6696,-3.7251 8.6437,-5.9138 6.337,-1.6812 9.788,-4.9523 10.346,-12.006 l -0.73519,-0.05763 c -0.31769,4.0133 -2.3363,6.5464 -5.2855,8.1995 -3.9613,2.221 -4.57,0.77033 -8.4048,0.89403 -4.2551,0.13776 -6.5844,2.5064 -7.3659,4.6093 -1.5913,-2.8227 -1.3382,-6.6673 1.8555,-7.8186 l -0.68739,-1.5983 c 3.6605,-1.4212 11.457,1.3073 13.82,-1.2342 2.7707,-2.9801 3.1811,-10.6 -2.2014,-11.44 -3.0392,-0.47373 -5.7494,0.95448 -8.2333,2.3475 -6.1683,3.4595 -9.4759,-2.8016 -6.2765,-7.7399 -0.43718,0.0098 -0.87435,0.01827 -1.3101,0.02811 -0.3669,-1.3664 -0.3444,-2.8634 0.0661,-4.4899 2.9225,-0.61992 6.7334,-2.0369 10.333,-1.8879 0.0267,-3.4328 3.2936,-4.6585 9.8034,-3.6788 3.8643,0.09278 6.4326,-1.8921 7.7061,-5.9546 1.4409,1.7375 2.0973,4.9186 2.1367,7.0876 -0.84202,1.2623 -1.5069,2.6779 -1.8682,4.383 l 0.68318,0.27693 c 1.0571,-4.4308 7.3308,-6.0727 9.14,-10.25 6.3848,6.9063 5.7733,15.166 -1.5266,21.863 l 0.52433,0.5159 c 3.5846,-2.9914 5.9658,-6.046 7.0244,-9.2173 1.1372,-1.0234 2.5907,-2.6709 3.683,-3.7828 1.774,5.9082 0.54683,11.347 -3.1404,14.879 3.1516,0.05904 6.1247,-1.1316 9.2791,-3.1699 0.58618,5.4317 -1.282,10.314 -7.1776,12.628 2.8564,2.0791 5.8168,3.4187 8.9333,3.6788 -1.5168,4.7457 -5.263,6.2442 -9.6334,6.8304 1.9174,3.4609 4.7584,5.5329 8.2319,6.6561 -3.4946,4.3507 -7.4264,5.7325 -12.476,5.4106 0.52012,3.4271 3.0138,7.5824 6.1612,9.1231 -3.0363,3.2416 -7.3238,4.882 -11.398,4.2284 -0.11527,19.395 3.9726,38.287 12.494,56.371 3.5354,7.5009 2.5176,16.863 6.0656,21.931 3.8488,5.4978 10.189,4.1595 9.6235,-5.7958 -0.34721,-6.1163 -2.467,-12.429 -5.8928,-17.524 -9.2341,-13.732 -14.687,-29.056 -7.9943,-44.733 -0.81812,-3.6155 -1.3453,-8.2305 0.71129,-11.555 z"
       stroke-miterlimit="4"
       id="path70"
       inkscape:connector-curvature="0"
       style="fill:none;stroke:#ffffff;stroke-width:3;stroke-miterlimit:4;stroke-dasharray:none"
       sodipodi:nodetypes="cccccccccccccccccccccccccccccccccccccccccccccccccccccccccccccccccccccccccccccccccccccccccccccccccccccccccccccccccccccccccccccccccccc" />
    <path
       d="m 321.4,161.68 c -14.746,-13.349 -25.356,-11.66 -29.003,-3.1825 -1.93,4.487 -4.9875,5.0521 -8.96,4.1946 1.4844,4.0063 3.7659,6.1683 9.341,5.7184 -0.66771,5.0184 2.006,8.5875 3.8123,13.152 3.6661,9.2693 -8.7534,9.9553 -9.341,4.0035 -0.81672,-8.2768 -4.1426,-13.027 -9.5308,-10.294 -5.8225,2.9548 -3.444,9.4028 0,11.819 -5.0521,4.9552 -2.9534,12.58 0.95308,14.677 -8.5594,6.1992 -4.3254,13.666 0.71129,13.676 6.15,0.0113 7.3364,-7.0651 5.7705,-11.96 3.5522,2.2941 7.148,4.584 13.763,2.2857 -0.38094,2.9225 1.4858,4.5124 -0.80125,8.1981 3.4946,-0.50887 5.7184,-3.0504 6.6715,-7.6246 0.4442,2.2238 1.8429,3.1136 1.334,6.6715 4.7822,-2.6371 7.8945,-7.5079 6.0994,-15.059 -2.0003,-8.423 -3.7251,-15.783 -0.21085,-19 1.081,-10.027 6.7952,-11.922 9.3902,-17.276 z"
       id="path72"
       inkscape:connector-curvature="0"
       style="fill:#003d8f;fill-rule:evenodd;stroke-width:0" />
    <path
       d="m 322.2,156.83 c 0.71973,2.8297 0.22773,6.9344 -1.7403,8.915 -1.4563,0.45123 -4.3816,0.78017 -4.9973,-2.8395 -0.79423,-4.3549 1.7136,-5.7775 1.7136,-5.7775 -0.85327,-2.259 -3.1038,-4.9818 -7.6752,-7.477 1.9146,-0.67053 5.6088,-0.22914 5.6088,-0.22914 2.3742,1.036 5.3726,4.4969 7.0904,7.4081 z"
       id="path74"
       inkscape:connector-curvature="0"
       style="fill:#003d8f;fill-rule:evenodd;stroke:#ffffff;stroke-width:0.99617493" />
    <path
       d="m 294.97,56.453 c 6.5394,-1.535 13.647,-3.2894 17.169,5.1562 l -1.9483,1.3664 c -3.309,-7.976 -10.411,-4.0428 -15.207,-2.0313 -6.3749,2.6779 -16.368,-3.2894 -8.6958,-10.301 0.60727,6.0136 4.1679,6.8669 8.6817,5.8098 z"
       id="path76"
       inkscape:connector-curvature="0"
       style="fill:#ffcd50;fill-rule:evenodd" />
    <path
       d="m 298.4,58.793 c -0.0914,2.0931 0.30785,3.9177 0.30785,3.9177 l 4.3788,-0.0984 c -1.5618,-1.1246 -3.1179,-2.3574 -4.6866,-3.8193 z m 0.006,-2.6835 c -0.69583,-1.9596 -0.86733,-4.0541 -0.86733,-4.0541 l 4.6178,-1.0276 c -0.61429,0.45686 -3.0926,3.5874 -3.7504,5.0817 z"
       id="path78"
       inkscape:connector-curvature="0"
       style="fill:#ffcd50;fill-rule:evenodd" />
    <path
       d="m 345.173,98.222 c 3.5298,-5.7016 10.603,-8.6072 8.5622,-16.18 4.4224,2.2674 7.7525,11.77 0.95729,19.385 2.3026,0.75768 4.0794,-2.0973 4.8033,-3.4454 1.2862,7.4784 -3.555,14.032 -10.882,14.844 -5.2728,13.68 -0.0323,26.962 7.9971,38.902 3.9163,5.8253 6.337,13.037 6.7348,20.031 0.87154,15.315 -13.181,19.998 -20.142,8.1222 -0.6143,4.7499 -1.8218,9.3396 -4.5601,13.761 -3.3554,5.4148 -3.8235,9.0191 -0.76892,11.056 4.525,3.0152 6.9217,6.4227 6.4143,11.49 -0.22773,3.496 1.3762,4.9326 4.8132,4.3057 -1.4844,4.2762 -4.8666,5.1013 -9.1104,5.2391 2.1254,1.4184 3.9669,1.7501 6.5534,1.3382 -0.95026,3.0757 -4.6838,3.4018 -7.0693,2.7144 -2.4937,2.7074 -4.7415,5.4148 -7.1593,8.1222 -2.2182,2.4839 -3.5663,4.2452 -7.3842,3.4229 -0.6888,0.70708 -1.3776,1.2244 -2.3546,1.8373 1.8893,-0.27974 5.1702,1.0135 5.45,3.9894 0.25865,2.9436 -1.6672,8.1939 -7.612,7.9226 -5.1983,-0.23756 -5.3445,-3.4215 -5.3445,-3.4215 -1.5547,0.65647 -3.1614,1.0965 -4.8483,1.2202 0.8603,2.0284 -0.0436,5.0929 -2.5218,6.4986 -1.781,1.0487 -4.6009,1.3172 -6.9723,0.5651 -6.5436,-2.0706 -4.9636,-9.0317 1.14,-11.649 l -0.85186,-0.22069 c -4.6726,1.3045 -6.3342,5.0395 -6.4129,8.9488 -3.579,1.4184 -6.6195,-0.52011 -7.8369,-3.5396 -2.8227,-6.9948 6.5717,-10.633 12.324,-9.0711 l -0.64663,-0.70848 c -4.1131,-1.1682 -7.6077,-0.33456 -11.355,1.9399 -2.1212,-2.6484 -0.91934,-7.477 2.4994,-8.2782 1.9764,-0.4906 5.2349,0.90668 7.5135,1.8401 2.8002,1.1611 5.5132,0.89122 6.9386,0.48075 7.2675,-2.1831 12.287,-8.6451 16.375,-14.745 4.6065,-6.8754 3.8067,-10.284 2.1662,-12.628 -1.1752,-1.677 -1.8246,-4.0035 -2.3588,-7.0173 -0.395,3.6563 -3.0813,5.4246 -5.8253,6.3327 5.3726,-8.3781 -6.2864,-30.362 3.8784,-43.133 4.785,-6.0108 7.0145,-11.544 6.7601,-17.919 l -0.60024,0.492 c -0.11808,2.2941 -0.57775,4.3451 -1.4057,6.1317 -5.0788,-9.2468 -15.601,-15.166 -21.678,-24.447 2.3644,-2.8592 8.7337,-7.3167 11.561,-7.9929 -0.589,-4.0456 -0.23616,-7.3125 0.31066,-10.863 -1.341,3.1755 -2.4431,6.3496 -3.0279,9.5251 -3.8474,0.81109 -8.5847,4.5475 -11.059,7.3294 1.431,5.9602 1.2131,9.393 -3.0673,13.821 0.0351,-4.7274 -2.6765,-8.7056 -3.7167,-9.5518 0.46248,4.3928 0.49903,8.3331 -3.6675,10.613 -1.0515,-4.5784 -4.2214,-7.633 -7.4053,-9.4661 l -0.55385,0.1476 c 6.4269,6.8768 2.7988,17.264 -6.3763,16.218 -0.0309,-3.7406 -0.44843,-7.044 -1.1471,-10.612 l -0.72394,0.14057 c 1.0726,5.4682 2.5739,13.53 -5.1913,13.582 -8.4821,0.0548 -6.6012,-9.0247 -2.4586,-13.522 l -0.72113,-0.37954 c -2.8283,3.0701 -4.3858,6.3088 -4.48,10.26 -3.0293,0.56229 -5.509,-1.1161 -6.836,-3.5058 -3.6745,-6.6195 3.3836,-11.389 9.6544,-10.03 l -0.26146,-0.71973 c -3.451,-0.74784 -6.5928,0.16306 -9.8231,1.5885 -3.5002,-4.5517 0.343,-11.26 6.2484,-11.202 1.8288,0.0183 3.8896,0.9348 6.2189,2.9056 12.765,2.7201 22.143,-10.979 27.098,-20.859 -2.7988,3.0645 -5.5793,6.2512 -8.7674,8.6718 -0.74644,-6.0333 1.3902,-12.067 7.2465,-18.097 -3.1108,0.82235 -5.8351,2.273 -8.0463,4.7288 -0.11387,-7.8059 2.1437,-13.835 7.3463,-18.391 -1.7515,-0.06607 -3.503,0.22491 -5.2546,0.87576 1.2834,-5.3993 5.9827,-9.5982 15.062,-11.84 3.9374,-0.97135 7.6696,-3.7251 8.6437,-5.9138 6.337,-1.6812 9.788,-4.9523 10.346,-12.006 l -0.73519,-0.05763 c -0.31769,4.0133 -2.3363,6.5464 -5.2855,8.1995 -3.9613,2.221 -4.57,0.77033 -8.4048,0.89403 -4.2551,0.13776 -6.5844,2.5064 -7.3659,4.6093 -1.5913,-2.8227 -1.3382,-6.6673 1.8555,-7.8186 l -0.68739,-1.5983 c 3.6605,-1.4212 11.457,1.3073 13.82,-1.2342 2.7707,-2.9801 3.1811,-10.6 -2.2014,-11.44 -3.0392,-0.47373 -5.7494,0.95448 -8.2333,2.3475 -6.1683,3.4595 -9.4759,-2.8016 -6.2765,-7.7399 -0.43717,0.0098 -0.87435,0.01827 -1.3101,0.02811 -0.36689,-1.3664 -0.3444,-2.8634 0.0661,-4.4899 2.9225,-0.61992 6.7334,-2.0369 10.333,-1.8879 0.0267,-3.4328 3.2936,-4.6585 9.8034,-3.6788 3.8643,0.09278 6.4326,-1.8921 7.7061,-5.9546 1.4409,1.7375 2.0973,4.9186 2.1367,7.0876 -0.84203,1.2623 -1.5069,2.6779 -1.8682,4.383 l 0.68318,0.27693 c 1.0571,-4.4308 7.3308,-6.0727 9.14,-10.25 6.3848,6.9063 5.7733,15.166 -1.5266,21.863 l 0.52433,0.5159 c 3.5846,-2.9914 5.9658,-6.046 7.0244,-9.2173 1.1372,-1.0234 2.5907,-2.6709 3.683,-3.7828 1.774,5.9082 0.54683,11.347 -3.1404,14.879 3.1516,0.05904 6.1247,-1.1316 9.2791,-3.1699 0.58618,5.4317 -1.282,10.314 -7.1776,12.628 2.8564,2.0791 5.8168,3.4187 8.9333,3.6788 -1.5168,4.7457 -5.263,6.2442 -9.6334,6.8304 1.9174,3.4609 4.7583,5.5329 8.2319,6.6561 -3.4946,4.3507 -7.4264,5.7325 -12.476,5.4106 0.52012,3.4271 3.0139,7.5824 6.1612,9.1231 -3.0363,3.2416 -7.3238,4.882 -11.398,4.2284 -0.11527,19.395 3.9726,38.287 12.494,56.371 3.5354,7.5009 2.5176,16.863 6.0656,21.931 3.8488,5.4978 10.189,4.1595 9.6235,-5.7958 -0.34721,-6.1163 -2.467,-12.429 -5.8928,-17.524 -9.2341,-13.732 -14.687,-29.056 -7.9943,-44.733 -0.81812,-3.6155 -1.3453,-8.2305 0.71129,-11.555 z"
       id="path80"
       inkscape:connector-curvature="0"
       style="fill:#003d8f;fill-rule:evenodd;stroke-width:0"
       sodipodi:nodetypes="ccccccccccccccccccccccccccccccccccccccccccccccccccccccccccccccccccccccccccccccccccccccccccccccccccccccccccccccccc" />
    <path
       d="m 307.31,34.942 c -2.1353,2.2983 0.24179,3.7659 2.7144,3.1151 1.9357,-0.50887 6.5619,-0.98822 7.2043,1.5252 0.35424,-3.6928 -3.0434,-3.444 -5.4963,-3.0799 -1.7192,0.25022 -4.1005,0.89403 -4.4224,-1.5603 z"
       id="path82"
       inkscape:connector-curvature="0"
       style="fill:#ffffff;fill-rule:evenodd" />
    <path
       d="m 314.7,40.19 c -0.10964,1.6109 -1.0191,2.9914 -2.3504,3.5312 -1.14,-0.64382 -1.8092,-2.1746 -1.9933,-3.6745 -0.68599,1.1175 -0.70286,2.4122 -0.37814,3.7336 -1.4324,-0.49341 -2.4361,-1.9174 -2.3644,-3.5902 0.0858,-1.9792 7.2226,-2.0327 7.0862,0 z"
       id="path84"
       inkscape:connector-curvature="0"
       style="fill:#ffffff;fill-rule:evenodd" />
    <path
       d="m 331.91,33.946 c -1.0135,3.8334 -4.4336,4.2368 -6.2315,7.664 1.7417,1.2834 2.744,2.945 3.3414,4.9537 l -0.47232,0.83359 c -0.31628,-1.8246 -3.1038,-4.6389 -4.8441,-5.3066 1.6124,-4.9017 7.0497,-5.2096 7.9606,-8.7941 l 0.246,0.64944 z"
       id="path86"
       inkscape:connector-curvature="0"
       style="fill:#ffffff;fill-rule:evenodd" />
    <g
       transform="matrix(1.4057143,0,0,1.4057143,-174.39399,-448.0483)"
       id="g118"
       style="fill:#ffcd50;fill-rule:evenodd">
      <path
         d="m 355.71,504.04 c 0,0 2.401,-3.554 0.59,-6.942 -2.91,-5.539 -4.457,2.905 -3.318,3.325 2.931,0.774 2.728,3.617 2.728,3.617 z"
         id="path88"
         inkscape:connector-curvature="0" />
      <path
         d="m 337.68,508.16 c 0,0 -2.943,-3.12 -1.703,-6.755 1.977,-5.936 4.867,2.147 3.811,2.745 -2.767,1.238 -2.108,4.01 -2.108,4.01 z"
         id="path90"
         inkscape:connector-curvature="0" />
      <path
         d="m 326.68,503.73 c 0,0 -1.163,-4.129 1.62,-6.776 4.503,-4.345 3.319,4.158 2.106,4.198 -3.025,-0.185 -3.726,2.578 -3.726,2.578 z"
         id="path92"
         inkscape:connector-curvature="0" />
      <path
         d="m 323.62,495.85 c 0,0 -0.451,-4.265 2.739,-6.405 5.171,-3.524 2.57,4.658 1.368,4.493 -2.952,-0.693 -4.107,1.912 -4.107,1.912 z"
         id="path94"
         inkscape:connector-curvature="0" />
      <path
         d="m 316.95,452.52 c 0,0 4.028,-1.476 6.88,1.097 4.677,4.156 -3.892,3.627 -4.025,2.421 -0.047,-3.031 -2.855,-3.518 -2.855,-3.518 z"
         id="path96"
         inkscape:connector-curvature="0" />
      <path
         d="m 317.77,474.85 c 0,0 4.247,0.6 6.498,-2.512 3.703,-5.044 -4.565,-2.733 -4.443,-1.525 0.589,2.974 -2.055,4.037 -2.055,4.037 z"
         id="path98"
         inkscape:connector-curvature="0" />
      <path
         d="m 318.05,440.67 c 0,0 4.28,-0.283 6.294,2.987 3.319,5.305 -4.755,2.387 -4.543,1.192 0.807,-2.922 -1.751,-4.179 -1.751,-4.179 z"
         id="path100"
         inkscape:connector-curvature="0" />
      <path
         d="m 298.66,415.56 c 0,0 1.735,-3.923 5.566,-4.189 6.239,-0.479 -0.091,5.319 -1.052,4.577 -2.214,-2.071 -4.514,-0.388 -4.514,-0.388 z"
         id="path102"
         inkscape:connector-curvature="0" />
      <path
         d="m 301.78,428.03 c 0,0 -10e-4,-4.289 3.396,-6.082 5.512,-2.962 2.067,4.901 0.889,4.611 -2.862,-0.998 -4.285,1.471 -4.285,1.471 z"
         id="path104"
         inkscape:connector-curvature="0" />
      <path
         d="m 320.22,431.23 c 0,0 3.618,-2.304 3.305,-6.133 -0.464,-6.24 -5.245,0.891 -4.367,1.729 2.38,1.877 1.062,4.404 1.062,4.404 z"
         id="path106"
         inkscape:connector-curvature="0" />
      <path
         d="m 313.86,433.3 c 0,0 -3.105,-2.959 -2.059,-6.655 1.661,-6.033 4.975,1.887 3.951,2.54 -2.697,1.382 -1.892,4.115 -1.892,4.115 z"
         id="path108"
         inkscape:connector-curvature="0" />
    </g>
  </g>
  <path
     d="m78.123,101.5-18.027,0m45.815,0-18.027,0m45.817,0-18.027,0m45.817,0-18.027,0"
     stroke="#55000f"
     stroke-miterlimit="4"
     stroke-dasharray="none"
     stroke-width="1"
     fill="none"
     id="path122" />
  <path
     d="m161.47,116.05-101.36,0"
     stroke="#55000f"
     stroke-miterlimit="4"
     stroke-dasharray="none"
     stroke-width="1"
     fill="none"
     id="path124" />
  <path
     stroke-linejoin="miter"
     d="m131.7,29.909,15.518,0m-44.182,0,15.518,0m-44.185,0,15.518,0"
     stroke="#500"
     stroke-linecap="butt"
     stroke-dasharray="none"
     stroke-miterlimit="4"
     stroke-width="1"
     fill="none"
     id="path126" />
</svg>
