<?xml version="1.0" encoding="UTF-8" standalone="no"?>
<!-- Created with Inkscape (http://www.inkscape.org/) -->

<svg
   xmlns:dc="http://purl.org/dc/elements/1.1/"
   xmlns:cc="http://creativecommons.org/ns#"
   xmlns:rdf="http://www.w3.org/1999/02/22-rdf-syntax-ns#"
   xmlns:svg="http://www.w3.org/2000/svg"
   xmlns="http://www.w3.org/2000/svg"
   xmlns:xlink="http://www.w3.org/1999/xlink"
   xmlns:sodipodi="http://sodipodi.sourceforge.net/DTD/sodipodi-0.dtd"
   xmlns:inkscape="http://www.inkscape.org/namespaces/inkscape"
   height="300"
   width="248"
   version="1.0"
   id="svg68"
   sodipodi:docname="Gästrikland_vapen_.svg"
   inkscape:version="0.92.3 (2405546, 2018-03-11)">
  <sodipodi:namedview
     pagecolor="#ffffff"
     bordercolor="#666666"
     borderopacity="1"
     objecttolerance="10"
     gridtolerance="10"
     guidetolerance="10"
     inkscape:pageopacity="0"
     inkscape:pageshadow="2"
     inkscape:window-width="1920"
     inkscape:window-height="1017"
     id="namedview70"
     showgrid="false"
     inkscape:zoom="2.2250293"
     inkscape:cx="109.80818"
     inkscape:cy="106.87257"
     inkscape:window-x="-4"
     inkscape:window-y="-4"
     inkscape:window-maximized="1"
     inkscape:current-layer="svg68" />
  <defs
     id="defs7">
    <radialGradient
       id="radialGradient4717"
       gradientUnits="userSpaceOnUse"
       cy="86.199"
       cx="14.366"
       gradientTransform="matrix(1.723395,0,0,1.723395,-1.85495,-130.21918)"
       r="6.9628">
      <stop
         stop-color="#59F"
         offset="0"
         id="stop2" />
      <stop
         stop-color="#003d8f"
         offset="1"
         id="stop4" />
    </radialGradient>
  </defs>
  <metadata
     id="metadata9">
    <rdf:RDF>
      <cc:Work
         rdf:about="">
        <dc:format>image/svg+xml</dc:format>
        <dc:type
           rdf:resource="http://purl.org/dc/dcmitype/StillImage" />
        <dc:title />
      </cc:Work>
    </rdf:RDF>
  </metadata>
  <path
     d="m247,1.0001,0,214.77c0,82.42-84.912,44.012-123,82.791-38.089-38.77-123-0.37-123-82.79v-214.77z"
     stroke="#000"
     stroke-dasharray="none"
     stroke-miterlimit="4"
     stroke-width="2"
     fill="#FFF"
     id="path11" />
  <g
     transform="translate(-5e-6,0)"
     id="g36">
    <path
       id="path4488-9"
       d="m37.933,22.386a12,12,0,0,1,-24,0,12,12,0,1,1,24,0z"
       fill="url(#radialGradient4717)"
       style="fill:#003d8f;fill-opacity:1" />
    <use
       xlink:href="#path4488-9"
       transform="translate(98.066928,0)"
       height="300"
       width="248"
       y="0"
       x="0"
       id="use14" />
    <use
       xlink:href="#path4488-9"
       transform="translate(196.13384,0)"
       height="300"
       width="248"
       y="0"
       x="0"
       id="use16" />
    <use
       xlink:href="#path4488-9"
       transform="translate(196.13385,190.60048)"
       height="300"
       width="248"
       y="0"
       x="0"
       id="use18" />
    <use
       xlink:href="#path4488-9"
       transform="translate(8.01097,190.60048)"
       height="300"
       width="248"
       y="0"
       x="0"
       id="use20" />
    <use
       xlink:href="#path4488-9"
       transform="translate(147.10038,47.650125)"
       height="300"
       width="248"
       y="0"
       x="0"
       id="use22" />
    <use
       xlink:href="#path4488-9"
       transform="translate(49.033461,142.95036)"
       height="300"
       width="248"
       y="0"
       x="0"
       id="use24" />
    <use
       xlink:href="#path4488-9"
       transform="translate(52.026325,238.2506)"
       height="300"
       width="248"
       y="0"
       x="0"
       id="use26" />
    <use
       xlink:href="#path4488-9"
       transform="translate(147.10038,236.3186)"
       height="300"
       width="248"
       y="0"
       x="0"
       id="use28" />
    <use
       xlink:href="#path4488-9"
       transform="translate(8.0109745,95.300241)"
       height="300"
       width="248"
       y="0"
       x="0"
       id="use30" />
    <use
       xlink:href="#path4488-9"
       transform="translate(98.066928,190.60048)"
       height="300"
       width="248"
       y="0"
       x="0"
       id="use32" />
    <use
       xlink:href="#path4488-9"
       transform="translate(147.10038,142.95036)"
       height="300"
       width="248"
       y="0"
       x="0"
       id="use34" />
  </g>
  <path
     fill-rule="evenodd"
     fill="#1352b4"
     d="m232.78,114.55c0,5.796-4.7706,10.538-10.711,10.538-5.9407,0-10.711-4.7422-10.711-10.538,0-5.796,4.7706-10.45,10.711-10.45,5.9407,0,10.711,4.6544,10.711,10.45z"
     id="path38" />
  <path
     d="m92.052,148.29c-3.0116-12.513-2.1603-26.169,0.7826-38.57l0.76509,0.15127c-2.6478,13.497-1.9515,29.325,2.7628,42.511,2.9716,8.3085,7.3984,16.141,8.4323,25.154,0.57382,4.9719-0.47881,10.23,0,16.158,0.38255,4.9718,1.6252,9.2736,1.7215,14.437,0.23503,10.274-0.86761,21.324-3.4804,31.193-1.2764,4.8268-3.2179,9.0036-6.177,12.898,2.2628,0.60633,3.2304,2.1003,4.1568,3.5279,1.1464,1.7677,2.1728,1.9415,3.963,1.669,0.31129-2.1178,0.3663-4.7393,0.94762-6.087,0.79509-1.8415,2.7203-1.7765,2.9191,0.0288,0.29129,2.6053,2.434,2.1715,3.1966-0.83385,0.90011-2.8204,0.49506-6.342,0.51506-9.4974,0.065-10.828,0.62633-21.52,0.93762-32.229,0.19127-6.5008,1.6264-9.6562,2.4866-15.584,0.8601-4.8756,0.57382-11.09-0.38255-15.967-0.69133-3.4117-0.27003-6.9608,0.46131-10.523,0.8226-4.9806,1.1864-10.106,1.6477-15.137,0.35629-3.8617,0.16002-7.3472-3.4604-9.5749l0.40755-0.66383c4.7406,2.9166,5.5319,6.0957,5.3932,10.338-0.0725,2.2053-0.20502,4.4405-0.4013,6.6783,4.5856-4.3068,8.4348-8.441,8.5836-15.014,0.18752-8.2285,1.7602-14.239,3.818-21.169l0.75509,0.18252c-1.8027,6.402-2.059,13.664-2.0878,20.841-0.0238,5.8245-2.7128,10.065-6.2483,13.947,5.9845,0.20128,10.933-0.0725,16.866-1.0364,10.704-1.7402,21.346-4.2905,31.384-6.2483,1.8002-0.37505,2.1915,1.8365,3.4279,2.7166,4.9006-0.53382,9.4312-4.5193,14.377-5.0681-1.6089-4.3293-2.5253-8.8411-1.9952-13.247,0.77759-6.4645,4.5706-12.614,1.8965-18.726l0.73009-0.31754c2.7616,6.3108,0.66133,12.669-0.15127,19.171-1.1139,8.9348,4.263,18.383,8.7586,25.542,4.9369,7.861,13.249,17.69,16.651,25.941,2.0077,5.0631,0.76509,11.176,0,16.429-0.76509,6.0182-2.199,11.654-3.4417,17.385-1.7202,7.7384-4.398,15.762-9.4662,22.163-1.1651,1.5514-3.0779,4.1242-4.8743,6.4795,2.4115,0.56882,3.4092,2.1115,4.363,3.5804,1.2464,1.9227,2.419,1.9177,4.273,1.6164,0.56882-1.7965,0.81885-3.2104,0.92011-3.9955,0.33879-2.5941,2.249-3.8517,3.2679-1.1976,0.74509,1.9402,2.3228,1.3952,3.1254-1.0664,0.85135-2.6066,1.1276-5.9445,1.5452-8.666,2.3916-13.182,6.1208-25.503,10.04-37.922,1.9127-6.2083,4.2068-12.13,4.3018-17.957,0.28753-7.0696-4.1105-7.7384-6.3095-11.559-1.2439-2.1015-1.7215-5.2531-1.6252-8.9786,0.28754-6.3045,1.9127-9.1711,4.5893-14.328,1.8165-3.7254,2.9629-7.7384,3.728-11.75,1.0864-5.4269,2.6091-17.418-1.1439-21.976l0.61507-0.50506c0.70384,0.85261,2.0878,2.5991,3.3979,1.944,2.199-1.1451,1.1476-5.1581-0.95636-7.7372-6.9796-8.596-15.489-15.283-28.013-16.62-14.054-1.6252-27.728-1.3377-41.973-1.8165-11.76-0.3813-16.83-4.168-23.235-8.9436-6.597-4.8718-12.363-7.5884-19.311-8.441-18.831-2.3065-20.194,7.6084-39.341-7.1184,1.3427-1.0164,3.7655-2.9466,5.3381-5.0781,2.6666-3.6142,1.2026-7.9372-3.7492-7.7197-3.4829,0.15627-9.4699,0.48006-14.124,1.9552-3.4117,1.0776-5.9232,1.9177-6.1557,5.9632-0.05501,0.97137-0.24503,2.0803-0.77759,2.8954-1.5477,2.3703-7.1971,3.0491-8.5035,0.21503-0.55257-1.1989-0.52006-2.344-1.3252-3.4992-5.5669,1.6127-11.098,3.7642-16.598,4.7506-12.84,3.2842-26.502,5.7282-27.813,20.634,0.045006,0.8376,0.058757,1.679,0.20377,2.4666,3.3342,0.06001,5.3932-1.2577,6.7058-4.2718,0.14752-1.2101,3.0366-1.0876,2.7028,0.62758-0.95387,2.8178-3.998,6.9208-7.4159,6.567,0.68383,0.8051,2.2153,1.3189,3.4242,1.2727,3.3492-2.8616,7.8622-5.7745,12.614-4.5693,1.1476,0.29128,0.94512,2.8291-0.51006,2.4528-3.8917-1.0076-7.5184,0.70884-10.19,2.9054,2.9566,3.1804,5.5594,3.9655,10.41,1.2614,0.4213-0.23378,0.82635-0.51006,1.2239-0.80135,2.5216,0.87636,2.1803,3.3792,2.3703,5.5607,0.53256,7.8122,0.07376,15.643,6.9896,16.481,0.58257-2.6328,1.7452-5.2456,3.3492-7.8422v-0.001l0.025-0.0388,0.67758,0.4213-0.02375,0.0388-0.0012-0.001c-3.3029,5.3532-2.4253,14.856,0.97012,19.895,0.57882,0.86011,4.153,5.3444,6.057-2.7466,1.1476-5.5407,1.4339-10.221,2.294-15.284,0.76509-4.488,0.95637-9.0748,0.76509-13.659,5.3932,7.2296,13.458,20.4,25.119,24.833-0.10751-2.6591,0.15377-5.6719,0.45506-8.216-8.052-2.28-15.676-8.38-18.698-15.428l-0.0088-0.0225,0.73009-0.31504,0.01,0.02375,0.0012,0.0025c2.8216,6.5883,13.82,12.397,20.519,13.707-2.2128,12.221,3.3942,29.694,14.063,37.978zm30.041,11.325c-0.94011,0.93262-1.9065,1.8602-2.8754,2.7991-0.23753,1.9227-0.52631,3.8305-0.86885,5.7032,2.304,6.1495,3.2466,13.332,4.5168,19.197,1.0514,4.8718,2.7716,9.0748,3.5367,14.138,2.2753,15.038,4.3368,36.052-1.0414,45.392,2.3253,0.59007,3.3054,2.104,4.243,3.5492,1.1839,1.8252,2.2465,1.944,4.1155,1.6452,0.32754-2.194-0.58883-4.6418-0.12752-6.6471,0.4513-1.9565,2.3565-2.2353,2.8778-0.49756,0.75384,2.5116,2.7841,1.6965,2.9929-1.3952,0.3763-2.9366-0.65633-6.3283-1.2064-9.4362-1.5664-8.8598-3.4292-22.24-4.3968-32.419-0.66883-6.4008-0.38254-9.1711-0.28628-15.189,0.0963-3.0566-0.38255-6.1132-1.0514-9.1686,0.4288-5.6669-0.0675-11.486-0.86511-17.391-3.1879,0.015-6.3758-0.33004-9.5637-0.28004zm59.095-5.4557c0.90386,4.2405,2.3903,7.2446,3.9592,9.9437,8.5085,15.379,6.2145,19.869-0.66883,36.489-2.8691,7.6422-6.9796,14.902-11.856,22.734-4.1943,6.7633-9.89,15.099-13.73,20.105,2.3315,0.58883,3.3129,2.1078,4.2518,3.5542,1.3014,2.0065,2.5653,1.9077,4.468,1.5839,0.58632-1.829,0.85635-3.9092,1.1764-5.2956,0.4513-1.959,2.354-2.2378,2.8766-0.49881,0.75759,2.5141,2.6191,1.6965,3.5392-1.3952,2.2953-17.863,13.768-29.135,24.667-44.513,6.1195-5.1581,8.7961-12.323,6.502-18.436l-0.37255-3.5842c-2.424-5.2631-5.2494-8.6898-8.3298-13.592-2.1453-3.4154-4.4393-7.3046-6.212-11.411-3.4017,0.04-6.8333,2.8028-10.27,4.3155z"
     stroke="#FFF"
     stroke-miterlimit="4"
     stroke-dasharray="none"
     stroke-width="3.2"
     fill="none"
     id="path40" />
  <path
     d="m92.052,148.29c-3.0116-12.513-2.1603-26.169,0.78259-38.57l0.7651,0.15127c-2.6478,13.497-1.9515,29.325,2.7628,42.511,2.9716,8.3085,7.3984,16.141,8.4323,25.154,0.57382,4.9719-0.47881,10.23,0,16.158,0.38255,4.9718,1.6252,9.2736,1.7215,14.437,0.23503,10.274-0.86761,21.324-3.4804,31.193-1.2764,4.8268-3.2179,9.0036-6.177,12.898,2.2628,0.60633,3.2304,2.1003,4.1568,3.5279,1.1464,1.7677,2.1728,1.9415,3.963,1.669,0.31129-2.1178,0.3663-4.7393,0.94762-6.087,0.79509-1.8415,2.7203-1.7765,2.9191,0.0288,0.29129,2.6053,2.434,2.1715,3.1966-0.83385,0.90011-2.8204,0.49506-6.342,0.51506-9.4974,0.065-10.828,0.62633-21.52,0.93762-32.229,0.19127-6.5008,1.6264-9.6562,2.4866-15.584,0.8601-4.8756,0.57382-11.09-0.38255-15.967-0.69133-3.4117-0.27003-6.9608,0.46131-10.523,0.8226-4.9806,1.1864-10.106,1.6477-15.137,0.35629-3.8617,0.16002-7.3472-3.4604-9.5749l0.40755-0.66383c4.7406,2.9166,5.5319,6.0957,5.3932,10.338-0.0725,2.2053-0.20502,4.4405-0.4013,6.6783,4.5856-4.3068,8.4348-8.441,8.5836-15.014,0.18752-8.2285,1.7602-14.239,3.818-21.169l0.75509,0.18252c-1.8027,6.402-2.059,13.664-2.0878,20.841-0.0238,5.8245-2.7128,10.065-6.2483,13.947,5.9845,0.20128,10.933-0.0725,16.866-1.0364,10.704-1.7402,21.346-4.2905,31.384-6.2483,1.8002-0.37505,2.1915,1.8365,3.4279,2.7166,4.9006-0.53382,9.4312-4.5193,14.377-5.0681-1.6089-4.3293-2.5253-8.8411-1.9952-13.247,0.77759-6.4645,4.5706-12.614,1.8965-18.726l0.73009-0.31754c2.7616,6.3108,0.66133,12.669-0.15127,19.171-1.1139,8.9348,4.263,18.383,8.7586,25.542,4.9369,7.861,13.249,17.69,16.651,25.941,2.0077,5.0631,0.76509,11.176,0,16.429-0.76509,6.0182-2.199,11.654-3.4417,17.385-1.7202,7.7384-4.398,15.762-9.4662,22.163-1.1651,1.5514-3.0779,4.1242-4.8743,6.4795,2.4115,0.56882,3.4092,2.1115,4.363,3.5804,1.2464,1.9227,2.419,1.9177,4.273,1.6164,0.56882-1.7965,0.81885-3.2104,0.92011-3.9955,0.33879-2.5941,2.249-3.8517,3.2679-1.1976,0.74509,1.9402,2.3228,1.3952,3.1254-1.0664,0.85135-2.6066,1.1276-5.9445,1.5452-8.666,2.3916-13.182,6.1208-25.503,10.04-37.922,1.9127-6.2083,4.2068-12.13,4.3018-17.957,0.28753-7.0696-4.1105-7.7384-6.3095-11.559-1.2439-2.1015-1.7215-5.2531-1.6252-8.9786,0.28754-6.3045,1.9127-9.1711,4.5893-14.328,1.8165-3.7254,2.9629-7.7384,3.728-11.75,1.0864-5.4269,2.6091-17.418-1.1439-21.976l0.61507-0.50506c0.70384,0.85261,2.0878,2.5991,3.3979,1.944,2.199-1.1451,1.1476-5.1581-0.95636-7.7372-6.9796-8.596-15.489-15.283-28.013-16.62-14.054-1.6252-27.728-1.3377-41.973-1.8165-11.76-0.3813-16.83-4.168-23.235-8.9436-6.597-4.8718-12.363-7.5884-19.311-8.441-18.831-2.3065-20.194,7.6084-39.341-7.1184,1.3427-1.0164,3.7655-2.9466,5.3382-5.0781,2.6666-3.6142,1.2026-7.9372-3.7492-7.7197-3.4829,0.15627-9.4699,0.48006-14.124,1.9552-3.4117,1.0776-5.9232,1.9177-6.1558,5.9632-0.055,0.97137-0.24503,2.0803-0.77759,2.8954-1.5477,2.3703-7.1971,3.0491-8.5035,0.21502-0.593-1.172-0.561-2.317-1.366-3.472-5.567,1.612-11.098,3.764-16.598,4.75-12.841,3.284-26.502,5.728-27.814,20.634,0.045,0.83761,0.0588,1.679,0.20377,2.4666,3.3342,0.06,5.3932-1.2576,6.7058-4.2718,0.14752-1.2101,3.0366-1.0876,2.7028,0.62758-0.95387,2.8178-3.998,6.9208-7.4159,6.567,0.68383,0.8051,2.2153,1.3189,3.4242,1.2726,3.3492-2.8616,7.8622-5.7744,12.614-4.5693,1.1476,0.29128,0.94511,2.8291-0.51006,2.4528-3.8917-1.0076-7.5184,0.70883-10.19,2.9054,2.9566,3.1804,5.5594,3.9655,10.41,1.2614,0.4213-0.23378,0.82635-0.51006,1.2239-0.80134,2.5216,0.87635,2.1803,3.3792,2.3703,5.5607,0.53256,7.8122,0.0738,15.643,6.9896,16.481,0.58257-2.6328,1.7452-5.2456,3.3492-7.8422v-0.001l0.025-0.0388,0.67758,0.4213-0.0238,0.0388-0.001-0.001c-3.3029,5.3532-2.4253,14.856,0.97012,19.895,0.57882,0.86011,4.153,5.3444,6.057-2.7466,1.1476-5.5407,1.4339-10.221,2.294-15.284,0.76509-4.488,0.95637-9.0748,0.76509-13.659,5.3932,7.2296,13.458,20.4,25.119,24.833-0.10752-2.6591,0.15377-5.6719,0.45505-8.216-8.009-2.3-15.634-8.4-18.656-15.448l-0.009-0.0225,0.73008-0.31504,0.01,0.0238,0.001,0.002c2.8216,6.5883,13.82,12.397,20.519,13.707-2.2128,12.221,3.3942,29.694,14.063,37.978zm30.041,11.325c-0.94011,0.93262-1.9065,1.8602-2.8754,2.7991-0.23753,1.9227-0.52631,3.8305-0.86885,5.7032,2.304,6.1495,3.2466,13.332,4.5168,19.197,1.0514,4.8718,2.7716,9.0748,3.5367,14.138,2.2753,15.038,4.3368,36.052-1.0414,45.392,2.3253,0.59007,3.3054,2.104,4.243,3.5492,1.1839,1.8252,2.2465,1.944,4.1155,1.6452,0.32754-2.194-0.58883-4.6418-0.12752-6.6471,0.4513-1.9565,2.3565-2.2353,2.8778-0.49756,0.75384,2.5116,2.7841,1.6965,2.9929-1.3952,0.3763-2.9366-0.65633-6.3283-1.2064-9.4362-1.5664-8.8598-3.4292-22.24-4.3968-32.419-0.66883-6.4008-0.38254-9.1711-0.28628-15.189,0.0963-3.0566-0.38255-6.1132-1.0514-9.1686,0.4288-5.6669-0.0675-11.486-0.86511-17.391-3.1879,0.015-6.3758-0.33004-9.5637-0.28004zm59.095-5.4557c0.90386,4.2405,2.3903,7.2446,3.9592,9.9437,8.5085,15.379,6.2145,19.869-0.66883,36.489-2.8691,7.6422-6.9796,14.902-11.856,22.734-4.1943,6.7633-9.89,15.099-13.73,20.105,2.3315,0.58883,3.3129,2.1078,4.2518,3.5542,1.3014,2.0065,2.5653,1.9077,4.468,1.5839,0.58632-1.829,0.85635-3.9092,1.1764-5.2956,0.4513-1.959,2.354-2.2378,2.8766-0.49881,0.75759,2.5141,2.6191,1.6965,3.5392-1.3952,2.2953-17.863,13.768-29.135,24.667-44.513,6.1195-5.1581,8.7961-12.323,6.502-18.436l-0.37255-3.5842c-2.424-5.2631-5.2494-8.6898-8.3298-13.592-2.1453-3.4154-4.4393-7.3046-6.212-11.411-3.4017,0.04-6.8333,2.8028-10.27,4.3155z"
     fill-rule="evenodd"
     stroke-width="0"
     fill="#d40000"
     id="path42" />
  <path
     d="M79.548,7.966c-0.731,3.379-0.696,10.034-0.48,13.59,0.15377,2.8641,0.83385,4.453,4.8206,3.5367,3.5429-1.6902,5.2806-5.7632,7.5397-8.9586,1.8677-2.6841,3.2391-5.8482,5.0331-8.6411,0.68258-1.0489,1.4939-1.1914,0.92636,0.26628-0.7826,2.1053-1.3914,4.3368-2.2878,6.5158-0.98762,2.1615-2.1778,7.9985-1.3302,9.2361,1.0939,1.4702,3.1854-0.29004,4.118-1.0951,3.6042-2.5553,5.5069-6.9896,7.3046-10.859,0.27878-0.43755,0.4263-0.70008,0.66633-0.95012,0.8151-1.2189,0.86135-0.42505,0.55632,0.69008-0.56757,2.5303-0.34755,3.4529-1.3914,5.8995-0.51257,1.1739-0.47506,2.5491,0.44255,3.4029,2.4466,2.6066,6.1145-2.3778,8.1585-4.9331,1.1676-1.5402,1.6827-2.2265,1.0214,0.28878-0.3763,1.4927-1.0376,2.9354-1.7127,4.4705-2.2928,4.9469-4.6918,8.9011-7.961,12.79-4.7868,5.757-9.8312,10.779-16.128,14.107-4.2343,2.2415-8.8798,3.0366-13.393,4.1505-4.4018,1.0414-11.006,2.3565-13.423,6.4033-0.55132,0.87261-0.8576,1.9877-0.8226,3.3642-0.05876,2.4315-6.6483,3.6492-7.1171,0.92386-0.50881-3.0266-2.329-4.8318-4.5918-6.327-4.8143-3.0466-10.14-4.9143-14.804-8.2272-4.6368-2.424-8.9936-5.2881-11.706-9.1161-2.249-3.1541-3.1866-7.0421-3.0416-11.511,0.08251-2.5291,0.3813-2.5691,0.8301-0.23628,1.0201,4.4893,3.983,10.122,7.0946,12.853,2.2703,1.9865,2.5003,0.75634,1.6202-1.3602-1.0889-2.5478-2.2915-5.0181-2.7441-7.8422-0.70884-5.1169-0.0075-10.46,1.3152-14.418,0.70759-2.214,0.7951-1.1214,0.70509,0.42755-0.86386,7.2659-0.12002,13.759,2.9366,19.409,0.29128,0.54257,2.304,4.4355,3.5842,5.4544,2.4428,2.114,1.1889-1.1464,0.74134-2.4028-0.80135-2.0065-1.3914-5.1444-1.4727-7.3134-0.16377-2.2765,0.16252-4.5606,1.1114-7.0234,1.6877-3.3017,1.4314-2.9604,1.0039,0.3838-0.49881,3.718-0.26378,7.1821,1.0214,10.256,0.60757,1.4789,2.3028,5.5107,4.2255,8.311,1.8652,2.5953,5.1606,4.8668,8.1622,2.399,0.91511-0.71134,1.724-5.0556,2.264-6.9096,0.4388-1.2864,0.73384-2.8941,1.0614-2.5391,0.49631,0.48256,0.20628,4.143,0.46256,4.8743,0.73009,2.3828,2.8854,1.3177,3.828-0.07126,1.8327-2.4941,2.5616-5.877,3.0054-9.3149,0.72509-6.5095,0.11626-13.754,0.18252-18.829,0-4.2043,0.4288-3.3404,1.2402-0.35629,0.28128,1.1276,0.44506,2.3315,0.51756,3.5179,0.29879,5.2356,0.85886,10.62,1.2514,15.871,0.24128,3.953,1.9377,5.3469,3.9742,3.868,3.4929-2.4766,5.9645-8.3723,7.6484-12.163,1.5689-4.2043,1.5064-8.6148,2.0165-12.919,0.15002-1.3402,0.41505-2.7578,1.2101-3.8805,1.3689-2.0878,1.5089-1.2814,0.80635,0.93636z"
     fill-rule="evenodd"
     fill="#ffcd50"
     id="path44" />
  <path
     d="m45.942,65.883c1.6027-0.24503,3.0829,0.49631,3.3054,1.654,0.22253,1.1564-0.89761,2.2953-2.4991,2.5403-1.6027,0.24503-3.0841-0.49506-3.3067-1.6527-0.22253-1.1576,0.89761-2.2965,2.5003-2.5416z"
     fill-rule="evenodd"
     stroke="#FFF"
     stroke-width="1.41749728"
     fill="#d40000"
     id="path46" />
  <path
     d="m44.907,66.162c0.51756-0.08001,1.0089,0.23003,1.0976,0.69133,0.08876,0.46131-0.25878,0.90011-0.77634,0.97887-0.51631,0.07876-1.0089-0.23128-1.0964-0.69258-0.08876-0.46131,0.25878-0.89886,0.77509-0.97762z"
     fill-rule="evenodd"
     fill="#FFF"
     id="path48" />
  <path
     d="m47.041,65.182c1.7152,0.08626,3.4354,1.1426,3.8092,2.179l-1.5977,0.24378c-0.40755-0.64633-1.3114-1.1689-2.2953-1.2727-1.4752-0.15627-2.9541,0.78384-3.2154,2.1165l-3.8692,0.59132-0.09251-0.47506,3.0066-1.2314c0.69384-1.4477,2.5441-2.2378,4.2543-2.1515z"
     fill-rule="evenodd"
     fill="#FFF"
     id="path50" />
  <path
     d="m226.88,186.46-0.68758-0.40255c2.4653-4.188-3.9155-11.355-6.6458-14.024l0.56007-0.56757c2.5841,2.5278,4.6143,2.8766,6.8171,6.0507,2.4415,3.5229,2.024,5.4332-0.0438,8.9436zm-113.52-101c7.7634-0.77509,11.825,1.9515,17.165,5.5632l-0.44505,0.66133c-4.1743-2.8203-11.123-4.3705-16.464-3.8417-5.3556,0.52756-11.916,3.5004-15.086,7.1609l-0.01,0.01125-0.60632-0.51756,0.01-0.01125,0.0012-0.0013c4.3418-5.0144,7.8697-8.2698,15.436-9.0248zm-28.839-29.246c-4.2843,0.4313-11.474,1.7802-15.362,4.7368-1.5139,1.1514-2.1653,2.4703-2.1403,4.6131-2.8854-2.0077-1.5714-4.6081,0.62258-6.2945,4.368-3.3604,12.259-3.6004,16.88-3.8592v0.80385zm-10.102,12.194c3.1529-1.5164,12.787-7.4184,12.857-11.686,0.015-0.93761-0.46881-2.1103-1.4702-2.5653-3.9705-1.804-16.207,0.93636-19.625,2.7428-3.2679,1.7265-1.7852,4.4668-4.3843,6.6633l-0.53757-0.59007c0.55382-0.50381,0.62883-1.1964,0.67133-1.914,0.17752-3.0479,0.88386-4.493,3.5504-5.8382,4.6381-2.3378,15.687-5.3869,20.985-3.4829,2.114,0.76009,3.1479,2.8153,3.1804,4.7231,0.09626,5.9882-9.1811,11.201-13.708,13.378-9.4724,4.5581-6.8533-0.96762-12.858-2.234l0.16252-0.7801c5.2169,1.0989,4.8018,4.6518,11.176,1.5839zm-27.556,25.211c-4.568-0.317-14.427-3.598-17.851-1.266l-0.4488-0.65758c5.0944-3.4704,13.027-0.8026,18.75-0.44255,5.5832,0.35129,12.211-0.37755,13.984-5.8095l0.76009,0.24503c-2.2678,6.9396-7.6747,8.4573-15.194,7.931zm-18.708-14.315c-2.6978,0.4188-3.1941,1.1014-4.073,3.7004l-0.756-0.252c1.0789-3.1979,0.36129-5.1694,4.4618-5.807,2.9529-0.46006,7.8797-1.6727,9.9-2.9829l0.43255,0.66758c-3.4679,2.249-4.2568,3.7855-9.9662,4.6743z"
     fill-rule="evenodd"
     fill="#FFF"
     id="path52" />
  <path
     d="m206.6,255.27-1.3227,3.2679c-3.858,1.8402-7.9972,2.8153-12.028,2.8528l2.6316-5.6994-5.6407,5.5507c-0.71134-0.0788-1.4177-0.18877-2.114-0.33129l9.5924-11.123c4.8106,0.69258,3.3629,6.4358,8.8811,5.4819z"
     fill-rule="evenodd"
     fill="#ffcd50"
     id="path54" />
  <path
     d="m206.6,255.27-1.3227,3.2679c-3.858,1.8402-7.9972,2.8153-12.028,2.8528l2.6316-5.6994-5.6407,5.5507c-0.71134-0.0788-1.4177-0.18877-2.114-0.33129l9.5924-11.123c4.8106,0.69258,3.3629,6.4358,8.8811,5.4819z"
     fill-rule="evenodd"
     fill="#ffcd50"
     id="path56" />
  <path
     d="m166.75,250.33-1.3227,3.2666c-3.858,1.8402-7.9985,2.8166-12.028,2.8541l2.6316-5.7007-5.6407,5.5507c-0.71258-0.0788-1.4189-0.18752-2.114-0.33004l9.5924-11.123c4.8106,0.69258,3.3629,6.4358,8.8811,5.4819z"
     fill-rule="evenodd"
     fill="#ffcd50"
     id="path58" />
  <path
     d="m166.75,250.33-1.3227,3.2666c-3.858,1.8402-7.9985,2.8166-12.028,2.8541l2.6316-5.7007-5.6407,5.5507c-0.71258-0.0788-1.4189-0.18752-2.114-0.33004l9.5924-11.123c4.8106,0.69258,3.3629,6.4358,8.8811,5.4819z"
     fill-rule="evenodd"
     fill="#ffcd50"
     id="path60" />
  <path
     d="m133.21,253.74-1.3214,3.2666c-3.858,1.8402-7.9985,2.8166-12.028,2.8541l2.6316-5.7007-5.6407,5.5507c-0.71258-0.0788-1.4189-0.18877-2.1152-0.33004l9.5937-11.124c4.8093,0.69384,3.3629,6.437,8.8798,5.4832z"
     fill-rule="evenodd"
     fill="#ffcd50"
     id="path62" />
  <path
     d="m104.63,259.1-1.3227,3.2679c-3.858,1.8402-7.9985,2.8153-12.028,2.8528l2.6316-5.6994-5.6407,5.5507c-0.71259-0.0788-1.4189-0.18878-2.114-0.33004l9.5924-11.124c4.8106,0.69259,3.3629,6.4358,8.8811,5.4819z"
     fill-rule="evenodd"
     fill="#ffcd50"
     id="path64" />
  <path
     d="m104.63,259.1-1.3227,3.2679c-3.858,1.8402-7.9985,2.8153-12.028,2.8528l2.6316-5.6994-5.6407,5.5507c-0.71259-0.0788-1.4189-0.18878-2.114-0.33004l9.5924-11.124c4.8106,0.69259,3.3629,6.4358,8.8811,5.4819z"
     fill-rule="evenodd"
     fill="#ffcd50"
     id="path66" />
</svg>
