<!-- Created with Inkscape (http://www.inkscape.org/) -->
<svg xmlns:rdf="http://www.w3.org/1999/02/22-rdf-syntax-ns#" xmlns="http://www.w3.org/2000/svg" height="300" width="248" version="1.0" xmlns:cc="http://creativecommons.org/ns#" xmlns:xlink="http://www.w3.org/1999/xlink" xmlns:dc="http://purl.org/dc/elements/1.1/">
 <metadata>
  <rdf:RDF>
   <cc:Work rdf:about="">
    <dc:format>image/svg+xml</dc:format>
    <dc:type rdf:resource="http://purl.org/dc/dcmitype/StillImage"/>
    <dc:title/>
   </cc:Work>
  </rdf:RDF>
 </metadata>
 <defs></defs>
 <path d="m247,1.0001,0,214.77c0,82.42-84.912,44.012-123,82.791-38.089-38.77-123-0.37-123-82.79v-214.77z" stroke="#000" stroke-miterlimit="4" stroke-dasharray="none" stroke-width="2" fill="#FFF"/>
 <path fill-rule="evenodd" fill="#000" d="M36.166,25.484,30.032,25.431,29.927,37.492c-13.261,12.508-14.335,28.395-1.935,43.454l16.509,20.05,3.5057,147.39c0.12012,5.0338,7.4423,5.0994,7.3816,0.0644l-1.883-155.45-16.674-20.021c-9.299-11.165-10.36-21.393-0.81-31.059l0.14364-16.437z"/>
 <path d="m45.389,25.484,6.1334-0.05325,0.10526,12.061c13.261,12.508,14.335,28.395,1.936,43.454l-16.509,20.054-3.506,147.38c-0.12012,5.0338-7.4423,5.0994-7.3816,0.0644l1.884-155.44,16.672-20.021c9.299-11.165,10.36-21.393,0.81-31.059l-0.143-16.437z" fill-rule="evenodd" stroke="#FFF" stroke-dasharray="none" stroke-miterlimit="4" stroke-width="3" fill="#000"/>
 <path fill="#000" d="m45.389,25.484,6.1334-0.05325,0.10526,12.061c13.261,12.508,14.335,28.395,1.936,43.454l-16.509,20.054-3.506,147.38c-0.12012,5.0338-7.4423,5.0994-7.3816,0.0644l1.884-155.44,16.672-20.021c9.299-11.165,10.36-21.393,0.81-31.059l-0.143-16.437z"/>
 <path d="m40.777,84.726c-1.3101,0-2.3726,1.0625-2.3726,2.3726,0,1.3089,1.0625,2.3714,2.3726,2.3714,1.3089,0,2.3726-1.0625,2.3726-2.3714,0-1.3101-1.0637-2.3726-2.3726-2.3726z" fill-rule="evenodd" stroke="#FFF" stroke-dasharray="none" stroke-miterlimit="4" stroke-width="1.5" fill="#000"/>
 <path d="m80.552,25.431,86.898,0,0,160.54-31.733,66.221-23.431,0-31.733-66.221,0-160.54z" fill-rule="evenodd" fill="#000"/>
 <path d="m114.32,61.176,19.355,0,0,103.39-19.355,0,0-103.39z" fill-rule="evenodd" fill="#d40000"/>
 <path d="m213.17,143.03-12.038,0c-0.19565,0-0.35292,0.14613-0.35416,0.3232l-1.1033,106.68c0,2.8828,15.047,2.8828,15.047,0l-1.2-106.68c-0.002-0.17707-0.15974-0.3232-0.35416-0.3232z" fill-rule="evenodd" fill="#d40000"/>
 <g transform="matrix(1,0,0,-1,0,277.6195)">
  <path d="m213.17,143.03-12.038,0c-0.19565,0-0.35292,0.14613-0.35416,0.3232l-1.1033,106.68c0,2.8828,15.047,2.8828,15.047,0l-1.2-106.68c-0.002-0.17707-0.15974-0.3232-0.35416-0.3232z" fill-rule="evenodd" fill="#d40000"/>
 </g>
 <path d="m230.48,131.89-37.136,0-14.731-11.264,0-7.6986,51.867,0,0,18.962z" fill-rule="evenodd" fill="#000"/>
 <path d="m183.97,145.73,37.136,0,14.731,11.264,0,7.6986-51.867,0,0-18.962z" fill-rule="evenodd" fill="#000"/>
</svg>
