<!-- Created with Inkscape (http://www.inkscape.org/) -->
<svg xmlns:rdf="http://www.w3.org/1999/02/22-rdf-syntax-ns#" xmlns="http://www.w3.org/2000/svg" height="300" width="248" version="1.0" xmlns:cc="http://creativecommons.org/ns#" xmlns:xlink="http://www.w3.org/1999/xlink" xmlns:dc="http://purl.org/dc/elements/1.1/">
 <metadata>
  <rdf:RDF>
   <cc:Work rdf:about="">
    <dc:format>image/svg+xml</dc:format>
    <dc:type rdf:resource="http://purl.org/dc/dcmitype/StillImage"/>
    <dc:title/>
   </cc:Work>
  </rdf:RDF>
 </metadata>
 <path d="m247,1.0001,0,214.77c0,82.42-84.912,44.012-123,82.791-38.089-38.77-123-0.37-123-82.79v-214.77z" stroke="#000" stroke-miterlimit="4" stroke-dasharray="none" stroke-width="2" fill="#d40000"/>
 <use xlink:href="#g3052" transform="translate(-74.637748,82.48885)" height="300" width="248" y="0" x="0"/>
 <use xlink:href="#g3052" transform="translate(74.637748,82.48885)" height="300" width="248" y="0" x="0"/>
 <g id="g3052" fill-rule="evenodd" transform="matrix(1.4163481,0,0,1.416461,-297.55831,-450.34648)" stroke="#d40000" stroke-dasharray="none" stroke-width="0.70601296">
  <path stroke-miterlimit="4" d="m297.64,342.86-15.928-10.228,4.805,18.306-14.65,11.988,18.895,1.087,6.874,17.637,6.874-17.634,18.898-1.087-14.647-11.986,4.805-18.31-15.926,10.227z" fill="#FFF"/>
  <path stroke-miterlimit="4" d="m297.64,338.04c9.111,0,16.506,7.396,16.506,16.506,0,9.111-7.395,16.506-16.506,16.506s-16.506-7.395-16.506-16.506c0-9.11,7.395-16.506,16.506-16.506z" fill="#d20000"/>
  <path stroke-miterlimit="4" d="m289.57,357.17c-0.179-0.545-1.044-0.875-2.198-0.657-1.472,0.278-3,1.55-4.215,2.32-6.48,4.108-8.628-5.189-6.688-11.159s9.142-12.229,11.97-5.097c0.53,1.338,1.019,3.265,2.046,4.355,0.806,0.855,1.701,1.096,2.165,0.758s0.51-1.263-0.053-2.293c-0.72-1.314-2.401-2.374-3.509-3.292-5.91-4.893,2.269-9.809,8.546-9.809s14.456,4.916,8.546,9.809c-1.108,0.918-2.789,1.978-3.509,3.292-0.564,1.031-0.517,1.957-0.052,2.292,0.466,0.335,1.359,0.094,2.165-0.76,1.027-1.09,1.516-3.018,2.046-4.355,2.827-7.132,10.03-0.873,11.97,5.097,1.939,5.97-0.209,15.267-6.688,11.159-1.215-0.77-2.743-2.042-4.215-2.32-1.155-0.218-2.02,0.113-2.196,0.658s0.329,1.32,1.391,1.822c1.354,0.64,3.338,0.51,4.774,0.601,7.656,0.485,3.929,9.269-1.149,12.959-5.078,3.689-14.584,4.519-12.68-2.913,0.358-1.393,1.095-3.24,0.905-4.725-0.15-1.166-0.732-1.886-1.306-1.884s-1.155,0.723-1.304,1.887c-0.19,1.486,0.547,3.333,0.904,4.726,1.905,7.432-7.601,6.602-12.68,2.912-5.078-3.69-8.805-12.474-1.148-12.959,1.436-0.091,3.42,0.04,4.773-0.6,1.063-0.503,1.569-1.279,1.389-1.824z" fill="#FFF"/>
  <path stroke-miterlimit="4" d="m314.14,364.25c-0.199,3.752-3.455,3.865-5.543,5.381-2.087,1.517-3.2,4.579-6.831,3.609m10.198-31.382c3.507,1.35,2.607,4.481,3.405,6.935,0.797,2.454,3.366,4.458,1.321,7.612m-26.695-19.396c2.368-2.919,5.068-1.096,7.648-1.096s5.28-1.823,7.647,1.096m-26.695,19.394c-2.044-3.153,0.524-5.158,1.321-7.611,0.798-2.454-0.102-5.585,3.405-6.935m10.196,31.382c-3.63,0.97-4.743-2.092-6.831-3.608-2.087-1.517-5.343-1.629-5.542-5.382" fill="none"/>
  <path stroke-miterlimit="7" d="m304.16,363.52c-3.935-7.927-4.497-7.945,4.026-12.403-8.753,1.292-8.944,1.821-10.549-7.663-1.477,8.724-1.034,9.069-10.548,7.668,7.841,4.103,8.307,3.788,4.032,12.402,6.323-6.191,6.167-6.732,13.039-0.004z" fill="#d20000"/>
  <path stroke-miterlimit="4" d="m297.64,350.34c2.323,0,4.208,1.886,4.208,4.208,0,2.323-1.885,4.208-4.208,4.208s-4.208-1.885-4.208-4.208c0-2.322,1.885-4.208,4.208-4.208z" fill="#FFF"/>
 </g>
 <use xlink:href="#g3052" transform="translate(2.3862499e-6,171.84753)" height="300" width="248" y="0" x="0"/>
 <g fill-rule="evenodd" transform="matrix(-1.4138012,0,0,1.4138012,544.79956,-449.92521)">
  <path d="m267.23,445.75c-2.086,17.635-11.86,32.817-28.981,48.238l-1.423-15.633-15.694-0.329c14.189-18.155,28.652-28.964,46.098-32.276z" stroke="#d40000" stroke-dasharray="none" stroke-miterlimit="4" stroke-width="0.707313" fill="#ffcd50"/>
  <path d="m374.14,331.11-30.418,18.678,9.248,0.699-17.433,18.694,3.317,3.093,17.433-18.694,1.342,9.177,16.511-31.647z" stroke="#d40000" stroke-dasharray="none" stroke-miterlimit="4" stroke-width="0.707313" fill="#FFF"/>
  <path fill="#d20000" d="m356.45,350.08,14.683-15.745-14.316,18.254-0.367-2.509z"/>
  <path d="m225.77,486.89,113.87-122.11,3.316,3.092-113.87,122.11-3.317-3.092z" stroke="#d40000" stroke-dasharray="none" stroke-miterlimit="4" stroke-width="0.707313" fill="#ffcd50"/>
 </g>
 <g fill-rule="evenodd" transform="matrix(1.4138012,0,0,1.4138012,-296.80236,-449.92521)">
  <path d="m267.23,445.75c-2.086,17.635-11.86,32.817-28.981,48.238l-1.423-15.633-15.694-0.329c14.189-18.155,28.652-28.964,46.098-32.276z" stroke="#d40000" stroke-miterlimit="4" stroke-dasharray="none" stroke-width="0.707313" fill="#ffcd50"/>
  <path d="m374.14,331.11-30.418,18.678,9.248,0.699-17.433,18.694,3.317,3.093,17.433-18.694,1.342,9.177,16.511-31.647z" stroke="#d40000" stroke-miterlimit="4" stroke-dasharray="none" stroke-width="0.707313" fill="#FFF"/>
  <path fill="#d20000" d="m356.45,350.08,14.683-15.745-14.316,18.254-0.367-2.509z"/>
  <path d="m225.77,486.89,113.87-122.11,3.316,3.092-113.87,122.11-3.317-3.092z" stroke="#d40000" stroke-miterlimit="4" stroke-dasharray="none" stroke-width="0.707313" fill="#ffcd50"/>
 </g>
</svg>
