<!-- Created with Inkscape (http://www.inkscape.org/) -->
<svg xmlns:rdf="http://www.w3.org/1999/02/22-rdf-syntax-ns#" xmlns="http://www.w3.org/2000/svg" height="300" width="248" version="1.0" xmlns:cc="http://creativecommons.org/ns#" xmlns:dc="http://purl.org/dc/elements/1.1/">
 <metadata>
  <rdf:RDF>
   <cc:Work rdf:about="">
    <dc:format>image/svg+xml</dc:format>
    <dc:type rdf:resource="http://purl.org/dc/dcmitype/StillImage"/>
    <dc:title/>
   </cc:Work>
  </rdf:RDF>
 </metadata>
 <path d="m247,1.0001,0,214.77c0,82.42-84.912,44.012-123,82.791-38.089-38.77-123-0.37-123-82.79v-214.77z" stroke="#000" stroke-miterlimit="4" stroke-dasharray="none" stroke-width="2" fill="#ffcd50"/>
 <path fill="#003d8f" d="m30.835,237.69s2.2833-7.9003,9.4385-9.2816c11.925-2.3045,1.2385,10.144-0.89635,9.0045-4.7306-3.4568-8.5422,0.2771-8.5422,0.2771z" fill-rule="evenodd"/>
 <path fill="#003d8f" d="m113.75,247.24s2.2847-7.9003,9.44-9.283c11.925-2.3045,1.2385,10.145-0.89635,9.0045-4.732-3.4553-8.5436,0.27852-8.5436,0.27852z" fill-rule="evenodd"/>
 <path fill="#003d8f" d="m90.296,35.449c0.17248,4.1665,5.7287,10.244,17.189,8.5083,14.064-1.91,22.747-2.0839,26.219,1.91l0.34779,3.4723h-2.2578c-0.17-1.389-10.93-6.424-26.56-1.562-11.636,3.646-22.401-3.126-14.934-12.328z" fill-rule="evenodd"/>
 <path fill="#003d8f" d="m109.39,44.651c-0.86807-2.4303-1.3191-5.8687-1.3191-5.8687l6.5275-1.0759c-2.0825,1.5622-3.9926,4.8606-5.2084,6.9446zm0.0354,1.0773c-0.3478,2.6042,0.48493,6.389,0.48493,6.389l6.8074-0.24317c-2.2578-1.3884-5.5562-4.2372-7.2924-6.1458z" fill-rule="evenodd"/>
 <path fill="#d40000" d="m49.841,57.839c-8.4192-0.8808-13.711,1.681-12.152,10.25-3.2857,2.1829-3.7494,7.8834-0.79597,10.712-2.5392,4.4761-0.779,8.7458,3.4709,9.9051,2.3653,0.64611,4.9016-0.09897,7.2768-0.42131,0.78183,0.4001,2.0486,0.54007,2.9435,0.54714-0.176-10.292-0.432-20.613-0.743-30.993z" fill-rule="evenodd"/>
 <path fill="#d40000" d="M100.01,78.874c-7.866-2.199-16.639-5.812-24.503-8.774-1.493-5.869-4.226-13.911-12.445-10.651-0.06503,2.2946-0.12583,4.5892-0.18662,6.8796l3.5373,3.9784-3.6222-0.68711c-0.17814,7.1411-0.33083,14.258-0.44535,21.367,1.8125,0.041,4.7136-0.72952,6.0299-1.4491l2.9859,0.16542c2.9209,2.5463,3.584,5.7584,1.9906,9.6365,1.7418,1.0179,3.4836,1.9779,5.2254,2.8842,1.7107-2.7569,1.7941-5.5152,1.2866-8.2722,1.8139,3.2136,2.7018,6.5841,2.4699,10.141,2.0302,0.96704,4.0618,1.8592,6.0921,2.6876l0.60793-3.2164c-0.636-10.545,2.552-17.491,10.976-24.686z" fill-rule="evenodd"/>
 <path d="m50.289,42.915c1.4718,44.82,2.231,88.498,0.39869,133.18,1.8804,0,3.7027-0.64752,5.6425-0.64752,1.9383,0,3.7621,0.64752,5.6425,0.64752-1.8323-44.678-1.0731-88.356,0.39869-133.18-4.0011,0.65883-8.0813,0.65883-12.082,0z" stroke="#ffcd50" stroke-dasharray="none" stroke-miterlimit="4" stroke-width="5" fill="none"/>
 <path fill="#000" d="m56.331,56.307c7.3956-4.0166,14.264-2.3667,20.558,2.5166,14.005,10.868,17.773,8.7783,21.044,2.9506l-2.43-2.365c-1.777,8.501-9.223,0.768-12.295-2.233-6.544-6.393-11.156-14.116-26.877-9.883-15.721-4.233-20.332,3.49-26.878,9.883-3.072,3.001-10.516,10.734-12.295,2.233l-2.4303,2.3639c3.2715,5.8277,7.0393,7.9173,21.044-2.9506,6.2942-4.8833,13.162-6.5332,20.558-2.5166z" fill-rule="evenodd"/>
 <path fill="#d40000" d="m50.289,42.915c1.4718,44.82,2.231,88.498,0.39869,133.18,1.8804,0,3.7027-0.64752,5.6425-0.64752,1.9383,0,3.7621,0.64752,5.6425,0.64752-1.8323-44.678-1.0731-88.356,0.39869-133.18-4.0011,0.65883-8.0813,0.65883-12.082,0z" fill-rule="evenodd"/>
 <path d="m48.415,131.42c6.3223,1.0052,10.333,0.70832,16.615-0.62631m8.31,23.352c-4.296,1.517-6.982,3.0368-11.783,2.9958-3.9619-0.0353-8.3704,0.0891-12.475-0.11735" stroke="#ffcd50" stroke-dasharray="none" stroke-miterlimit="4" stroke-width="6" fill="none"/>
 <path fill="#d40000" d="m52.584,97.451c-6.3268-0.58673-6.3324,3.6335-5.5774,11.517,0.3379,3.5402,0.90483,9.0483-1.7446,11.951-0.66731,0.72952-1.5608,1.2456-2.73,1.2456-1.2738,0-2.3073-1.0321-2.3073-2.3073,0-1.2738,1.0335-2.3059,2.3073-2.3059,0.72387,0,1.3714,0.33224,1.7941,0.85393,2.2635-3.4256,0.05231-8.5266-0.57542-12.118-1.5934-6.495-0.26862-15.179,8.8334-16.45v7.6133z" fill-rule="evenodd"/>
 <path d="m82.677,242.51c6.9248,3.7678,5.2297,11.768,1.6697,15.133-4.8804,4.6104-13.68,5.1688-15.265-6.1189-1.8634,0.70832-3.7551,1.0363-5.8376,1.377-0.2559,7.1029-7.2896,10.482-12.747,9.1501-6.4229-1.4534-6.003-6.2716-4.0449-11.006-1.0759,1.0335-1.7418,2.4218-2.2183,3.7975-6.2448,1.0236-9.2265-3.1669-9.365-7.7533-0.04383-5.9323,3.0171-8.6426,8.7868-8.2905-1.5651-0.46231-3.116-0.73376-4.6542-0.81435-2.518-3.075,4.0039-15.16,14.12-9.0582,2.9563,1.7842,5.3625,2.477,7.8438,2.4501,6.8188-0.0735,17.828-5.1137,21.042-13.011,3.7635-9.2448,0.70266-20.54-0.11593-22.815-0.98259,2.5265-2.7937,4.2273-5.1773,4.6712-1.7475-0.28983-3.461-0.64045-5.1222-1.0476,2.6636-2.1235,4.1636-4.8818,1.8351-7.4691-2.2564,4.5086-5.0713,5.6863-6.9404,5.9733-3.0383-1.0519-5.8065-2.3314-8.1774-3.8286,9.2024-2.9266,9.4739-8.8504,13.813-14.911,4.9172-6.8697,11.515-13.157,21.18-16.741,13.007-4.8225,27.382-7.1256,40.102-13.226,2.3879,3.1386,3.9021,6.4469,3.0496,9.7467-1.8747,7.2627-6.3007,10.576-9.8141,20.919-21.071,1.2654-28.245,35.007-6.4433,29.632v0.33225c-0.0353,2.272-0.22196,4.6316-0.61924,7.0026-3.0736,1.7333-6.225,2.5434-9.4527,2.4261,1.3572,3.5062,4.0831,4.6316,7.749,4.1297-0.82566,2.2706-1.9129,4.4874-3.3182,6.5728-3.8809,1.0505-7.2118-0.0947-10.168-2.7428-0.94725,4.592,1.4831,6.8046,6.2292,7.3914-1.7842,1.6881-3.8809,3.222-6.3296,4.5425-3.4907,0.30821-6.1387-1.2371-8.0884-4.3192-1.418,2.9407-0.60369,5.1872,2.4402,6.7396-4.1537,3.4299-8.644,3.15-13.411-0.20076-0.79173,0.75073-1.64,1.2046-2.5505,1.3672z" fill-rule="evenodd" fill="#d40000"/>
 <path d="m133.19,166.53c-3.871-0.22479-4.8112-4.8253-3.4921-8.1704,0.574-1.4534,1.5707-2.6707,2.9435-3.1867-0.60935-2.9308-2.1249-7.004-7.2401-10.94,1.6669-0.14421,3.3917-0.024,5.1688,0.35487,3.8427,4.4492,6.9319,9.5106,5.617,14.602-0.69984,2.5731-1.8747,4.937-2.9973,7.3404z" stroke="#ffcd50" stroke-dasharray="none" stroke-miterlimit="4" stroke-width="3.4" fill="none"/>
 <path fill="#d40000" d="m133.19,166.53c-3.871-0.22479-4.8112-4.8253-3.4921-8.1704,0.574-1.4534,1.5707-2.6707,2.9435-3.1867-0.60935-2.9308-2.1249-7.004-7.2401-10.94,1.6669-0.14421,3.3917-0.024,5.1688,0.35487,3.8427,4.4492,6.9319,9.5106,5.617,14.602-0.69984,2.5731-1.8747,4.937-2.9973,7.3404z" fill-rule="evenodd"/>
 <path fill="#d40000" d="m144.64,11.834c1.3898,1.7361,0.52028,4.3418-1.2159,4.8621-10.071-0.3478-18.577,0.69418-21.355,2.2578-4.6882,2.2564,0,4.3404-6.4243,4.5143-3.2998,0-7.2938,1.042-10.94,1.7361-0.5217,1.5622-0.69418,2.6042,0,4.5143l1.3884-0.1739c-3.2984,6.5982-0.69418,15.454,14.066,8.1619,2.9506-1.7376,8.5068,1.5622,11.285,5.5562,3.8201,5.5562-1.3884,7.8127-6.4243,6.4243-4.6882-1.3898-13.023-0.3478-16.495,1.2145,0.17389,0.69559,0.17389,1.3898,1.2144,2.2578-2.9506,3.4723-1.2144,8.3344,2.2578,11.112-0.34779-6.946,3.6476-9.3763,14.064-7.6402,5.3654,0.21207,6.4823,3.5896,3.6858,6.5417-4.7051,4.6585-12.328,7.6119-19.137,11.583-9.3325,5.4445-17.647,12.557-17.923,20.879,2.0839-1.91,4.9653-2.1857,7.2231-1.4916-4.5143,3.9926-7.8876,10.295-8.5818,15.505l15.071-7.7971v1.3884c-9.5644,10.328-21.115,19.573-35.574,27.233-0.59238-3.2942-0.99814-6.806-1.4887-7.4946-0.48918-0.68994-2.5759-1.5637-5.0968-2.5887l-0.65272,0.0947c-0.0014,3.4271,0.0085,6.8555,0.02969,10.285l-0.0071,0.0226c-5.2904,1.3346-9.2656,1.6315-14.59,0.62631l0.03676-4.674c-2.19-0.46232-3.8408-0.72387-5.5134-0.59804-4.2683,0.32234-7.7179,4.1764-5.2141,7.8961,2.6961,4.0067,3.7833,4.9398,8.7854,6.6434v1.3544c-6.7665-0.63055-5.3527,0.1739-9.5276-3.953l-0.1131,4.2951c4.0887,4.5751,4.9723,5.3512,10.869,6.4215v1.2936c-7.0379,0.37183-5.2014,0.99532-10.485-2.846,2.2593,6.3282,4.5086,9.3283,12.022,9.7708,3.4567,0.20642,7.1694,0.082,10.506,0.11735,4.0435,0.041,6.3056-1.4788,9.9235-2.9958,3.5303-1.4802,7.496-2.9831,11.807-6.249,2.4671,1.6542,3.6815,4.4068,4.3234,7.66,2.4445-0.64611,4.6316-1.5637,6.642-2.6678,0.21772-2.1815,0.21348-4.3644-0.58532-6.5445,1.879,1.0646,3.0807,2.6226,3.7183,4.5906,1.8789-1.3106,3.6179-2.7696,5.2989-4.2866-0.017-2.3455-0.30538-4.5157-1.5665-6.068,2.1886,0.47787,3.9176,1.3813,4.6358,3.2164,2.8672-2.6509,5.8673-5.1363,8.702-7.8028,4.7574-4.4747,9.8796-8.5918,16.599-9.8006l0.31894-3.5928c-6.8323-2.6033-0.0743-12.567,1.6321-16.906l1.1169,0.43686c-1.4675,3.731-4.7443,12.757,0.49807,14.377l-0.34638,8.8702c-4.2216,0.11876-7.0652,1.4605-10.241,3.6321,4.9921,6.0115,18.5,15.723,15.642,26.78-2.3554,9.1176-12.392,18.528-7.11,42.243-2.706,10.816-2.863,22.017,2.6466,30.894,1.6626-1.206,3.2051-2.7795,4.5751-4.421-5.6496-11.586,2.5364-12.661-0.82708-24.682,2.3837,1.7941,4.421,5.0317,3.7494,8.1407-0.78183,3.6108-4.001,6.0454-0.3181,12.529,2.197-3.5727,8.6807-7.848,5.8291-15.099,3.1938,2.0005,6.0892,2.7555,9.6619,3.485,1.8478,0.37748,1.8846,0.72952,1.903,4.7829,0.0481,10.548-5.3965,20.708-16.243,22.444-4.0718,0.64752-7.5087-0.86948-11.245-2.1108-9.1431-3.1853-11.958,11.158-4.8253,10.551-17.746,9.1855,3.83,25.193,10.496,8.077-2.436,11.883,17.005,15.661,18.297,1.2003,2.3285-0.39728,4.6868-1.1763,7.1015-2.7159,7.2429,6.0369,14.214,1.7786,16.321-3.444,1.6895-4.1919,0.2969-10.517-7.3744-9.9376,1.3926-1.0179,2.3964-2.2734,2.9322-3.8173,6.8484,1.2908,7.9116,0.40434,11.781-5.4969-4.1156-0.0382-6.2193-1.8535-5.8913-5.8093,2.8601,1.1636,5.7231,1.6089,8.5846,1.1904,1.1551-2.2098,2.2352-4.5949,3.239-7.1298-3.1966,1.0476-5.5916-0.57966-7.5822-3.7522,3.5274,0.68711,6.758,0.369,9.5361-1.6556,0.80587-2.4374,1.5495-4.978,2.2352-7.5964-4.018,2.1362-7.8678,2.2282-9.3226-2.5562,4.9328,0.0113,8.1562-1.6584,11.057-4.8592,0.56552-2.7088,1.0702-5.4785,1.5156-8.2835-18.736,7.0068-30.411,1.4534-31.015-1.7248-0.5938-3.1231,3.6844-7.3306,5.7047-9.9235,3.5967-4.6146,4.6627-10.206,4.4789-15.846,8.3739,9.3678,19.697,15.403,32.291,9.7934,11.224-4.9992,19.157-17.839,11.548-30.026-2.4006-3.8455-6.0694-7.1722-10.001-10.423-1.8167-1.5029-4.4026-3.7466-6.2744-5.282-0.99108,0.38314-2.0302,0.74083-3.1245,1.066-3.1782,0.94866-1.4845,4.5623,0.26721,6.348-6.3324-2.3455-8.012-7.3857-1.1975-9.3495,12.135-3.4963,16.864-10.527,14.245-20.592-2.2578,7.2274-6.8513,10.948-13.048,12.269,8.2778-5.3018,11.182-11.859,6.232-20.253-0.96987,7.9894-6.8343,12.262-13.341,16.353-14.548,9.1515-10.821,22.766,4.3828,25.337,7.0704,1.1961,10.889,1.64,15.012,7.9993,5.207,8.036,0.22338,16.016-6.9587,19.472-11.903,5.7287-22.194-3.14-28.878-13.263-2.5265-3.8286-3.1132-7.0421-4.486-11.356-3.8908-12.219-10.471-22.597-14.091-31.334-1.9284-4.6556-4.65-11.58-4.8253-16.341,3.0708,0.82,8.2128-0.52028,10.093-2.0458-4.2852-2.0458-5.2791-4.2725-5.0345-7.8409,8.1605,1.5637,13.356-1.9935,15.788-8.2439-5.3823,0.86807-10.131-0.32942-12.909-5.8857,9.5502,0.69418,15.454-2.2578,16.148-10.244-7.4663,2.952-12.502,1.7361-14.412-5.5562,8.3344-0.1739,13.023-3.8201,13.37-11.807-5.904,3.1245-11.286,3.4723-15.453-3.6462,4.5143-3.1259,7.8127-6.946,7.8127-12.502-2.6042,1.2145-5.2084,2.0825-7.8127,0.34638-0.86807,1.7361-2.7781,3.2998-5.2098,4.5143-0.34639-0.34638-0.69418-0.52028-1.0406-0.86807,5.3823-4.1665,5.9026-10.417,4.5143-16.495-4.3418,0.52169-12.328,1.3898-14.238,9.2024l-1.042-1.042c0.34638-3.4723,1.5622-5.5562,4.1665-7.8127-2.0839-1.3898-4.1665-2.6042-6.2504-3.1259zm50.505,99.259c-0.10321-7.2684,4.4167-14.289,9.235-20.097,6.7042-8.0813,13.524-15.279,16.7-24.746,13.095-4.5878,13.874-17.084,10.476-25.488-0.60511,2.1518-2.1023,7.2768-5.7768,6.7848,7.2415-13.37-0.87797-26.783-8.1096-28.737,5.569,10.505-3.1556,16.954-6.273,26.57-1.4407,4.3375-0.24317,12.252,2.9718,17.301-2.6254,9.2081-9.5502,16.071-15.753,23.547-7.2104,8.692-12.921,19.407-10.346,30.214,2.0642-2.1179,4.4379-3.7027,6.8753-5.3484z" fill-rule="evenodd"/>
 <path fill="#ffcd50" d="m159.23,18.258c-4.3404,0.3478-7.1185,3.6462-7.8127,7.1199l1.91,2.952-0.69417,0.52028-3.6476-3.1259c1.3898-5.2084,4.3418-7.2924,9.898-8.3344l0.34638,0.86807z" fill-rule="evenodd"/>
 <path fill="#ffcd50" d="m133.84,27.147c-0.1739,2.0839-1.2159,3.994-2.952,4.6882-1.7362-1.042-2.952-3.1259-2.952-5.3823-1.042,1.7361-1.042,3.8201-0.17389,5.3823-1.91-0.69418-3.1245-2.4303-3.1245-4.6882,0.17248-2.6042,9.3763-2.6042,9.2024,0z" fill-rule="evenodd"/>
 <path fill="#ffcd50" d="m126.89,25.063c2.6042-0.69418,9.0285-1.3884,10.071,2.4317,0.52169-4.6882-3.9926-4.8621-7.4663-4.5157-2.2564,0.3478-6.9446,1.7376-6.4243-2.4303-2.6042,3.2998,0.3478,5.5562,3.8201,4.5143z" fill-rule="evenodd"/>
 <g fill="#003d8f" transform="matrix(1.4138012,0,0,1.4138012,-296.80025,-449.21782)" fill-rule="evenodd">
  <path d="m247.43,378.6s-3.322,3.463-7.394,2.238c-6.787-2.042,2.11-5.578,2.904-4.41,1.508,3.069,4.49,2.172,4.49,2.172z"/>
  <path d="m247.43,364.86s-3.321,3.463-7.393,2.238c-6.787-2.042,2.11-5.578,2.904-4.41,1.508,3.069,4.489,2.172,4.489,2.172z"/>
  <path d="m247.43,371.73s-3.321,3.463-7.393,2.238c-6.787-2.042,2.11-5.578,2.904-4.409,1.508,3.068,4.489,2.171,4.489,2.171z"/>
 </g>
 <path fill="#003d8f" d="m85.558,265.52s3.8074-7.2896-0.41-13.233c-7.028-9.9065-7.9046,6.478-5.5732,7.1284,5.8079,0.77052,5.9832,6.1048,5.9832,6.1048z" fill-rule="evenodd"/>
 <path fill="#003d8f" d="m47.839,267.99s-3.8074-7.2882,0.41-13.232c7.028-9.9065,7.9046,6.478,5.5732,7.1284-5.8079,0.77052-5.9832,6.1034-5.9832,6.1034z" fill-rule="evenodd"/>
 <path fill="#003d8f" d="m32.9,259.07s-2.9662-7.6699,1.8903-13.103c8.0954-9.0554,7.1284,7.3235,4.7391,7.708-5.8574,0.11452-6.6293,5.3951-6.6293,5.3951z" fill-rule="evenodd"/>
 <path fill="#003d8f" d="m182.47,258.92s1.2371-8.1308-4.6811-12.383c-9.8627-7.0888-5.3753,8.692-2.9591,8.5521,5.7443-1.1565,7.6402,3.8314,7.6402,3.8314z" fill-rule="evenodd"/>
 <path fill="#003d8f" d="m140.12,273.35s-3.8088-7.2896,0.40859-13.233c7.0294-9.9065,7.906,6.478,5.5746,7.1284-5.8093,0.77052-5.9832,6.1048-5.9832,6.1048z" fill-rule="evenodd"/>
 <path fill="#003d8f" d="m118.66,268.95s-2.9662-7.6699,1.8917-13.103c8.094-9.0554,7.1284,7.3235,4.7391,7.708-5.8588,0.11452-6.6307,5.3951-6.6307,5.3951z" fill-rule="evenodd"/>
 <path fill="#000" d="m21.851,67.98c-0.37748-0.18097-0.57118-0.50049-0.697-0.8709l-1.2441-3.683c-0.22055-0.65742,0.13572-1.3728,0.79456-1.5919,0.65742-0.22055,1.3714,0.13572,1.5919,0.79314l1.1197,3.314,32.915,15.733,32.916-15.733,1.1197-3.314c0.21914-0.65742,0.93452-1.0137,1.5919-0.79314,0.65883,0.21914,1.0137,0.93452,0.79456,1.5919l-1.2441,3.683c-0.12583,0.37042-0.31952,0.68994-0.697,0.8709l-34.483,16.481-34.48-16.481z" fill-rule="evenodd"/>
 <path fill="#000" d="m54.853,33.913,2.8573,0,0,48.657-2.8573,0,0-48.657z" fill-rule="evenodd"/>
 <path fill="#000" d="m53.639,38.33,0-4.9511-8.3838,2.8813c5.883-8.324,8.774-17.712,11.026-27.473,2.252,9.7607,5.143,19.149,11.026,27.473l-8.3838-2.8813v4.9511h-5.2848z" fill-rule="evenodd"/>
 <path fill="#FFF" d="m55.642,36.327,1.2781,0,0-5.7513,5.6764,1.9496c-2.7583-4.9384-4.7518-10.254-6.314-15.679-1.5623,5.4233-3.5557,10.741-6.3154,15.678l5.675-1.9482v5.7513z" fill-rule="evenodd"/>
</svg>
