<?xml version="1.0" encoding="UTF-8" standalone="no"?>
<!-- Created with Inkscape (http://www.inkscape.org/) -->

<svg
   xmlns:dc="http://purl.org/dc/elements/1.1/"
   xmlns:cc="http://creativecommons.org/ns#"
   xmlns:rdf="http://www.w3.org/1999/02/22-rdf-syntax-ns#"
   xmlns:svg="http://www.w3.org/2000/svg"
   xmlns="http://www.w3.org/2000/svg"
   xmlns:sodipodi="http://sodipodi.sourceforge.net/DTD/sodipodi-0.dtd"
   xmlns:inkscape="http://www.inkscape.org/namespaces/inkscape"
   height="300"
   width="248"
   version="1.0"
   id="svg86"
   sodipodi:docname="Västerbottens_vapen.svg"
   inkscape:version="0.92.3 (2405546, 2018-03-11)">
  <defs
     id="defs90" />
  <sodipodi:namedview
     pagecolor="#ffffff"
     bordercolor="#666666"
     borderopacity="1"
     objecttolerance="10"
     gridtolerance="10"
     guidetolerance="10"
     inkscape:pageopacity="0"
     inkscape:pageshadow="2"
     inkscape:window-width="1920"
     inkscape:window-height="1017"
     id="namedview88"
     showgrid="false"
     inkscape:zoom="2.2250293"
     inkscape:cx="120.39469"
     inkscape:cy="125.95267"
     inkscape:window-x="-4"
     inkscape:window-y="-4"
     inkscape:window-maximized="1"
     inkscape:current-layer="svg86" />
  <metadata
     id="metadata2">
    <rdf:RDF>
      <cc:Work
         rdf:about="">
        <dc:format>image/svg+xml</dc:format>
        <dc:type
           rdf:resource="http://purl.org/dc/dcmitype/StillImage" />
        <dc:title />
      </cc:Work>
    </rdf:RDF>
  </metadata>
  <path
     d="m247,1.0001,0,214.77c0,82.42-84.912,44.012-123,82.791-38.089-38.77-123-0.37-123-82.79v-214.77z"
     stroke="#000"
     stroke-miterlimit="4"
     stroke-dasharray="none"
     stroke-width="2"
     fill="#003d8f"
     id="path4" />
  <g
     id="g2430"
     transform="matrix(0.24721624,0,0,0.24718892,929.63621,877.44489)"
     inkscape:export-xdpi="85.333298"
     inkscape:export-ydpi="85.333298">
    <path
       style="opacity:1;fill:#003d8f;stroke:#000000;stroke-width:8.0905304;stroke-miterlimit:4;stroke-dasharray:none"
       inkscape:connector-curvature="0"
       id="path4-9"
       stroke-miterlimit="4"
       d="m -2761.292,-3545.6476 v 868.8497 c 0,333.429 -343.4726,178.0498 -497.5401,334.93 -154.0716,-156.8437 -497.5401,-1.4969 -497.5401,-334.9261 v -868.8496 z" />
    <path
       style="opacity:1;fill:#ffcd50;fill-rule:evenodd;stroke-width:4.0452652"
       inkscape:connector-curvature="0"
       id="path56-1"
       d="m -3640.8296,-3139.0765 -35.8537,-8.2694 -10.7602,35.1926 -10.77,-35.1926 -35.8534,8.2694 25.0836,-26.923 -25.0836,-26.9232 35.8534,8.2694 10.77,-35.1829 10.7602,35.1926 35.8537,-8.2695 -25.0838,26.9132 25.0838,26.923 z" />
    <path
       style="opacity:1;fill:#d40000;fill-rule:evenodd;stroke-width:4.0452652"
       inkscape:connector-curvature="0"
       id="path6-0"
       d="m -3703.629,-3115.8958 c -4.7568,-5.0055 0.2711,-10.3026 5.0269,-5.3023 10.5548,11.117 23.1213,22.0345 36.8259,29.0788 7.6101,3.9217 11.6389,2.6862 5.0107,-4.5523 -4.7084,-5.1458 -8.6025,-10.7125 -11.677,-16.6837 -3.1602,-6.1381 2.697,-9.86 5.8574,-3.7323 6.2832,12.2283 20.1442,23.5448 33.2826,27.9733 19.3514,6.5267 10.0641,-5.599 6.5315,-17.9567 -3.3116,-11.5753 -3.5381,-26.1771 -10.4414,-36.0695 -3.9424,-5.6475 1.6075,-8.7598 5.5498,-3.1069 4.1853,5.9873 7.5023,12.1635 9.5463,18.6848 5.9166,18.8843 7.6371,5.9602 15.7757,-2.2602 5.2694,-4.4339 10.2472,0.356 4.9783,4.79 -9.1905,7.7401 -10.8947,31.5114 -5.1668,40.8795 8.4027,13.7438 20.5433,21.274 35.6015,26.0259 -8.7427,-0.065 -17.7767,0.5987 -26.9128,1.4835 -4.8108,-2.7619 -9.4868,-5.885 -14.0282,-9.418 -11.5904,-9.0185 -25.3866,-7.8697 -38.9566,-10.6638 -23.2023,-4.7629 -41.1179,-22.6496 -56.8045,-39.1713 z" />
    <path
       style="opacity:1;fill:#d40000;fill-rule:evenodd;stroke-width:4.0452652"
       inkscape:connector-curvature="0"
       id="path8-5"
       d="m -3707.314,-3032.5992 c -5.9327,-1.3107 -4.8487,-6.9582 1.4833,-6.0519 4.9188,0.7066 9.6163,-0.2711 13.4243,-0.3925 13.6075,-0.4314 7.1677,-5.3833 -0.049,-10.2485 -6.0675,-4.0992 -10.4308,-10.7125 -15.835,-17.4227 -3.8134,-4.7413 1.44,-8.9324 5.2532,-4.1911 33.3744,41.3974 92.8458,17.8111 139.9706,19.494 7.1789,0.1334 17.0914,-1.9362 24.8474,-5.6152 l -1.3648,15.9069 -15.5167,15.1303 -6.1918,-10.7288 c -2.8801,-0.044 -4.8487,-1.1542 -5.9756,-2.7563 -25.6994,-2.1359 -46.9589,4.9951 -69.3482,20.0495 -14.0068,9.4232 -27.1718,18.2804 -42.1778,18.3556 -6.0784,0 -7.5508,-5.3023 -0.041,-5.8468 8.0361,-1.1114 8.8072,-6.8237 0.3276,-7.2982 -4.5576,-0.2426 -8.7264,-0.2913 -13.3164,-1.0194 -6.995,-1.0304 -6.1161,-5.6961 -0.041,-5.7174 18.958,-0.093 24.4213,-6.7804 1.3002,-8.7274 -5.7711,-0.4747 -11.1049,-1.6611 -16.7627,-2.9181 v 0 z" />
    <path
       style="opacity:1;fill:#ffcd50;fill-rule:evenodd;stroke-width:4.0452652"
       inkscape:connector-curvature="0"
       id="path78-5"
       d="m -3518.0708,-2694.5178 -35.8535,-8.2596 -10.77,35.1828 -10.7603,-35.1828 -35.8637,8.2596 25.0939,-26.9129 -25.0939,-26.9232 35.8637,8.2695 10.7603,-35.1926 10.77,35.1926 35.8535,-8.2695 -25.0937,26.9232 z" />
    <path
       style="opacity:1;fill:#d40000;fill-rule:evenodd;stroke-width:4.0452652"
       inkscape:connector-curvature="0"
       id="path10-2"
       d="m -3607.1143,-3345.9344 c -8.1114,-2.0875 -5.1237,-10.227 2.9882,-8.1395 15.4358,4.0188 32.2147,5.9497 49.0904,8.1285 33.1643,7.4761 67.8153,13.264 97.8741,30.0714 5.4365,8.6573 15.8673,16.4679 23.4987,16.182 5.8358,4.8868 11.31,10.1998 16.3149,15.8906 1.2187,13.3825 12.3022,32.0294 23.1591,36.6251 3.0094,7.2119 5.3179,14.7093 6.8009,22.3849 -6.828,13.1882 -0.4368,29.8719 -3.1014,47.3606 -0.7442,4.8492 -1.6989,9.5472 -2.8258,14.1215 -14.3841,37.5906 -46.4856,67.6042 -83.2267,85.7279 -7.4861,3.6951 -15.1232,6.8721 -22.7926,9.5203 -0.1172,-1.4993 -0.3074,-3.0366 -0.5558,-4.5957 42.218,-22.6114 77.1916,-61.0059 84.4565,-108.5525 9.174,-59.9947 -33.845,-114.9284 -87.5186,-137.0694 -32.6475,-13.4794 -68.7494,-18.3907 -104.1638,-27.6064 v 0 z m 90.4635,-17.892 c -2.508,-4.6552 -5.3667,-8.873 -7.5024,-11.3811 -3.8237,-4.4934 1.9364,-9.6122 5.7549,-5.1298 5.5012,6.4729 9.9616,12.196 13.23,18.1724 -3.8131,-0.593 -7.6421,-1.138 -11.4825,-1.6611 z m 50.1948,-13.9864 c 3.8672,-17.6331 10.6518,-33.7827 28.1588,-44.3427 5.0534,-3.0364 8.5702,2.7943 3.5164,5.8365 -17.9924,10.858 -20.0796,38.2108 -22.647,64.0036 -4.9242,-7.1148 -4.6546,-17.3741 -9.0286,-25.4918 v 0 z m 54.3168,53.8009 c 14.3467,-24.4457 24.5344,-51.9724 55.0327,-64.4729 2.5134,-1.0247 4.4443,-0.3561 5.2749,0.8847 -1.7584,1.9365 -3.4193,3.9375 -5.005,5.9982 -22.625,10.9443 -31.9719,39.3221 -44.5277,64.473 -3.8453,-1.0466 -7.3836,-3.6895 -10.2421,-6.3704 l -0.5391,-0.5126 v 0 z" />
    <path
       style="opacity:1;fill:#ffcd50;fill-rule:evenodd;stroke-width:4.0452652"
       inkscape:connector-curvature="0"
       id="path80-4"
       d="m -2908.0461,-2668.4647 -35.8536,-8.2694 -10.77,35.1829 -10.7602,-35.1829 -35.8535,8.2694 25.0837,-26.9232 -25.0837,-26.9231 35.8535,8.2695 10.7602,-35.1926 10.77,35.1926 35.8536,-8.2695 -25.0837,26.9231 z" />
    <path
       inkscape:connector-curvature="0"
       style="opacity:1;fill:#d40000;fill-rule:evenodd;stroke:none;stroke-width:4.0452652;stroke-opacity:1"
       id="path12-6"
       d="m -3577.2618,-3358.087 c -8.3491,-2.1628 -5.2696,-10.5884 3.0741,-8.4308 26.2335,6.8772 56.2464,7.8481 84.2058,13.8302 23.0729,4.9302 5.8358,-26.5059 -1.9364,-35.7135 -3.9318,-4.6495 1.9957,-9.9519 5.9272,-5.3077 10.6251,12.5948 17.4907,22.4391 19.5133,36.4579 1.8664,12.9242 21.9674,28.1028 26.2009,9.9628 7.54,-32.2881 4.5466,-70.2013 36.6804,-89.7167 5.1939,-3.1498 8.8183,2.8913 3.6192,6.0359 -24.4373,14.8497 -20.3495,59.4564 -26.5408,90.8171 -2.8262,14.2835 23.8119,37.8386 33.6333,27.3585 26.4059,-28.189 31.4544,-72.2888 72.8107,-89.3569 5.6254,-2.314 8.4408,3.6681 2.8211,5.9765 -32.97,13.6037 -39.6143,61.9729 -62.4676,91.3754 -10.1825,13.0965 13.8125,56.3577 30.187,49.3024 23.7472,-10.2379 43.4962,-26.0258 74.0565,-22.1964 6.0515,0.7339 4.9241,7.8483 -1.1326,7.1091 -21.8969,-2.7346 -41.4252,13.5335 -62.0024,25.4652 -25.1387,14.58 -12.135,37.2942 -15.8133,61.5117 -11.6334,76.6256 -71.209,119.8718 -139.3476,138.3921 -2.8748,-0.04 -5.7492,-0.061 -8.6293,-0.081 1.8445,-4.9732 2.9773,-10.2217 3.2198,-15.8584 56.7722,-18.8952 109.8351,-65.3751 119.1023,-126.3973 9.4331,-62.1548 -34.8198,-119.0303 -90.0386,-141.9642 -33.5901,-13.9489 -70.7235,-19.0353 -107.1571,-28.5825 v 0 z m 56.8894,318.829 c -2.4809,0.4368 -4.962,0.847 -7.4481,1.2245 -13.0626,1.9632 -12.1298,-14.1645 -1.7422,-15.718 5.5283,-0.8467 11.0886,-1.9794 16.6442,-3.3767 -0.6363,3.9703 -1.8608,7.6702 -3.554,11.1709 -1.1112,2.2817 -2.4166,4.5094 -3.8995,6.6993 z" />
    <path
       inkscape:connector-curvature="0"
       style="opacity:1;fill:#ffffff;fill-opacity:1;fill-rule:evenodd;stroke:none;stroke-width:4.0452652;stroke-opacity:1"
       id="path14-0"
       d="m -3416.1964,-2763.3719 c -2.8367,2.9832 -5.8625,5.9117 -9.2336,8.8463 -14.7939,12.1365 -29.615,24.7855 -43.9454,37.731 -9.1255,8.6575 -17.4635,17.1153 -25.3004,25.8587 -8.6565,9.3965 -17.9762,17.4713 -24.2593,28.1676 -4.223,7.1957 -9.4765,16.9587 -12.583,24.343 -3.8993,9.6068 -8.9586,3.0261 -13.451,-1.4507 -3.0904,4.8707 -5.6521,8.2741 -10.0964,11.3487 -15.2309,14.402 -41.9066,15.3243 -61.7921,12.1904 -7.2595,-1.1328 -6.0784,-4.4554 -0.512,-7.1688 14.8747,-7.2495 24.0384,-16.4245 35.4992,-27.8115 8.8291,-10.5234 20.0744,-14.1053 29.6531,-22.4389 11.8115,-12.4169 22.9273,-24.7476 34.151,-37.6769 14.0553,-16.2197 28.7523,-33.362 40.2887,-51.398 2.486,-4.202 5.3341,-8.2743 8.2893,-12.3145 16.9247,8.1557 34.7823,12.1255 53.2936,11.7752 z m 351.4777,-57.3002 c -18.1703,7.751 -20.7752,14.2834 -25.0145,-5.4586 9.2336,-2.9557 13.9959,-4.7685 23.0944,-8.1181 0.3883,4.4877 0.7981,9.1213 1.9201,13.5767 z m 165.9399,-168.7617 c 2.0439,-0.9815 5.7062,-2.8695 7.6261,-3.9536 -5.5122,-2.5731 -10.1397,-4.5148 -13.7532,-5.5395 3.5757,-0.8306 10.0911,0.36 18.3049,2.778 6.645,-4.283 12.5184,-9.256 17.9064,-15.0058 -13.1817,-3.0909 -23.6609,-5.4644 -30.3488,-5.7609 5.2371,-2.6001 18.8552,-1.9313 35.3322,0.065 4.676,-5.707 9.0071,-12.0827 13.2301,-19.1704 -18.8984,-0.2629 -33.8921,-0.7768 -42.2343,0.6578 5.6308,-4.5257 24.8528,-6.8936 46.6959,-8.474 3.4035,-6.2139 6.7849,-12.9241 10.253,-20.1628 -33.9836,-6.1277 -67.0668,-3.7703 -89.8687,22.5739 -39.0375,-23.561 -80.8886,-26.3442 -125.6348,-17.9458 -70.7075,13.2639 -144.6386,9.0672 -220.7501,-0.9006 -40.3967,-5.2862 -75.7354,7.9726 -113.067,15.8369 -38.4389,8.0963 -80.3346,5.9387 -119.6483,5.7174 -4.59,8.9054 -11.8601,15.799 -23.0945,24.0304 l -5.593,-0.2145 c 19.152,-18.1024 33.5092,-35.676 25.3005,-64.3556 -30.8071,7.0662 -45.9476,21.2416 -45.0132,49.4641 -1.8389,-3.2364 -3.3112,-6.6398 -4.3738,-10.1731 -25.0198,-1.187 -44.7584,9.2128 -61.7962,28.8796 -22.7926,11.3435 -38.9996,19.4506 -57.4276,26.9213 -15.9159,6.4514 -19.7505,19.0896 -16.6221,34.8831 7.103,-1.2783 13.9686,-5.2754 20.8399,-12.9616 -2.7776,10.6262 -8.4406,17.3683 -17.9761,22.5789 3.1552,7.2982 9.4441,11.5431 15.7758,11.6887 13.0948,-4.7089 24.1246,-9.3965 36.125,-15.7665 8.6835,-3.7056 12.3617,6.241 3.7537,9.3318 -11.8329,2.5834 -22.7222,6.4351 -33.1584,10.8904 3.7377,6.2191 9.9617,8.9649 17.9872,7.546 13.8339,-4.7522 32.9104,-6.7531 47.7841,-5.4642 14.8424,-9.3532 21.5733,-9.6607 36.9393,-9.6607 15.0205,0 31.4006,0.9329 37.802,-16.9048 l 3.1876,-1.3649 c -1.2568,27.3259 -18.2404,27.9895 -41.1948,25.0981 -10.9486,-1.3754 -23.9466,-0.6686 -31.0174,4.3097 17.8577,3.3554 34.6095,4.5905 45.3692,21.9266 13.8018,22.2287 10.3444,26.9106 22.0051,52.5792 1.9687,3.6033 4.9945,8.0911 7.0275,11.4516 2.4593,-23.1293 4.2339,-42.5545 3.5382,-52.3365 4.4979,6.9258 4.4443,31.204 3.4892,56.7865 -0.3884,10.3512 6.1808,14.6771 12.7661,22.3905 1.7099,-27.2127 3.2417,-49.7958 2.1035,-60.7268 5.0105,7.1795 5.5283,34.0954 5.2908,61.3418 -0.084,9.7901 5.3286,11.7319 13.257,17.0234 0.766,-27.0833 1.9415,-48.9302 0.4586,-59.7559 4.9459,6.6184 6.4612,30.9832 7.1678,56.6045 0.3074,11.4944 6.1699,11.7914 16.8759,15.8044 -0.1335,-25.8858 -0.3923,-47.0085 -2.1791,-57.4176 4.8865,6.106 7.2216,28.2376 8.7698,52.284 0.6744,10.5991 4.9187,9.2831 15.382,10.8366 -0.809,-24.5156 -1.2567,-44.2212 -3.3008,-54.1772 4.8003,5.61 7.8042,25.5947 10.0912,47.9958 1.0569,10.3887 5.6578,7.7458 15.7219,7.1414 -1.4725,-23.5176 -2.6645,-42.3805 -4.9674,-51.9805 5.2586,5.7447 9.0447,27.5255 12.1728,51.313 3.1012,-0.3844 6.2241,-0.9006 9.3632,-1.5478 2.1358,-0.7392 4.239,-1.5535 6.1645,-2.4383 -2.0011,-22.1963 -3.9155,-39.9804 -6.4398,-49.1325 5.0159,5.1298 9.2389,23.8846 12.9281,45.3217 4.6812,-2.6215 9.9993,-6.0144 14.5944,-9.4879 -2.346,-19.7148 -4.487,-35.0771 -7.0921,-43.4323 4.6545,4.4553 9.0337,19.8877 13.0574,38.4049 3.9855,-3.4143 7.9283,-7.1685 11.8116,-11.2411 -2.7075,-18.0267 -4.6223,-32.353 -7.3297,-40.1422 4.4224,3.9645 8.2357,17.5684 12.5396,33.993 2.4809,-2.8532 5.6092,-6.1762 8.0415,-9.3155 l 16.0455,-0.6311 c 0.3075,-2.5135 -0.3276,-4.6928 -2.8691,-8.1395 -11.574,-15.675 -33.9893,-29.1651 -42.469,-46.3775 l 4.0233,0.1821 c 11.4446,16.6889 32.1447,23.1835 45.6321,42.8861 14.5783,21.3065 -14.5188,58.421 -22.528,78.7132 -10.075,25.5299 -11.0834,34.4242 12.0166,47.053 14.4651,8.2638 28.7792,15.648 41.9349,25.8803 10.2097,6.9148 20.4247,13.8247 30.629,20.7343 6.3911,7.4114 15.1286,12.8433 24.7019,14.9306 3.2684,0.2873 6.2456,0.7444 9.0123,1.327 12.4103,2.6053 26.746,8.3823 38.6383,13.4258 3.1661,0.9656 5.3609,-0.7983 4.7785,-4.2021 -8.0954,-13.4524 -18.2512,-26.6303 -30.4296,-36.6955 -7.157,-6.656 -17.1297,-11.6833 -26.595,-13.8245 -0.4098,-0.3683 -3.9533,-0.7335 -4.3578,-1.1004 4.4172,-2.8696 8.2195,-6.8288 6.3211,-10.3242 -1.9953,-3.6732 -12.8308,-2.7833 -16.5412,-3.5061 -12.5991,-2.4488 -24.8042,-9.3208 -35.208,-15.6319 -24.1409,-15.9119 -19.6375,-16.7158 -1.7419,-38.702 8.2571,-10.146 16.5091,-20.2867 24.7556,-30.422 15.1071,-18.5555 13.7586,-40.6935 9.266,-63.0246 l 3.5649,0.4044 c 1.5747,6.9798 5.6901,15.8693 6.1918,26.5009 61.1287,9.5797 120.5381,2.967 175.0248,-18.07 -0.5287,-8.1609 -0.469,-16.6079 -4.9672,-23.5177 -7.3782,-11.322 -13.7855,-22.4819 -19.2492,-31.8998 l 5.0106,-1.1379 c 6.8227,10.0113 12.405,19.5638 19.9987,28.9765 8.0578,9.9952 7.2972,28.4531 9.0557,40.7624 5.4474,38.1732 19.923,71.1319 10.6142,87.8356 -3.3494,9.7902 -7.9822,18.5498 -13.651,26.792 -4.8972,7.212 -10.3013,14.4234 -15.7108,21.6353 -12.5183,16.1711 -28.9193,27.4176 -45.074,39.6511 -15.2793,4.6495 -27.463,17.4874 -28.844,19.3212 -11.574,9.4127 -24.4535,16.182 -37.8615,20.6049 -3.5326,0.8847 -5.9273,4.2451 -1.5481,6.4405 7.729,4.1263 15.9699,5.9225 24.7286,5.9225 18.8932,-0.917 36.0062,-6.7749 49.9683,-19.5748 3.1228,-3.6625 7.5725,-4.8708 12.5021,-8.2042 0.8576,4.5147 5.7977,12.0879 10.3876,4.2505 9.0501,-18.2642 15.3389,-27.8116 30.9418,-42.6678 20.2953,-19.6177 40.952,-38.5777 62.8477,-56.4143 6.4507,-5.162 11.0564,-14.0136 14.1364,-25.7183 4.3415,-16.5004 -1.6503,-29.8991 -3.5811,-46.5272 -1.6989,-14.5852 -5.6901,-30.2494 1.9417,-43.7075 10.6678,-18.8249 31.1305,-30.6595 45.1589,-47.4334 24.815,-29.6829 39.7708,-60.6661 28.6011,-101.1331 l 4.4929,-1.2408 c 11.0723,40.1202 -1.5424,77.3133 -26.789,107.5129 -13.2893,15.8959 -35.4885,28.0971 -45.3006,46.7133 -1.9253,3.6571 -2.7181,7.8321 -3.5596,11.8399 25.6456,31.49 62.1926,36.2909 84.1571,57.3326 23.731,22.7247 26.6973,47.6195 29.8686,76.6864 2.1143,20.5997 7.006,40.2821 24.7932,52.7692 4.9674,2.7886 10.1721,3.7219 14.8586,7.4224 12.7933,8.7492 20.1497,19.4292 29.2267,30.2926 2.8154,4.1587 6.7524,2.1575 4.9944,-1.8234 -3.0851,-8.6359 -2.2438,-17.6869 -4.1472,-26.5061 -2.5081,-13.0696 -9.7191,-22.892 -18.2999,-32.3476 -4.2768,-4.105 -6.7471,-6.5104 -10.9054,-8.9595 5.2694,-3.4468 6.4772,-6.5265 4.6275,-9.6069 -3.3492,-5.5827 -9.9832,-6.9744 -13.5267,-14.1269 -3.6405,-7.3465 -5.1504,-15.9554 -6.0946,-23.9977 -3.6192,-25.0282 -2.5618,-55.0469 -7.7773,-79.5465 -2.071,-9.7092 -3.673,-24.1436 -14.3733,-28.2913 -11.8924,-4.2021 -20.3922,-9.31 -29.3619,-19.03 -14.4811,-15.7018 -23.6929,-35.7189 -10.8191,-57.4743 16.5252,-27.93 24.2593,-63.0165 7.7879,-92.7913 v 0 z" />
    <path
       style="opacity:1;fill:none;stroke-width:4.0452652"
       inkscape:connector-curvature="0"
       id="path16-1"
       d="m -3608.7322,-2917.1005 c 19.2653,-17.8377 78.8459,2.1684 84.78,-33.0488" />
    <path
       style="opacity:1;fill:none;stroke-width:4.0452652"
       inkscape:connector-curvature="0"
       id="path18-6"
       d="m -3583.8877,-2925.3533 c 14.8536,-1.5696 32.0477,-1.1917 44.2812,-6.1116" />
    <path
       style="opacity:1;fill:#003b8f;fill-rule:evenodd;stroke-width:4.0452652"
       inkscape:connector-curvature="0"
       id="path20-8"
       d="m -3541.5847,-3026.6119 c -2.4875,-1.7396 -5.0441,-5.2186 -3.5716,-9.1428 5.1019,-13.5228 15.711,-23.6093 28.2019,-31.7436 0,0 -9.3359,13.5656 -14.7453,21.9804 -2.4433,3.8998 -11.315,15.5184 0.2791,17.0827 0,0 -6.8817,4.4715 -10.1665,1.8448 z" />
    <path
       style="opacity:1;fill:#003b8f;fill-rule:evenodd;stroke-width:4.0452652"
       inkscape:connector-curvature="0"
       id="path22-4"
       d="m -3462.5688,-2907.6744 c 14.449,9.9627 32.0045,19.9147 48.3505,18.9924 l 0.2588,3.1715 c -21.1745,1.1975 -33.137,-1.6505 -53.9123,-15.9769 -12.0974,-8.3446 -23.9843,-17.5625 -37.7159,-18.6577 l 0.3681,-3.1716 c 17.5987,1.4024 26.3573,4.4067 42.6508,15.6426 z" />
    <path
       style="opacity:1;fill:none;stroke-width:4.0452652"
       inkscape:connector-curvature="0"
       id="path24-8"
       d="m -3409.5019,-2966.9409 c -8.0361,12.293 -7.0706,36.0534 9.0072,45.9729" />
    <path
       style="opacity:1;fill:none;stroke-width:4.0452652"
       inkscape:connector-curvature="0"
       id="path26-8"
       d="m -3414.0121,-2954.3999 c -1.1701,7.843 0.041,16.6512 4.1959,23.8035" />
    <path
       style="opacity:1;fill:#d40000;fill-rule:evenodd;stroke:#d40000;stroke-width:2.0226326;stroke-miterlimit:4;stroke-dasharray:none"
       inkscape:connector-curvature="0"
       id="path32-1"
       stroke-miterlimit="4"
       d="m -2820.6327,-2617.6129 c 7.4914,7.0177 13.176,14.7955 19.7558,22.6656 2.8155,4.1587 6.7525,2.1632 4.9889,-1.8228 -3.085,-8.6303 -2.2383,-17.687 -4.1421,-26.5061 -2.5132,-13.0642 -9.7244,-22.8923 -18.3051,-32.3425 -0.8685,-0.8362 -1.6665,-1.602 -2.4217,-2.314 1.5103,13.7276 2.0982,27.2342 0.1294,40.3202 v 0 z" />
    <path
       style="opacity:1;fill:#d40000;fill-rule:evenodd;stroke:#d40000;stroke-width:2.0226326;stroke-miterlimit:4;stroke-dasharray:none"
       inkscape:connector-curvature="0"
       id="path34-5"
       stroke-miterlimit="4"
       d="m -2828.6419,-2664.9855 c 4.746,-3.2851 5.7977,-6.2354 4.0179,-9.1967 -1.7204,-2.8642 -4.309,-4.6281 -6.898,-6.6346 -10.5927,4.1588 -3.4516,10.0056 2.8801,15.8313 z" />
    <path
       style="opacity:1;fill:#d40000;fill-rule:evenodd;stroke:#d40000;stroke-width:2.0226326;stroke-miterlimit:4;stroke-dasharray:none"
       inkscape:connector-curvature="0"
       id="path36-9"
       stroke-miterlimit="4"
       d="m -3102.8552,-2623.9239 c 1.3052,4.5201 5.8734,10.572 10.1449,3.2796 0.6257,-1.2731 1.2512,-2.4973 1.8555,-3.6894 -4.2178,-10.9228 -4.6437,-6.4133 -12.0004,0.4098 z" />
    <path
       style="opacity:1;fill:#d40000;fill-rule:evenodd;stroke:#d40000;stroke-width:2.0226326;stroke-miterlimit:4;stroke-dasharray:none"
       inkscape:connector-curvature="0"
       id="path38"
       stroke-miterlimit="4"
       d="m -3211.3029,-2640.5913 c 9.5839,2.9398 19.5618,7.0177 28.2397,10.6962 3.166,0.9657 5.3666,-0.7981 4.7784,-4.202 -8.0901,-13.4525 -18.2512,-26.6302 -30.424,-36.6898 -4.4172,-4.1102 -9.9075,-7.6054 -15.6947,-10.1783 5.3932,11.6239 9.8646,26.3441 13.1006,40.3739 z" />
    <path
       style="opacity:1;fill:#d40000;fill-rule:evenodd;stroke:#d40000;stroke-width:2.0226326;stroke-miterlimit:4;stroke-dasharray:none"
       inkscape:connector-curvature="0"
       id="path40-7"
       stroke-miterlimit="4"
       d="m -3238.6068,-2686.4672 c 3.9208,-2.7833 6.9789,-6.3756 5.2314,-9.585 -1.0303,-1.8932 -4.412,-2.5729 -7.9555,-2.8855 -8.3974,8.4902 -8.5107,8.3013 2.7241,12.471 z" />
    <path
       style="opacity:1;fill:#d40000;fill-rule:evenodd;stroke:#d40000;stroke-width:2.0226326;stroke-miterlimit:4;stroke-dasharray:none"
       inkscape:connector-curvature="0"
       id="path42-1"
       stroke-miterlimit="4"
       d="m -3159.5667,-2623.6813 c -9.1904,6.1493 -19.0227,10.8368 -29.1515,14.1808 -3.5326,0.8847 -5.9273,4.2448 -1.5481,6.4403 7.729,4.1265 15.9699,5.9227 24.7286,5.9227 18.8931,-0.9224 36.0062,-6.775 49.9684,-19.5749 l 0.2105,-0.2386 c -17.3991,0.2588 -32.6841,-1.467 -44.2083,-6.7319 z" />
    <path
       style="opacity:1;fill:#003b8f;fill-rule:evenodd;stroke-width:4.0452652"
       inkscape:connector-curvature="0"
       id="path44-2"
       d="m -3402.1762,-2923.4924 c -19.3785,-11.2841 -18.2512,-34.1005 -4.8379,-47.6356 l 1.7152,2.503 c -7.5671,7.6055 -8.4571,32.2669 3.4463,41.5876 l -0.3236,3.5439 z" />
    <path
       style="opacity:1;fill:#003b8f;fill-rule:evenodd;stroke-width:4.0452652"
       inkscape:connector-curvature="0"
       id="path46-1"
       d="m -3584.2477,-3016.2555 c 6.7905,-2.6157 14.023,-0.275 16.1426,5.2269 2.1196,5.4965 -1.677,12.0879 -8.4674,14.704 -6.7905,2.6163 -14.023,0.2752 -16.1426,-5.2267 -2.1196,-5.4965 1.6775,-12.088 8.4674,-14.7042 z" />
    <path
       style="opacity:1;fill:#ffffff;fill-rule:evenodd;stroke-width:4.0452652"
       inkscape:connector-curvature="0"
       id="path48"
       d="m -3588.5151,-3013.9899 c 2.1896,-0.8468 4.6546,0.2468 5.4959,2.4382 0.8414,2.1898 -0.2466,4.6552 -2.4379,5.4966 -2.1947,0.8467 -4.6547,-0.2467 -5.5013,-2.4382 -0.8413,-2.1898 0.2468,-4.6552 2.4433,-5.4966 z" />
    <path
       style="opacity:1;fill:#003b8f;fill-rule:evenodd;stroke-width:4.0452652"
       inkscape:connector-curvature="0"
       id="path50-8"
       d="m -3580.1176,-3020.7054 c 7.6156,-1.0842 16.2071,2.5947 18.8713,7.368 l -6.7686,2.6109 c -2.4321,-2.8265 -6.9142,-4.6009 -11.337,-4.2505 -6.6286,0.534 -12.1945,6.4618 -12.0271,13.2477 l -16.3957,6.3163 -0.8739,-2.255 11.9788,-8.7059 c 1.6179,-7.735 8.9584,-13.253 16.5522,-14.3319 z" />
    <path
       style="opacity:1;fill:#ffcd50;fill-rule:evenodd;stroke-width:4.0452652"
       inkscape:connector-curvature="0"
       id="path52-26"
       d="m -3640.8296,-3450.3566 -35.8537,-8.2597 -10.77,35.1828 -10.7602,-35.1828 -35.8534,8.2597 25.0836,-26.913 -25.0836,-26.9231 35.8534,8.2694 10.7602,-35.1926 10.77,35.1926 35.8537,-8.2694 -25.0838,26.9231 z" />
    <path
       style="opacity:1;fill:#ffcd50;fill-rule:evenodd;stroke-width:4.0452652"
       inkscape:connector-curvature="0"
       id="path54-0"
       d="m -2793.5308,-3450.3566 -35.8539,-8.2597 -10.7698,35.1828 -10.7699,-35.1828 -35.8537,8.2597 25.0939,-26.913 -25.0939,-26.9231 35.8537,8.2694 10.7699,-35.1926 10.7698,35.1926 35.8539,-8.2694 -25.094,26.9231 z" />
    <path
       style="opacity:1;fill:#ffcd50;fill-rule:evenodd;stroke-width:4.0452652"
       inkscape:connector-curvature="0"
       id="path58-3"
       d="m -3640.8296,-2827.8569 -35.8537,-8.2695 -10.7602,35.1926 -10.77,-35.1926 -35.8534,8.2695 25.0836,-26.9232 -25.0836,-26.9231 35.8534,8.2794 10.77,-35.1924 10.7602,35.1924 35.8537,-8.2693 -25.0838,26.9231 z" />
    <path
       style="opacity:1;fill:#ffcd50;fill-rule:evenodd;stroke-width:4.0452652"
       inkscape:connector-curvature="0"
       id="path62-0"
       d="m -3075.9558,-3450.3566 -35.8536,-8.2597 -10.77,35.1828 -10.7602,-35.1828 -35.8637,8.2597 25.0938,-26.913 -25.0938,-26.9231 35.8637,8.2694 10.7602,-35.1926 10.77,35.1926 35.8536,-8.2694 -25.0836,26.9231 z" />
    <path
       style="opacity:1;fill:#ffcd50;fill-rule:evenodd;stroke-width:4.0452652"
       inkscape:connector-curvature="0"
       id="path64-7"
       d="m -3075.9558,-3139.0765 -35.8536,-8.2694 -10.77,35.1926 -10.7602,-35.1926 -35.8637,8.2694 25.0938,-26.923 -25.0938,-26.9232 35.8637,8.2694 10.7602,-35.1829 10.77,35.1926 35.8536,-8.2695 -25.0836,26.9132 25.0836,26.923 z" />
    <path
       style="opacity:1;fill:#ffcd50;fill-rule:evenodd;stroke-width:4.0452652"
       inkscape:connector-curvature="0"
       id="path66-1"
       d="m -2793.5308,-3139.0765 -35.8539,-8.2694 -10.7698,35.1926 -10.7699,-35.1926 -35.8537,8.2694 25.0939,-26.923 -25.0939,-26.9232 35.8537,8.2694 10.7699,-35.1829 10.7698,35.1926 35.8539,-8.2695 -25.094,26.9132 25.094,26.923 z" />
    <path
       style="opacity:1;fill:#ffcd50;fill-rule:evenodd;stroke-width:4.0452652"
       inkscape:connector-curvature="0"
       id="path68"
       d="m -3341.5936,-2516.5971 -35.8538,-8.2693 -10.7697,35.1925 -10.7699,-35.1925 -35.8538,8.2693 25.0938,-26.9231 -25.0938,-26.9131 35.8538,8.2696 10.7699,-35.1926 10.7697,35.1926 35.8538,-8.2696 -25.094,26.9232 z" />
    <path
       style="opacity:1;fill:#ffcd50;fill-rule:evenodd;stroke-width:4.0452652"
       inkscape:connector-curvature="0"
       id="path70-8"
       d="m -3082.7919,-2516.5971 -35.8536,-8.2693 -10.7699,35.1925 -10.7602,-35.1925 -35.8637,8.2693 25.0937,-26.9231 -25.0937,-26.9131 35.8637,8.2696 10.7602,-35.1926 10.7699,35.1926 35.8536,-8.2696 -25.0838,26.9232 z" />
    <path
       style="opacity:1;fill:#ffcd50;fill-rule:evenodd;stroke-width:4.0452652"
       inkscape:connector-curvature="0"
       id="path72-6"
       d="m -2793.5308,-2850.1476 -35.8539,-8.2694 -10.7698,35.1827 -10.7699,-35.1827 -35.8537,8.2694 25.0939,-26.9232 -25.0939,-26.9231 35.8537,8.2694 10.7699,-35.1926 10.7698,35.1926 35.8539,-8.2694 -25.094,26.9231 z" />
    <path
       style="opacity:1;fill:#ffcd50;fill-rule:evenodd;stroke-width:4.0452652"
       inkscape:connector-curvature="0"
       id="path74-8"
       d="m -2934.7433,-3294.7225 -35.8538,-8.2695 -10.7698,35.1925 -10.7602,-35.1925 -35.8637,8.2695 25.0937,-26.9232 -25.0937,-26.913 35.8637,8.2693 10.7602,-35.1924 10.7698,35.1924 35.8538,-8.2693 -25.0939,26.9231 z" />
    <path
       style="opacity:1;fill:#ffcd50;fill-rule:evenodd;stroke-width:4.0452652"
       inkscape:connector-curvature="0"
       id="path76-6"
       d="m -3217.1681,-3294.7225 -35.8638,-8.2695 -10.7603,35.1925 -10.7698,-35.1925 -35.8537,8.2695 25.0838,-26.9232 -25.0838,-26.913 35.8537,8.2693 10.7698,-35.1924 10.7603,35.1924 35.8638,-8.2693 -25.0937,26.9231 z" />
    <path
       style="opacity:1;fill:#ffcd50;fill-rule:evenodd;stroke-width:4.0452652"
       inkscape:connector-curvature="0"
       id="path82-4"
       d="m -3600.4237,-2516.5971 -35.8536,-8.2693 -10.7603,35.1925 -10.7699,-35.1925 -35.8535,8.2693 25.0836,-26.9231 -25.0836,-26.9131 35.8535,8.2696 10.7699,-35.1926 10.7603,35.1926 35.8536,-8.2696 -25.0838,26.9232 z" />
    <path
       style="opacity:1;fill:#ffcd50;fill-rule:evenodd;stroke-width:4.0452652"
       inkscape:connector-curvature="0"
       id="path84-3"
       d="m -2823.9901,-2516.5971 -35.8537,-8.2693 -10.7601,35.1925 -10.77,-35.1925 -35.8535,8.2693 25.0836,-26.9231 -25.0836,-26.9131 35.8535,8.2696 10.77,-35.1926 10.7601,35.1926 35.8537,-8.2696 -25.0838,26.9232 z" />
    <path
       style="opacity:1;fill:#d40000;fill-rule:evenodd;stroke:#d40000;stroke-width:2.0226326;stroke-miterlimit:4;stroke-dasharray:none"
       inkscape:connector-curvature="0"
       id="path28-6"
       stroke-miterlimit="4"
       d="m -3530.303,-2641.0768 c -0.442,0.9011 -0.8522,1.7909 -1.2136,2.6538 -3.4624,8.5227 -7.8259,4.2991 -11.9031,0.1134 4.3147,-8.5551 8.0685,-11.3707 13.122,-2.7672 v 0 z" />
    <path
       style="opacity:1;fill:#d40000;fill-rule:evenodd;stroke:#d40000;stroke-width:2.0226326;stroke-miterlimit:4;stroke-dasharray:none"
       inkscape:connector-curvature="0"
       id="path30-3"
       stroke-miterlimit="4"
       d="m -3550.2248,-2632.7026 c -1.3915,1.5105 -2.9448,2.8804 -4.8378,4.1912 -15.2309,14.4019 -41.9067,15.3242 -61.7921,12.1849 -7.2596,-1.1327 -6.0785,-4.45 -0.5121,-7.1633 9.0234,-4.3962 15.9429,-9.5042 22.5499,-15.3838 10.6464,5.3615 26.6434,6.7103 44.5925,6.1705 z" />
  </g>
  <path
     inkscape:connector-curvature="0"
     style="opacity:1;fill:#ffffff;fill-opacity:1;fill-rule:evenodd;stroke:#003d8f;stroke-width:2.33577275;stroke-miterlimit:4;stroke-dasharray:none;stroke-opacity:1"
     id="path14-0-0"
     d="m 176.22753,200.76776 c -0.82803,2.42 -1.97337,4.58533 -3.37473,6.62267 -1.21073,1.78274 -2.54668,3.56531 -3.88403,5.34806 l 3.75789,6.3636 c 5.01734,-4.84926 10.12399,-9.53596 15.53703,-13.945 1.59467,-1.27602 2.73328,-3.46405 3.49469,-6.35725 1.0733,-4.07879 -0.40794,-7.39073 -0.88531,-11.50109 0,0 -14.64554,13.46901 -14.64554,13.46901 z"
     sodipodi:nodetypes="cccccccc"
     inkscape:export-xdpi="85.333298"
     inkscape:export-ydpi="85.333298" />
  <path
     inkscape:connector-curvature="0"
     style="opacity:1;fill:#ffffff;fill-opacity:1;fill-rule:evenodd;stroke:none;stroke-width:1;stroke-opacity:1"
     id="path14-0-6"
     d="m 173.60347,179.0558 c 1.3467,9.436 4.92529,17.583 2.62396,21.71196 -0.82803,2.42 -1.97327,4.58533 -3.37472,6.62267 -1.21064,1.78274 -2.54668,3.56531 -3.88394,5.34806 -3.09479,3.99731 -4.92053,6.73357 -8.91427,9.75757 l 4.00626,2.6503 c 0,0 6.51082,-3.97302 8.66582,-6.04427 5.01732,-4.84926 10.12407,-9.53596 15.53701,-13.945 1.59467,-1.27602 2.73328,-3.46405 3.49479,-6.35725 1.0732,-4.07879 -0.40804,-7.39073 -0.88531,-11.50099 -0.41999,-3.6054 -1.40677,-7.47733 0.47998,-10.80404 z"
     sodipodi:nodetypes="cccccccccccc"
     inkscape:export-xdpi="85.333298"
     inkscape:export-ydpi="85.333298" />
  <path
     inkscape:connector-curvature="0"
     style="opacity:1;fill:#ffffff;fill-opacity:1;fill-rule:evenodd;stroke:#003d8f;stroke-width:2.33577275;stroke-miterlimit:4;stroke-dasharray:none;stroke-opacity:1"
     id="path14-0-9"
     d="m 71.950181,205.88394 c -2.25592,2.14 -4.317215,4.23068 -6.254705,6.392 -2.139966,2.32266 -4.444006,4.3187 -5.997285,6.96274 -1.043962,1.77864 1.679351,-8.06778 1.679351,-8.06778 l -17.23795,10.8983 c 2.182667,-2.60126 4.962764,-3.48665 7.330713,-5.54659 2.920064,-3.06932 5.668016,-6.11734 8.442694,-9.31334 z"
     sodipodi:nodetypes="cccccccc"
     inkscape:export-xdpi="85.333298"
     inkscape:export-ydpi="85.333298" />
  <path
     inkscape:connector-curvature="0"
     style="fill:#ffcd50;fill-opacity:1;fill-rule:evenodd;stroke-width:0.99995524"
     d="m 99.384876,24.347088 -8.862317,-2.041073 -2.662834,8.695885 -2.661808,-8.695885 -8.863437,2.041073 6.202474,-6.652004 -6.202474,-6.654719 8.863437,2.043882 2.661808,-8.6995275 2.662834,8.6995275 8.862317,-2.043882 -6.202473,6.654719 z"
     id="path60-6"
     inkscape:export-xdpi="85.333298"
     inkscape:export-ydpi="85.333298" />
  <path
     inkscape:connector-curvature="0"
     style="opacity:1;fill:#d40000;fill-opacity:1;fill-rule:evenodd;stroke:#003d8f;stroke-width:2.33577275;stroke-miterlimit:4;stroke-dasharray:none;stroke-opacity:1"
     id="path12-6-7"
     d="m 80.920686,49.522145 c 1.864049,-7.981265 -0.652923,-16.843163 7.291106,-21.667104 1.283998,-0.77861 2.180049,0.714706 0.894743,1.492009 -6.041295,3.670695 -6.436735,12.982066 -7.967404,20.734158 -1.273161,-0.101559 -0.566869,0.66958 -0.218445,-0.559063 z"
     sodipodi:nodetypes="ccccc"
     inkscape:export-xdpi="85.333298"
     inkscape:export-ydpi="85.333298" />
  <path
     inkscape:connector-curvature="0"
     style="opacity:1;fill:#d40000;fill-opacity:1;fill-rule:evenodd;stroke:none;stroke-width:1;stroke-opacity:1"
     id="path12-6-3"
     d="m 79.147465,50.034681 c 1.863956,-7.981265 1.123942,-17.352991 9.067971,-22.176932 1.283997,-0.77861 2.180049,0.714707 0.894743,1.492009 -6.041295,3.670695 -5.030784,14.696982 -6.561359,22.448988 -0.698717,3.530741 -0.306939,3.456565 -0.306939,3.456565 l -2.746367,-0.42528 c -2.714037,-0.909118 -1.128894,-2.041906 -0.348049,-4.79535 z"
     sodipodi:nodetypes="ccccccc"
     inkscape:export-xdpi="85.333298"
     inkscape:export-ydpi="85.333298" />
  <path
     inkscape:connector-curvature="0"
     style="opacity:1;fill:#ffffff;fill-opacity:1;fill-rule:evenodd;stroke:none;stroke-width:1;stroke-opacity:1"
     id="path14-0-5"
     d="m 85.097006,194.37033 c -0.701283,0.73751 -1.449305,1.46137 -2.282698,2.18673 -3.657293,2.99999 -7.321304,6.12676 -10.864017,9.32669 -2.255966,2.14011 -4.31726,4.23069 -6.254665,6.392 -2.140031,2.32275 -4.444016,4.3187 -5.997296,6.96274 -1.043998,1.77864 -2.342741,4.19202 -3.110718,6.01727 -0.96397,2.3747 -2.214714,0.74807 -3.325306,-0.35857 -13.499034,4.73547 -10.186163,-1.88346 -9.1226,-2.82808 2.182693,-2.60135 4.962714,-3.48675 7.330722,-5.54669 2.919997,-3.06932 5.668006,-6.11733 8.442683,-9.31334 3.4747,-4.00927 7.108037,-8.24668 9.960023,-12.70496 0.614575,-1.03871 1.318671,-2.04537 2.04925,-3.044 4.184055,2.01594 8.598751,2.99729 13.175043,2.91068 z"
     sodipodi:nodetypes="cccccccccccccc"
     inkscape:export-xdpi="85.333298"
     inkscape:export-ydpi="85.333298" />
  <path
     style="opacity:1;fill:#d40000;fill-opacity:1;fill-rule:evenodd;stroke:#d40000;stroke-width:0.5;stroke-miterlimit:4;stroke-dasharray:none"
     inkscape:connector-curvature="0"
     id="path30-3-4"
     stroke-miterlimit="4"
     d="m 51.962292,226.66612 c -0.344001,0.37333 -0.728005,0.71199 -1.19598,1.03599 -3.765324,3.56 -10.36002,3.78795 -15.276009,3.01196 -1.794694,-0.28 -1.502704,-1.1 -0.126607,-1.7707 2.230738,-1.08673 3.941348,-2.34928 5.574704,-3.80271 2.631962,1.32534 6.58668,1.65869 11.023986,1.52527 z"
     inkscape:export-xdpi="85.333298"
     inkscape:export-ydpi="85.333298" />
  <path
     style="opacity:1;fill:#d40000;fill-rule:evenodd;stroke:#d40000;stroke-width:0.5;stroke-miterlimit:4;stroke-dasharray:none"
     inkscape:connector-curvature="0"
     id="path28-6-9"
     stroke-miterlimit="4"
     d="m 56.888009,224.60001 c -0.109274,0.22273 -0.21068,0.44265 -0.300024,0.65594 -0.855966,2.10675 -1.934697,1.06272 -2.942637,0.028 1.066657,-2.11469 1.994664,-2.81071 3.243969,-0.68397 v 0 z"
     inkscape:export-xdpi="85.333298"
     inkscape:export-ydpi="85.333298" />
  <path
     style="opacity:1;fill:#d40000;fill-opacity:1;fill-rule:evenodd;stroke:#003d8f;stroke-width:2.33577275;stroke-miterlimit:4;stroke-dasharray:none;stroke-opacity:1"
     inkscape:connector-curvature="0"
     id="path6-0-8"
     d="m 14.039011,107.23 c -1.175961,-1.23733 0.06696,-2.54668 1.24273,-1.31066 2.609318,2.74802 5.715962,5.44672 9.103961,7.18799 1.881335,0.96938 2.877317,0.66397 1.238722,-1.12531 -1.163984,-1.272 -2.126668,-2.64798 -2.886742,-4.12401 -0.781247,-1.51723 0.666751,-2.43729 1.448041,-0.92258 1.553311,3.0227 4.979976,5.82005 8.228011,6.91472 4.783973,1.61328 2.488006,-1.38401 1.614685,-4.43875 -0.818676,-2.86125 -0.874673,-6.47066 -2.581281,-8.91599 -0.974626,-1.395967 0.3974,-2.165324 1.372005,-0.767957 1.034672,1.479957 1.854686,3.006717 2.359999,4.618687 1.462677,4.66802 1.888015,1.47323 3.900002,-0.55869 1.302686,-1.09606 2.533277,0.0878 1.230721,1.18399 -2.272038,1.91326 -2.693352,7.78928 -1.277317,10.10502 2.077279,3.39724 5.078632,5.25866 8.801262,6.43329 -2.161335,-0.0159 -4.394687,0.148 -6.653279,0.3667 -1.1893,-0.68275 -2.345283,-1.45473 -3.467991,-2.32808 -2.865341,-2.22922 -6.27598,-1.94531 -9.630708,-2.63591 -5.735984,-1.17735 -10.165011,-5.59872 -14.042993,-9.68273 z"
     inkscape:export-xdpi="85.333298"
     inkscape:export-ydpi="85.333298" />
  <path
     style="opacity:1;fill:#d40000;fill-opacity:1;fill-rule:evenodd;stroke:none;stroke-width:0.99971068;stroke-miterlimit:4;stroke-dasharray:none;stroke-opacity:1"
     inkscape:connector-curvature="0"
     id="path6-0-8-5"
     d="m 14.039011,107.23 c -1.175961,-1.23733 0.06696,-2.54668 1.24273,-1.31066 2.609318,2.74802 5.715962,5.44672 9.103961,7.18799 1.881335,0.96938 2.877317,0.66397 1.238722,-1.12531 -1.163984,-1.272 -2.126668,-2.64798 -2.886742,-4.12401 -0.781247,-1.51723 0.666751,-2.43729 1.448041,-0.92258 1.553311,3.0227 4.979976,5.82005 8.228011,6.91472 4.783973,1.61328 2.488006,-1.38401 1.614685,-4.43875 -0.818676,-2.86125 -0.874673,-6.47066 -2.581281,-8.91599 -0.974626,-1.395967 0.3974,-2.165324 1.372005,-0.767957 1.034672,1.479957 1.854686,3.006717 2.359999,4.618687 1.462677,4.66802 1.888015,1.47323 3.900002,-0.55869 1.302686,-1.09606 2.533277,0.0878 1.230721,1.18399 -2.272038,1.91326 -2.693352,7.78928 -1.27731,10.10502 2.077272,3.39724 5.078625,5.25866 8.801255,6.43329 -2.161335,-0.0159 -4.394687,0.148 -6.653279,0.3667 -1.1893,-0.68275 -2.345283,-1.45473 -3.467991,-2.32808 -2.865341,-2.22922 -6.27598,-1.94531 -9.630708,-2.63591 -5.735984,-1.17735 -10.165011,-5.59872 -14.042993,-9.68273 z"
     inkscape:export-xdpi="85.333298"
     inkscape:export-ydpi="85.333298" />
</svg>
