<!-- Created with Inkscape (http://www.inkscape.org/) -->
<svg xmlns:rdf="http://www.w3.org/1999/02/22-rdf-syntax-ns#" xmlns="http://www.w3.org/2000/svg" height="300" width="248" version="1.0" xmlns:cc="http://creativecommons.org/ns#" xmlns:dc="http://purl.org/dc/elements/1.1/">
 <metadata>
  <rdf:RDF>
   <cc:Work rdf:about="">
    <dc:format>image/svg+xml</dc:format>
    <dc:type rdf:resource="http://purl.org/dc/dcmitype/StillImage"/>
    <dc:title/>
   </cc:Work>
  </rdf:RDF>
 </metadata>
 <path d="m247,1.0001,0,214.77c0,82.42-84.912,44.012-123,82.791-38.089-38.77-123-0.37-123-82.79v-214.77z" stroke="#000" stroke-miterlimit="4" stroke-dasharray="none" stroke-width="2" fill="#ffcd50"/>
 <path fill="#d40000" d="m128.08,252.54s1.1624-7.0407,7.2283-9.0552c9.9439-3.2897,2.0412,8.591,0.2116,7.825-4.4338-2.4475-7.4399,1.2301-7.4399,1.2301z" fill-rule="evenodd"/>
 <path fill="#000" d="m1,1,0,214.78c0,17.325,3.7513,29.293,10.031,37.781l235.97-252.56z" fill-rule="evenodd"/>
 <path fill="#d40000" d="m46.17,232.58s2.4151-6.7148,8.7448-7.5993c10.376-1.4375,0.45424,8.8182-1.2061,7.7333-3.9175-3.2079-7.5387-0.13401-7.5387-0.13401z" fill-rule="evenodd"/>
 <path fill="#d20000" d="m74.329,34.914c0.27085,4.28,6.0067,10.531,17.91,8.8661,14.665-2.0497,23.57-2.3008,27.157,1.855l0.3428,3.6861-2.3192,0.03809c-0.09-1.569-11.34-6.682-27.546-1.62-11.951,3.734-23.245-3.241-15.545-12.825z" fill-rule="evenodd"/>
 <path fill="#d20000" d="m94.27,44.458c-0.91836-2.59-1.1596-5.915-1.1596-5.915l6.4764-1.3148c-2.0624,1.6463-4.1291,5.0206-5.3168,7.2297zm0.11567,1.5193c-0.32869,2.7268,0.38794,6.1802,0.38794,6.1802l6.4031-0.11991c-2.347-1.538-4.907-4.002-6.794-6.06z" fill-rule="evenodd"/>
 <path fill-rule="evenodd" d="m98.265,243.21c10.747,11.744-14.354,25.667-15.654,6.1816-1.9002,0.68418-3.8836,0.86334-5.8797,0.96914-0.66302,6.9349-7.9407,9.8099-13.164,8.1551-6.3001-1.9947-5.544-6.6979-3.3151-11.208-1.0326,1.0566-1.8917,2.2416-2.3699,3.7171-6.1844,0.43872-8.979-3.7722-8.6545-8.3385,0.41333-5.7979,3.4463-8.2835,9.1511-7.5542-1.4445-0.64327-2.9582-1.0058-4.5438-1.0905-2.2416-3.3743,4.3153-14.402,14.083-7.8307,5.369,3.6113,11.242,3.5902,16.306,2.2021,8.749-2.3982,19.02-10.969,25.27-21.028-7.0717-4.2927-9.4967-10.075-7.2763-17.346-2.7861,4.0797-6.712,5.5143-10.624,5.4085,2.6789-3.7863,4.3096-7.7968,3.6396-12.3-3.5535,6.018-7.32,8.3258-11.284,9.1511-1.8381-0.38653-3.9146-1.5052-5.094-2.803,4.201-1.4615,7.4329-4.8231,9.6984-10.082,5.3437-13.646,14.299-23.541,28.637-27.618,7.7263-2.1964,15.317-5.5017,20.916-11.295,1.7605,1.4389,3.5592,3.0203,5.3987,4.7681-2.796,9.9707-4.524,19.266-4.7836,27.617-10.898,10.56-16.073,24.712,0.33997,36.427,0.007,2.1668-0.28778,4.3322-0.88449,6.4976-3.1162,1.7182-6.9476,2.188-11.379,1.8663,2.4715,2.8891,5.7782,4.1361,9.5447,4.6313-0.78575,1.8748-1.7803,3.7073-2.9638,5.5045-4.1714,1.3557-8.079,1.3571-12.973,0.0621,1.8141,3.1529,4.6524,4.9712,8.0536,6.1604-1.6293,1.7676-3.4294,3.5126-5.3817,5.2449-4.2518,0.28919-7.7432-0.44013-12.011-2.5477,1.089,3.277,3.3264,5.5581,6.1999,7.3553l-0.0621,0.048c-6.135,2.3135-12.446,2.0116-18.94-0.92541z" fill="#000"/>
 <path d="m140.7,162.47c-5.2999-1.3655-6.4355-10.312-1.7281-12.778-1.2767-3.1021-4.1375-6.7261-10.58-10.084,2.4983-1.1525,5.7584-1.4728,8.3498-1.4488,2.5378,1.9552,5.156,4.2052,7.8688,6.8122-1.7337,6.1097-3.0682,11.963-3.9104,17.498z" fill-rule="evenodd" stroke="#ffcd50" stroke-dasharray="none" stroke-miterlimit="4" stroke-width="1.5" fill="#000"/>
 <path fill-rule="evenodd" d="m48.141,202.56-13.839-3.191-4.1559,13.581-4.1559-13.581-13.839,3.191,9.6829-10.39-9.6829-10.39,13.839,3.1924,4.1559-13.581,4.1559,13.581,13.839-3.191-9.6843,10.39,9.6843,10.388z" fill="#FFF"/>
 <path fill-rule="evenodd" d="m204.97,37.909-13.839-3.191-4.1559,13.581-4.1544-13.581-13.84,3.191,9.6843-10.39-9.6843-10.39,13.84,3.1924,4.1544-13.582,4.1559,13.582,13.839-3.191-9.6829,10.39,9.6829,10.388z" fill="#FFF"/>
 <path fill="#000" d="M227.5,23.781c4.7,10.853-4.97,16.517-8.84,25.688-1.95,4.601-1.08,11.34,1.93,16-3.54,3.428-8.28,4.997-13.15,6.625-13.85,4.625-28.7,14.645-26.75,30.936,1.71,14.3,11.57,20.04,24.4,23.59,9.76,2.71,19.45,7.23,23.47,17.32,4.53,11.33-3.74,22.48-16,19.12-10.45-2.86-21.41-12.55-25.84-22.34-5.33-11.77-15.97-19.2-27.53-29.94-2.28-2.12-5.61-4.3-8.41-6.78l-24.28,25.97c7.2,3.79,13.69,8.71,19.69,14.56-6.59,22.83-7.64,42.07,1.75,54.31-3.57,10.2-3.39,23.83,1.53,33.13,2.01-1.19,3.87-2.55,5.53-4.13-4.56-10.86-0.41-16.13-0.75-26.96,4.21,8.01,0.78,16.21,3.78,23.65,3.54-3.83,10.03-6.96,6.35-14.62,2.88,0.96,6.05,1.73,9.56,2.28,3.23,0.5-3.04,17.82-9.6,26.03-2,2.51-4.19,3.82-6.59,4.4-3.93,0.97-10.8,0.53-14.63-0.46-9.23-2.4-10.85,11.95-3.9,10.87-16.85,10.42,5.62,24.53,10.87,7.09-1.44,11.89,18.1,14.34,18.16-0.15,2.29-0.57,4.59-1.48,6.87-3.09,12.96,9.35,23.3-13.86,8.44-13.63,0.3-1.21,0.58-2.42,0.88-3.63,4.67,0.14,9.36-0.53,14.03-1.96l0.31-0.41c-3.04-1.42-5.52-3.39-7-6.47,3.94,1.37,7.5,1.76,10.84,1.22,1.29-1.87,2.49-3.75,3.63-5.62-3.59-1.11-6.59-2.88-8.53-6.1,4.54,1.1,8.44,1.23,12.06-0.12,1.02-1.93,1.96-3.86,2.84-5.78-3.99-0.71-7.44-2.17-9.84-5.38,4.98,0.69,9.23,0.24,12.78-1.56,1.03-2.64,1.96-5.28,2.82-7.91-27.88,0.2-36.15-9.48-36.5-18.87-0.33-8.69,6.89-15.23,7.5-23.6,6.04,6.17,13.24,11.14,21.18,13.32,18.28,5,31.85-12.15,25.03-29.22-4.7-11.79-15.17-17.82-26.59-21.28,7.25-5.99,25.57,1.54,25.41-16.13-7.76,10.45-21.57-0.52-32.29,11.72,1.22-19.479,35.04-8.89,33.04-32.189-11.63,15.694-40.23,5.973-41.69,29.499-3.17-2.84-5.22-6.65-5.35-12.03-0.26-11.555,12.01-18.224,21.72-21.469,6.42-2.144,12.66-4.23,17.35-9.625,14.27-0.608,15.51-15.218,12.43-23.187-0.75,2.109-2.66,6.654-6.28,6,8.2-12.633,1.13-26.136-5.84-28.688z" fill-rule="evenodd"/>
 <path fill="#ffcd50" d="m130.72,10.406c1.4883,1.8903,0.6351,4.5337-1.1875,5.0938-10.574-0.41474-19.228,0.73612-22.219,2.2188-4.7737,2.3657,0.0697,4.5384-6.6875,4.75-3.3616,0.10439-7.6054,1.0157-11.344,1.8438-0.48104,1.5165-0.55799,2.7006,0.0937,4.5938l1.4375-0.0625c-3.4138,6.7318-0.72623,15.894,14.594,8.375,2.9935-1.8409,8.762,1.5767,11.719,5.875,3.9626,5.7584-1.5843,8.0745-6.7812,6.5312-4.84-1.4375-13.532-0.35557-17.062,1.2188,0.16082,0.85346,0.27338,1.523,1.1875,2.375-3.0217,3.703-1.2632,8.6796,2.375,11.438-0.22853-7.162,3.8641-9.6444,14.594-7.9375,6.1957,0.25392,6.5726,3.7265,3.7188,6.6875-4.1728,4.328-14.38,8.6679-16.094,9.5312-10.753,5.411-21.464,12.869-21.91,23.717,2.223-1.959,5.117-2.336,7.469-1.656-4.5579,4.0444-7.3294,8.7005-8.125,14.062,5.3408-1.824,14.551-3.5027,20.406-9.8438l0.0937,1.3125c-5.606,9.0114-17.426,13.506-22.156,15.844-8.9649,4.4295-21.783,5.7709-31.438,2.4375-5.0474-1.7436-9.6981-4.143-13.688,0.84375-2.6323,3.2911-2.6184,8.1079,1,11.375,1.4445-0.52477,3.0013-0.73425,4.625-0.71875-5.0601,1.3542-9.2058,4.0787-5.9062,10.312,1.6152,3.0499,4.9535,4.8753,9.3125,2.875,0.24546-1.2174,0.75115-2.2375,1.5312-3.0938-1.5179,4.4831-1.0306,8.9502,4.5938,10.375,5.4847,1.3895,12.725-2.6429,12.156-10.562,3.1388,13.794,24.124,6.1056,16.656-6.9375,3.8864,2.6986,5.5917,6.9477,5.0938,12.719,1.3655-0.34138,2.6378-0.7044,3.875-1.0938,2.2825-2.8637,3.3925-6.4664,3.6562-10.844,2.0286,2.4179,2.8561,5.2271,3,8.2812,1.9397-0.89296,3.7072-1.8563,5.3125-2.8438,1.4516-3.0978,1.7554-6.5628,1.0938-10.5,2.2359,1.7676,3.5794,4.0535,4.375,6.6562,8.9874-7.2142,13.376-14.49,25.469-14.938l0.78125-4.0625c-5.1899-0.52195-3.0338-10.413,1.7188-15.875l0.78125,0.15625c-2.7071,3.6706-4.7518,11.548,0.3125,13.594l-1.3438,8.5c-4.5791,0.0155-8.0298,0.97755-11.094,2.6562,3.4111,1.1965,6.6597,2.6375,9.7812,4.2812l24.28-25.97c-2.4724-2.1848-4.5431-4.5837-5.125-7.3438,2.7142,0.22712,5.4377-0.78744,7.3125-2.5-3.8498-1.5348-5.6586-4.2846-5.375-8.25,8.4119,1.6248,13.923-1.9469,16.5-8.4062-5.6328,1.0086-10.35-0.10271-13.062-5.9062,9.7667,0.71013,15.816-2.2823,16.594-10.562-7.6642,2.9765-12.953,1.6996-14.781-5.7812,8.4951-0.24546,13.425-3.9493,13.656-12.219-6.0278,3.2192-11.583,3.6115-15.906-3.875,4.644-3.2446,8.0385-7.1345,8.0625-12.812-2.7254,1.2597-5.3683,2.034-8.0938,0.375-0.97901,1.6956-2.891,3.2858-5.4062,4.5625-0.35267-0.30048-0.70983-0.60436-1.0625-0.90625,5.5468-4.2701,6.16-10.818,4.6562-17.094-4.4846,0.64891-12.678,1.3909-14.812,9.625l-1-1.0938c0.26944-3.6128,1.5657-5.8707,4.2812-8.125-2.109-1.563-4.2542-2.8059-6.5-3.2812z" fill-rule="evenodd"/>
 <path fill="#ffcd50" d="m98.104,70.751-0.001,0c-7.8095,3.9823-17.272,9.8296-21.339,18.102-1.5955,0.12555-3.9358-0.20032-5.3042-0.45847,0.84641-3.2925,0.89437-6.4919-0.57979-9.6222-0.91694,3.3645-2.3615,5.9178-4.7808,7.9802-2.0328-0.80691-3.9344-1.7944-5.7034-2.9624,1.6519-3.174,2.4659-6.4228,1.6392-9.9411-1.539,2.8679-3.4068,5.0107-5.9319,6.5103-1.213-1.165-2.347-2.438-3.397-3.826,4.534-4.536,5.039-10.177,1.511-14.711-2.721,16.535-26.151,3.637-11.099-4.219-1.085-0.862-2.143-1.752-3.008-2.834-5.59,2.928-10.799-0.836-11.984-5.691-1.6251-6.657,2.8552-9.0918,8.117-9.0636-1.6463-0.27508-3.2714-0.37383-4.8654-0.21442-2.5392-2.5801-1.7112-6.9772,0.44719-9.003,4.8372-4.5396,8.1735-3.1895,10.115,1.35-0.2384-1.398-0.61364-2.7565-1.2329-4.0458,2.421-5.387,12.593-1.7862,13.457,5.2017-0.02037,10.18,7.6663,19.181,14.665,24.822,7.2015,5.7245,21.067,11.419,29.274,12.626l-0.10157,0.05078,0.004-0.0014,0.0987-0.04937z" fill-rule="evenodd"/>
 <path fill="#000" d="m145.83,17.023c-4.445,0.4486-7.3341,3.8822-7.9873,7.4103l1.9891,3.0894-0.70957,0.46129-3.782-3.2714c1.3458-5.338,4.3759-7.4103,10.168-8.5417l0.32163,0.85205z" fill-rule="evenodd"/>
 <path fill="#d40000" d="m43.917,250.66s0.42884-7.1225,6.2535-9.7534c9.5517-4.2998,2.9173,8.3343,1.0185,7.7616-4.6623-1.9764-7.272,1.9919-7.272,1.9919z" fill-rule="evenodd"/>
 <path fill="#d40000" d="m64.79,265.06s-4.9261-5.1631-2.8862-11.221c3.3532-9.9241,8.0902,3.5366,6.3763,4.5382-4.62,2.0681-3.49,6.6824-3.49,6.6824z" fill-rule="evenodd"/>
 <path fill="#d40000" d="m96.509,264.47s4.8457-5.2379,2.7156-11.264c-3.5041-9.8705-8.0352,3.6607-6.3072,4.6355,4.6524,1.9975,3.5916,6.6288,3.5916,6.6288z" fill-rule="evenodd"/>
 <path fill="#d40000" d="m23.644,55.558s0.13683-7.1352,5.8487-10.002c9.3669-4.6891,3.2573,8.2073,1.3359,7.7122-4.7399-1.7831-7.1846,2.2895-7.1846,2.2895z" fill-rule="evenodd"/>
 <path fill="#d40000" d="m23.38,32.65s4.4267-5.5962,10.71-4.4211c10.292,1.9397-2.377,8.5036-3.6071,6.9476-2.6916-4.2885-7.1028-2.5265-7.1028-2.5265z" fill-rule="evenodd"/>
 <path fill="#d40000" d="m41.348,19.869s7.1352,0.11991,10.016,5.8247c4.7103,9.3556-8.1989,3.2756-7.7094,1.3543,1.7732-4.7441-2.3065-7.179-2.3065-7.179z" fill-rule="evenodd"/>
 <path fill="#d40000" d="m39.169,74.831s7.1028-0.67713,9.5291-6.5893c3.964-9.6956-8.4302-2.6253-7.7912-0.74766,2.1372,4.5904-1.738,7.3369-1.738,7.3369z" fill-rule="evenodd"/>
 <path fill="#d40000" d="m21.366,128.85s0.97337-7.0689,6.9829-9.2456c9.8536-3.5549,2.2712,8.5332,0.42039,7.8152-4.4958-2.3276-7.4032,1.4304-7.4032,1.4304z" fill-rule="evenodd"/>
 <path fill="#d40000" d="m28.503,149.43s-3.8004-6.0391-0.59813-11.57c5.2604-9.0594,7.2255,5.0742,5.3479,5.7147-4.9402,1.1088-4.7498,5.8557-4.7498,5.8557z" fill-rule="evenodd"/>
 <path fill="#d40000" d="m47.029,157.43s-5.4734-4.5791-4.1276-10.827c2.219-10.236,8.4359,2.6069,6.846,3.7933-4.359,2.5759-2.7184,7.0336-2.7184,7.0336z" fill-rule="evenodd"/>
 <path fill="#d40000" d="m68.577,153.82s5.1687-4.9204,3.4237-11.07c-2.8721-10.072-8.2511,3.1444-6.5879,4.2264,4.5156,2.2881,3.1642,6.8432,3.1642,6.8432z" fill-rule="evenodd"/>
 <path fill="#d40000" d="m132.33,272.36s-2.3671-6.7318,1.982-11.415c7.1366-7.667,5.9206,6.5498,3.9485,6.7586-5.0629-0.0141-5.9305,4.6567-5.9305,4.6567z" fill-rule="evenodd"/>
 <path fill="#d40000" d="m156.37,276.21s-4.5241-5.52-2.0356-11.407c4.0896-9.6434,7.8011,4.1347,6.018,5.0051-4.7624,1.7154-3.9823,6.4017-3.9823,6.4017z" fill-rule="evenodd"/>
 <path fill="#d40000" d="m195.47,258.4s-0.13684-7.1352-5.8501-10.002c-9.3669-4.6863-3.2558,8.2073-1.3345,7.7122,4.7385-1.7831,7.1846,2.2895,7.1846,2.2895z" fill-rule="evenodd"/>
 <g fill="#000" transform="matrix(1.251813,0,0,1.251813,10.870154,209.54469)" fill-rule="evenodd">
  <path d="m86.896-146.85c-0.11682,1.7341-1.0963,3.2209-2.5301,3.8034-1.4403-0.77895-2.4157-2.5559-2.3599-4.3406-0.90749,1.3732-0.90433,3.1395-0.19484,4.4037-1.5425-0.53196-2.6238-2.0644-2.5458-3.8664,0.0922-2.1311,7.7786-2.1893,7.6306,0z"/>
  <path d="m81.064-148.54c2.1917-0.60958,7.5712-1.2527,8.3518,2.0139,0.39817-3.9922-3.288-4.1466-6.1006-3.7298-1.8894,0.27851-5.8209,1.4289-5.3973-2.0114-2.197,2.657,0.27928,4.5274,3.1461,3.7274z"/>
 </g>
</svg>
