<?xml version="1.0" encoding="UTF-8" standalone="no"?>
<!-- Created with Inkscape (http://www.inkscape.org/) -->

<svg
   xmlns:dc="http://purl.org/dc/elements/1.1/"
   xmlns:cc="http://creativecommons.org/ns#"
   xmlns:rdf="http://www.w3.org/1999/02/22-rdf-syntax-ns#"
   xmlns:svg="http://www.w3.org/2000/svg"
   xmlns="http://www.w3.org/2000/svg"
   xmlns:sodipodi="http://sodipodi.sourceforge.net/DTD/sodipodi-0.dtd"
   xmlns:inkscape="http://www.inkscape.org/namespaces/inkscape"
   version="1.0"
   width="248"
   height="300"
   id="svg2"
   sodipodi:docname="Jämtlands_vapen.svg"
   inkscape:version="0.92.3 (2405546, 2018-03-11)">
  <sodipodi:namedview
     pagecolor="#ffffff"
     bordercolor="#666666"
     borderopacity="1"
     objecttolerance="10"
     gridtolerance="10"
     guidetolerance="10"
     inkscape:pageopacity="0"
     inkscape:pageshadow="2"
     inkscape:window-width="1920"
     inkscape:window-height="1017"
     id="namedview136"
     showgrid="false"
     inkscape:zoom="4"
     inkscape:cx="195.24798"
     inkscape:cy="209.94796"
     inkscape:window-x="-4"
     inkscape:window-y="-4"
     inkscape:window-maximized="1"
     inkscape:current-layer="svg2"
     showguides="false" />
  <defs
     id="defs234">
    <radialGradient
       r="6.9628"
       gradientTransform="matrix(1.723395,0,0,1.723395,-1.85495,-130.21918)"
       cx="14.366"
       cy="86.199"
       gradientUnits="userSpaceOnUse"
       id="radialGradient4717">
      <stop
         id="stop2"
         offset="0"
         stop-color="#59F" />
      <stop
         id="stop4"
         offset="1"
         stop-color="#003d8f" />
    </radialGradient>
  </defs>
  <metadata
     id="metadata4">
    <rdf:RDF>
      <cc:Work
         rdf:about="">
        <dc:format>image/svg+xml</dc:format>
        <dc:type
           rdf:resource="http://purl.org/dc/dcmitype/StillImage" />
        <dc:title />
      </cc:Work>
    </rdf:RDF>
  </metadata>
  <g
     transform="matrix(0.24489796,0,0,0.24489796,3.9999996,132.63839)"
     id="g3136">
    <path
       d="m 400.00002,120 0,-100 -19.99998,0 0,62.771393 L 340.00004,20 320,20 l 0,100 20.00004,0 0,-62.771393 40,62.771393 19.99998,0 z"
       id="path3381"
       style="fill:#ff0000;fill-opacity:1;fill-rule:evenodd;stroke:none" />
    <g
       id="g3007">
      <path
         d="m 0,20 20.00005,0 0,80.00004 40.00001,0 0,19.99996 L 0,120 0,20 z"
         id="path3365"
         style="fill:#9900cc;fill-opacity:1;fill-rule:evenodd;stroke:none" />
      <path
         d="m 80,20 60.00006,0 0,19.99998 -40.00002,0 0,20.00004 40.00002,0 0,19.99996 -40.00002,0 0,20.00004 40.00002,0 0,19.99998 L 80,120 80,20 z"
         id="path3371"
         style="fill:#9900cc;fill-opacity:1;fill-rule:evenodd;stroke:none" />
      <path
         d="m 230,20.00003 c 27.61001,0 49.99997,22.38996 49.99997,49.99997 0,27.61001 -22.38996,49.99997 -49.99997,49.99997 -27.61001,0 -50.00004,-22.38996 -50.00004,-49.99997 0,-27.61001 22.39003,-49.99997 50.00004,-49.99997 z M 230,0 c 38.654,0 70,31.346 70,70 0,38.654 -31.346,70 -70,70 -38.654,0 -70,-31.346 -70,-70 0,-38.654 31.346,-70 70,-70 z m 0.002,100.00001 c 16.56518,0 29.99959,-13.43441 29.99959,-30.00001 0,-16.5656 -13.43441,-30.00001 -29.99959,-30.00001 l -19.99961,0 0,20.00003 19.99961,0 c 5.5214,0 9.99956,4.47816 9.99956,9.99998 0,5.52182 -4.47816,9.99998 -9.99956,9.99998 l -19.99961,0 0,20.00003 19.99961,0 z"
         id="path3373"
         style="fill:#9900cc;fill-opacity:1;fill-rule:evenodd;stroke:none" />
      <path
         d="m 420,20 19.99998,0 0,100 L 420,120 420,20 z"
         id="path3367"
         style="fill:#9900cc;fill-opacity:1;fill-rule:evenodd;stroke:none" />
      <path
         d="m 520.00004,90.00004 c 0,5.52176 -4.47816,9.99998 -9.99998,9.99998 l -30.00004,0 0,-60.00004 30.00004,0 c 5.52182,0 9.99998,4.47822 9.99998,9.99998 l 0,40.00008 z m 20.00004,0 C 540.00008,106.56566 526.56566,120 510.00006,120 L 460,120 l 0,-100 50.00006,0 c 16.5656,0 30.00003,13.43434 30.00003,29.99996 l 0,40.00008 z"
         id="path3369"
         style="fill:#9900cc;fill-opacity:1;fill-rule:evenodd;stroke:none" />
      <path
         d="m 660.00005,90.00004 0,9.99998 40.00001,0 0,19.99998 L 640,120 640,90.00004 c 0,-16.5656 13.43443,-30.00002 30.00003,-30.00002 5.52182,0 9.99999,-4.47824 9.99999,-10.00006 0,-5.52176 -4.47817,-9.99998 -9.99956,-9.99998 L 640,39.99998 660.00005,20 l 10.00041,0 c 16.56518,0 29.9996,13.43436 29.9996,29.99996 0,16.5656 -13.43442,30.00002 -30.00003,30.00002 -5.52183,0 -9.99998,4.47824 -9.99998,10.00006 z"
         id="path3379"
         style="fill:#9900cc;fill-opacity:1;fill-rule:evenodd;stroke:none" />
      <path
         d="m 790,-5e-6 c -38.65993,0 -70,31.34007 -70,70 C 720,108.65993 751.34007,140 790,140 c 38.65993,0 70,-31.34007 70,-70.000005 0,-38.65993 -31.34007,-70 -70,-70 z m 0,20 c 27.61424,0 50,22.38576 50,50 C 840,97.614233 817.61424,120 790,120 c -27.61424,0 -50,-22.385767 -50,-50.000005 0,-27.61424 22.38576,-50 50,-50 z"
         id="path2993"
         style="fill:#9900cc;fill-opacity:1;stroke:none" />
      <path
         d="m 880,40 0,80 20,0 0,-100 z"
         id="path3383"
         style="fill:#9900cc;fill-opacity:1;fill-rule:evenodd;stroke:none" />
      <path
         d="m 920,20 0,60 30,0 c 5.5214,0 10,4.47818 10,10 0,5.52176 -4.4786,10 -10,10 l -30,0 20,20 10,0 c 16.56516,0 30,-13.43438 30,-30 0,-16.5656 -13.43484,-30 -30,-30 l -10,0 0,-20 40,0 0,-20 -60,0 z"
         id="path3375"
         style="fill:#9900cc;fill-opacity:1;fill-rule:evenodd;stroke:none" />
    </g>
  </g>
  <path
     d="m 247,1.0001 0,214.77 c 0,82.42 -84.912,44.012 -123,82.791 -38.089,-38.77 -123,-0.37 -123,-82.79 V 1.0011 z"
     id="path8"
     style="fill:#003d8f;fill-opacity:1;stroke:#000000;stroke-width:2;stroke-miterlimit:4;stroke-opacity:1;stroke-dasharray:none" />
  <g
     id="g4777">
    <g
       transform="matrix(2.7422303,0,0,2.7422303,-688.19194,-1002.5374)"
       id="g16"
       style="fill:#ffcd50;fill-rule:evenodd;stroke:#cc9933;stroke-width:0.21879999;stroke-linejoin:round;stroke-miterlimit:4;stroke-dasharray:none">
      <path
         d="m 321.17,382.19 c 0.956,-0.432 1.924,-0.875 2.901,-1.335 l -2.073,6.796 -0.828,-5.461 z"
         id="path18" />
      <path
         d="m 321.02,381.24 c 1.034,-0.473 2.078,-0.956 3.132,-1.452 0.741,-0.308 -0.092,0.991 -0.293,1.096 -0.67,0.349 -1.688,0.843 -2.696,1.299 l -0.143,-0.943 z"
         id="path20"
         style="fill-opacity:1;stroke:#003d8f" />
      <path
         d="m 320.87,380.2 c 1.028,-0.457 2.066,-0.922 3.113,-1.402 1.476,-0.588 0.343,0.848 -0.256,1.155 -0.671,0.344 -1.69,0.826 -2.702,1.269 l -0.15,-1.03 z"
         id="path22"
         style="fill-opacity:1;stroke:#003d8f" />
      <path
         d="m 320.54,379.22 c 1.256,-0.59 2.518,-1.188 3.801,-1.769 1.777,-0.756 1.2,0.449 -0.278,1.231 -0.772,0.409 -1.988,0.974 -3.194,1.497 l -0.107,-0.702 -0.222,-0.257 z"
         id="path24"
         style="fill-opacity:1;stroke:#003d8f" />
      <path
         d="m 320.09,378.7 c 1.524,-0.887 3.039,-1.833 4.616,-2.732 1.549,-0.812 1.129,0.371 -0.147,1.177 -0.927,0.586 -2.558,1.522 -3.896,2.22 l -0.57,-0.67 z"
         id="path26"
         style="fill-opacity:1;stroke:#003d8f" />
      <path
         d="m 319.73,378.28 c 1.714,-1.356 3.403,-2.773 5.151,-4.126 1.626,-1.217 1.345,0.199 0.03,1.37 -1.03,0.918 -3.021,2.437 -4.538,3.503 l -0.643,-0.747 z"
         id="path28"
         style="fill-opacity:1;stroke:#003d8f" />
      <path
         d="m 319.59,378.12 c 1.762,-2.016 3.532,-4.038 5.31,-6.073 1.421,-1.594 1.341,-0.174 0.231,1.311 -1.088,1.455 -3.573,4.182 -4.915,5.49 l -0.626,-0.728 z"
         id="path30"
         style="fill-opacity:1;stroke:#003d8f" />
      <path
         d="m 319.07,377.52 c 1.674,-2.235 3.353,-4.472 5.034,-6.717 1.354,-1.788 1.393,-0.298 0.355,1.353 -1.013,1.611 -3.409,4.651 -4.718,6.142 l -0.671,-0.778 z"
         id="path32"
         style="fill-opacity:1;stroke:#003d8f" />
      <path
         d="m 318.7,377.09 4.425,-7.365 c 1.213,-2.019 1.423,-0.472 0.524,1.371 -0.86,1.765 -2.996,5.11 -4.218,6.843 l -0.72,-0.84 z"
         id="path34"
         style="fill-opacity:1;stroke:#003d8f" />
      <path
         d="m 318.47,376.82 c 0.8,-1.91 1.65,-3.863 2.527,-5.72 0.931,-1.921 1.242,-0.533 0.58,1.198 -0.498,1.3 -1.58,3.544 -2.478,5.252 l -0.629,-0.73 z"
         id="path36"
         style="fill-opacity:1;stroke:#003d8f" />
      <path
         d="m 320.63,386.6 c 0.582,-0.021 1.167,-0.078 1.716,-0.177 l -0.268,0.866 c -0.221,0.043 -0.459,0.076 -0.7,0.1 -0.172,-0.109 -0.346,-0.213 -0.519,-0.311 l -0.23,-0.48 z"
         id="path38" />
      <path
         d="m 320.37,386.06 c 0.777,-0.121 1.56,-0.3 2.261,-0.552 l -0.276,0.889 c -0.456,0.184 -1.053,0.331 -1.618,0.432 l -0.367,-0.769 z"
         id="path40" />
      <path
         d="m 320.06,385.4 c 0.884,-0.185 1.776,-0.437 2.568,-0.781 0.118,-0.037 0.218,-0.063 0.303,-0.078 l -0.243,0.784 c -0.105,0.069 -0.219,0.134 -0.337,0.19 -0.52,0.256 -1.257,0.479 -1.933,0.633 l -0.36,-0.74 z"
         id="path42"
         style="fill-opacity:1;stroke:#003d8f" />
      <path
         d="m 319.78,384.84 c 0.908,-0.264 1.823,-0.592 2.641,-1.013 1.2,-0.478 0.634,0.432 -0.232,0.908 -0.549,0.316 -1.343,0.618 -2.058,0.839 l -0.351,-0.734 z"
         id="path44"
         style="fill-opacity:1;stroke:#003d8f" />
      <path
         d="m 319.48,384.19 c 1.029,-0.302 2.073,-0.67 3.017,-1.155 1.22,-0.496 0.671,0.408 -0.239,0.91 -0.648,0.371 -1.612,0.734 -2.425,0.984 l -0.353,-0.739 z"
         id="path46"
         style="fill-opacity:1;stroke:#003d8f" />
      <path
         d="m 319.26,383.74 c 0.984,-0.452 1.951,-1.005 2.847,-1.609 1.172,-0.668 0.815,0.42 -0.073,1.061 -0.629,0.466 -1.614,0.9 -2.442,1.243 l -0.332,-0.695 z"
         id="path48"
         style="fill-opacity:1;stroke:#003d8f" />
      <path
         d="m 318.96,383.11 c 1.019,-0.513 2.017,-1.14 2.933,-1.82 1.14,-0.722 0.833,0.382 -0.024,1.062 -0.657,0.536 -1.732,1.053 -2.58,1.447 l -0.329,-0.689 z"
         id="path50"
         style="fill-opacity:1;stroke:#003d8f" />
      <path
         d="m 318.62,382.4 c 1.012,-0.553 2.146,-1.257 3.035,-1.971 1.114,-0.764 0.847,0.351 0.016,1.063 -0.683,0.601 -1.85,1.198 -2.704,1.633 l -0.36,-0.72 z"
         id="path52"
         style="fill-opacity:1;stroke:#003d8f" />
      <path
         d="m 318.37,381.71 c 1.066,-0.601 2.087,-1.351 3.046,-2.127 1.128,-0.808 0.895,0.316 0.026,1.072 -0.714,0.634 -1.924,1.277 -2.815,1.76 l -0.256,-0.535 v -0.024 l -10e-4,-0.146 z"
         id="path54"
         style="fill-opacity:1;stroke:#003d8f" />
      <path
         d="m 318.1,381.32 c 1.048,-0.829 2.094,-1.717 3.012,-2.716 1.009,-1.014 0.98,0.182 0.196,1.108 -0.693,0.828 -1.967,1.74 -2.827,2.405 l -0.38,-0.8 z"
         id="path56"
         style="fill-opacity:1;stroke:#003d8f" />
      <path
         d="m 317.77,380.63 c 1.078,-0.973 2.213,-2.082 3.151,-3.225 0.961,-1.123 1.001,0.106 0.236,1.128 -0.717,0.967 -2.085,2.24 -2.95,3.011 l -0.437,-0.914 z"
         id="path58"
         style="fill-opacity:1;stroke:#003d8f" />
      <path
         d="m 317.51,380.08 c 1.103,-1.201 2.169,-2.491 3.127,-3.86 0.878,-1.253 0.99,-0.176 0.276,0.96 -0.751,1.198 -2.211,2.864 -3.018,3.705 l -0.385,-0.805 z"
         id="path60"
         style="fill-opacity:1;stroke:#003d8f" />
      <path
         d="m 317.3,379.64 c 0.834,-1.134 1.641,-2.693 2.403,-3.883 0.82,-1.173 0.997,0.207 0.384,1.254 -0.56,0.971 -1.773,2.385 -2.513,3.201 l -0.27,-0.57 z"
         id="path62"
         style="fill-opacity:1;stroke:#003d8f" />
      <path
         d="m 317.04,379.11 c 0.576,-0.9 1.06,-1.938 1.548,-2.837 0.73,-1.097 0.883,-0.037 0.413,0.89 -0.356,0.731 -1.125,1.802 -1.697,2.5 l -0.264,-0.553 z"
         id="path64"
         style="fill-opacity:1;stroke:#003d8f" />
      <path
         d="m 318.46,386.15 c -0.461,-1.001 -1.407,-1.874 -2.173,-3.261 -0.764,-1.383 -0.049,-2.648 0.725,-3.877 0.377,-0.599 0.709,-0.62 0.772,0.372 0.396,-0.497 0.644,0.111 0.468,0.751 0.448,-0.571 0.686,0.08 0.464,0.732 0.483,-0.569 0.691,0.109 0.426,0.755 0.524,-0.574 0.701,0.135 0.391,0.773 0.57,-0.583 0.715,0.157 0.36,0.787 0.62,-0.591 0.731,0.179 0.331,0.798 0.672,-0.596 0.748,0.198 0.307,0.805 0.722,-0.592 0.763,0.217 0.285,0.808 0.766,-0.576 0.772,0.238 0.264,0.813 0.803,-0.549 0.778,0.258 0.248,0.814 0.665,-0.409 0.731,-0.011 0.437,0.427 -1.12,-0.771 -2.303,-1.319 -3.305,-1.497 z"
         id="path66"
         style="fill-opacity:1;stroke:#003d8f" />
    </g>
    <path
       d="m 177.51,87.502 c 1.7441,-0.96252 4.9854,-2.8053 6.4415,-5.7697 l -1.5713,-2.1856 c -0.76782,2.4899 -3.3346,5.6572 -6.159,6.5128 l 1.2888,1.4424 z"
       id="path68"
       style="fill:#ffcd50;fill-rule:evenodd;stroke:#003d8f;stroke-width:0.6;stroke-miterlimit:4;stroke-dasharray:none;fill-opacity:1" />
    <path
       d="m 183.52,76.761 c -2.9122,-1.7578 -6.351,-4.6042 -9.085,-10.676 -1.5,-0.95704 -2.9973,-1.5384 -4.8126,-1.8675 -0.56764,-0.10146 -1.1764,-0.18373 -1.0914,0.43053 -0.59781,0.02194 -0.73218,0.69927 -0.46344,1.1627 -2.021,-1.6399 -1.8016,-3.5375 -0.55119,-4.9963 -0.0877,-0.48538 -0.0466,-1.0311 0.0658,-1.511 0.69653,-2.9753 5.4516,-6.1124 9.5841,-5.8601 2.191,-0.49634 5.9177,0.46618 6.7349,1.659 7.13172,2.85935 18.40357,10.404494 21.79,19.004 0.18373,0.36746 0.35923,0.73766 0.52925,1.1133 l 16.031,11.103 c 3.0987,2.1472 1.308,6.0165 -1.6289,3.7898 2.6709,2.457 0.35101,5.7367 -2.2514,2.9479 l -0.0823,-0.08775 c 2.3611,2.7093 -0.29067,5.4159 -2.4982,2.4104 l -0.26051,-0.19744 c 2.0567,2.9808 -0.94058,5.1115 -2.7532,1.8839 l -0.0631,-0.11243 c 1.1874,2.8739 -1.7166,4.1298 -3.1152,1.1792 -0.0247,2.3035 -2.841,2.4049 -3.6198,-0.72121 l -0.13985,-0.55667 c -0.0768,2.5393 -3.0576,2.2541 -3.4854,-0.77331 -0.92138,1.1737 -3.0631,0.21938 -3.0823,-2.4406 l -0.0548,-7.341 c -1.1133,-0.87203 -2.1773,-1.8702 -3.2112,-2.9863 v -0.0027 c -1.3684,1.2806 -3.2331,2.3062 -5.66,3.0686 l -3.5265,-2.117 c -0.34826,0.12888 -0.7075,0.25503 -1.0832,0.37294 l -4.9744,-2.989 c 1.2916,-1.7441 2.18844,-3.36976 2.75884,-4.88896 z"
       id="path70"
       style="fill:#ffcd50;fill-opacity:1;fill-rule:evenodd;stroke:#003d8f;stroke-width:0.5;stroke-miterlimit:4;stroke-dasharray:none"
       inkscape:connector-curvature="0"
       sodipodi:nodetypes="ccccccccccccccccccccccccccccccccc" />
    <g
       transform="matrix(2.7422303,0,0,2.7422303,-688.19194,-1002.5374)"
       id="g74"
       style="fill-rule:evenodd" />
    <g
       transform="matrix(2.7422303,0,0,2.7422303,-688.19194,-1002.5374)"
       id="g80"
       style="fill:#ffcd50;fill-rule:evenodd;stroke:#cc9933;stroke-width:0.21879999;stroke-miterlimit:4;stroke-dasharray:none">
      <path
         d="m 324.55,396.66 0.345,3.27 c 0.137,1.291 -1.255,1.104 -1.264,-0.191 -0.009,-1.178 -0.018,-2.357 -0.027,-3.536 l 0.946,0.457 z"
         id="path82"
         style="fill-opacity:1;stroke:#003d8f" />
      <path
         d="m 325.29,396.82 c 0.236,1.255 0.472,2.51 0.707,3.764 0.243,1.291 -1.135,1.261 -1.254,-0.048 l -0.36,-3.966 0.907,0.25 z"
         id="path84"
         style="fill-opacity:1;stroke:#003d8f" />
      <path
         d="m 325.87,396.78 1.434,4.107 c 0.449,1.285 -0.898,1.56 -1.229,0.228 l -1.088,-4.368 0.883,0.033 z"
         id="path86"
         style="fill-opacity:1;stroke:#003d8f" />
      <path
         d="m 326.24,396.54 c 0.74,1.42 1.479,2.84 2.219,4.261 0.615,1.181 -0.598,1.731 -1.111,0.48 l -1.841,-4.495 0.733,-0.246 z"
         id="path88"
         style="fill-opacity:1;stroke:#003d8f" />
      <path
         d="m 326.48,395.84 c 1.026,1.488 2.053,2.975 3.079,4.463 0.75,1.087 -0.343,1.864 -1.004,0.687 l -2.473,-4.42 0.398,-0.73 z"
         id="path90"
         style="fill-opacity:1;stroke:#003d8f" />
      <path
         d="m 326.2,394.6 c 1.449,1.625 2.898,3.25 4.347,4.876 0.885,0.992 -0.089,1.996 -0.898,0.894 l -3.24,-4.41 -0.209,-1.36 z"
         id="path92"
         style="fill-opacity:1;stroke:#003d8f" />
      <path
         d="m 325.87,393.56 c 1.67,1.471 3.847,3.395 5.517,4.866 1.02,0.898 0.166,2.128 -0.792,1.101 l -4.37,-4.686 -0.355,-1.281 z"
         id="path94"
         style="fill-opacity:1;stroke:#003d8f" />
      <path
         d="m 325.53,392.58 6.48,4.488 c 1.156,0.801 0.447,2.259 -0.668,1.323 l -5.338,-4.482 -0.474,-1.329 z"
         id="path96"
         style="fill-opacity:1;stroke:#003d8f" />
    </g>
    <path
       d="m 208.99,89.317 c -5.0539,-0.33181 -8.91402,-2.54814 -12.67942,-6.04444 L 200.9961,67.9769 c 5.0128,5.2678 8.7971,13.001 7.9936,21.34 z"
       id="path100"
       style="fill:#ffcd50;fill-opacity:1;fill-rule:evenodd;stroke:#003d8f;stroke-width:0.5;stroke-miterlimit:4;stroke-dasharray:none;stroke-opacity:1"
       inkscape:connector-curvature="0"
       sodipodi:nodetypes="ccccc" />
    <g
       transform="matrix(2.7422303,0,0,2.7422303,-688.19194,-1002.5374)"
       id="g102"
       style="fill:#ffcd50;fill-rule:evenodd;stroke:#cc9933;stroke-width:0.21879999;stroke-linejoin:round;stroke-miterlimit:4;stroke-dasharray:none">
      <path
         d="m 327.85,375.4 c 2.34,-1.845 4.805,-3.737 7.233,-5.469 2.227,-1.554 1.71,0.18 -0.1,1.691 -1.507,1.257 -4.53,3.354 -6.66,4.707 l -0.182,-0.718 -0.291,-0.211 z"
         id="path104"
         style="fill-opacity:1;stroke:#003d8f" />
      <path
         d="m 328.17,375.25 10.12,-5.399 c 2.643,-1.41 1.861,0.416 -0.324,1.84 -2.242,1.461 -7.265,3.943 -9.57,4.926 l -0.254,-1.002 -0.016,-0.012 0.044,-0.353 z"
         id="path106"
         style="fill-opacity:1;stroke:#003d8f" />
      <path
         d="m 328.44,375.55 c 3.379,-1.303 6.765,-2.607 10.159,-3.916 2.668,-1.013 1.703,0.619 -0.531,1.698 -2.301,1.111 -7.337,2.897 -9.615,3.546 l -0.177,-0.703 0.164,-0.625 z"
         id="path108"
         style="fill-opacity:1;stroke:#003d8f" />
      <path
         d="m 328.74,376.5 c 3.279,-0.989 6.571,-1.978 9.879,-2.977 2.608,-0.758 1.563,0.718 -0.636,1.569 -2.36,0.912 -7.555,2.339 -9.606,2.721 l 0.148,-0.659 -0.007,-0.03 0.222,-0.624 z"
         id="path110"
         style="fill-opacity:1;stroke:#003d8f" />
      <path
         d="m 328.44,376.79 c 2.894,-0.31 5.806,-0.72 8.739,-1.012 2.574,-0.214 1.315,1.123 -0.893,1.498 -1.908,0.324 -5.565,0.646 -7.952,0.743 l 0.196,-0.872 -0.09,-0.357 z"
         id="path112"
         style="fill-opacity:1;stroke:#003d8f" />
      <path
         d="m 328.46,377.43 c 2.397,0.09 4.827,0.086 7.298,0.188 2.218,0.171 0.966,1.163 -0.953,1.17 -1.619,0.006 -4.58,-0.119 -6.579,-0.316 l 0.234,-1.042 z"
         id="path114"
         style="fill-opacity:1;stroke:#003d8f" />
      <path
         d="m 328.29,378.21 c 2.01,0.247 4.034,0.48 6.074,0.756 2.427,0.384 0.99,1.294 -1.131,1.139 -1.28,-0.093 -3.34,-0.361 -5.22,-0.663 l 0.277,-1.232 z"
         id="path116"
         style="fill-opacity:1;stroke:#003d8f" />
      <path
         d="m 328,379.47 c 1.664,0.24 3.352,0.477 5.066,0.701 2.1,0.383 0.779,1.232 -1.056,1.073 -1.075,-0.093 -2.744,-0.294 -4.289,-0.535 l 0.28,-1.23 z"
         id="path118"
         style="fill-opacity:1;stroke:#003d8f" />
      <path
         d="m 327.72,380.74 c 1.601,0.211 3.225,0.42 4.873,0.618 2.099,0.351 0.779,1.129 -1.057,0.983 -1.029,-0.082 -2.603,-0.254 -4.091,-0.463 l 0.07,-0.23 0.205,-0.908 z"
         id="path120"
         style="fill-opacity:1;stroke:#003d8f" />
      <path
         d="m 327.44,381.89 c 1.603,0.219 3.234,0.433 4.897,0.628 2.003,0.358 0.692,1.213 -1.063,1.068 -1.063,-0.087 -2.711,-0.264 -4.207,-0.484 l 0.373,-1.212 z"
         id="path122"
         style="fill-opacity:1;stroke:#003d8f" />
      <path
         d="m 327.18,382.73 c 1.66,0.322 3.356,0.638 5.091,0.922 1.919,0.453 0.734,1.275 -0.933,1.044 -1.147,-0.159 -2.985,-0.446 -4.525,-0.773 l 0.367,-1.193 z"
         id="path124"
         style="fill-opacity:1;stroke:#003d8f" />
      <path
         d="m 326.83,383.87 c 1.629,0.365 3.301,0.589 5.018,0.899 2.106,0.311 0.692,1.432 -0.915,1.17 -1.149,-0.188 -2.981,-0.508 -4.473,-0.869 l 0.37,-1.2 z"
         id="path126"
         style="fill-opacity:1;stroke:#003d8f" />
      <path
         d="m 326.52,384.87 c 1.677,0.404 3.407,0.704 5.194,1.029 1.964,0.472 0.652,1.374 -0.907,1.105 -1.214,-0.21 -3.165,-0.608 -4.637,-0.999 l 0.35,-1.135 z"
         id="path128"
         style="fill-opacity:1;stroke:#003d8f" />
      <path
         d="m 326.29,385.63 c 1.759,0.57 3.588,1.122 5.492,1.595 1.734,0.561 0.605,1.31 -0.91,0.94 -1.33,-0.324 -3.506,-0.885 -4.929,-1.407 l 0.347,-1.128 z"
         id="path130"
         style="fill-opacity:1;stroke:#003d8f" />
      <path
         d="m 326.09,386.28 c 1.669,0.719 3.394,1.487 5.209,2.072 1.714,0.678 0.588,1.349 -0.913,0.874 -1.293,-0.409 -3.331,-1.109 -4.711,-1.732 l 0.069,-0.092 0.346,-1.122 z"
         id="path132"
         style="fill-opacity:1;stroke:#003d8f" />
      <path
         d="m 325.82,387.16 c 1.565,0.841 3.214,1.54 4.952,2.303 1.591,0.792 0.276,1.371 -1.136,0.765 -1.244,-0.534 -3.084,-1.525 -4.303,-2.274 l 0.411,-0.548 0.076,-0.246 z"
         id="path134"
         style="fill-opacity:1;stroke:#003d8f" />
      <path
         d="m 325.58,387.62 c 1.416,1.015 2.917,2.01 4.508,2.928 1.52,0.955 0.168,1.284 -1.192,0.528 -1.154,-0.642 -2.77,-1.799 -3.896,-2.684 l 0.58,-0.772 z"
         id="path136"
         style="fill-opacity:1;stroke:#003d8f" />
      <path
         d="m 325.32,387.97 c 1.291,1.177 2.669,2.333 4.14,3.409 1.447,1.118 0.06,1.266 -1.249,0.359 -1.063,-0.736 -2.466,-1.979 -3.493,-2.967 l 0.602,-0.801 z"
         id="path138"
         style="fill-opacity:1;stroke:#003d8f" />
      <path
         d="m 325.02,388.36 c 1.072,1.2 2.218,2.377 3.442,3.487 1.376,1.282 -0.071,1.272 -1.328,0.215 -0.861,-0.725 -1.897,-1.843 -2.758,-2.845 l 0.644,-0.857 z"
         id="path140"
         style="fill-opacity:1;stroke:#003d8f" />
      <path
         d="m 324.63,388.88 c 0.85,1.142 1.756,2.263 2.721,3.332 1.304,1.446 -0.063,1.277 -1.269,0.069 -0.66,-0.661 -1.423,-1.596 -2.118,-2.515 l 0.666,-0.886 z"
         id="path142"
         style="fill-opacity:1;stroke:#003d8f" />
      <path
         d="m 325.18,378.71 c 1.828,-0.4 3.688,-0.862 5.472,-1.546 1.77,-0.637 1.04,0.747 -0.448,1.396 -1.463,0.643 -3.778,1.132 -5.199,1.431 l 0.175,-1.281 z"
         id="path144"
         style="fill-opacity:1;stroke:#003d8f" />
      <path
         d="m 325.04,379.72 c 1.689,-0.257 3.413,-0.581 5.065,-1.11 1.755,-0.485 0.969,0.818 -0.481,1.347 -1.337,0.499 -3.425,0.702 -4.796,0.903 l 0.212,-1.14 z"
         id="path146"
         style="fill-opacity:1;stroke:#003d8f" />
      <path
         d="m 325.12,380.31 c 1.558,0.007 3.158,-0.18 4.707,-0.434 1.756,-0.184 0.791,0.912 -0.647,1.201 -1.304,0.276 -3.278,0.188 -4.585,0.166 l 0.435,-0.771 0.09,-0.162 z"
         id="path148"
         style="fill-opacity:1;stroke:#003d8f" />
      <path
         d="m 325,381.29 c 1.507,0.034 3.065,-0.087 4.557,-0.325 1.711,-0.144 0.715,0.921 -0.652,1.184 -1.267,0.262 -3.196,0.138 -4.425,0.084 l 0.52,-0.93 z"
         id="path150"
         style="fill-opacity:1;stroke:#003d8f" />
      <path
         d="m 325.51,377.02 c 1.143,-0.742 2.252,-1.698 3.293,-2.487 1.42,-0.89 1.042,0.419 0.012,1.249 -0.833,0.692 -2.182,1.462 -3.215,1.962 l -0.138,-0.349 0.048,-0.375 z"
         id="path152"
         style="fill-opacity:1;stroke:#003d8f" />
      <path
         d="m 325.58,377.38 c 1.664,-0.722 3.242,-1.862 4.876,-2.72 1.644,-0.78 0.971,0.857 -0.365,1.628 -1.271,0.745 -3.256,1.456 -4.569,1.882 l 0.058,-0.79 z"
         id="path154"
         style="fill-opacity:1;stroke:#003d8f" />
      <path
         d="m 325.13,378 c 1.995,-0.638 4.006,-1.399 5.947,-2.318 1.761,-0.833 1.205,0.428 -0.298,1.235 -1.644,0.882 -4.446,1.842 -5.822,2.24 l 0.17,-1.16 z"
         id="path156"
         style="fill-opacity:1;stroke:#003d8f" />
      <path
         d="m 324.71,382.23 c 1.505,0.09 3.067,0.027 4.566,-0.157 1.716,-0.08 0.681,0.947 -0.695,1.16 -1.275,0.214 -3.199,0.019 -4.425,-0.08 l 0.554,-0.923 z"
         id="path158"
         style="fill-opacity:1;stroke:#003d8f" />
      <path
         d="m 324.42,383.07 c 1.499,0.159 3.062,0.169 4.568,0.054 1.717,0 0.637,0.978 -0.748,1.127 -1.284,0.155 -3.197,-0.128 -4.417,-0.284 l 0.597,-0.897 z"
         id="path160"
         style="fill-opacity:1;stroke:#003d8f" />
      <path
         d="m 324.46,383.68 c 1.425,0.349 2.928,0.638 4.386,0.7 1.662,0.22 0.485,0.874 -0.837,0.856 -1.244,0.002 -3.079,-0.351 -4.195,-0.661 l 0.646,-0.895 z"
         id="path162"
         style="fill-opacity:1;stroke:#003d8f" />
      <path
         d="m 324.1,384.51 c 1.356,0.354 2.798,0.639 4.175,0.697 1.628,0.228 0.429,0.876 -0.828,0.858 -1.164,0.004 -2.873,-0.342 -3.927,-0.655 l 0.58,-0.9 z"
         id="path164"
         style="fill-opacity:1;stroke:#003d8f" />
      <path
         d="m 323.85,385.19 c 1.325,0.474 2.772,0.88 4.136,1.028 1.584,0.332 0.323,0.908 -0.87,0.815 -1.162,-0.07 -2.874,-0.572 -3.824,-0.969 l 0.558,-0.874 z"
         id="path166"
         style="fill-opacity:1;stroke:#003d8f" />
      <path
         d="m 323.48,385.92 c 1.304,0.58 2.778,1.087 4.14,1.3 1.554,0.392 0.245,0.935 -0.89,0.798 -1.178,-0.122 -2.938,-0.774 -3.766,-1.226 l 0.516,-0.872 z"
         id="path168"
         style="stroke-opacity:1;fill-opacity:1;stroke:#003d8f" />
      <path
         d="m 323.34,386.46 c 1.21,0.754 2.642,1.441 3.949,1.803 1.503,0.537 0.117,0.976 -0.953,0.732 -1.174,-0.25 -2.912,-1.176 -3.575,-1.71 l 0.421,-0.678 0.158,-0.147 z"
         id="path170"
         style="fill-opacity:1;stroke:#003d8f" />
      <path
         d="m 323.27,387.19 c 1.086,0.862 2.41,1.649 3.599,2.113 1.462,0.645 0.011,1.012 -0.997,0.689 -1.195,-0.371 -2.967,-1.616 -3.405,-2.166 0.268,-0.212 0.535,-0.424 0.803,-0.636 z"
         id="path172"
         style="fill-opacity:1;stroke:#003d8f" />
      <path
         d="m 322.86,387.99 c 0.99,0.94 2.233,1.793 3.322,2.329 1.444,0.71 -0.029,0.945 -1.023,0.676 -1.313,-0.356 -3.863,-2.743 -4.017,-3.444 l 1.718,0.439 z"
         id="path174"
         style="fill-opacity:1;stroke:#003d8f" />
      <path
         d="m 319.87,387.84 c 1.822,-0.384 2.76,-4.007 3.67,-7.734 0.037,-1.248 0.831,-2.357 2.106,-3.272 0.753,-0.493 1.208,-0.172 0.447,0.837 0.794,-0.151 0.529,0.641 -0.172,1.113 0.906,-0.179 0.596,0.646 -0.159,1.09 0.939,-0.148 0.576,0.679 -0.216,1.082 0.983,-0.119 0.565,0.712 -0.264,1.07 1.034,-0.089 0.56,0.745 -0.305,1.058 1.089,-0.056 0.557,0.779 -0.343,1.045 1.143,-0.018 0.559,0.81 -0.371,1.03 1.188,0.028 0.556,0.842 -0.396,1.016 1.218,0.08 0.549,0.87 -0.418,1.003 1.23,0.137 0.536,0.894 -0.437,0.991 1.085,0.174 0.646,0.691 -0.146,0.822 -0.35309,0.0584 -0.7158,0.0572 -1.0003,-0.0709"
         id="path176"
         style="fill-opacity:1;stroke:#003d8f" />
    </g>
    <path
       d="m 186.12,82.503 -0.003,-0.0027"
       id="path182"
       style="fill:none;stroke:#003d8f;stroke-width:1.555;fill-opacity:1;stroke-miterlimit:4;stroke-dasharray:none" />
  </g>
  <path
     d="m 95.47605,168.47136 0.12552,0 c -0.36004,-1.53018 -0.8101,-2.79033 -2.52031,-3.42041 -0.99012,-0.36004 -2.16026,-0.8101 -3.15038,-0.99012 -1.44017,-0.18002 -2.5203,0.72009 -3.60043,0.8101 -1.80022,0.27003 -3.3304,0.09 -4.1405,1.35016 -5.52217,4.90835 -9.76331,6.57292 -12.64191,7.82032 -0.53331,0.88348 -1.09013,1.78922 -1.65957,2.63795 -0.99187,1.47805 -1.60357,2.57056 -2.79072,3.09325 -0.18639,1.35053 -0.48905,2.68307 -0.88023,3.98923 1.79247,0.8136 2.02137,1.35979 4.38078,0.0112 2.07025,-1.26015 4.50055,-4.05049 6.21075,-5.94072 1.35017,-1.44017 4.14051,-3.87047 6.84083,-5.85071 1.17014,-0.90011 2.25027,-1.89023 3.42042,-2.70032 0.99012,-0.63008 2.25027,-0.36005 3.24039,-0.45006 0.54006,0.18002 1.08013,0.72009 1.89023,1.35017 0.58644,0.51306 1.2934,0.60769 1.97311,0.38204 -0.33242,-1.2559 -1.29416,-1.90523 -1.97236,-2.90197 l 0.43792,-0.24566 c 0.78072,1.10639 1.8201,1.11064 2.35416,2.4523 0.28566,0.0496 0.5967,0.0666 0.94362,0.0323 -0.12577,-0.55957 -0.57407,-3.08025 -2.05675,-3.24539 l 0.44155,-0.41318 c 1.05,0.26154 1.6447,0.87423 2.04688,1.74422 -0.33029,-0.96775 -0.88099,-1.74522 -1.80122,-1.97424 l 0.31679,-0.42768 c 1.45967,0.4398 2.05287,1.25878 2.59143,2.8871"
     id="path3537"
     style="fill:#ffcc50;fill-opacity:1;fill-rule:evenodd;stroke:none" />
  <path
     d="m 198.46074,82.897796 c 1.4095,2.618151 -0.96527,1.196251 -2.40428,-0.188712 l 4.25597,-14.253862 c 1.15227,0.57284 2.53785,1.458174 1.29685,3.250299 z"
     id="path100-3"
     style="fill:#ffcd50;fill-opacity:1;fill-rule:evenodd;stroke:none;stroke-width:0.5;stroke-miterlimit:4;stroke-dasharray:none;stroke-opacity:1"
     inkscape:connector-curvature="0"
     sodipodi:nodetypes="ccccc" />
  <path
     d="m 224.33626,111.96928 c 0.70059,0.87536 2.01387,2.53881 3.32691,1.92611 2.10138,-1.13826 1.13826,-4.99036 -0.96287,-7.52941 C 219.95873,97.960961 211.64148,91.482302 199.47201,90.168894 185.8141,88.593078 172.50625,88.85561 158.67332,88.417932 147.20444,88.067889 142.30159,84.39057 135.9977,79.750384 129.60656,75.022687 124.0035,72.308858 117.26194,71.520763 98.96385,69.244613 97.56306,78.875028 79.00231,64.604052 M 89.9375,171.71875 c 2.38412,-3.37707 6.941855,-6.3214 11.67511,-8.77091 M 79.75,167.03125 c -2.57325,2.3201 -6.11721,5.03826 -6.46875,11.15625 -0.429181,7.12431 3.066433,10.00283 5.03125,14.3125"
     id="path3535"
     style="fill:none;stroke:#003d8f;stroke-width:1.99861681;stroke-linecap:butt;stroke-linejoin:miter;stroke-miterlimit:10;stroke-opacity:1;stroke-dasharray:none" />
  <path
     d="m 115.42347,165.0247 c 2.25702,5.96059 3.15175,12.95769 4.37753,18.6485 1.05075,4.7277 2.7142,8.8427 3.41441,13.74554 2.27652,14.62064 4.29002,35.10775 -0.96287,44.12546 2.27615,0.6127 3.23939,2.10113 4.11463,3.50193 1.13826,1.75096 2.18901,1.83847 4.02748,1.57594 0.26266,-2.10113 -0.61307,-4.46517 -0.17502,-6.47866 0.43768,-1.83848 2.36366,-2.18902 2.80171,-0.43768 0.78773,2.45117 2.71371,1.66345 2.97636,-1.4008 0.35042,-2.80171 -0.70033,-6.12861 -1.22552,-9.19286 -1.4883,-8.58003 -3.32678,-21.62524 -4.29002,-31.51831 -0.61307,-6.21613 -0.35004,-8.9302 -0.26253,-14.79616 0.0875,-2.97674 -0.35054,-5.95347 -1.05075,-8.8427 0.43768,-5.51541 0,-11.20635 -0.78772,-16.9848 -2.72271,0 -6.29301,-0.19665 -9.18961,-0.24978 -1.72484,1.49043 -3.85497,2.55256 -5.94997,3.52067 0.68221,1.57444 1.58469,3.20714 2.18189,4.78371 z"
     id="path3539"
     style="fill:#ffffff;fill-opacity:1;fill-rule:evenodd;stroke:none" />
  <path
     d="m 56.15167,95.422144 c 2.71408,6.478656 13.48276,12.082086 19.96142,13.395366 -2.17439,12.49802 4.16713,31.69946 16.11982,38.57492 0.65058,-2.11588 1.05675,-4.15888 1.71177,-7.45153 0.65502,-3.29264 2.02893,-6.12799 4.77364,-10.02796 l 0.60732,0.42743 c -2.73008,3.87934 -2.33778,6.83195 -2.939165,9.85106 -0.601385,3.01912 -0.911425,4.53055 -1.324975,6.11524 -1.47317,5.64344 -4.33115,10.25624 -8.45789,14.37024 -2.0525,2.04687 -4.28827,4.04587 -6.86152,6.36596 -2.57325,2.3201 -6.11168,5.03168 -6.46322,11.14967 -0.45006,7.4709 3.42041,10.26124 5.31064,14.94181 3.87047,9.36113 5.31064,15.30185 6.75082,24.39295 0.72571,4.67631 3.67869,9.04497 7.19737,13.2691 1.02237,-2.01674 2.63219,-2.62407 4.18613,-3.21064 2.15776,-0.81397 2.44905,-2.22077 2.53093,-3.97248 -1.40254,-1.19914 -2.97811,-2.47105 -3.57981,-3.35165 -1.01562,-1.63007 0.0815,-3.10825 1.63333,-2.27828 2.3034,1.12339 3.06137,-0.79272 1.02837,-3.105 -1.38954,-1.76159 -3.43467,-2.51355 -4.84146,-4.11362 -4.89147,-5.57067 -4.79508,-10.83144 -7.88483,-19.88066 -3.96048,-11.25136 -1.71021,-10.53127 4.32052,-19.17231 4.26627,-6.04311 15.64102,-10.78143 22.35808,-13.68628 2.31803,-1.00288 4.96198,-2.17764 6.42703,-4.17176 3.49155,-4.75632 5.61818,-14.90105 4.42566,-20.59111 l 0.72646,-0.15102 c 1.37042,6.53966 1.14189,15.44399 -2.60031,21.25069 5.55304,0.16765 10.95682,-0.14877 16.48124,-1.06913 10.41814,-1.66345 20.83677,-4.11499 30.55507,-6.04098 1.75096,-0.35016 2.10113,1.75096 3.3269,2.62657 4.81521,-0.52556 9.19274,-4.37753 14.00807,-4.90309 -1.57594,-4.20214 -2.45167,-8.57967 -1.9261,-12.86981 0.70021,-6.30351 4.46516,-12.34462 1.83847,-18.21045 l 0.70033,-0.35017 c 2.71408,6.12849 0.61308,12.34462 -0.17514,18.64813 -1.05038,8.66767 4.2025,17.86054 8.58016,24.86438 4.7277,7.6168 12.86981,17.16008 16.19658,25.21468 1.92636,4.90272 0.70059,10.85619 0,16.02156 -0.78772,5.77845 -2.18864,11.29424 -3.41441,16.89729 -1.66333,7.52942 -4.29002,15.32173 -9.19274,21.53773 -1.13826,1.48843 -2.97673,4.02712 -4.72769,6.30364 2.36403,0.52519 3.3269,2.0135 4.2025,3.50193 1.22578,1.83847 2.36367,1.83847 4.20251,1.57581 0.52519,-1.75096 0.78772,-3.15176 0.87536,-3.93985 0.35004,-2.53881 2.18889,-3.67695 3.15176,-1.13789 0.78809,1.92598 2.27652,1.4008 3.06424,-1.05075 0.87573,-2.53906 1.13826,-5.77845 1.48843,-8.40464 2.36404,-12.87018 5.95347,-24.77712 9.80581,-36.85908 1.83847,-6.04111 4.11462,-11.81918 4.20214,-17.51 0.26303,-6.91671 -4.02712,-7.52941 -6.1285,-11.20673 -1.22539,-2.10113 -1.66345,-5.16537 -1.57594,-8.75481 0.26266,-6.12849 1.83848,-8.9302 4.46517,-13.92043 1.75096,-3.67745 2.80171,-7.52941 3.58981,-11.46939 1.05037,-5.25288 2.53868,-16.89717 -1.13827,-21.36233 l 0.6127,-0.52519 c 0.70059,0.87536 2.01387,2.53881 3.32691,1.92611 2.10138,-1.13826 1.13826,-4.99036 -0.96287,-7.52941 C 219.95873,97.960961 211.64148,91.482302 199.47201,90.168894 185.8141,88.593078 172.50625,88.85561 158.67332,88.417932 147.20444,88.067889 142.30159,84.39057 135.9977,79.750384 c -6.39114,-4.727697 -11.9942,-7.441526 -18.73576,-8.229621 -18.29809,-2.27615 -19.69888,7.354265 -38.25963,-6.916711 1.31329,-0.962742 3.67732,-2.88885 5.16575,-4.990229 2.62619,-3.501923 1.13789,-7.704432 -3.67732,-7.4419 -3.3269,0.08751 -9.19286,0.438053 -13.74541,1.838847 -3.23939,1.050377 -5.69056,1.926108 -5.95347,5.865585 -0.0876,0.875731 -0.26266,2.013993 -0.78785,2.801714 -1.4883,2.276525 -7.00422,2.976735 -8.22999,0.175021 -0.6127,-1.137888 -0.52519,-2.27615 -1.31291,-3.326777 -5.42828,1.575815 -10.85619,3.589809 -16.19696,4.55255 -12.43213,3.239392 -25.73999,5.603428 -27.05327,20.136561 0.0875,0.78822 0.0875,1.57594 0.26291,2.364035 3.23939,0.08764 5.16537,-1.225773 6.47865,-4.114997 0.17515,-1.225773 2.97674,-1.138138 2.62632,0.613074 -0.87535,2.713828 -3.85209,6.653805 -7.17887,6.391148 0.6127,0.70021 2.10101,1.225773 3.32678,1.225773 3.23939,-2.801589 7.61692,-5.690813 12.25711,-4.46504 1.13826,0.262532 0.8756,2.713703 -0.52519,2.363661 -3.76483,-0.962866 -7.26675,0.700585 -9.89345,2.801714 2.88923,3.151756 5.42828,3.852341 10.15598,1.225773 0.35017,-0.175146 0.78785,-0.437678 1.13826,-0.78822 2.4513,0.875731 2.18864,3.327277 2.36367,5.428281 0.52518,7.616924 0,15.233844 6.74131,16.021684 0.61307,-2.5388 1.75134,-5.07786 3.32715,-7.61692 l 0.6127,0.43792 c -3.23926,5.16538 -2.36366,14.44575 0.96324,19.34847 0.52519,0.87573 4.02712,5.16575 5.86596,-2.71383 1.13789,-5.34077 1.40042,-9.89332 2.27615,-14.79617 0.70021,-4.37753 0.87561,-8.842566 0.70021,-13.307731 5.25326,7.004221 13.13272,19.874031 24.42658,24.164051 -0.0875,-2.6267 0.17552,-5.5158 0.43806,-7.96709 -7.79195,-2.2764 -15.14634,-8.22987 -18.12307,-15.058699 z M 180.3862,161.0851 c 8.31713,14.97131 6.0406,19.34884 -0.61308,35.45791 -2.80171,7.4419 -6.82882,14.53363 -11.55652,22.15055 -4.115,6.56617 -9.63079,14.70828 -13.39537,19.52386 2.27615,0.6127 3.23939,2.10101 4.20251,3.50193 1.22552,1.92598 2.4513,1.83847 4.28977,1.57581 0.61307,-1.83847 0.8756,-3.85234 1.13826,-5.16537 0.43768,-1.92636 2.36404,-2.18889 2.80159,-0.52544 0.78785,2.45155 2.53918,1.66333 3.50192,-1.31341 2.18902,-17.42236 13.39537,-28.36618 23.98903,-43.33737 5.95347,-4.99022 8.57979,-11.99445 6.30364,-17.94792 l -0.35017,-3.50192 c -2.36404,-5.07824 -5.07824,-8.40502 -8.14248,-13.22022 -2.0135,-3.32691 -4.28965,-7.09174 -6.04061,-11.03134 -3.23964,0 -6.65406,2.71408 -9.98096,4.20251 0.87573,4.11462 2.36404,7.00385 3.85247,9.63042 z"
     id="path3541"
     style="fill:#ffffff;fill-opacity:1;fill-rule:evenodd;stroke:none" />
  <path
     d="m 77.68903,9.1847239 c -0.70021,3.3267771 -0.70021,9.8058111 -0.43768,13.2202241 0.0875,2.801714 0.78822,4.377529 4.64019,3.414413 3.41441,-1.575941 5.16575,-5.603428 7.35439,-8.667674 1.83847,-2.626192 3.15175,-5.690563 4.90271,-8.404641 0.61308,-1.0507521 1.4008,-1.1382627 0.87561,0.2625317 -0.7881,2.0136183 -1.31328,4.2025083 -2.18889,6.3036373 -0.96287,2.101129 -2.18864,7.791943 -1.31341,9.017716 1.05075,1.400919 3.06437,-0.262532 4.02749,-1.050752 3.50192,-2.538682 5.34077,-6.828701 7.09173,-10.593532 0.26266,-0.437677 0.43768,-0.700334 0.6127,-0.962866 0.78822,-1.138263 0.87573,-0.350542 0.52519,0.70021 -0.52519,2.451546 -0.26253,3.414413 -1.31291,5.778449 -0.52556,1.138262 -0.43805,2.451546 0.43768,3.326777 2.36366,2.539182 5.95347,-2.363661 7.87945,-4.815207 1.13826,-1.488305 1.66345,-2.188515 1.05075,0.262656 -0.35054,1.488305 -1.05075,2.889225 -1.66345,4.37753 -2.27652,4.815207 -4.55267,8.667673 -7.79194,12.432128 -4.64056,5.603428 -9.54328,10.418635 -15.6719,13.657902 -4.11462,2.189015 -8.57966,2.976735 -13.04482,4.114998 -4.29002,0.963241 -10.68117,2.27615 -13.04521,6.216127 -0.52519,0.788095 -0.78772,1.925983 -0.78772,3.239267 -0.0875,2.364035 -6.47903,3.589434 -6.91671,0.87573 -0.52519,-2.889224 -2.27615,-4.640186 -4.46504,-6.128616 -4.7277,-2.976735 -9.89307,-4.815207 -14.44575,-7.967338 -4.46504,-2.363661 -8.66754,-5.165375 -11.38175,-8.92983 -2.18864,-3.064371 -3.06424,-6.829201 -2.88885,-11.206731 0.0875,-2.451171 0.35017,-2.451171 0.78772,-0.175021 0.96324,4.377529 3.85247,9.805811 6.91671,12.519639 2.18864,1.926358 2.36367,0.700585 1.57595,-1.313284 -1.05076,-2.538807 -2.27653,-4.902843 -2.71421,-7.704556 -0.70058,-4.902718 0,-10.155604 1.31329,-14.007945 0.70033,-2.101129 0.78784,-1.050752 0.70033,0.437678 -0.87536,7.091608 -0.17515,13.395245 2.80159,18.911037 0.26266,0.525189 2.27615,4.290144 3.50192,5.252886 2.36404,2.101504 1.13827,-1.137888 0.70059,-2.276151 -0.7881,-2.013493 -1.31329,-5.077739 -1.4008,-7.179243 -0.17502,-2.188515 0.17502,-4.377529 1.05038,-6.828701 1.66383,-3.151881 1.40079,-2.889224 0.96312,0.437678 -0.43756,3.589434 -0.17502,6.916212 1.05075,9.892947 0.6127,1.48843 2.18864,5.428281 4.11462,8.142485 1.75134,2.538682 4.99073,4.727696 7.87983,2.27615 0.96287,-0.612699 1.75096,-4.902718 2.27615,-6.65368 0.35017,-1.313409 0.70058,-2.801714 0.96324,-2.539182 0.52519,0.525564 0.26253,4.114998 0.52519,4.815332 0.70058,2.276401 2.80171,1.225774 3.67694,-0.08764 1.75134,-2.451172 2.53906,-5.690438 2.88923,-9.105226 0.78809,-6.303638 0.17502,-13.394996 0.17502,-18.298089 0,-4.114622 0.43805,-3.239266 1.22577,-0.350167 0.26266,1.138263 0.43806,2.276525 0.52557,3.414413 0.26265,5.078239 0.87535,10.331125 1.2254,15.496749 0.26303,3.852091 1.83884,5.165375 3.85246,3.764581 3.41441,-2.451547 5.77845,-8.14211 7.44178,-11.90694 1.48843,-4.027113 1.48843,-8.317131 1.9261,-12.519765 0.17503,-1.313283 0.43756,-2.7140779 1.22578,-3.76483 1.31328,-2.0134935 1.4883,-1.2253982 0.78772,0.8757309"
     id="path3543"
     style="fill:#d40000;fill-opacity:1;fill-rule:evenodd;stroke:none" />
  <path
     d="m 45.5625,64.8125 c -0.234024,0.0011 -0.48,0.02574 -0.71875,0.0625 -1.91,0.294053 -3.210658,1.751424 -2.9375,3.28125 0.273158,1.529823 1.995747,2.419119 3.90625,2.125 C 47.723003,69.987135 49.147924,68.530005 48.875,67 48.636191,65.661245 47.200667,64.805058 45.5625,64.8125 z"
     id="path3116"
     style="fill:#003d8f;fill-opacity:1;fill-rule:evenodd;stroke:none" />
  <path
     d="m 45.03283,66.442899 c 0.08752,0.48162 -0.218587,0.875345 -0.70021,0.962866 -0.481623,0.08752 -1.050755,-0.175021 -1.13826,-0.612699 -0.08751,-0.437678 0.262345,-0.875668 0.78772,-0.963241 0.525375,-0.08757 0.963234,0.131454 1.05075,0.613074 z"
     id="path3549"
     style="fill:#ffffff;fill-opacity:1;fill-rule:evenodd;stroke:none" />
  <path
     d="m 46.08358,64.867083 c 1.66333,0.08751 3.32678,1.137888 3.67694,2.101005 l -1.57594,0.262656 c -0.35004,-0.612699 -1.22577,-1.138262 -2.18864,-1.225773 -1.4883,-0.175146 -2.88909,0.700585 -3.15175,2.013869 l -3.76483,0.612699 -0.0875,-0.437678 2.8891,-1.225773 c 0.70033,-1.400795 2.53918,-2.18864 4.20263,-2.101005"
     id="path3551"
     style="fill:#003d8f;fill-opacity:1;fill-rule:evenodd;stroke:none" />
  <path
     d="m 221.00936,182.7976 -0.70021,-0.35017 c 2.45117,-4.115 -3.76483,-11.03121 -6.47903,-13.6579 l 0.61307,-0.52519 c 2.45117,2.4513 4.46517,2.80134 6.56617,5.86558 2.45155,3.41479 2.01362,5.25326 0,8.66768 z M 95.54944,93.408285 c 4.20251,-4.902718 7.70443,-8.054599 15.05882,-8.842319 7.52928,-0.700585 11.46889,1.925983 16.63464,5.427906 l -0.43806,0.613075 c -4.02711,-2.714079 -10.76867,-4.202509 -16.02156,-3.67732 -5.16537,0.525188 -11.55677,3.414413 -14.62114,6.916711 z M 82.50461,56.1119 c -4.115,0.437677 -11.11922,1.750961 -14.97119,4.640186 -1.40092,1.138262 -2.1015,2.364036 -2.01386,4.46504 -2.80134,-1.925983 -1.57594,-4.46504 0.61294,-6.128491 4.20264,-3.239392 11.90707,-3.501924 16.37211,-3.764831 z M 72.6988,68.01884 c 3.06424,-1.48843 12.43213,-7.266754 12.51964,-11.381752 0,-0.875356 -0.43768,-2.101129 -1.48843,-2.538807 -3.85197,-1.751212 -15.75891,0.962866 -19.08581,2.713828 -3.15176,1.663451 -1.75096,4.37753 -4.20251,6.479034 L 59.9165,62.678069 c 0.52519,-0.437678 0.6127,-1.138263 0.6127,-1.838473 0.17502,-2.976735 0.70346,-4.763826 3.33003,-6.07711 4.46517,-2.276525 15.40574,-4.866713 20.57136,-2.940605 2.01362,0.700584 3.06437,2.714078 3.06437,4.55255 0.0875,5.86596 -8.9302,10.856313 -13.30786,13.045203 -9.19273,4.377655 -6.65368,-0.963116 -12.51964,-2.18889 l 0.17503,-0.787845 c 5.07786,1.050377 4.64018,4.552676 10.85631,1.575941 z M 45.90843,92.53293 C 41.44339,92.182887 31.8126,89.031006 28.4857,91.307156 l -0.43768,-0.700209 c 4.99036,-3.327153 12.69479,-0.700585 18.29809,-0.350418 5.42791,0.350418 11.81943,-0.437678 13.57039,-5.690563 l 0.78772,0.262532 c -2.27615,6.741315 -7.52928,8.22962 -14.79579,7.704432 z M 23.758,82.20193 22.97016,81.939398 c 1.05038,-3.06437 0.35017,-4.990353 4.37765,-5.603427 2.88885,-0.525189 7.61655,-1.663452 9.63042,-2.889225 l 0.43768,0.613074 c -3.41442,2.18864 -4.20251,3.676945 -9.71805,4.552676 -2.62657,0.350042 -3.15176,1.050377 -3.93986,3.589434 z"
     id="path3553"
     style="fill:#003d8f;fill-opacity:1;fill-rule:evenodd;stroke:none" />
  <path
     d="m 199.9972,252.9257 c -3.76459,1.83848 -7.79195,2.80159 -11.73155,2.80159 l 2.53868,-5.51579 -5.4279,5.34077 c -0.70059,-0.0875 -1.4008,-0.17502 -2.10138,-0.26266 l 9.36813,-10.85618 c 4.64019,0.70021 3.23939,6.30363 8.6673,5.34039 z"
     id="path3555"
     style="fill:#d40000;fill-opacity:1;fill-rule:evenodd;stroke:none" />
  <path
     d="m 161.21238,248.11037 c -3.76446,1.8386 -7.79194,2.80171 -11.73192,2.80171 l 2.62669,-5.51579 -5.51579,5.34077 c -0.70033,0 -1.40054,-0.17514 -2.01362,-0.26265 l 9.28037,-10.85657 c 4.7277,0.70059 3.23927,6.30402 8.66755,5.34077 z"
     id="path3557"
     style="fill:#d40000;fill-opacity:1;fill-rule:evenodd;stroke:none" />
  <path
     d="m 128.55618,251.43727 c -3.67732,1.83848 -7.70443,2.80172 -11.64441,2.80172 l 2.53918,-5.51592 -5.51591,5.34077 c -0.70021,-0.0875 -1.31329,-0.17502 -2.0135,-0.26253 l 9.28038,-10.85619 c 4.72769,0.70021 3.32677,6.30351 8.66717,5.3404 z"
     id="path3559"
     style="fill:#d40000;fill-opacity:1;fill-rule:evenodd;stroke:none" />
  <path
     d="m 103.52928,226.79242 c 0.90498,4.05224 0.98412,8.19236 0.22678,12.05958 l -4.93035,-3.67907 4.14112,6.46378 c -0.23527,0.66558 -0.47055,1.33104 -0.79159,1.97774 l -8.51528,-11.45476 c 1.59144,-4.40166 6.76532,-1.8346 7.0711,-7.32451 z"
     id="path3561"
     style="fill:#d40000;fill-opacity:1;fill-rule:evenodd;stroke:none" />
  <g
     transform="matrix(2.7422303,0,0,2.7422303,-688.19194,-1002.5374)"
     id="g202"
     style="fill:#ffcd50;fill-rule:evenodd;stroke:#806600;stroke-width:0.36466667;stroke-miterlimit:4;stroke-dasharray:none">
    <g
       id="g4770">
      <path
         d="m 319.58,400.48 c 0.393,-0.477 0.356,-1.186 -0.334,-1.379 l -0.226,0.497 c 0.36,10e-4 0.614,0.335 0.56,0.882 z"
         id="path204"
         style="fill-opacity:1;stroke-width:0.2188;stroke-miterlimit:4;stroke-dasharray:none;fill:#d40000;stroke:#003d8f;stroke-opacity:1" />
      <path
         d="m 313.08,399.58 c -0.092,-0.612 0.303,-1.202 0.994,-1.014 l -0.061,0.544 c -0.309,-0.185 -0.698,-0.028 -0.933,0.47 z"
         id="path206"
         style="fill-opacity:1;stroke-width:0.2188;stroke-miterlimit:4;stroke-dasharray:none;fill:#d40000;stroke:#003d8f;stroke-opacity:1" />
      <path
         d="m 313.89,397.16 c 0.244,-0.569 0.89,-0.862 1.379,-0.337 l -0.339,0.429 c -0.165,-0.319 -0.578,-0.391 -1.04,-0.092 z"
         id="path208"
         style="fill-opacity:1;stroke-width:0.2188;stroke-miterlimit:4;stroke-dasharray:none;fill:#d40000;stroke:#003d8f;stroke-opacity:1" />
      <path
         d="m 315.82,401.48 c -0.227,-0.465 -0.261,-1.351 0.168,-1.569 l 0.286,0.423 c -0.158,0.166 -0.304,0.632 -0.454,1.146 z"
         id="path210"
         style="fill-opacity:1;stroke-width:0.2188;stroke-miterlimit:4;stroke-dasharray:none;fill:#d40000;stroke:#003d8f;stroke-opacity:1" />
      <path
         d="m 317.11,399.18 c 0.48,-0.519 0.629,-0.591 1.188,-0.09 0.2,0.132 0.33,0.448 0.559,0.519 0.542,0.169 0.979,-0.29 0.615,-0.636 -0.338,-0.321 -0.892,-0.243 -1.306,-0.611 -0.168,-0.113 -0.258,-0.384 -0.053,-0.507 0.39,-0.193 0.95814,-0.78865 1.31814,-1.29665 l -0.68882,-0.4293 c -0.38007,0.66233 -0.94865,1.25115 -1.57632,1.39195 -1.699,0.398 -1.468,-0.834 -1.943,-0.945 -0.24,-0.055 -0.352,0.221 -0.432,0.454 -0.188,0.543 0.718,0.764 1.327,0.93 0.462,0.126 0.594,0.143 -0.057,0.321 -0.832,0.227 -1.87,-0.018 -2.061,0.034 -0.485,0.133 -0.299,1.146 0.547,0.89 0.725,-0.219 1.202,-0.186 1.823,-0.508 0.243,-0.125 0.673,-0.34 0.514,-0.023 -0.245,0.489 -0.622,0.512 -1.059,0.913 -0.504,0.463 0.063,1.212 0.694,0.605 0.283,-0.273 0.35,-0.752 0.591,-1.012 z"
         id="path212"
         style="fill-opacity:1;stroke:#003d8f;stroke-width:0.21879999;stroke-miterlimit:4;stroke-dasharray:none"
         inkscape:connector-curvature="0"
         sodipodi:nodetypes="cccccccccccccccccccc" />
    </g>
  </g>
  <g
     transform="translate(100,0)"
     id="g3149">
    <path
       d="m -6.41442,158.93934 -1.09364,0 0.18077,0.59432 -1.1025,0.0936 0.2204,0.8256 c -0.72534,0.0344 -1.47418,0.11552 -2.19952,0.0404 l 0.0623,0.45431 c -2.24452,0.87786 -3.76196,0.0996 -5.34465,-2.06238 l -3.155,-0.12376 4.60941,-5.54516 c 6.52714,-1.12051 7.46238,3.58443 7.82243,5.72307 z"
       id="path3563"
       style="fill:#003d8f;fill-opacity:1;fill-rule:nonzero;stroke:none" />
    <path
       d="m -41.54142,194.33524 c 2.71845,-3.90234 4.82346,-9.39476 5.58992,-14.2741 -2.53205,0.35542 -5.48254,0.45606 -8.03472,0.43518 -4.04486,-0.034 -9.16273,-0.25378 -12.71066,-2.47643 l 0.15239,-0.48368 c 3.53243,1.62482 8.78769,1.93348 12.56602,1.96499 2.42142,0.0199 4.79183,-0.36605 7.196,-0.38017 2.59394,-0.0135 3.92672,-3.05225 5.10787,-4.98611 2.02424,-3.3144 4.83333,-6.81745 7.57966,-9.81506 1.61707,-1.76584 3.14301,-3.83684 4.93472,-5.38965 1.17015,-0.72009 2.52031,-0.45005 3.60044,-0.54007 0.54006,0.18003 1.17014,0.8101 1.98024,1.44018 0.65133,0.50669 1.35966,0.6067 2.12726,0.3923 -0.25578,-1.86398 -1.73246,-2.01075 -2.05175,-3.09163 l 0.43618,-0.26966 c 0.73783,1.04151 1.9246,0.65346 2.46217,2.59657 0.31191,0.0659 0.69396,0.0783 1.11313,0.0584 -0.30478,-1.14176 -0.99399,-3.15926 -2.24889,-3.5398 l 0.50081,-0.3888 c 1.43805,0.46743 2.08612,1.6117 2.53518,3.06037 l 0.0669,-0.006 c -0.37629,-1.23927 -0.95711,-2.94411 -2.33241,-3.32615 l 0.32817,-0.4298 c 1.53756,0.44217 2.15063,1.38341 2.6982,3.05362 l 0.21578,0 c -0.45006,-1.6202 -0.8101,-2.97036 -2.70033,-3.60044 -1.08013,-0.45005 -2.25027,-0.99012 -3.42041,-1.08013 -1.53019,-0.27003 -2.70033,0.72009 -3.87047,0.90011 -1.89023,0.27003 -3.51043,0 -4.9506,1.7102 -2.027,2.55606 -3.92085,4.58481 -5.65193,6.24013 -2.53131,2.41967 -5.24901,4.82734 -7.95884,7.03286 -1.03163,0.8396 -1.92786,1.74246 -2.57206,3.00123 -1.92249,-1.16476 -3.88747,-1.93448 -6.00985,-2.65357 -1.63183,-0.55244 -2.90836,-0.96849 -4.3219,-2.01249 -0.99762,-0.73772 -1.93274,-1.51881 -4.11,-1.29941 l 0.10489,-0.57632 c 1.76409,-0.20265 2.83922,-0.22503 4.5983,1.07563 1.32604,0.97975 2.50968,1.34654 4.04912,1.86785 1.8821,0.63783 3.53418,1.19702 5.31102,2.21165 0.60307,-0.94549 1.45817,-1.71871 2.34903,-2.4218 -1.05238,-3.71945 -1.52618,-6.99672 -1.26965,-9.13535 0.27003,-3.15038 -0.18003,-7.29088 2.61031,-9.00109 0.82323,-0.48869 1.4398,-0.86611 1.98374,-1.13651 -2.51318,-0.41993 -3.71445,-1.17577 -4.57993,-2.18752 l 0.33179,-0.37279 c 1.52694,1.35754 3.92848,1.57656 5.85884,1.76471 1.27215,0.12377 2.47455,0.45681 3.71057,0.62158 0.98237,0.13326 2.37191,-0.23778 3.09588,-0.9585 1.6567,-1.64794 -2.63482,-2.69895 -3.11888,-2.74995 -0.85723,-0.0908 -1.69208,-0.17965 -2.37716,-0.62308 l 0.50993,-0.28278 c 1.8091,-0.39017 3.27802,-1.16514 4.03637,-2.17614 l 0,0 c 1.08013,-0.18002 1.53018,-0.90011 1.62019,-2.25027 0.051,-0.81648 -0.0723,-1.66133 -0.46668,-2.4863 0.28979,1.47918 -1.03475,2.75808 -2.69783,2.55356 -0.68608,-0.0839 -1.85797,-0.53582 -2.02637,-1.29241 -0.18714,-0.84198 0.90261,-1.26503 1.48906,-1.54106 0.79697,-0.3753 1.61494,-0.76084 1.56244,-1.44593 -0.008,-0.10839 0.0482,-0.19027 0.12689,-0.23315 -0.72859,-0.6527 -2.33466,-0.55782 -4.37153,-0.87498 -1.84947,-0.28666 -3.89322,-0.22753 -4.45729,-2.48343 l 0.44468,-0.23565 c 0.33104,0.77959 0.55182,1.12414 1.36829,1.25703 -0.25803,-0.94024 -0.91611,-1.75984 -1.68295,-2.03875 -1.17015,-1.6202 -2.70033,-3.06037 -4.23052,-4.1405 0.09,-2.70033 -0.63007,-5.49066 -2.88034,-8.46102 -0.8101,-1.08013 -2.25028,-1.6202 -2.25028,0.54006 0.09,3.15038 -1.62019,5.49067 -2.43029,8.281 -0.53869,0.17965 -1.03625,0.43981 -1.46893,0.7786 0.26303,0.43292 0.4288,0.93336 0.56382,1.60919 l -0.89011,0.44506 c -0.60882,-2.13651 -0.72046,-2.6567 -3.60543,-4.00299 -0.72009,-0.27003 -1.44018,-0.54006 -1.80022,-0.36004 -0.70484,0.35217 -0.0978,1.8626 0.292015,2.64451 0.389815,0.7819 0.558465,1.6295 0.551465,2.54212 -0.0156,2.12225 -0.97562,4.36227 -0.28066,6.44853 l -0.94487,0.31253 c -0.88448,-2.60356 0.30129,-4.62068 0.23966,-6.8462 -0.86861,2.79184 -2.39279,6.4184 -2.10751,11.91057 0.27003,6.48078 -5.76069,13.14158 -5.94072,18.72226 -0.09,2.70033 -0.45005,2.70033 -1.08013,4.77058 -2.39491,7.93296 1.16552,16.72464 -6.33839,25.89613 -1.52618,1.86547 -3.33103,3.98536 -5.91059,5.86671 -5.65118,1.61669 -9.17711,-2.11601 -7.95921,-8.24487 0.52056,-2.61982 5.34927,-6.47691 9.79743,-4.22276 0.5702,-3.2404 -1.31828,-5.63906 -4.9641,-5.63094 l 1.028,-0.73246 c -1.59319,-0.12976 -3.81296,0.4418 -4.87471,0.91886 l 0.79409,-1.24277 c -1.4383,0.24128 -3.11312,1.20164 -4.19325,2.54718 l 0.39654,-1.63757 c -1.55531,0.70596 -3.01186,2.20601 -3.78395,3.87372 l -0.0773,-1.69108 c -1.12239,1.13401 -1.96399,3.00898 -2.39592,4.44378 l -0.41042,-1.56481 c -0.82885,1.7052 -0.982,3.90447 -0.85648,5.54904 l -0.85898,-1.50043 c -0.14602,1.66495 0.25053,3.78796 0.70096,5.05799 l -1.13226,-0.69483 c 0.47518,1.62019 1.28353,2.83459 2.19639,3.96685 l -1.21902,-0.0649 c 0.78309,1.50318 1.87385,2.62594 3.27302,3.38528 l -1.29453,0.23078 c 1.028,1.06913 2.77083,1.84097 3.9176,2.20277 l -1.25666,0.51343 c 1.35017,0.90011 3.77021,1.56957 5.12037,1.92961 l -1.71596,0.46106 c 1.41505,0.79734 3.18476,0.99649 4.70082,0.77997 -1.8636,0.99787 -2.52805,2.14563 -3.02349,3.61781 l 1.30904,-0.71871 c -0.42918,0.86673 -1.2169,2.04937 -1.09714,3.88497 l 0.70409,-0.93512 c -0.12864,1.8041 0.0305,3.26377 0.79172,4.88147 2.61031,4.77058 -1.17014,5.67069 -3.51043,8.281 -0.99012,1.08013 -1.62019,2.16026 -1.44017,3.96048 0.27003,2.16026 1.17014,4.23051 0.99012,6.48078 -0.27003,3.96048 -0.72009,8.01097 -0.09,12.15147 1.6202,1.08013 2.16026,2.25028 2.07025,3.42042 -0.09,1.44017 0.54006,2.16026 2.07025,2.34028 0.8101,0.09 1.6202,0.63008 2.5203,1.44018 0.8271,0.60169 1.71759,0.76259 2.61807,0.4323 -0.30291,-1.83923 -1.58507,-2.10388 -2.2594,-3.26727 l 0.59745,-0.11952 c 0.81897,0.92599 2.23927,0.86473 2.66732,3.14688 0.5727,0.25091 1.46568,0.27991 2.55681,-0.0354 -0.71046,-1.34703 -1.95998,-3.17838 -3.57768,-3.68907 l 0.6552,-0.28491 c 1.80622,0.24916 2.80622,1.64608 3.66882,3.2499 0.2179,-0.0226 0.42768,-0.0613 0.63295,-0.12114 -0.6712,-1.22928 -1.68582,-2.98774 -3.7872,-3.44167 l 0.35966,-0.30616 c 1.69396,0.017 2.8726,0.99962 3.83497,2.48342 l 0.31404,-0.11764 c -1.17015,-1.80021 -2.25028,-3.24039 -4.9506,-2.88034 -2.25027,-0.54007 -4.41054,-2.79034 -4.68057,-4.32053 -0.54006,-2.97036 -0.18002,-6.39077 0.72009,-9.18111 0.63007,-1.7102 1.62019,-5.8507 2.79034,-6.93083 1.2654,-1.2024 3.06537,-2.53881 5.52466,-4.22739 6.08349,-4.17626 8.1995,-9.03684 10.18824,-16.05344 0.63507,-2.24065 1.00149,-5.03386 2.57456,-6.8072 l 0.45318,0.16664 c -0.97487,1.28103 -1.27778,4.06987 -1.84835,6.12424 7.19237,-2.7457 14.57501,-8.7378 18.87353,-14.90642 z m -12.24748,57.10878 0.62657,-0.11551 c 0.78272,0.80622 2.00637,0.93199 2.46255,2.98561 0.52731,0.19878 1.31253,0.21753 2.2719,-0.0575 -0.59432,-1.13538 -1.68583,-3.06349 -3.08737,-3.35378 l 0.81572,-0.31503 c 1.47955,0.26228 2.32541,1.64182 3.02824,2.96823 0.17715,-0.0226 0.35079,-0.0468 0.51869,-0.086 -0.49819,-1.05538 -1.77147,-2.79396 -3.02812,-3.15463 l 0.3813,-0.3658 c 1.27303,0.11452 2.29678,1.19952 3.08837,2.36966 l 0.36755,-0.13776 c -1.17015,-1.71021 -2.16027,-2.97036 -4.68057,-2.79034 -2.07025,-0.45005 -3.51042,-2.79034 -4.41053,-3.96048 -1.80022,-2.5203 -1.44018,-11.6114 1.17014,-13.50163 4.50054,-3.24039 7.4709,-8.82107 8.82106,-13.77167 0.52619,-5.08561 -1.85272,-8.97596 -5.47041,-13.25072 -2.97611,2.31053 -6.28138,4.26451 -9.83569,5.52291 -1.01387,3.54193 -2.20026,7.22213 -4.00761,10.01922 1.90123,1.87172 3.98211,2.94085 5.09199,4.81945 2.61032,4.50055 -2.16026,4.59056 -2.61031,7.83095 -0.18002,1.26015 0.27003,3.96048 0.45005,7.20087 0.18003,2.79034 0.36005,5.67069 1.53019,7.11086 1.53018,0.99012 1.98024,2.07025 1.89023,3.15038 -0.09,1.35017 0.45005,1.98024 1.89023,2.16026 0.81009,0.09 1.53018,0.63008 2.43029,1.35017 0.75834,0.6067 1.58157,0.70158 2.41404,0.39329 -0.31929,-1.57619 -1.54443,-2.05149 -2.1185,-3.02099"
       id="path3565"
       style="fill:#ffcc50;fill-opacity:1;fill-rule:evenodd;stroke:none" />
    <path
       d="m -32.82062,144.80338 -0.40255,-0.90999 0.24416,-0.0429 0.4568,0.0323 0.44468,0.0131 0.43768,-0.006 0.42455,-0.0238 0.41068,-0.0394 0.39829,-0.0539 0.3853,-0.0698 0.3713,-0.0854 0.35766,-0.0975 0.34267,-0.10989 0.32666,-0.12326 0.30942,-0.13389 0.29441,-0.1439 0.27503,-0.15489 0.25766,-0.16164 0.23915,-0.16965 0.22015,-0.17902 0.20053,-0.18352 0.18039,-0.18753 0.15977,-0.19277 0.14002,-0.19565 0.11839,-0.19702 0.0974,-0.20053 0.0788,-0.19915 0.0566,-0.20127 0.0383,-0.20027 0.017,-0.20265 -0.004,-0.20453 -0.0251,-0.20377 -0.0454,-0.20628 -0.0691,-0.2079 -0.0928,-0.2109 0.89086,-0.44505 0.13189,0.29653 0.10026,0.30167 0.0688,0.30403 0.0365,0.30504 0.004,0.30229 -0.0249,0.30053 -0.0539,0.29804 -0.0836,0.29053 -0.10976,0.28566 -0.13652,0.27429 -0.16152,0.2679 -0.18327,0.25803 -0.20653,0.24728 -0.22715,0.23853 -0.2474,0.22616 -0.26679,0.21427 -0.28603,0.20453 -0.30441,0.19352 -0.32242,0.17827 -0.33704,0.16727 -0.35617,0.15302 -0.36992,0.13889 -0.38592,0.12552 -0.40017,0.10951 -0.41455,0.0931 -0.42843,0.0776 -0.44093,0.0616 -0.45393,0.0429 -0.46343,0.0238 -0.47318,0.006 -0.48718,-0.0131 -0.49581,-0.0323 0.24415,-0.0429 z m -0.40255,-0.90999 0.12052,-0.0535 0.12364,0.01 -0.24416,0.0429 z m -1.36891,0.90511 -1.00012,0 0.50006,-0.50006 0.0471,0.001 0.0464,-6.2e-4 0.0475,-0.001 0.0483,-0.003 0.0514,-0.002 0.0503,-0.004 0.0492,-0.004 0.0521,-0.002 0.0553,-0.006 0.0521,-0.006 0.0549,-0.005 0.0556,-0.009 0.0571,-0.009 0.0556,-0.009 0.058,-0.009 0.0589,-0.0125 0.0581,-0.0113 0.0609,-0.0125 0.0614,-0.0153 0.0602,-0.0149 0.063,-0.0156 0.0635,-0.017 0.0624,-0.0181 0.063,-0.0197 0.0659,-0.0206 0.0645,-0.0226 0.0666,-0.0216 0.0674,-0.0249 0.0663,-0.0265 0.0666,-0.0259 0.0694,-0.0294 0.0699,-0.0291 0.40255,0.90998 -0.0819,0.0369 -0.0808,0.0337 -0.0823,0.0336 -0.0819,0.0301 -0.0793,0.029 -0.0788,0.0295 -0.08,0.0261 -0.0773,0.0249 -0.0788,0.0234 -0.0779,0.0223 -0.0755,0.0206 -0.0744,0.0199 -0.0759,0.0184 -0.0734,0.0152 -0.0723,0.0166 -0.0738,0.0149 -0.0709,0.0125 -0.0701,0.0135 -0.0713,0.0113 -0.0684,0.009 -0.0676,0.009 -0.0663,0.01 -0.0678,0.006 -0.063,0.006 -0.0641,0.006 -0.0649,0.004 -0.0616,0.004 -0.0593,0.002 -0.0601,0.002 -0.0589,0.001 -0.0585,7.5e-4 -0.0549,0.002 0.50006,-0.49994 z m -1.00012,0 0,-0.50006 0.50006,0 -0.50006,0.50006 z m 1.80696,0.95962 -0.27353,0.96111 -0.0373,-0.0139 -0.0801,-0.0319 -0.079,-0.0315 -0.0769,-0.0351 -0.0755,-0.0383 -0.0736,-0.04 -0.072,-0.0415 -0.0684,-0.0425 -0.0684,-0.044 -0.0663,-0.0475 -0.0649,-0.0485 -0.0626,-0.0518 -0.061,-0.0531 -0.0566,-0.0543 -0.0571,-0.0574 -0.0528,-0.0588 -0.0506,-0.0592 -0.0504,-0.0624 -0.0464,-0.0659 -0.0426,-0.0645 -0.0421,-0.0674 -0.0379,-0.0684 -0.0355,-0.0694 -0.0315,-0.072 -0.029,-0.0748 -0.0266,-0.0758 -0.0224,-0.0745 -0.0197,-0.079 -0.0153,-0.0779 -0.0131,-0.0788 -0.009,-0.0811 -0.006,-0.0794 -0.004,-0.0804 1.00012,0 -7.5e-4,0.0371 0.002,0.0369 0.004,0.0344 0.005,0.0355 0.007,0.0346 0.009,0.0323 0.01,0.0355 0.0113,0.0326 0.0135,0.0323 0.0159,0.0329 0.0164,0.034 0.018,0.033 0.0189,0.0326 0.0226,0.0333 0.023,0.0305 0.0234,0.0311 0.0274,0.0322 0.0294,0.0312 0.0294,0.0298 0.0334,0.0309 0.0332,0.0298 0.0358,0.0282 0.0372,0.0295 0.0394,0.0276 0.0408,0.0284 0.045,0.0269 0.0443,0.0259 0.0468,0.0245 0.0479,0.0226 0.05,0.023 0.0514,0.0238 0.0531,0.0206 -0.0373,-0.0139 z m -0.27353,0.96111 -10e-4,-3.7e-4 -0.0358,-0.0135 0.0373,0.0139 z m 3.48067,-0.69883 -0.20702,0.97662 10e-4,0 -0.15015,-0.0301 -0.14539,-0.0263 -0.14064,-0.0251 -0.13677,-0.0205 -0.13226,-0.0192 -0.12789,-0.0141 -0.12577,-0.0138 -0.11976,-0.01 -0.11739,-0.01 -0.11189,-0.007 -0.11026,-0.006 -0.10627,-0.005 -0.10313,-0.002 -0.10139,-0.002 -0.0981,-10e-4 -0.0964,10e-4 -0.0933,-10e-4 -0.0924,7.5e-4 -0.0898,6.2e-4 -0.0864,3.8e-4 -0.0858,3.7e-4 -0.0833,0 -0.0844,-7.5e-4 -0.0823,-10e-4 -0.0815,-0.002 -0.0808,-0.004 -0.0833,-0.007 -0.0808,-0.007 -0.083,-0.0128 -0.0808,-0.0131 -0.0811,-0.017 -0.0833,-0.0213 0.27353,-0.96112 0.0365,0.01 0.0421,0.009 0.0454,0.009 0.0475,0.005 0.0539,0.007 0.0556,0.004 0.0616,0.004 0.0659,0.002 0.0703,0.001 0.073,7.5e-4 0.079,0 0.0815,-3.8e-4 0.0864,-3.7e-4 0.0898,-7.5e-4 0.0924,-6.3e-4 0.0975,-0.002 0.10063,0.002 0.10602,0.001 0.10913,0.003 0.11439,0.002 0.11839,0.005 0.12152,0.006 0.12764,0.008 0.12926,0.01 0.13539,0.0135 0.13715,0.0137 0.14351,0.0184 0.14777,0.0192 0.15239,0.024 0.15702,0.0253 0.1609,0.0304 0.16577,0.0338 0.001,0 z m -0.001,0 0.001,0 0.0991,0.0213 -0.10101,-0.0213 z m 3.22102,0.80822 0.19552,0.98024 -0.11689,0.0181 -0.11664,0.0131 -0.11476,0.005 -0.11301,0 -0.11664,-0.004 -0.11452,-0.01 -0.11401,-0.0141 -0.11452,-0.0178 -0.11338,-0.0226 -0.11302,-0.0245 -0.11276,-0.0266 -0.11402,-0.0294 -0.11351,-0.0336 -0.11264,-0.0336 -0.11376,-0.0337 -0.11302,-0.0371 -0.11413,-0.0383 -0.11339,-0.0376 -0.11377,-0.0383 -0.11301,-0.0411 -0.11376,-0.0373 -0.11264,-0.0393 -0.11314,-0.039 -0.11401,-0.039 -0.11239,-0.0365 -0.11264,-0.035 -0.11139,-0.0341 -0.11151,-0.0325 -0.11202,-0.0312 -0.10989,-0.029 -0.10876,-0.0272 -0.10814,-0.0245 0.20703,-0.97662 0.12789,0.0286 0.12789,0.0309 0.12551,0.0332 0.12402,0.0348 0.12289,0.0369 0.12339,0.0375 0.12051,0.0394 0.12014,0.04 0.11764,0.039 0.11727,0.039 0.11626,0.0394 0.11376,0.0414 0.11302,0.0369 0.11026,0.0383 0.10914,0.0376 0.10626,0.0346 0.10526,0.033 0.10239,0.0336 0.10064,0.0301 0.0979,0.0259 0.0949,0.0253 0.0929,0.023 0.0896,0.0201 0.0865,0.0149 0.0825,0.0143 0.0794,0.01 0.0755,0.006 0.0698,0.004 0.0699,0 0.0638,-0.005 0.0585,-0.005 0.0539,-0.01 z"
       id="path3567"
       style="fill:#003d8f;fill-opacity:1;fill-rule:nonzero;stroke:none" />
    <path
       d="m -50.84405,128.46503 c -0.34091,-1.22828 -1.8991,-1.6432 -1.23115,0.0142 0.4058,1.00849 0.71346,1.91498 0.88211,3.02599 0.23665,1.57306 0.6432,3.35053 2.77796,2.85197 -0.0734,-0.67758 -0.12551,-1.30553 -0.0448,-1.95086 l 0.99224,0.12126 c -0.10414,0.83698 0.0411,1.69421 0.13402,2.52906 -3.53381,1.38029 -4.43254,-0.56557 -4.82196,-3.23427 l -3.8e-4,0 c -0.004,-0.0259 -0.007,-0.0521 -0.0113,-0.0784 -0.12164,-0.80623 -0.24878,-1.60107 -0.57169,-2.31228 l 10e-4,-3.8e-4 c -0.29166,-0.61195 -0.79309,-1.73496 -0.41217,-2.45755 0.13189,-0.24953 0.34016,-0.40154 0.62057,-0.44367 l 0,-3.8e-4 c 0.43693,-0.0663 1.67546,0.56494 2.07975,1.63045 l -0.39404,0.30479 z"
       id="path3569"
       style="fill:#003d8f;fill-opacity:1;fill-rule:nonzero;stroke:none" />
    <path
       d="m -36.20628,135.79066 0.13564,0.67508 c -0.56519,0.11764 -1.00774,0.0751 -1.37166,-0.0663 -0.36642,0.76335 -0.95999,0.94187 -1.61145,1.01238 -0.4433,0.0475 -0.93874,-0.002 -1.34829,0.18252 -1.078,0.48768 -1.57281,-0.41418 -0.56744,-1.25015 0.60032,-0.49794 1.70321,-1.16802 1.60357,-1.87535 -0.18815,-0.17965 -0.3948,-0.30829 -0.64145,-0.33567 l 0.10914,-0.99222 c 1.79034,0.16454 2.03412,3.03138 3.69194,2.64971 z"
       id="path3571"
       style="fill:#003d8f;fill-opacity:1;fill-rule:nonzero;stroke:none" />
    <path
       d="m -37.70246,155.86984 c -0.09,0.99012 -0.09,1.98024 -0.18002,2.97036 -7.83095,0.18002 -15.03182,-2.34028 -21.33258,-6.93084 0.45005,-0.90011 0.8101,-1.89023 1.26015,-2.88035 5.94072,4.59056 12.78155,7.02085 20.25245,6.84083 z"
       id="path3573"
       style="fill:#ffcc50;fill-opacity:1;fill-rule:evenodd;stroke:#003d8f;stroke-width:1;stroke-miterlimit:4;stroke-opacity:1;stroke-dasharray:none" />
    <path
       d="m -27.80126,144.43846 c 1.71021,0.27003 3.24039,0.72008 4.32052,3.96048 0.27003,0.63007 0.18002,1.44017 0.63008,1.98024 1.17014,1.17014 -0.90011,0.54006 -1.44018,0 -0.81009,-0.72009 -1.62019,-1.98024 -2.70032,-2.79034 -0.72009,-0.54007 -1.53019,-0.90011 -2.52031,-0.72009 -0.36004,-0.18002 -0.72009,-0.27003 -1.17014,-0.36004 -1.71021,-0.36005 -2.61032,-0.09 -3.24039,-0.27004 -0.72009,-0.27003 -1.17014,-0.81009 -1.17014,-1.44017 0.54006,0 1.26015,-0.18002 2.07025,-0.45005 0.99012,0.09 1.89023,0.09 2.70032,-0.09 0.8101,0.18002 1.71021,0.09 2.52031,0.18002"
       id="path3577"
       style="fill:#d40000;fill-opacity:1;fill-rule:evenodd;stroke:#003d8f;stroke-width:0.5;stroke-miterlimit:4;stroke-opacity:1;stroke-dasharray:none" />
    <path
       d="m -42.04111,120.83535 c -0.18002,-1.41779 -1.29803,-2.77258 -1.18114,-1.19952 0.0447,0.60383 0.31904,1.60882 0.24215,2.48905 -0.006,0.0703 -0.0135,0.14077 -0.0206,0.21015 l 0,0.002 c -0.0875,0.8236 -0.32317,1.6437 -0.29867,2.4778 0.0155,0.5497 0.14102,0.99125 0.3883,1.28778 0.9855,-0.0605 1.95124,0.0419 2.87397,0.4108 l -0.0023,0.50394 c -0.98057,-0.28282 -2.315728,-0.19691 -3.228818,0.11401 -0.71621,-0.6137 -1.00037,-1.34653 -1.027,-2.2889 -0.0273,-0.95074 0.24166,-1.85372 0.32104,-2.79846 0.0386,-0.43768 0.05,-0.88348 0.0131,-1.32741 l 7.5e-4,0 c -0.12939,-0.8286 -0.13114,-1.49581 -0.0145,-1.88848 l 0,-10e-4 c 0.0744,-0.24991 0.2019,-0.43455 0.38192,-0.54257 0.23003,-0.13864 0.48418,-0.14076 0.75597,0.0125 l 6.2e-4,-10e-4 c 0.72834,0.40929 1.09326,1.52768 1.25028,2.33778 l -0.45506,0.20265 z"
       id="path3585"
       style="fill:#003d8f;fill-opacity:1;fill-rule:nonzero;stroke:none" />
    <path
       d="m -28.9714,137.77765 c 0.99012,-0.63007 2.70032,-0.99012 2.61031,-2.16026 2.88035,2.61032 0.09,4.77058 -1.89023,3.87047 -1.26015,-0.45006 -1.53018,-1.17014 -0.72008,-1.71021"
       id="path3587"
       style="fill:#003d8f;fill-opacity:1;fill-rule:evenodd;stroke:none" />
    <path
       d="m -27.89127,143.53835 -0.8101,1.89023 -0.54007,-1.35017 c 0.45006,-0.18002 0.99012,-0.36004 1.35017,-0.54006 z m -0.45006,3.69044 -0.36004,-1.17014 -0.54007,0.90011 c 0.27004,0.09 0.54007,0.18002 0.90011,0.27003"
       id="path3581"
       style="fill:#ffffff;fill-opacity:1;fill-rule:evenodd;stroke:#003d8f;stroke-width:0.5;stroke-miterlimit:4;stroke-opacity:1;stroke-dasharray:none" />
  </g>
  <path
     style="fill:#003d8f;fill-opacity:1;fill-rule:evenodd;stroke-width:2.74223042"
     id="path76"
     d="m 171.86168,62.367168 c 2.37203,0.43053 4.19835,1.291591 6.20018,2.85192 -1.65905,-2.015539 -3.78153,-3.33181 -6.09049,-3.551188 z"
     inkscape:connector-curvature="0"
     sodipodi:nodetypes="cccc" />
  <path
     id="path1073"
     d="m 172.50844,57.14085 c 0.98115,-0.07191 3.64024,-1.816911 4.37596,-2.522095 l 0.44026,0.458897 c -0.39886,0.38287 -2.5822,2.212045 -3.02389,2.378396 l -0.004,0.0031 c 0.0867,0.08395 0.27211,0.557773 0.29528,0.661831 0.18264,0.819533 -0.33385,1.632917 -1.15391,1.815654 -0.80607,0.179621 -1.60466,-0.316806 -1.80568,-1.111589 l -1.50552,0.730238 -0.18141,-0.192163 z"
     inkscape:connector-curvature="0"
     style="fill:#003d8f;fill-opacity:1;fill-rule:evenodd;stroke-width:0.53040677"
     sodipodi:nodetypes="ccccccscccc" />
  <path
     style="fill:#d40000;fill-opacity:1;fill-rule:evenodd;stroke:#003d8f;stroke-width:0.5;stroke-miterlimit:4;stroke-dasharray:none;stroke-opacity:1"
     id="path76-4"
     d="m 167.43288,60.040629 c -1.91456,1.855687 -2.83448,5.39905 0.1892,7.504486 -0.39666,-0.586194 0.4579,-2.599182 1.34031,-2.626933 0,0 1.84488,-2.07229 2.33957,-2.521656 0,0 1.44296,-1.627317 -2.11289,0.117874 -1.17946,0.223827 -1.63578,0.218221 -1.69542,-2.468246 z"
     inkscape:connector-curvature="0"
     sodipodi:nodetypes="ccccccc" />
  <path
     style="opacity:1;fill:#ffcd50;fill-opacity:1;fill-rule:evenodd;stroke-width:0.15311195"
     inkscape:connector-curvature="0"
     d="m 172.66524,59.319374 c -0.8682,-0.168747 -0.32039,-1.442387 0.58345,-1.543088 0.58374,-0.05008 0.94132,0.02739 0.92129,0.785189 -2.8e-4,0.210858 -0.23037,0.488391 -0.57308,0.640196 -0.12664,0.05624 -0.3551,0.09978 -0.4605,0.162316 -0.0549,-0.238792 -0.12737,-0.725897 -0.19691,-0.956932 -0.26984,0.03293 -0.42288,0.470143 -0.27418,0.91228 z"
     id="path921"
     sodipodi:nodetypes="cccccccc" />
  <path
     style="fill:none;fill-opacity:1;stroke:#003d8f;stroke-width:0.60000002;stroke-miterlimit:4;stroke-dasharray:none"
     id="path180"
     d="m 183.50857,63.27978 c 0.69104,1.4753 -0.66088,2.8272 -2.0896,2.2322 0.61426,1.5439 -0.59781,2.868401 -2.3007,2.2788 0.60877,1.686501 -0.81719,2.755901 -2.2377,2.163601 0.32084,0.78428 0.0658,1.4945 -0.45247,1.8867 m 10.2697,-1.6254 c -0.41682,0.53474 -1.1682,0.78702 -1.9442,0.46344 0.61426,1.5439 -0.59781,2.8711 -2.3007,2.2788 0.42504,1.1846 -0.14808,2.0649 -1.0201,2.2788 m 3.7459,-9.372901 c 0.6883,1.4781 -0.66362,2.827201 -2.0923,2.232201 0.61426,1.5439 -0.5978,2.8711 -2.3007,2.2788 0.60878,1.6865 -0.81718,2.7559 -2.2377,2.1636 0.15905,0.38666 0.17551,0.75686 0.0905,1.0777"
     inkscape:connector-curvature="0"
     sodipodi:nodetypes="cccccccccccccc" />
  <path
     style="fill:none;fill-opacity:1;stroke:#003d8f;stroke-width:0.5;stroke-linejoin:round;stroke-miterlimit:4;stroke-dasharray:none;stroke-opacity:1"
     id="path186"
     d="m 183.19422,76.594243 c 1.075,0.57313 3.84944,2.074917 4.63914,2.645317 m -4.2888,-2.5393 c -0.57039,1.5356 -1.4726,3.181 -2.7834,4.9497 l 4.75343,2.83432 0.35832,-0.744596 m 2.49125,-12.713663 c 1.1737,3.2879 0.74315,7.338199 -2.9863,12.366999 l 4.9772,2.989 c 7.1846,-2.2541 9.4662,-6.8391 8.4022,-13.458999"
     inkscape:connector-curvature="0"
     sodipodi:nodetypes="cccccccccc" />
</svg>
