<?xml version="1.0" encoding="UTF-8" standalone="no"?>
<!-- Created with Inkscape (http://www.inkscape.org/) -->

<svg
   xmlns:dc="http://purl.org/dc/elements/1.1/"
   xmlns:cc="http://creativecommons.org/ns#"
   xmlns:rdf="http://www.w3.org/1999/02/22-rdf-syntax-ns#"
   xmlns:svg="http://www.w3.org/2000/svg"
   xmlns="http://www.w3.org/2000/svg"
   xmlns:sodipodi="http://sodipodi.sourceforge.net/DTD/sodipodi-0.dtd"
   xmlns:inkscape="http://www.inkscape.org/namespaces/inkscape"
   height="300"
   width="248"
   version="1.0"
   id="svg44"
   sodipodi:docname="Lapplands_vapen (1).svg"
   inkscape:version="0.92.3 (2405546, 2018-03-11)">
  <defs
     id="defs48">
    <clipPath
       id="clipPath992"
       clipPathUnits="userSpaceOnUse">
      <path
         id="path990"
         d="M 0,78.676 H 528.295 V 483.779 H 0 Z" />
    </clipPath>
    <clipPath
       id="clipPath1246"
       clipPathUnits="userSpaceOnUse">
      <path
         id="path1244"
         d="M 0,78.676 H 528.295 V 483.779 H 0 Z" />
    </clipPath>
    <clipPath
       id="clipPath1262"
       clipPathUnits="userSpaceOnUse">
      <path
         id="path1260"
         d="M 0,78.676 H 528.295 V 483.779 H 0 Z" />
    </clipPath>
    <clipPath
       id="clipPath1438"
       clipPathUnits="userSpaceOnUse">
      <path
         id="path1436"
         d="M 0,78.676 H 528.295 V 483.779 H 0 Z" />
    </clipPath>
    <clipPath
       id="clipPath1458"
       clipPathUnits="userSpaceOnUse">
      <path
         id="path1456"
         d="M 0,78.676 H 528.295 V 483.779 H 0 Z" />
    </clipPath>
    <clipPath
       id="clipPath1602"
       clipPathUnits="userSpaceOnUse">
      <path
         id="path1600"
         d="M 0,78.676 H 528.295 V 483.779 H 0 Z" />
    </clipPath>
    <clipPath
       id="clipPath1246-0"
       clipPathUnits="userSpaceOnUse">
      <path
         id="path1244-0"
         d="M 0,78.676 H 528.295 V 483.779 H 0 Z" />
    </clipPath>
    <clipPath
       id="clipPath1262-8"
       clipPathUnits="userSpaceOnUse">
      <path
         id="path1260-6"
         d="M 0,78.676 H 528.295 V 483.779 H 0 Z" />
    </clipPath>
    <clipPath
       id="clipPath1438-5"
       clipPathUnits="userSpaceOnUse">
      <path
         id="path1436-0"
         d="M 0,78.676 H 528.295 V 483.779 H 0 Z" />
    </clipPath>
    <clipPath
       id="clipPath1458-6"
       clipPathUnits="userSpaceOnUse">
      <path
         id="path1456-9"
         d="M 0,78.676 H 528.295 V 483.779 H 0 Z" />
    </clipPath>
    <clipPath
       id="clipPath1602-0"
       clipPathUnits="userSpaceOnUse">
      <path
         id="path1600-6"
         d="M 0,78.676 H 528.295 V 483.779 H 0 Z" />
    </clipPath>
    <clipPath
       clipPathUnits="userSpaceOnUse"
       id="clipPath992-0">
      <path
         d="M 0,78.676 H 528.295 V 483.779 H 0 Z"
         id="path990-3" />
    </clipPath>
    <clipPath
       clipPathUnits="userSpaceOnUse"
       id="clipPath1246-7">
      <path
         d="M 0,78.676 H 528.295 V 483.779 H 0 Z"
         id="path1244-8" />
    </clipPath>
    <clipPath
       clipPathUnits="userSpaceOnUse"
       id="clipPath1262-7">
      <path
         d="M 0,78.676 H 528.295 V 483.779 H 0 Z"
         id="path1260-0" />
    </clipPath>
    <clipPath
       clipPathUnits="userSpaceOnUse"
       id="clipPath1438-3">
      <path
         d="M 0,78.676 H 528.295 V 483.779 H 0 Z"
         id="path1436-1" />
    </clipPath>
    <clipPath
       clipPathUnits="userSpaceOnUse"
       id="clipPath1458-4">
      <path
         d="M 0,78.676 H 528.295 V 483.779 H 0 Z"
         id="path1456-2" />
    </clipPath>
    <clipPath
       clipPathUnits="userSpaceOnUse"
       id="clipPath1602-8">
      <path
         d="M 0,78.676 H 528.295 V 483.779 H 0 Z"
         id="path1600-4" />
    </clipPath>
    <clipPath
       clipPathUnits="userSpaceOnUse"
       id="clipPath1246-0-0">
      <path
         d="M 0,78.676 H 528.295 V 483.779 H 0 Z"
         id="path1244-0-2" />
    </clipPath>
    <clipPath
       clipPathUnits="userSpaceOnUse"
       id="clipPath1262-8-0">
      <path
         d="M 0,78.676 H 528.295 V 483.779 H 0 Z"
         id="path1260-6-7" />
    </clipPath>
    <clipPath
       clipPathUnits="userSpaceOnUse"
       id="clipPath1438-5-6">
      <path
         d="M 0,78.676 H 528.295 V 483.779 H 0 Z"
         id="path1436-0-4" />
    </clipPath>
    <clipPath
       clipPathUnits="userSpaceOnUse"
       id="clipPath1458-6-2">
      <path
         d="M 0,78.676 H 528.295 V 483.779 H 0 Z"
         id="path1456-9-7" />
    </clipPath>
    <clipPath
       clipPathUnits="userSpaceOnUse"
       id="clipPath1602-0-4">
      <path
         d="M 0,78.676 H 528.295 V 483.779 H 0 Z"
         id="path1600-6-4" />
    </clipPath>
    <clipPath
       clipPathUnits="userSpaceOnUse"
       id="clipPath992-4">
      <path
         d="M 0,78.676 H 528.295 V 483.779 H 0 Z"
         id="path990-6" />
    </clipPath>
    <clipPath
       clipPathUnits="userSpaceOnUse"
       id="clipPath1246-1">
      <path
         d="M 0,78.676 H 528.295 V 483.779 H 0 Z"
         id="path1244-3" />
    </clipPath>
    <clipPath
       clipPathUnits="userSpaceOnUse"
       id="clipPath1262-78">
      <path
         d="M 0,78.676 H 528.295 V 483.779 H 0 Z"
         id="path1260-7" />
    </clipPath>
    <clipPath
       clipPathUnits="userSpaceOnUse"
       id="clipPath1438-9">
      <path
         d="M 0,78.676 H 528.295 V 483.779 H 0 Z"
         id="path1436-3" />
    </clipPath>
    <clipPath
       clipPathUnits="userSpaceOnUse"
       id="clipPath1458-1">
      <path
         d="M 0,78.676 H 528.295 V 483.779 H 0 Z"
         id="path1456-5" />
    </clipPath>
    <clipPath
       clipPathUnits="userSpaceOnUse"
       id="clipPath1602-5">
      <path
         d="M 0,78.676 H 528.295 V 483.779 H 0 Z"
         id="path1600-8" />
    </clipPath>
    <clipPath
       clipPathUnits="userSpaceOnUse"
       id="clipPath1246-0-02">
      <path
         d="M 0,78.676 H 528.295 V 483.779 H 0 Z"
         id="path1244-0-3" />
    </clipPath>
    <clipPath
       clipPathUnits="userSpaceOnUse"
       id="clipPath1262-8-05">
      <path
         d="M 0,78.676 H 528.295 V 483.779 H 0 Z"
         id="path1260-6-78" />
    </clipPath>
    <clipPath
       clipPathUnits="userSpaceOnUse"
       id="clipPath1438-5-69">
      <path
         d="M 0,78.676 H 528.295 V 483.779 H 0 Z"
         id="path1436-0-5" />
    </clipPath>
    <clipPath
       clipPathUnits="userSpaceOnUse"
       id="clipPath1458-6-1">
      <path
         d="M 0,78.676 H 528.295 V 483.779 H 0 Z"
         id="path1456-9-4" />
    </clipPath>
    <clipPath
       clipPathUnits="userSpaceOnUse"
       id="clipPath1602-0-43">
      <path
         d="M 0,78.676 H 528.295 V 483.779 H 0 Z"
         id="path1600-6-2" />
    </clipPath>
    <clipPath
       id="clipPath992-0-0"
       clipPathUnits="userSpaceOnUse">
      <path
         id="path990-3-9"
         d="M 0,78.676 H 528.295 V 483.779 H 0 Z" />
    </clipPath>
    <clipPath
       id="clipPath1246-7-9"
       clipPathUnits="userSpaceOnUse">
      <path
         id="path1244-8-4"
         d="M 0,78.676 H 528.295 V 483.779 H 0 Z" />
    </clipPath>
    <clipPath
       id="clipPath1262-7-6"
       clipPathUnits="userSpaceOnUse">
      <path
         id="path1260-0-1"
         d="M 0,78.676 H 528.295 V 483.779 H 0 Z" />
    </clipPath>
    <clipPath
       id="clipPath1438-3-5"
       clipPathUnits="userSpaceOnUse">
      <path
         id="path1436-1-6"
         d="M 0,78.676 H 528.295 V 483.779 H 0 Z" />
    </clipPath>
    <clipPath
       id="clipPath1458-4-9"
       clipPathUnits="userSpaceOnUse">
      <path
         id="path1456-2-3"
         d="M 0,78.676 H 528.295 V 483.779 H 0 Z" />
    </clipPath>
    <clipPath
       id="clipPath1602-8-7"
       clipPathUnits="userSpaceOnUse">
      <path
         id="path1600-4-4"
         d="M 0,78.676 H 528.295 V 483.779 H 0 Z" />
    </clipPath>
    <clipPath
       id="clipPath1246-0-0-0"
       clipPathUnits="userSpaceOnUse">
      <path
         id="path1244-0-2-7"
         d="M 0,78.676 H 528.295 V 483.779 H 0 Z" />
    </clipPath>
    <clipPath
       id="clipPath1262-8-0-2"
       clipPathUnits="userSpaceOnUse">
      <path
         id="path1260-6-7-5"
         d="M 0,78.676 H 528.295 V 483.779 H 0 Z" />
    </clipPath>
    <clipPath
       id="clipPath1438-5-6-3"
       clipPathUnits="userSpaceOnUse">
      <path
         id="path1436-0-4-9"
         d="M 0,78.676 H 528.295 V 483.779 H 0 Z" />
    </clipPath>
    <clipPath
       id="clipPath1458-6-2-9"
       clipPathUnits="userSpaceOnUse">
      <path
         id="path1456-9-7-1"
         d="M 0,78.676 H 528.295 V 483.779 H 0 Z" />
    </clipPath>
    <clipPath
       id="clipPath1602-0-4-0"
       clipPathUnits="userSpaceOnUse">
      <path
         id="path1600-6-4-7"
         d="M 0,78.676 H 528.295 V 483.779 H 0 Z" />
    </clipPath>
  </defs>
  <sodipodi:namedview
     pagecolor="#ffffff"
     bordercolor="#666666"
     borderopacity="1"
     objecttolerance="10"
     gridtolerance="10"
     guidetolerance="10"
     inkscape:pageopacity="0"
     inkscape:pageshadow="2"
     inkscape:window-width="1920"
     inkscape:window-height="1017"
     id="namedview46"
     showgrid="false"
     inkscape:zoom="2"
     inkscape:cx="32.743252"
     inkscape:cy="141.28101"
     inkscape:window-x="-4"
     inkscape:window-y="-4"
     inkscape:window-maximized="1"
     inkscape:current-layer="svg44" />
  <metadata
     id="metadata2">
    <rdf:RDF>
      <cc:Work
         rdf:about="">
        <dc:format>image/svg+xml</dc:format>
        <dc:type
           rdf:resource="http://purl.org/dc/dcmitype/StillImage" />
        <dc:title />
      </cc:Work>
    </rdf:RDF>
  </metadata>
  <g
     transform="matrix(0.96001114,0,0,0.96001114,-203.89329,-351.60423)"
     id="g6">
    <path
       d="m388.09,524.8c-1.3977,0-2.5311,1.1334-2.5311,2.5311v2.5311h10.124v5.0622h-15.187v-7.5933c0.0143-4.13,3.4002-7.5933,7.5933-7.5933,1.3965,0.00095,2.5311-1.1334,2.5311-2.5311,0-1.3965-1.1346-2.5299-2.5311-2.5299h-7.5933l5.0622-5.0622h2.5311c4.1288,0.0143,7.5933,3.4002,7.5933,7.5921,0,4.1931-3.4014,7.5933-7.5933,7.5933zm58.213-15.185,0,25.31-5.0622,0,0-20.248zm-229.75-0.00095,5.0622,0,0,20.249,10.124,0,0,5.0622-15.186,0zm201.91-5.0622c-9.7827,0-17.716,7.935-17.716,17.718,0,9.7839,7.9338,17.718,17.716,17.718,9.7839,0,17.718-7.9338,17.718-17.718,0-9.7827-7.9338-17.718-17.718-17.718zm12.655,17.718c0,6.9885-5.667,12.655-12.655,12.655-6.9873,0-12.655-5.667-12.655-12.655,0-6.9873,5.6682-12.655,12.655-12.655,6.9885,0,12.655,5.6682,12.655,12.655zm-88.014-7.5921c2.7954,0,5.0622,2.2668,5.0622,5.0622v5.061c0,2.7954-2.2668,5.0622-5.0622,5.0622h-5.0622v-15.185zm0,20.248c5.5908,0,10.124-4.5336,10.124-10.124v-5.061c0-5.5908-4.5336-10.124-10.124-10.124h-10.13v25.31zm-20.249-25.31,5.0624,0,0,25.31-5.0624,0zm-86.054,0,15.186,0,0,5.0622-10.124,0,0,5.061,10.124,0,0,5.0622-10.124,0,0,5.0622,10.124,0,0,5.0622-15.186,0zm75.931,0,5.0621,0,0,25.31-5.0621,0-10.124-15.89,0,15.89-5.0621,0,0-25.31,5.0621,0,10.124,15.89zm-43.026,5.061,5.0608,0c4.1928,0,7.5933,3.4002,7.5933,7.5933s-3.4635,7.579-7.5933,7.5933h-5.0608v-5.0622h5.0608c1.3976,0,2.5311-1.1334,2.5311-2.5311s-1.1335-2.5311-2.5311-2.5311h-5.0608zm5.0608,25.311c9.7835,0,17.718-7.9338,17.718-17.718,0-9.7827-7.934-17.718-17.718-17.718-9.7834,0-17.718,7.935-17.718,17.718,0,9.7839,7.9341,17.718,17.718,17.718zm-12.66-17.74c0-6.9873,5.6672-12.655,12.655-12.655,6.9881,0,12.655,5.6682,12.655,12.655,0,6.9885-5.6672,12.655-12.655,12.655-6.9881,0-12.655-5.667-12.655-12.655zm196.85,2.5311-7.5933,0,0-5.0622,7.5933,0c1.3977,0.00096,2.5311-1.1334,2.5311-2.5311,0-1.3965-1.1334-2.5299-2.5311-2.5299h-7.5933l5.0622-5.0622h2.5311c4.13,0.0143,7.5933,3.4002,7.5933,7.5921,0,1.9454-0.73218,3.7193-1.9346,5.0634,1.2024,1.3429,1.9346,3.1168,1.9346,5.061,0,4.1931-3.4633,7.579-7.5933,7.5933h-7.5933v-5.0622h7.5933c1.3977,0,2.5311-1.1334,2.5311-2.5311s-1.1334-2.5311-2.5311-2.5311z"
       id="path4"
       fill="#800080" />
  </g>
  <path
     d="m247,1.0001,0,214.77c0,82.42-84.912,44.012-123,82.791-38.089-38.77-123-0.37-123-82.79v-214.77z"
     stroke-miterlimit="4"
     id="path8"
     stroke-dasharray="none"
     stroke-width="2"
     stroke="#000"
     fill="#FFF" />
  <path
     d="m70.949,79.965c1.36-0.47243,2.6012-1.3643,4.093-1.3844,1.7494-0.02147,2.4867,1.3772,2.3149,3.7895-0.49248,6.8832-6.6541,13.764-14.176,11.079l0.24051-0.67286c5.924,2.1145,11.721-5.254,12.15-10.479,0.12026-1.476-0.18038-1.9728-0.87328-1.8038-1.1324,0.27916-2.083,0.82175-3.1095,1.2455-3.0135,1.2441-6.9405-0.09306-9.3713,2.5068-1.6421,1.7552-1.7337,4.1517-4.7487,4.5196,2.1846-1.5361,1.8081-3.8697,3.4287-5.6778,2.8403-3.1581,6.6055-1.927,10.051-3.1224zm-9.4801,7.4229c2.5526-2.3421,5.4487-3.204,9.5231-3.5776,0,0-3.5833,1.7552-5.6549,2.9663-0.92053,0.55117-4.3736,2.6685-1.6793,3.7995,0,0-1.0866,0.1131-1.8153-0.21188-1.0193-0.45382-1.1381-2.272-0.37365-2.9763z"
     fill-rule="evenodd"
     stroke="#FFF"
     stroke-miterlimit="4"
     stroke-dasharray="none"
     stroke-width="0.3"
     fill="#FFF"
     id="path16" />
  <path
     d="m71.134,117.59c-2.1217,6.8918-2.6972,15.733,3.7666,20.491l-0.42233,0.57551c-7.6248-5.6119-7.8223-13.417-5.3414-21.47,1.4588-4.7372,3.5876-9.5961,2.3894-14.675l0.69576-0.16178c1.3157,5.5776,0.5526,9.9096-1.088,15.241z"
     fill-rule="evenodd"
     stroke="#FFF"
     stroke-miterlimit="4"
     stroke-dasharray="none"
     stroke-width="0.3"
     fill="#FFF"
     id="path18" />
  <path
     fill-rule="evenodd"
     fill="#FFF"
     d="m26.596,104.02c1.3457,0.51109-0.35504,2.7072,0.34072,5.1624,0.80743,2.846-3.6907,4.7902-4.647,0.11309-0.44237-2.1546,2.962-5.7852,4.3063-5.2755z"
     id="path20" />
  <path
     d="m175.88,147.77c0.56549,2.1489,0.86899,5.6348,0.52397,8.04-1.297,9.0406,10.338,11.224,13.532,4.2032"
     stroke="#FFF"
     stroke-dasharray="none"
     stroke-miterlimit="4"
     stroke-width="2"
     fill="none"
     id="path22" />
  <path
     d="m43.459,87.66,10.368-1.2942,0.26771,0.66284-15.819,6.3907-0.26628-0.6614l5.449-5.099z"
     fill-rule="evenodd"
     stroke="#FFF"
     stroke-miterlimit="4"
     stroke-dasharray="none"
     stroke-width="0.3"
     fill="#FFF"
     id="path38" />
  <path
     fill-rule="evenodd"
     fill="#FFF"
     d="m44.474,87.878c1.2312,0,2.2305,0.99927,2.2305,2.2305,0,1.2298-0.99927,2.229-2.2305,2.229s-2.229-0.99927-2.229-2.229c0-1.2312,0.99784-2.2305,2.229-2.2305z"
     id="path42" />
  <g
     id="g1865"
     transform="matrix(1.992768,0,0,1.992768,-66.643874,-203.57539)">
    <path
       id="path87"
       d="m 87.448437,199.42702 c 3.1862,-5.1419 5.1582,-15.224 8.1911,-22.612 3.0336,7.3885 5.004803,17.473 8.192603,22.614 -0.0197,2.0022 -0.95966,4.5984 -1.063,6.6441 -0.1993,3.9604 0.74985,8.1374 2.6284,12.424 0.38676,0.8827 0.28415,2.0733 -0.0263,3.0086 -0.41505,1.253 -0.073,2.0424 0.44662,3.3355 0.24272,0.60249 0.19009,1.5819 -0.0993,2.1864 -1.1228,2.3502 0.0809,3.8828 1.6885,3.8025 1.1616,-0.0579 2.287,0.10064 3.1941,0.84324 1.0031,0.82089 1.9707,1.6852 3.4756,2.2061 0.6058,0.72287 1.8457,1.4411 2.8317,1.2583 0.70974,-0.13155 1.3629,-0.62884 0.93667,-1.2524 h 0.0197 c 1.0583,0.49924 2.2028,-0.14537 1.4537,-0.73273 0.91625,0.20127 1.2813,-0.56831 0.81166,-0.92612 l 0.008,-0.002 c 0.60644,0.0684 0.87811,-0.74329 0.0829,-1.0998 l -0.20391,-0.0717 c 0.27692,-0.56239 -0.25258,-1.0642 -0.81038,-1.205 -2.7587,-0.69657 -4.065,-2.3666 -6.2672,-3.792 -1.211,-0.78404 -1.7667,-2.5916 -1.1149,-4.7412 3.7341,-12.309 3.6585,-19.732 0.2289,-24.871 0.17233,-0.86627 0.17036,-1.8871 -0.0296,-3.0718 1.8687,-7.6578 1.6168,-18.098 -0.59529,-26.928 0.78276,0.49925 1.8266,0.5545 2.7291,0.12827 1.8878,-0.89129 4.2965,-0.95246 5.0827,-3.0165 0.665,-1.7444 1.6326,-3.4355 3.0599,-5.0008 2.5962,-2.8494 4.874,-5.7497 6.0363,-8.9336 0.69198,-1.897 0.84195,-2.3541 -0.8939,-3.6032 -3.6453,-2.6251 -7.2834,-6.3777 -10.858,-7.7392 l -0.044,0.002 c -0.69593,-2.2529 -3.1533,-4.3261 -6.6485,-4.4899 -2.0292,-1.1754 -4.7675,-2.5706 -7.9918,-3.4013 H 89.081507 c -3.225,0.83075 -5.9633,2.2259 -7.9923,3.4013 -4.4491,0.0382 -7.8991,3.2546 -7.3209,7.2755 -1.5885,1.6076 -2.3713,3.3783 -2.7876,5.2228 l -0.025,0.0783 c -0.90244,-1.2353 -1.8371,-2.4344 -2.3226,-4.0979 0.60052,-0.8314 1.1248,-1.3997 1.2853,-2.3121 0.18549,-1.0524 -0.0927,-2.2239 -0.33086,-3.2434 -0.26113,-1.111 -0.35059,-1.4754 -1.2682,-1.6273 -0.6025,-1.3148 -1.2155,-3.2151 -2.7067,-3.0382 -0.69593,0.0822 -1.9832,0.22363 -1.8358,1.0906 l -0.0684,-0.005 c -0.99651,-0.55909 -2.0252,0.01 -2.0364,0.96755 l 0.0164,0.0322 -0.0151,-0.004 c -1.1202,-0.67817 -1.9628,0.098 -2.0779,0.93204 l 0.005,0.007 h -0.0145 c -0.72158,-0.17299 -1.5254,0.2322 -1.949,0.89257 -0.45649,0.71369 -0.0322,1.3886 0.18352,2.141 l 0.93401,2.0476 c 1.1024,2.0832 1.2655,3.7144 3.8538,3.8183 1.3385,4.3432 -0.25784,10.404 4.988,16.22 1.3451,1.4924 2.0956,0.90574 3.5572,-0.0132 3.5519,-2.2377 6.4941,-6.4823 8.9765,-12.237 0.3519,3.0415 1.18,6.0836 2.9112,9.126 -5.1824,9.5981 -6.6899,25.648 -4.0887,36.308 -0.20062,1.1873 -0.20259,2.2101 -0.0289,3.0783 -3.4256,5.138 -3.5006,12.56 0.23219,24.864 0.65252,2.1496 0.096,3.9571 -1.1143,4.7412 -2.2028,1.4254 -3.5085,3.0954 -6.2672,3.792 -0.55977,0.14142 -1.0899,0.64463 -0.80905,1.209 l 0.0934,0.0677 c -0.79588,0.3565 -0.52425,1.1682 0.0829,1.0998 l 0.005,0.004 c -0.14602,0.11182 -0.21049,0.26376 -0.20259,0.41373 0.0178,0.32954 0.38808,0.64858 1.0162,0.51045 -0.74852,0.58739 0.39598,1.232 1.4543,0.73273 l 0.0217,-0.003 c -0.43083,0.62554 0.22298,1.1241 0.93401,1.2557 0.986,0.18286 2.2259,-0.53541 2.8317,-1.2583 1.505,-0.52095 2.4725,-1.3852 3.4756,-2.2061 0.90707,-0.7426 2.0325,-0.90115 3.1934,-0.84324 1.6082,0.0803 2.8119,-1.4523 1.6891,-3.8025 -0.28942,-0.60446 -0.34204,-1.5839 -0.0993,-2.1864 0.51962,-1.2932 0.86169,-2.0825 0.44596,-3.3355 -0.31046,-0.93534 -0.41242,-2.1259 -0.0257,-3.0086 1.8786,-4.2873 2.8277,-8.4639 2.6278,-12.424 -0.10261,-2.0463 -1.0439,-4.6432 -1.0623,-6.646 z m 30.912003,-49.387 c -0.18615,1.2576 -0.24009,2.5633 -0.27231,3.9472 -0.0421,1.8016 -1.478,2.7764 -2.9685,3.6058 -1.2925,-0.25718 -1.9996,0.0211 -2.6659,0.27166 -2.3462,0.8827 -2.5035,1.6155 -2.489,2.366 l 0.0118,0.0493 -0.41702,0.11774 -0.0599,0.0263 c -0.4782,-1.1866 -0.99913,-2.3114 -1.5648,-3.3599 2.0088,-3.5316 2.8034,-7.3106 3.0454,-10.841 l 0.0118,-0.0184 c 1.947,1.9581 4.4563,3.1658 7.3683,3.8354 z"
       style="fill:#d40000;fill-rule:evenodd"
       inkscape:connector-curvature="0" />
    <path
       id="path89"
       stroke-miterlimit="4"
       d="m 73.218437,153.30702 c 0.4065,-5.7043 -3.4072,-7.0052 -4.5833,-11.036 0.71172,-0.98531 1.3162,-1.601 1.3353,-2.8586 0.0105,-0.71433 -0.0954,-1.5082 -0.29336,-2.3278"
       style="fill:none;stroke:#ffffff;stroke-width:0.75;stroke-miterlimit:4;stroke-dasharray:none"
       inkscape:connector-curvature="0" />
    <path
       id="path91"
       stroke-miterlimit="4"
       d="m 118.99644,147.41702 c -0.73145,2.0588 -0.85113,4.1972 -0.90638,6.5637 -0.0421,1.8016 -1.478,2.7764 -2.9685,3.6058 -1.2925,-0.25718 -1.9996,0.0211 -2.6659,0.27166 -2.3462,0.8827 -2.5035,1.6155 -2.489,2.366"
       style="fill:none;stroke:#ffffff;stroke-width:0.75;stroke-miterlimit:4;stroke-dasharray:none"
       inkscape:connector-curvature="0" />
    <path
       id="path93"
       stroke-miterlimit="4"
       d="m 110.16144,145.27702 c 2.0536,2.5298 4.8918,4.0117 8.2666,4.7767 m -1.8431,-11.777 c 3.5743,1.3616 7.2124,5.1143 10.858,7.7392 1.7359,1.2491 1.5859,1.7063 0.8939,3.6032 -1.1623,3.1842 -3.4401,6.0842 -6.0363,8.9336 -1.4273,1.5655 -2.3949,3.2566 -3.0599,5.0008 -0.78601,2.0641 -3.1948,2.1252 -5.0827,3.0165 -0.90574,0.42755 -1.9536,0.37032 -2.737,-0.13352 -0.26113,-0.16773 -0.49267,-0.38611 -0.68014,-0.65183 l -1.232,-2.2699 c -0.52884,-0.97416 -1.2761,-2.5653 0.0513,-3.1191 l 2.1371,-0.60185 m -9.793,-29.41 c 3.2244,0.83075 5.9628,2.2259 7.9918,3.4013 4.4491,0.20851 7.2183,3.5105 6.8103,6.3387 m -27.616003,-9.7402 c -3.225,0.83076 -5.9633,2.2259 -7.9923,3.4013 -4.4491,0.0382 -7.8991,3.2546 -7.3209,7.2755 -1.5885,1.6076 -2.3713,3.3783 -2.7876,5.2228 m 9.1679,1.6063 c -2.4863,5.7773 -5.4344,10.038 -8.9957,12.28 -1.4616,0.91891 -2.2121,1.5056 -3.5572,0.0132 -5.2455,-5.8158 -3.6493,-11.877 -4.988,-16.22 -2.5883,-0.10393 -2.7514,-1.7352 -3.8538,-3.8183"
       style="fill:none;stroke:#ffffff;stroke-width:0.5;stroke-miterlimit:4;stroke-dasharray:none"
       inkscape:connector-curvature="0" />
    <path
       id="path95"
       stroke-miterlimit="4"
       d="m 109.50044,160.42702 c -0.47819,-1.1873 -1.0005,-2.3133 -1.5662,-3.3625 2.0088,-3.5316 2.8034,-7.3106 3.0454,-10.841"
       style="fill:none;stroke:#ffffff;stroke-width:0.49332261;stroke-miterlimit:4;stroke-dasharray:none"
       inkscape:connector-curvature="0" />
    <path
       id="path97"
       stroke-miterlimit="4"
       d="m 81.139437,199.53702 c -1.8562,-1.0281 -2.7172,-3.0178 -2.1851,-6.1685 -2.6014,-10.66 -1.0938,-26.71 4.0887,-36.308 -2.0098,-3.5322 -2.8036,-7.0629 -3.0458,-10.594 m 29.839003,53.067 c 1.8562,-1.0281 2.7172,-3.0178 2.1858,-6.1685 1.8693,-7.6618 1.6168,-18.108 -0.59791,-26.942 m -30.046003,25.773 c 1.3774,-0.33941 2.983,0.40847 3.5907,2.0371 m -3.5565,0.62159 c 0.42491,0.56436 1.0577,0.94387 1.5885,0.93203 m 26.599003,-3.5914 c -1.378,-0.33941 -2.9836,0.40847 -3.5907,2.0371 m 3.5559,0.62159 c -0.42492,0.56436 -1.057,0.94387 -1.5879,0.93203 m -24.850003,-61.981 c 3.0619,0.69129 5.9756,0.56767 8.7422,2.2219 m 15.990003,-2.2219 c -3.0619,0.69129 -5.9766,0.56767 -8.742203,2.2219 m -15.398,11.71 c 0.17233,2.7409 10.791,2.0739 10.743,-0.14866 m -6.7205,-0.39268 c 0,0.53673 -0.4361,0.97219 -0.97219,0.97219 -0.53674,0 -0.97219,-0.43544 -0.97219,-0.97219 m 5.5351,8.2898 c 0.13418,1.7852 8.3534,1.3511 8.314,-0.096 m -4.2518,3.2506 c 0.45978,0 0.83209,0.37229 0.83209,0.8314 0,0.45911 -0.3723,0.83139 -0.83209,0.83139 m 11.869003,-12.576 c -0.17299,2.7409 -10.792003,2.0739 -10.743003,-0.14865 m 6.720503,-0.39269 c 0,0.53674 0.43544,0.9722 0.97219,0.9722 0.53609,0 0.9715,-0.43545 0.9715,-0.9722"
       style="fill:none;stroke:#ffffff;stroke-width:0.75;stroke-miterlimit:4;stroke-dasharray:none"
       inkscape:connector-curvature="0" />
    <path
       id="path99"
       stroke-miterlimit="4"
       d="m 66.947437,148.11702 -1.1563,-4.8273 -0.75444,0.20128"
       style="fill:none;stroke:#ffffff;stroke-width:0.75;stroke-miterlimit:4;stroke-dasharray:none"
       inkscape:connector-curvature="0" />
    <path
       id="path101"
       stroke-miterlimit="4"
       d="m 118.67644,230.57702 1.5438,0.54133 c 0.79524,0.35651 0.52356,1.1682 -0.0829,1.0998 m -1.9062,-0.75182 1.7135,0.6538 c 0.74196,0.28283 0.37822,1.284 -0.68014,1.0143 m -1.995,-0.93929 1.7201,0.75641 c 1.3379,0.62292 0.052,1.4839 -1.1254,0.92809 m -14.034,-34.53 c 0.005,2.0128 -0.95902,4.6497 -1.0636,6.7225 -0.1993,3.9604 0.74985,8.1374 2.6284,12.424 0.38676,0.8827 0.28415,2.0733 -0.0263,3.0086 -0.41505,1.253 -0.073,2.0424 0.44662,3.3355 0.24272,0.60249 0.19009,1.5819 -0.0993,2.1864 -1.1228,2.3502 0.0809,3.8828 1.6885,3.8025 1.1616,-0.0579 2.287,0.10064 3.1941,0.84324 1.0031,0.82089 1.9707,1.6852 3.4756,2.2061 0.6058,0.72287 1.8457,1.4411 2.8317,1.2583 0.83998,-0.15589 1.6017,-0.82351 0.58607,-1.6076 l -1.6503,-0.8538 m -11.166,-32.04 c -3.7039,-4.6017 -5.745703,-15.799 -9.039203,-23.82 -3.2928,8.0209 -5.3343,19.218 -9.0377,23.82 m 25.412003,-4.2491 c 3.469,5.1399 3.5592,12.574 -0.18944,24.929 -0.65183,2.1496 -0.096,3.9571 1.1149,4.7412 2.2022,1.4254 3.5085,3.0955 6.2672,3.792 0.55908,0.14142 1.0893,0.64462 0.80841,1.209 m -32.566003,-31.71 c -0.005,2.0128 0.95902,4.6497 1.063,6.7225 0.19996,3.9604 -0.74921,8.1374 -2.6278,12.424 -0.38676,0.88271 -0.28481,2.0733 0.0257,3.0086 0.41571,1.253 0.0737,2.0424 -0.44596,3.3355 -0.24271,0.6025 -0.19009,1.5819 0.0993,2.1864 1.1228,2.3502 -0.0809,3.8828 -1.6891,3.8025 -1.1609,-0.0579 -2.2864,0.10064 -3.1934,0.84323 -1.0031,0.82089 -1.9707,1.6852 -3.4756,2.2061 -0.6058,0.72287 -1.8457,1.4412 -2.8317,1.2583 -0.84062,-0.15589 -1.6017,-0.8235 -0.58607,-1.6076 l 1.6503,-0.85379 m 3.5315,-36.291 c -3.4684,5.1399 -3.5585,12.574 0.18944,24.929 0.65252,2.1496 0.096,3.9571 -1.1143,4.7412 -2.2028,1.4254 -3.5085,3.0954 -6.2672,3.792 -0.55977,0.14142 -1.0899,0.64462 -0.80905,1.209 m 1.6372,-0.47359 -1.5438,0.54132 c -0.79588,0.35651 -0.52425,1.1682 0.0829,1.0998 m 1.9056,-0.75182 -1.7135,0.6538 c -0.74132,0.28284 -0.37755,1.284 0.68079,1.0143 m 1.9944,-0.93929 -1.7194,0.75642 c -1.3385,0.62291 -0.0526,1.4839 1.1254,0.92808"
       style="fill:none;stroke:#ffffff;stroke-width:0.5;stroke-miterlimit:4;stroke-dasharray:none"
       inkscape:connector-curvature="0" />
    <path
       id="path103"
       stroke-miterlimit="4"
       d="m 52.104437,140.80702 c 10.828,-4.5254 21.675,-8.5779 25.392,-14.606 10.404,-1.0709 21.096,-5.3022 32.178003,-12.011 3.8736,-2.3449 7.5099,-4.1584 12.303,-2.9777 4.3899,1.0814 4.4432,5.2608 2.024,8.5596 -2.9566,4.0314 -6.5252,4.4109 -10.926,4.9062 -9.1876,1.036 -19.464003,4.7918 -29.402003,7.7022 -10.037,3.4835 -20.084,7.353 -30.11,11.46 -2.4068,0.98601 -3.7058,-2.095 -1.4602,-3.0336 z"
       style="fill:#ffcd50;fill-rule:evenodd;stroke:#ffffff;stroke-width:0.5;stroke-miterlimit:4;stroke-dasharray:none"
       inkscape:connector-curvature="0" />
    <path
       id="path105"
       d="m 68.635437,142.26702 c 0.71172,-0.98531 1.3162,-1.601 1.3353,-2.8586 0.0105,-0.71433 -0.0954,-1.5082 -0.29336,-2.3278 -0.33875,-1.4024 -0.3427,-1.8286 -1.3557,-1.9963 -0.6025,-1.3149 -1.2155,-3.2151 -2.7067,-3.0382 -0.69593,0.0822 -1.9832,0.22364 -1.8358,1.0906 l -0.0684,-0.005 c -0.99651,-0.55908 -2.0252,0.01 -2.0364,0.96756 l 0.0164,0.0322 -0.0151,-0.004 c -1.1202,-0.67817 -1.9628,0.098 -2.0779,0.93203 l 0.005,0.007 h -0.0145 c -0.72158,-0.17299 -1.5254,0.23219 -1.949,0.89257 -0.45649,0.71369 -0.0322,1.3886 0.18352,2.141 l 1.3984,-0.7426 c 0.58276,0.90771 1.3116,1.9595 2.633,1.2031 0.61502,0.56894 1.7082,0.29073 1.6076,-1.0103 l -0.004,-0.0171 c 0.82745,0.72617 1.724,0.18746 1.7148,-0.89257 0.27758,0.40387 0.77353,0.43873 1.1636,0.19667 0.31046,0.0428 0.64857,0.0414 0.99059,0.004 0.0618,0.40584 0.12432,0.81102 0.18681,1.2162 -1.1577,0.44136 -1.997,1.1215 -2.6192,1.9641 l 3.7414,2.245 z"
       style="fill:#d40000;fill-rule:evenodd"
       inkscape:connector-curvature="0" />
    <path
       id="path107"
       stroke-miterlimit="4"
       d="m 58.230437,136.29702 c 0.91033,0.0441 1.5076,3.4796 3.6302,2.2548 m -2.2732,-3.4894 c -0.72158,-0.173 -1.5254,0.23219 -1.949,0.89257 -0.45978,0.71892 -0.005,1.728 0.31112,2.4199 m 5.5114,-0.82878 c 0.10788,1.3964 -1.1603,1.6148 -1.7352,0.87155 l -2.1285,-3.3625 c 0.11511,-0.83406 0.95769,-1.6102 2.0779,-0.93204 m 3.496,2.4982 c 0.0184,1.0952 -0.89257,1.6431 -1.7266,0.89651 l -0.83534,-1.6148 -0.93534,-1.8082 c 0.0112,-0.95768 1.0399,-1.5267 2.0364,-0.96755 m 4.6096,1.9522 c -0.6025,-1.3149 -1.2142,-3.2151 -2.7054,-3.0382 -0.75182,0.0888 -2.1949,0.24601 -1.772,1.3136 l 1.2208,3.077 c 0.23614,0.59066 0.82419,0.67817 1.2714,0.40058 m -0.51172,-4.2367 c 0.17102,0.75711 0.39926,1.5714 0.68537,2.3456 m 2.1266,7.3209 c 0.71172,-0.98531 1.3162,-1.601 1.3353,-2.8586 0.0105,-0.71433 -0.0954,-1.5082 -0.29336,-2.3278 -0.3986,-1.6497 -0.33414,-1.9496 -1.993,-2.0654 -0.92809,-0.0645 -1.9095,-0.10064 -2.6744,-0.13681 -0.45517,1.6648 0.9051,2.116 2.3166,1.9634 0.0618,0.40584 0.12432,0.81103 0.18681,1.2162 -1.1577,0.44136 -1.997,1.1215 -2.6192,1.9641"
       style="fill:none;stroke:#ffffff;stroke-width:0.5;stroke-miterlimit:4;stroke-dasharray:none"
       inkscape:connector-curvature="0" />
    <path
       id="path109"
       stroke-miterlimit="4"
       d="m 115.26244,175.86702 -0.90771,0.36506 0.10064,0.18878 -0.63801,0.0875 0.0677,0.22825 -0.75118,0.1276 0.15918,0.2289 -0.75908,0.11709 0.16181,0.31375 -0.77812,0.0428 0.0789,0.2585 -1.0787,-0.0947 0.0533,0.20983 c -0.50122,-0.0447 -0.96494,-0.2243 -1.3464,-0.69918 l -0.0835,0.13287 c -0.34664,-0.84324 -0.55908,-1.7128 -0.48609,-2.6159 0.24403,-0.8722 0.74457,-1.6142 1.3616,-2.2857 l 0.0322,0.15325 c 0.52292,-0.31309 1.0196,-0.32098 1.505,-0.18944 l -0.12168,0.17826 1.0445,0.28481 -0.16378,0.21509 0.71566,0.30915 -0.26114,0.23811 0.67156,0.37295 -0.22824,0.15984 0.66041,0.37953 -0.14208,0.19075 0.56767,0.30323 -0.15918,0.14208 0.72484,0.6571 z"
       style="fill:#225500;fill-rule:evenodd;stroke:#ffffff;stroke-width:0.30000001;stroke-miterlimit:4;stroke-dasharray:none"
       inkscape:connector-curvature="0" />
    <path
       id="path111"
       stroke-miterlimit="4"
       d="m 115.19344,175.85702 -6.1705,-0.93203 0.0585,-0.32888 6.1118,1.2609 z"
       style="fill:#ffffff;fill-rule:evenodd;stroke:#ffffff;stroke-width:0.1;stroke-miterlimit:4;stroke-dasharray:none"
       inkscape:connector-curvature="0" />
    <path
       id="path113"
       stroke-miterlimit="4"
       d="m 116.04144,171.80702 -0.80446,0.55711 0.13945,0.16181 -0.6025,0.22627 0.11642,0.20786 -0.70446,0.29073 0.20588,0.18746 -0.71433,0.28218 0.22758,0.27034 -0.74985,0.21378 0.13418,0.23482 -1.0728,0.14602 0.098,0.19272 c -0.4986,0.0671 -0.98995,-0.005 -1.4675,-0.38413 l -0.052,0.148 c -0.52425,-0.74591 -0.92414,-1.5464 -1.0524,-2.4436 0.0454,-0.9051 0.36901,-1.7391 0.82222,-2.5304 l 0.0658,0.14274 c 0.44004,-0.42163 0.9235,-0.53871 1.4254,-0.51834 l -0.0796,0.20128 1.082,0.0467 -0.11182,0.246 0.76564,0.1434 -0.20128,0.29007 0.73737,0.21509 -0.18746,0.20588 0.7275,0.22495 -0.096,0.21706 0.62094,0.17036 -0.12432,0.17365 0.85246,0.48017 z"
       style="fill:#225500;fill-rule:evenodd;stroke:#ffffff;stroke-width:0.30000001;stroke-miterlimit:4;stroke-dasharray:none"
       inkscape:connector-curvature="0" />
    <path
       id="path115"
       stroke-miterlimit="4"
       d="m 115.97244,171.80702 -6.2238,0.45451 -0.0158,-0.33348 6.2395,-0.12103 z"
       style="fill:#ffffff;fill-rule:evenodd;stroke:#ffffff;stroke-width:0.1;stroke-miterlimit:4;stroke-dasharray:none"
       inkscape:connector-curvature="0" />
    <path
       id="path117"
       stroke-miterlimit="4"
       d="m 116.14044,168.20702 -0.73273,0.64858 0.15786,0.14405 -0.57161,0.29599 0.1401,0.19273 -0.665,0.37229 0.22693,0.16181 -0.6762,0.36506 0.25784,0.2414 -0.71892,0.30059 0.16049,0.21707 -1.0478,0.27231 0.12037,0.18023 c -0.4874,0.12497 -0.98403,0.11182 -1.503,-0.20786 l -0.0342,0.15261 c -0.60911,-0.67817 -1.1005,-1.426 -1.3339,-2.3015 -0.0625,-0.90377 0.16049,-1.7707 0.517,-2.61 l 0.0816,0.13352 c 0.38743,-0.4703 0.8531,-0.64393 1.3543,-0.68276 l -0.0553,0.20917 1.08,-0.0816 -0.0822,0.25718 0.77748,0.052 -0.16576,0.31178 0.75774,0.12629 -0.16181,0.22693 0.74921,0.13681 -0.0697,0.22693 0.63673,0.0954 -0.10261,0.18746 0.90313,0.37558 z"
       style="fill:#225500;fill-rule:evenodd;stroke:#ffffff;stroke-width:0.30000001;stroke-miterlimit:4;stroke-dasharray:none"
       inkscape:connector-curvature="0" />
    <path
       id="path119"
       stroke-miterlimit="4"
       d="m 116.07644,168.22702 -6.1256,1.1886 -0.0553,-0.32954 6.1808,-0.85903 z"
       style="fill:#ffffff;fill-rule:evenodd;stroke:#ffffff;stroke-width:0.1;stroke-miterlimit:4;stroke-dasharray:none"
       inkscape:connector-curvature="0" />
    <path
       id="path121"
       stroke-miterlimit="4"
       d="m 111.20244,177.25702 -0.95443,0.21772 0.0697,0.20259 -0.64329,-0.0138 0.0302,0.23548 -0.76169,0.009 0.12103,0.25061 -0.76825,-0.004 0.11116,0.33546 -0.7755,-0.0803 0.0375,0.26772 -1.0504,-0.26311 0.0191,0.21575 c -0.4874,-0.123 -0.91694,-0.37295 -1.2195,-0.90244 l -0.10327,0.11774 c -0.20917,-0.88734 -0.28284,-1.7793 -0.0684,-2.6594 0.37822,-0.8235 0.98926,-1.4774 1.7043,-2.043 l 0.008,0.15655 c 0.565,-0.22759 1.057,-0.15721 1.5161,0.0493 l -0.14865,0.15655 0.98664,0.44596 -0.19536,0.18681 0.65775,0.41767 -0.29468,0.1947 0.60447,0.47359 -0.25061,0.12169 0.59199,0.47885 -0.17036,0.16576 0.51306,0.38873 -0.17957,0.11512 0.61305,0.76302 z"
       style="fill:#225500;fill-rule:evenodd;stroke:#ffffff;stroke-width:0.30000001;stroke-miterlimit:4;stroke-dasharray:none"
       inkscape:connector-curvature="0" />
    <path
       id="path123"
       stroke-miterlimit="4"
       d="m 111.13844,177.22702 -5.947,-1.8917 0.10985,-0.31507 5.837,2.2068 z"
       style="fill:#ffffff;fill-rule:evenodd;stroke:#ffffff;stroke-width:0.1;stroke-miterlimit:4;stroke-dasharray:none"
       inkscape:connector-curvature="0" />
    <path
       id="path125"
       stroke-miterlimit="4"
       d="m 111.82944,165.88702 -0.45846,0.8643 0.19864,0.0796 -0.43083,0.47819 0.19865,0.1309 -0.49135,0.58212 0.26902,0.0717 -0.50516,0.5795 0.32691,0.1355 -0.56767,0.53412 0.22693,0.14668 -0.88537,0.62356 0.17562,0.12629 c -0.41176,0.28876 -0.88142,0.45057 -1.4793,0.33348 l 0.0211,0.15524 c -0.80841,-0.42097 -1.5313,-0.94782 -2.0575,-1.6858 -0.3769,-0.8242 -0.47228,-1.7135 -0.43412,-2.6245 l 0.12366,0.096 c 0.19733,-0.5762 0.57225,-0.90312 1.0281,-1.1156 l 0.0217,0.21509 0.98206,-0.45583 0.0138,0.26968 0.7459,-0.22495 -0.0454,0.35058 0.7538,-0.14799 -0.0717,0.26903 0.74921,-0.13551 0.0145,0.23746 0.62948,-0.13484 -0.0302,0.21179 0.97811,0.0342 z"
       style="fill:#225500;fill-rule:evenodd;stroke:#ffffff;stroke-width:0.30000001;stroke-miterlimit:4;stroke-dasharray:none"
       inkscape:connector-curvature="0" />
    <path
       id="path127"
       stroke-miterlimit="4"
       d="m 111.77444,165.91702 -5.3165,3.2664 -0.16773,-0.28942 5.4843,-2.977 z"
       style="fill:#ffffff;fill-rule:evenodd;stroke:#ffffff;stroke-width:0.1;stroke-miterlimit:4;stroke-dasharray:none"
       inkscape:connector-curvature="0" />
    <path
       id="path129"
       stroke-miterlimit="4"
       d="m 111.90344,173.14702 -0.80249,0.55908 0.1401,0.16181 -0.60185,0.22824 0.11642,0.2072 -0.70249,0.29336 0.20588,0.18681 -0.71369,0.28481 0.2289,0.26902 -0.74921,0.21575 0.13484,0.23482 -1.0721,0.14931 0.0987,0.19273 c -0.4986,0.0684 -0.99059,-0.002 -1.4688,-0.37953 l -0.052,0.148 c -0.52687,-0.74393 -0.92878,-1.5438 -1.0597,-2.4403 0.0421,-0.9051 0.36308,-1.7398 0.81364,-2.5324 l 0.0664,0.14207 c 0.43873,-0.42294 0.92153,-0.54201 1.4241,-0.52292 l -0.0789,0.20128 1.0814,0.0434 -0.1105,0.24666 0.76628,0.14076 -0.20062,0.29073 0.73801,0.21312 -0.1868,0.20654 0.72814,0.22232 -0.0954,0.21772 0.62159,0.16773 -0.12366,0.1743 0.85379,0.47754 z"
       style="fill:#225500;fill-rule:evenodd;stroke:#ffffff;stroke-width:0.30000001;stroke-miterlimit:4;stroke-dasharray:none"
       inkscape:connector-curvature="0" />
    <path
       id="path131"
       stroke-miterlimit="4"
       d="m 111.83844,173.14702 -6.2223,0.47491 -0.0164,-0.33349 6.2391,-0.14142 z"
       style="fill:#ffffff;fill-rule:evenodd;stroke:#ffffff;stroke-width:0.1;stroke-miterlimit:4;stroke-dasharray:none"
       inkscape:connector-curvature="0" />
    <path
       id="path133"
       stroke-miterlimit="4"
       d="m 110.64544,170.69702 -0.80313,0.55977 0.1401,0.16116 -0.60121,0.22824 0.11642,0.20785 -0.70313,0.29271 0.20654,0.1868 -0.71369,0.28481 0.22825,0.26969 -0.74852,0.21574 0.13418,0.23417 -1.0721,0.14997 0.0987,0.19206 c -0.49791,0.0691 -0.98995,-0.002 -1.4688,-0.37887 l -0.0513,0.148 c -0.52687,-0.74457 -0.92878,-1.5438 -1.0603,-2.4403 0.0421,-0.9051 0.36374,-1.7404 0.81433,-2.5331 l 0.0658,0.14207 c 0.43938,-0.42228 0.92153,-0.54132 1.4241,-0.52228 l -0.0789,0.20128 1.082,0.0434 -0.11117,0.24666 0.76628,0.14076 -0.20062,0.29074 0.73865,0.21245 -0.1868,0.20654 0.72814,0.22233 -0.0954,0.21771 0.62095,0.16773 -0.12366,0.17431 0.85444,0.47754 z"
       style="fill:#225500;fill-rule:evenodd;stroke:#ffffff;stroke-width:0.30000001;stroke-miterlimit:4;stroke-dasharray:none"
       inkscape:connector-curvature="0" />
    <path
       id="path135"
       stroke-miterlimit="4"
       d="m 110.58044,170.70702 -6.2223,0.47491 -0.0164,-0.33349 6.2391,-0.14142 z"
       style="fill:#ffffff;fill-rule:evenodd;stroke:#ffffff;stroke-width:0.1;stroke-miterlimit:4;stroke-dasharray:none"
       inkscape:connector-curvature="0" />
    <path
       id="path137"
       stroke-miterlimit="4"
       d="m 106.55544,179.02702 -0.95048,-0.23417 -0.0283,0.2118 -0.56895,-0.30125 -0.0789,0.22429 -0.68409,-0.3348 -0.004,0.27824 -0.68473,-0.34796 -0.052,0.34927 -0.65646,-0.42031 -0.0868,0.25587 -0.82025,-0.70644 -0.0796,0.20062 c -0.38084,-0.32888 -0.65183,-0.74526 -0.68409,-1.3537 l -0.14537,0.0585 c 0.21114,-0.88665 0.5466,-1.7161 1.134,-2.4061 0.70777,-0.56634 1.5471,-0.8755 2.4396,-1.0603 l -0.0631,0.14339 c 0.60777,0.0506 1.0156,0.3348 1.3326,0.72553 l -0.20325,0.073 0.68143,0.84126 -0.2585,0.0796 0.39992,0.66894 -0.35125,0.0408 0.32757,0.69524 -0.27823,-0.004 0.31375,0.69396 -0.22693,0.0717 0.28415,0.57753 -0.21312,0.0224 0.20522,0.95705 z"
       style="fill:#225500;fill-rule:evenodd;stroke:#ffffff;stroke-width:0.30000001;stroke-miterlimit:4;stroke-dasharray:none"
       inkscape:connector-curvature="0" />
    <path
       id="path139"
       stroke-miterlimit="4"
       d="m 106.50644,178.97702 -4.4636,-4.3616 0.24008,-0.23219 4.2235,4.5938 z"
       style="fill:#ffffff;fill-rule:evenodd;stroke:#ffffff;stroke-width:0.1;stroke-miterlimit:4;stroke-dasharray:none"
       inkscape:connector-curvature="0" />
    <path
       id="path141"
       stroke-miterlimit="4"
       d="m 106.56044,165.89702 -0.41899,0.88403 0.20193,0.0704 -0.40913,0.49727 0.20456,0.12169 -0.46504,0.60383 0.27231,0.0598 -0.4782,0.60122 0.33217,0.12037 -0.54266,0.55977 0.2335,0.13616 -0.85641,0.66238 0.18089,0.1184 c -0.39795,0.30718 -0.86036,0.49003 -1.4628,0.39992 l 0.0283,0.15457 c -0.82617,-0.38479 -1.5727,-0.87875 -2.1318,-1.5918 -0.41307,-0.80644 -0.54922,-1.6905 -0.55119,-2.6021 l 0.12761,0.0901 c 0.17102,-0.58474 0.53082,-0.92745 0.97678,-1.1609 l 0.0309,0.21444 0.96035,-0.49989 0.0263,0.26903 0.7354,-0.2585 -0.0296,0.3519 0.7459,-0.18154 -0.0592,0.27166 0.7426,-0.16905 0.025,0.2368 0.62292,-0.16313 -0.0211,0.21311 0.97875,-0.01 z"
       style="fill:#225500;fill-rule:evenodd;stroke:#ffffff;stroke-width:0.30000001;stroke-miterlimit:4;stroke-dasharray:none"
       inkscape:connector-curvature="0" />
    <path
       id="path143"
       stroke-miterlimit="4"
       d="m 106.50144,165.93702 -5.1646,3.5026 -0.18022,-0.28152 5.3452,-3.221 z"
       style="fill:#ffffff;fill-rule:evenodd;stroke:#ffffff;stroke-width:0.1;stroke-miterlimit:4;stroke-dasharray:none"
       inkscape:connector-curvature="0" />
    <path
       id="path145"
       stroke-miterlimit="4"
       d="m 107.42844,172.16702 -0.80249,0.55977 0.1401,0.16115 -0.60185,0.22825 0.11642,0.20719 -0.70249,0.29337 0.20588,0.1868 -0.71369,0.28482 0.22824,0.26902 -0.74852,0.21574 0.13484,0.23483 -1.0721,0.14931 0.098,0.19273 c -0.49791,0.0684 -0.98995,-0.002 -1.4681,-0.37954 l -0.052,0.148 c -0.52687,-0.74393 -0.92878,-1.5438 -1.0597,-2.4403 0.0421,-0.9051 0.36309,-1.7398 0.81364,-2.5324 l 0.0664,0.14207 c 0.43873,-0.42294 0.92153,-0.54201 1.4241,-0.52228 l -0.0789,0.20062 1.0814,0.0434 -0.1105,0.24666 0.76628,0.14077 -0.20062,0.29073 0.73801,0.21311 -0.1868,0.20654 0.72814,0.22167 -0.0954,0.21838 0.62159,0.16772 -0.12366,0.17431 0.85379,0.47754 z"
       style="fill:#225500;fill-rule:evenodd;stroke:#ffffff;stroke-width:0.30000001;stroke-miterlimit:4;stroke-dasharray:none"
       inkscape:connector-curvature="0" />
    <path
       id="path147"
       stroke-miterlimit="4"
       d="m 107.35944,172.16702 -6.2223,0.4749 -0.0164,-0.33414 6.2391,-0.14076 z"
       style="fill:#ffffff;fill-rule:evenodd;stroke:#ffffff;stroke-width:0.1;stroke-miterlimit:4;stroke-dasharray:none"
       inkscape:connector-curvature="0" />
    <path
       id="path149"
       stroke-miterlimit="4"
       d="m 102.56444,179.30702 -0.94979,-0.23416 -0.029,0.2118 -0.56831,-0.30126 -0.0789,0.2243 -0.68409,-0.3348 -0.004,0.27889 -0.684733,-0.34862 -0.052,0.34928 -0.65577,-0.42031 -0.0875,0.25587 -0.82025,-0.70644 -0.0796,0.20128 c -0.38018,-0.32954 -0.65183,-0.74527 -0.68409,-1.3543 l -0.14537,0.0592 c 0.2118,-0.88665 0.5466,-1.7168 1.134,-2.4068 0.70777,-0.56569 1.5471,-0.8755 2.440303,-1.0596 l -0.0631,0.14338 c 0.60713,0.0506 1.0149,0.33481 1.332,0.72484 l -0.20325,0.0737 0.68143,0.84126 -0.2585,0.0789 0.39992,0.66894 -0.35058,0.0414 0.3269,0.6946 -0.27823,-0.004 0.31375,0.69396 -0.22693,0.0717 0.28415,0.57818 -0.21246,0.0217 0.20456,0.95705 z"
       style="fill:#225500;fill-rule:evenodd;stroke:#ffffff;stroke-width:0.30000001;stroke-miterlimit:4;stroke-dasharray:none"
       inkscape:connector-curvature="0" />
    <path
       id="path151"
       stroke-miterlimit="4"
       d="m 102.52044,179.25702 -4.462903,-4.361 0.23942,-0.23285 4.223503,4.5938 z"
       style="fill:#ffffff;fill-rule:evenodd;stroke:#ffffff;stroke-width:0.1;stroke-miterlimit:4;stroke-dasharray:none"
       inkscape:connector-curvature="0" />
    <path
       id="path153"
       stroke-miterlimit="4"
       d="m 102.82544,166.87702 -0.419,0.88468 0.20194,0.0704 -0.40847,0.49663 0.2039,0.12234 -0.46438,0.60319 0.27165,0.0599 -0.47754,0.60185 0.33151,0.12037 -0.54265,0.55908 0.23351,0.13682 -0.85577,0.66238 0.18089,0.1184 c -0.3986,0.30652 -0.86036,0.49004 -1.463503,0.39992 l 0.029,0.15392 c -0.82681,-0.38414 -1.5727,-0.87811 -2.1318,-1.5911 -0.41373,-0.80644 -0.54922,-1.6911 -0.55188,-2.6028 l 0.1276,0.0908 c 0.17102,-0.58474 0.53082,-0.92809 0.97678,-1.1609 l 0.0316,0.21378 0.96035,-0.49989 0.0263,0.26903 0.7347,-0.25784 -0.0296,0.3519 0.746543,-0.1822 -0.0598,0.27232 0.7426,-0.16905 0.025,0.23614 0.62292,-0.16247 -0.0204,0.21246 0.97811,-0.01 z"
       style="fill:#225500;fill-rule:evenodd;stroke:#ffffff;stroke-width:0.30000001;stroke-miterlimit:4;stroke-dasharray:none"
       inkscape:connector-curvature="0" />
    <path
       id="path155"
       stroke-miterlimit="4"
       d="m 102.76644,166.90702 -5.164603,3.5026 -0.17957,-0.28087 5.344203,-3.2217 z"
       style="fill:#ffffff;fill-rule:evenodd;stroke:#ffffff;stroke-width:0.1;stroke-miterlimit:4;stroke-dasharray:none"
       inkscape:connector-curvature="0" />
    <path
       id="path157"
       stroke-miterlimit="4"
       d="m 103.01844,172.79702 -0.80313,0.55977 0.1401,0.16115 -0.60185,0.22825 0.11708,0.20719 -0.70313,0.29337 0.20588,0.1868 -0.713,0.28481 0.22824,0.26968 -0.74921,0.21575 0.13484,0.23416 -1.072103,0.14998 0.0987,0.19207 c -0.4986,0.0691 -0.99059,-0.002 -1.4688,-0.37954 l -0.052,0.148 c -0.52623,-0.74393 -0.92878,-1.5431 -1.0597,-2.4396 0.0421,-0.90574 0.36309,-1.7404 0.81364,-2.5331 l 0.0664,0.14207 c 0.43873,-0.42294 0.92153,-0.54132 1.4241,-0.52228 l -0.0789,0.20128 1.081403,0.0428 -0.110503,0.24666 0.766283,0.14077 -0.20062,0.29073 0.73801,0.21311 -0.18681,0.20654 0.72878,0.22232 -0.096,0.21772 0.62159,0.16773 -0.12366,0.17431 0.85444,0.47754 z"
       style="fill:#225500;fill-rule:evenodd;stroke:#ffffff;stroke-width:0.30000001;stroke-miterlimit:4;stroke-dasharray:none"
       inkscape:connector-curvature="0" />
    <path
       id="path159"
       stroke-miterlimit="4"
       d="m 102.95444,172.79702 -6.221803,0.47491 -0.0171,-0.33349 6.239103,-0.14142 z"
       style="fill:#ffffff;fill-rule:evenodd;stroke:#ffffff;stroke-width:0.1;stroke-miterlimit:4;stroke-dasharray:none"
       inkscape:connector-curvature="0" />
    <path
       id="path161"
       stroke-miterlimit="4"
       d="m 98.366437,179.44702 -0.95048,-0.23416 -0.0283,0.2118 -0.56895,-0.30126 -0.0789,0.2243 -0.68409,-0.3348 -0.004,0.27823 -0.68537,-0.34795 -0.0513,0.34927 -0.65646,-0.42031 -0.0875,0.25587 -0.81956,-0.70644 -0.0796,0.20061 c -0.38084,-0.32887 -0.65252,-0.74526 -0.68473,-1.3537 l -0.14471,0.0585 c 0.21114,-0.88665 0.5466,-1.7161 1.1333,-2.4061 0.70777,-0.5657 1.5477,-0.8755 2.4403,-1.0603 l -0.0632,0.14339 c 0.60713,0.0513 1.0149,0.33546 1.3326,0.72553 l -0.20325,0.073 0.68078,0.84127 -0.25784,0.0796 0.39992,0.66894 -0.35125,0.0408 0.32757,0.69524 -0.27823,-0.004 0.31375,0.69396 -0.22693,0.0717 0.28415,0.57754 -0.21312,0.0223 0.20522,0.95705 z"
       style="fill:#225500;fill-rule:evenodd;stroke:#ffffff;stroke-width:0.30000001;stroke-miterlimit:4;stroke-dasharray:none"
       inkscape:connector-curvature="0" />
    <path
       id="path163"
       stroke-miterlimit="4"
       d="m 98.321437,179.39702 -4.4636,-4.3616 0.24008,-0.23218 4.2235,4.5938 z"
       style="fill:#ffffff;fill-rule:evenodd;stroke:#ffffff;stroke-width:0.1;stroke-miterlimit:4;stroke-dasharray:none"
       inkscape:connector-curvature="0" />
    <path
       id="path165"
       stroke-miterlimit="4"
       d="m 98.163437,166.59702 -0.419,0.88467 0.20194,0.0704 -0.40913,0.49727 0.20457,0.12169 -0.46504,0.60318 0.27231,0.0599 -0.47819,0.60185 0.33217,0.12037 -0.54266,0.55908 0.23285,0.13682 -0.85577,0.66238 0.18088,0.1184 c -0.39794,0.30651 -0.86036,0.49003 -1.4628,0.39992 l 0.0283,0.15391 c -0.82681,-0.38413 -1.5727,-0.87811 -2.1318,-1.5911 -0.41307,-0.80644 -0.54922,-1.6911 -0.55188,-2.6028 l 0.12826,0.0908 c 0.17102,-0.58474 0.53082,-0.92809 0.97614,-1.1609 l 0.0316,0.21377 0.96035,-0.49924 0.0263,0.26903 0.7354,-0.25851 -0.0302,0.35191 0.74655,-0.1822 -0.0592,0.27231 0.7426,-0.16904 0.025,0.23613 0.62223,-0.16246 -0.0204,0.21246 0.97875,-0.01 z"
       style="fill:#225500;fill-rule:evenodd;stroke:#ffffff;stroke-width:0.30000001;stroke-miterlimit:4;stroke-dasharray:none"
       inkscape:connector-curvature="0" />
    <path
       id="path167"
       stroke-miterlimit="4"
       d="m 98.104437,166.62702 -5.1641,3.5032 -0.18023,-0.28152 5.3442,-3.2217 z"
       style="fill:#ffffff;fill-rule:evenodd;stroke:#ffffff;stroke-width:0.1;stroke-miterlimit:4;stroke-dasharray:none"
       inkscape:connector-curvature="0" />
    <path
       id="path169"
       stroke-miterlimit="4"
       d="m 98.198437,170.94702 -0.80313,0.55977 0.14076,0.16116 -0.60185,0.22824 0.11642,0.20786 -0.70313,0.2927 0.20654,0.18681 -0.71369,0.28481 0.22825,0.26968 -0.74852,0.21574 0.13484,0.23417 -1.0721,0.14997 0.098,0.19207 c -0.49791,0.0691 -0.98995,-0.002 -1.4688,-0.37888 l -0.0513,0.14734 c -0.52687,-0.74393 -0.92878,-1.5431 -1.0603,-2.4396 0.0421,-0.9051 0.36374,-1.7404 0.81433,-2.5331 l 0.0658,0.14208 c 0.43938,-0.42228 0.92153,-0.54132 1.4241,-0.52228 l -0.0789,0.20127 1.082,0.0434 -0.11117,0.246 0.76628,0.14142 -0.20062,0.29073 0.73865,0.21246 -0.1868,0.20654 0.72814,0.22232 -0.0954,0.21772 0.62094,0.16773 -0.12366,0.17431 0.85443,0.47753 z"
       style="fill:#225500;fill-rule:evenodd;stroke:#ffffff;stroke-width:0.30000001;stroke-miterlimit:4;stroke-dasharray:none"
       inkscape:connector-curvature="0" />
    <path
       id="path171"
       stroke-miterlimit="4"
       d="m 98.129437,170.94702 -6.2223,0.47491 -0.0164,-0.33348 6.2391,-0.14143 z"
       style="fill:#ffffff;fill-rule:evenodd;stroke:#ffffff;stroke-width:0.1;stroke-miterlimit:4;stroke-dasharray:none"
       inkscape:connector-curvature="0" />
    <path
       id="path173"
       stroke-miterlimit="4"
       d="m 97.897437,174.73702 -0.93337,0.2927 0.0855,0.19601 -0.64265,0.0369 0.0487,0.23284 -0.75838,0.0684 0.14076,0.24074 -0.76628,0.0572 0.13747,0.32559 -0.77945,-0.0191 0.0585,0.26442 -1.0682,-0.17891 0.0362,0.21311 c -0.49594,-0.0842 -0.94387,-0.29928 -1.2872,-0.80248 l -0.0934,0.12497 c -0.2789,-0.86761 -0.42294,-1.751 -0.2789,-2.6455 0.31178,-0.85049 0.86889,-1.551 1.5366,-2.172 l 0.0204,0.15589 c 0.54527,-0.27166 1.0419,-0.24074 1.5155,-0.071 l -0.13616,0.16773 1.0189,0.36637 -0.17957,0.20194 0.68868,0.36374 -0.27823,0.21772 0.63999,0.42425 -0.24009,0.14077 0.62815,0.43083 -0.15655,0.17891 0.54266,0.34664 -0.17036,0.12893 0.67092,0.71236 z"
       style="fill:#225500;fill-rule:evenodd;stroke:#ffffff;stroke-width:0.30000001;stroke-miterlimit:4;stroke-dasharray:none"
       inkscape:connector-curvature="0" />
    <path
       id="path175"
       stroke-miterlimit="4"
       d="m 97.833437,174.71702 -6.0782,-1.4135 0.0842,-0.32362 5.9944,1.7371 z"
       style="fill:#ffffff;fill-rule:evenodd;stroke:#ffffff;stroke-width:0.1;stroke-miterlimit:4;stroke-dasharray:none"
       inkscape:connector-curvature="0" />
    <path
       id="path177"
       stroke-miterlimit="4"
       d="m 93.398437,178.46702 -0.94979,-0.23416 -0.029,0.2118 -0.56895,-0.30126 -0.0783,0.2243 -0.68409,-0.3348 -0.004,0.27823 -0.68473,-0.34795 -0.052,0.34927 -0.65646,-0.42031 -0.0868,0.25586 -0.82025,-0.70643 -0.0796,0.20062 c -0.38019,-0.32889 -0.65183,-0.74527 -0.68409,-1.3537 l -0.14536,0.0585 c 0.2118,-0.88665 0.5466,-1.7161 1.134,-2.4061 0.70777,-0.56569 1.5471,-0.8755 2.4403,-1.0603 l -0.0631,0.14339 c 0.60713,0.0513 1.0149,0.33546 1.332,0.72553 l -0.20325,0.073 0.68143,0.84126 -0.2585,0.0796 0.39992,0.66894 -0.35059,0.0408 0.32691,0.69524 -0.27823,-0.004 0.31375,0.69396 -0.22693,0.0717 0.28415,0.57754 -0.21246,0.0223 0.20457,0.95705 z"
       style="fill:#225500;fill-rule:evenodd;stroke:#ffffff;stroke-width:0.30000001;stroke-miterlimit:4;stroke-dasharray:none"
       inkscape:connector-curvature="0" />
    <path
       id="path179"
       stroke-miterlimit="4"
       d="m 93.354437,178.41702 -4.4629,-4.3616 0.23942,-0.2322 4.2235,4.5938 z"
       style="fill:#ffffff;fill-rule:evenodd;stroke:#ffffff;stroke-width:0.1;stroke-miterlimit:4;stroke-dasharray:none"
       inkscape:connector-curvature="0" />
    <path
       id="path181"
       stroke-miterlimit="4"
       d="m 93.304437,166.59702 -0.41899,0.88403 0.20193,0.0704 -0.40913,0.49727 0.20457,0.12235 -0.46504,0.60318 0.27231,0.0599 -0.47819,0.60121 0.33217,0.12103 -0.54266,0.55908 0.23285,0.13615 -0.85577,0.66303 0.18089,0.11774 c -0.39795,0.30718 -0.86036,0.49003 -1.4628,0.40058 l 0.0283,0.15392 c -0.82681,-0.38414 -1.5727,-0.87876 -2.1318,-1.5918 -0.41308,-0.80643 -0.54922,-1.6905 -0.55188,-2.6021 l 0.12826,0.0901 c 0.17102,-0.58473 0.53082,-0.92744 0.97614,-1.1603 l 0.0316,0.21378 0.96035,-0.49989 0.0263,0.26903 0.7354,-0.2585 -0.0302,0.3519 0.74655,-0.18154 -0.0592,0.27166 0.7426,-0.16905 0.025,0.23679 0.62292,-0.16312 -0.0211,0.21311 0.97875,-0.01 z"
       style="fill:#225500;fill-rule:evenodd;stroke:#ffffff;stroke-width:0.30000001;stroke-miterlimit:4;stroke-dasharray:none"
       inkscape:connector-curvature="0" />
    <path
       id="path183"
       stroke-miterlimit="4"
       d="m 93.245437,166.62702 -5.1641,3.5026 -0.18023,-0.28153 5.3442,-3.221 z"
       style="fill:#ffffff;fill-rule:evenodd;stroke:#ffffff;stroke-width:0.1;stroke-miterlimit:4;stroke-dasharray:none"
       inkscape:connector-curvature="0" />
    <path
       id="path185"
       stroke-miterlimit="4"
       d="m 93.225437,172.09702 -0.80313,0.55908 0.14076,0.16181 -0.60185,0.22824 0.11642,0.2072 -0.70313,0.2927 0.20654,0.18681 -0.71369,0.28481 0.22825,0.26968 -0.74852,0.21575 0.13484,0.23416 -1.0721,0.14997 0.098,0.19273 c -0.49791,0.0684 -0.98995,-0.002 -1.4688,-0.37953 l -0.0513,0.14799 c -0.52687,-0.74457 -0.92878,-1.5438 -1.0597,-2.4403 0.0414,-0.9051 0.36309,-1.7404 0.81364,-2.5331 l 0.0664,0.14208 c 0.43873,-0.42229 0.92153,-0.54132 1.4241,-0.52228 l -0.0796,0.20127 1.082,0.0434 -0.11116,0.24666 0.76697,0.14076 -0.20128,0.29073 0.73865,0.21246 -0.1868,0.20654 0.72814,0.22232 -0.0954,0.21772 0.62159,0.16773 -0.12432,0.17497 0.85444,0.47753 z"
       style="fill:#225500;fill-rule:evenodd;stroke:#ffffff;stroke-width:0.30000001;stroke-miterlimit:4;stroke-dasharray:none"
       inkscape:connector-curvature="0" />
    <path
       id="path187"
       stroke-miterlimit="4"
       d="m 93.156437,172.09702 -6.2223,0.4749 -0.0164,-0.33348 6.2391,-0.14142 z"
       style="fill:#ffffff;fill-rule:evenodd;stroke:#ffffff;stroke-width:0.1;stroke-miterlimit:4;stroke-dasharray:none"
       inkscape:connector-curvature="0" />
    <path
       id="path189"
       stroke-miterlimit="4"
       d="m 88.075437,179.18702 -0.90638,-0.36834 -0.0592,0.20587 -0.51898,-0.38019 -0.1105,0.21115 -0.62884,-0.43018 -0.044,0.27495 -0.62815,-0.44268 -0.10129,0.33809 -0.58868,-0.50975 -0.123,0.24074 -0.71038,-0.81758 -0.10788,0.18746 c -0.32888,-0.38019 -0.53807,-0.83139 -0.48214,-1.4379 l -0.1526,0.0375 c 0.33678,-0.84718 0.78798,-1.6201 1.4681,-2.2193 0.78142,-0.45781 1.6569,-0.64394 2.5672,-0.69791 l -0.0835,0.13287 c 0.59396,0.13748 0.95705,0.47688 1.2149,0.90905 l -0.2118,0.0434 0.55316,0.93006 -0.26706,0.0414 0.29928,0.71961 -0.35256,-0.01 0.22364,0.73471 -0.27495,-0.0441 0.21114,0.73209 -0.23482,0.0388 0.19799,0.61236 -0.21378,-0.009 0.0651,0.97613 z"
       style="fill:#225500;fill-rule:evenodd;stroke:#ffffff;stroke-width:0.30000001;stroke-miterlimit:4;stroke-dasharray:none"
       inkscape:connector-curvature="0" />
    <path
       id="path191"
       stroke-miterlimit="4"
       d="m 88.036437,179.12702 -3.7907,-4.9574 0.271,-0.19535 3.5197,5.1528 z"
       style="fill:#ffffff;fill-rule:evenodd;stroke:#ffffff;stroke-width:0.1;stroke-miterlimit:4;stroke-dasharray:none"
       inkscape:connector-curvature="0" />
    <path
       id="path193"
       stroke-miterlimit="4"
       d="m 88.998437,165.95702 -0.41834,0.88468 0.20193,0.0704 -0.40913,0.49663 0.2039,0.12234 -0.46438,0.60319 0.27166,0.0599 -0.47754,0.60186 0.33217,0.12037 -0.54265,0.55908 0.23285,0.13681 -0.85577,0.66239 0.18089,0.11773 c -0.3986,0.30718 -0.86036,0.49004 -1.4635,0.40058 l 0.029,0.15392 c -0.82681,-0.38413 -1.5727,-0.87812 -2.1318,-1.5911 -0.41308,-0.80644 -0.54922,-1.6911 -0.55188,-2.6028 l 0.12826,0.0908 c 0.17102,-0.58543 0.53082,-0.92809 0.97614,-1.1609 l 0.0316,0.21377 0.96035,-0.49988 0.0263,0.26902 0.7347,-0.2585 -0.0296,0.35256 0.74654,-0.1822 -0.0599,0.27166 0.7426,-0.16839 0.0257,0.23614 0.62223,-0.16313 -0.0204,0.21312 0.97811,-0.01 z"
       style="fill:#225500;fill-rule:evenodd;stroke:#ffffff;stroke-width:0.30000001;stroke-miterlimit:4;stroke-dasharray:none"
       inkscape:connector-curvature="0" />
    <path
       id="path195"
       stroke-miterlimit="4"
       d="m 88.943437,165.99702 -5.1646,3.5026 -0.17957,-0.28086 5.3442,-3.2218 z"
       style="fill:#ffffff;fill-rule:evenodd;stroke:#ffffff;stroke-width:0.1;stroke-miterlimit:4;stroke-dasharray:none"
       inkscape:connector-curvature="0" />
    <path
       id="path197"
       stroke-miterlimit="4"
       d="m 88.746437,170.62702 -0.80313,0.55977 0.14076,0.16115 -0.60185,0.22824 0.11642,0.2072 -0.70313,0.29336 0.20654,0.1868 -0.71369,0.28482 0.22824,0.26902 -0.74852,0.21575 0.13484,0.23482 -1.0721,0.14997 0.098,0.19207 c -0.49791,0.0691 -0.98995,-0.002 -1.4688,-0.37953 l -0.0513,0.14799 c -0.52687,-0.74393 -0.92878,-1.5431 -1.0603,-2.4403 0.0421,-0.9051 0.36374,-1.7398 0.81433,-2.5324 l 0.0658,0.14208 c 0.43939,-0.42294 0.92153,-0.54202 1.4241,-0.52228 l -0.0789,0.20127 1.082,0.0428 -0.11116,0.24667 0.76697,0.14076 -0.20128,0.29073 0.73865,0.21312 -0.1868,0.20653 0.72814,0.22233 -0.0954,0.21772 0.62094,0.16773 -0.12366,0.1743 0.85443,0.47754 z"
       style="fill:#225500;fill-rule:evenodd;stroke:#ffffff;stroke-width:0.30000001;stroke-miterlimit:4;stroke-dasharray:none"
       inkscape:connector-curvature="0" />
    <path
       id="path199"
       stroke-miterlimit="4"
       d="m 88.682437,170.62702 -6.2223,0.4749 -0.0164,-0.33349 6.2391,-0.14141 z"
       style="fill:#ffffff;fill-rule:evenodd;stroke:#ffffff;stroke-width:0.1;stroke-miterlimit:4;stroke-dasharray:none"
       inkscape:connector-curvature="0" />
    <path
       id="path201"
       stroke-miterlimit="4"
       d="m 89.027437,173.70702 -0.80249,0.55908 0.1401,0.16181 -0.60185,0.22825 0.11642,0.20719 -0.70249,0.2927 0.20588,0.18747 -0.71369,0.28415 0.2289,0.26969 -0.74921,0.21574 0.13484,0.23482 -1.0721,0.14932 0.0987,0.19272 c -0.4986,0.0684 -0.99059,-0.002 -1.4688,-0.37953 l -0.052,0.148 c -0.52623,-0.74393 -0.92878,-1.5438 -1.0597,-2.4403 0.0421,-0.9051 0.36308,-1.7404 0.81364,-2.5324 l 0.0664,0.14208 c 0.43873,-0.42294 0.92153,-0.54201 1.4241,-0.52292 l -0.0789,0.20128 1.0814,0.0434 -0.1105,0.24666 0.76628,0.14076 -0.20062,0.29073 0.73801,0.21312 -0.18681,0.20654 0.72878,0.22166 -0.096,0.21838 0.62159,0.16773 -0.12366,0.17431 0.85379,0.47753 z"
       style="fill:#225500;fill-rule:evenodd;stroke:#ffffff;stroke-width:0.30000001;stroke-miterlimit:4;stroke-dasharray:none"
       inkscape:connector-curvature="0" />
    <path
       id="path203"
       stroke-miterlimit="4"
       d="m 88.958437,173.70702 -6.2223,0.47556 -0.0164,-0.33414 6.2391,-0.14142 z"
       style="fill:#ffffff;fill-rule:evenodd;stroke:#ffffff;stroke-width:0.1;stroke-miterlimit:4;stroke-dasharray:none"
       inkscape:connector-curvature="0" />
    <path
       id="path205"
       stroke-miterlimit="4"
       d="m 82.051437,178.72702 -0.59791,-0.77486 -0.15457,0.14799 -0.25718,-0.59001 -0.20128,0.12629 -0.32691,-0.68735 -0.17694,0.21509 -0.31902,-0.69918 -0.25784,0.24139 -0.25192,-0.73736 -0.22758,0.14602 -0.20193,-1.0636 -0.18746,0.10787 c -0.0927,-0.49466 -0.046,-0.98926 0.30783,-1.4859 l -0.15063,-0.0441 c 0.71764,-0.56238 1.4964,-1.0031 2.3857,-1.1774 0.90638,-0.002 1.7562,0.27823 2.5699,0.68932 l -0.13879,0.073 c 0.44333,0.41768 0.58543,0.8939 0.59066,1.3971 l -0.20456,-0.0691 0.009,1.0827 -0.25126,-0.0993 -0.10327,0.77289 -0.3006,-0.18681 -0.17628,0.74788 -0.21574,-0.17628 -0.18615,0.73801 -0.22233,-0.0848 -0.13747,0.62884 -0.18022,-0.11511 -0.43544,0.87678 z"
       style="fill:#225500;fill-rule:evenodd;stroke:#ffffff;stroke-width:0.30000001;stroke-miterlimit:4;stroke-dasharray:none"
       inkscape:connector-curvature="0" />
    <path
       id="path207"
       stroke-miterlimit="4"
       d="m 82.045437,178.65702 -0.77684,-6.1917 0.33217,-0.0329 0.44465,6.2242 z"
       style="fill:#ffffff;fill-rule:evenodd;stroke:#ffffff;stroke-width:0.1;stroke-miterlimit:4;stroke-dasharray:none"
       inkscape:connector-curvature="0" />
    <path
       id="path209"
       stroke-miterlimit="4"
       d="m 73.331437,172.44702 0.7538,-0.6242 -0.15326,-0.14931 0.58079,-0.27758 -0.13353,-0.19667 0.67684,-0.34993 -0.22101,-0.1697 0.68735,-0.3427 -0.24995,-0.24929 0.72814,-0.27692 -0.15326,-0.22298 1.0557,-0.23745 -0.1138,-0.18417 c 0.49069,-0.1092 0.98729,-0.0796 1.4951,0.25652 l 0.0395,-0.15128 c 0.58607,0.6979 1.0531,1.4616 1.2576,2.3443 0.0335,0.90509 -0.21772,1.7641 -0.60121,2.5909 l -0.0776,-0.13616 c -0.40255,0.4578 -0.87353,0.61631 -1.376,0.6387 l 0.0618,-0.20719 -1.0814,0.0467 0.0901,-0.25521 -0.7755,-0.077 0.17628,-0.30652 -0.7538,-0.15063 0.16905,-0.22101 -0.74393,-0.16115 0.077,-0.22495 -0.63278,-0.11643 0.10853,-0.18351 -0.8906,-0.40519 z"
       style="fill:#225500;fill-rule:evenodd;stroke:#ffffff;stroke-width:0.30000001;stroke-miterlimit:4;stroke-dasharray:none"
       inkscape:connector-curvature="0" />
    <path
       id="path211"
       stroke-miterlimit="4"
       d="m 73.397437,172.43702 6.1621,-0.98798 0.0441,0.33086 -6.206,0.6571 z"
       style="fill:#ffffff;fill-rule:evenodd;stroke:#ffffff;stroke-width:0.1;stroke-miterlimit:4;stroke-dasharray:none"
       inkscape:connector-curvature="0" />
    <path
       id="path213"
       stroke-miterlimit="4"
       d="m 75.574437,166.97702 0.95704,0.20588 0.0224,-0.21246 0.57684,0.28482 0.0724,-0.22693 0.69396,0.31507 -0.004,-0.27824 0.6946,0.32823 0.0414,-0.35125 0.6683,0.40124 0.0796,-0.2585 0.84062,0.68275 0.0737,-0.20324 c 0.39006,0.3177 0.67353,0.72617 0.72356,1.3333 l 0.14339,-0.0631 c -0.18614,0.89257 -0.49663,1.7319 -1.0636,2.439 -0.69129,0.58607 -1.5214,0.91955 -2.4081,1.13 l 0.0585,-0.14536 c -0.60841,-0.0329 -1.0241,-0.3052 -1.353,-0.68606 l 0.20128,-0.0789 -0.70511,-0.82153 0.25587,-0.0868 -0.41966,-0.65646 0.34993,-0.0513 -0.3473,-0.68537 0.27823,-0.004 -0.33349,-0.68473 0.2243,-0.0783 -0.3006,-0.56894 0.2118,-0.0283 -0.23285,-0.95049 z"
       style="fill:#225500;fill-rule:evenodd;stroke:#ffffff;stroke-width:0.30000001;stroke-miterlimit:4;stroke-dasharray:none"
       inkscape:connector-curvature="0" />
    <path
       id="path215"
       stroke-miterlimit="4"
       d="m 75.622437,167.02702 4.5885,4.2301 -0.23285,0.23942 -4.3557,-4.4695 z"
       style="fill:#ffffff;fill-rule:evenodd;stroke:#ffffff;stroke-width:0.1;stroke-miterlimit:4;stroke-dasharray:none"
       inkscape:connector-curvature="0" />
    <path
       id="path217"
       stroke-miterlimit="4"
       d="m 84.622437,164.84702 -0.10919,0.97219 0.21443,0.001 -0.22561,0.60249 0.23285,0.0493 -0.24338,0.72158 0.27626,-0.0316 -0.25653,0.72419 0.35322,0.006 -0.33151,0.70511 0.26508,0.0533 -0.5946,0.9051 0.20983,0.0526 c -0.27758,0.41966 -0.65513,0.74329 -1.2544,0.8538 l 0.077,0.13616 c -0.90638,-0.0947 -1.7727,-0.31968 -2.5331,-0.81236 -0.65252,-0.62884 -1.0682,-1.4208 -1.3668,-2.2824 l 0.15063,0.044 c -0.0283,-0.60911 0.20062,-1.0498 0.5466,-1.4148 l 0.0987,0.19206 0.7459,-0.78472 0.11248,0.246 0.61108,-0.48346 0.0862,0.3427 0.64724,-0.41439 0.0316,0.27691 0.64788,-0.40123 0.10064,0.21574 0.53609,-0.3565 0.0493,0.20785 0.92217,-0.32691 z"
       style="fill:#225500;fill-rule:evenodd;stroke:#ffffff;stroke-width:0.30000001;stroke-miterlimit:4;stroke-dasharray:none"
       inkscape:connector-curvature="0" />
    <path
       id="path219"
       stroke-miterlimit="4"
       d="m 84.577437,164.90702 -3.7466,4.99 -0.26179,-0.20719 4.0084,-4.7826 z"
       style="fill:#ffffff;fill-rule:evenodd;stroke:#ffffff;stroke-width:0.1;stroke-miterlimit:4;stroke-dasharray:none"
       inkscape:connector-curvature="0" />
    <path
       id="path221"
       stroke-miterlimit="4"
       d="m 79.866437,163.12702 0.64527,0.73539 0.14471,-0.1572 0.29402,0.57289 0.19338,-0.13945 0.36966,0.66634 0.16247,-0.22628 0.36243,0.67748 0.24272,-0.25718 0.29797,0.72025 0.21772,-0.15984 0.26837,1.0485 0.18022,-0.11905 c 0.12366,0.4874 0.10853,0.98403 -0.21312,1.5017 l 0.1526,0.0349 c -0.68078,0.60644 -1.43,1.0952 -2.3068,1.3254 -0.90377,0.0592 -1.77,-0.16707 -2.6074,-0.52623 l 0.13353,-0.0816 c -0.46899,-0.3894 -0.64068,-0.85577 -0.67817,-1.357 l 0.20917,0.0559 -0.0776,-1.0794 0.25718,0.0822 0.0546,-0.77684 0.31112,0.16707 0.12892,-0.75774 0.22627,0.16247 0.13945,-0.74852 0.22758,0.071 0.0974,-0.63673 0.18681,0.10392 0.37953,-0.90243 z"
       style="fill:#225500;fill-rule:evenodd;stroke:#ffffff;stroke-width:0.30000001;stroke-miterlimit:4;stroke-dasharray:none"
       inkscape:connector-curvature="0" />
    <path
       id="path223"
       stroke-miterlimit="4"
       d="m 79.876437,163.19702 1.1662,6.1305 -0.3302,0.0539 -0.83603,-6.1843 z"
       style="fill:#ffffff;fill-rule:evenodd;stroke:#ffffff;stroke-width:0.1;stroke-miterlimit:4;stroke-dasharray:none"
       inkscape:connector-curvature="0" />
    <path
       id="path225"
       stroke-miterlimit="4"
       d="m 75.973437,176.08702 0.11577,-0.9715 -0.21377,-0.002 0.22956,-0.60121 -0.23219,-0.0507 0.24798,-0.72025 -0.27626,0.0302 0.26179,-0.72222 -0.35322,-0.009 0.33678,-0.70313 -0.26508,-0.0553 0.60121,-0.90046 -0.20917,-0.0539 c 0.28021,-0.41834 0.66041,-0.73865 1.2603,-0.84521 l -0.0763,-0.13681 c 0.90574,0.10129 1.7707,0.33283 2.5271,0.83075 0.64857,0.63343 1.0583,1.4287 1.3511,2.2923 l -0.15063,-0.0454 c 0.0243,0.60911 -0.20785,1.0485 -0.55647,1.4109 l -0.098,-0.19272 -0.75118,0.77945 -0.1105,-0.24666 -0.61502,0.47885 -0.0835,-0.34335 -0.64985,0.40978 -0.0303,-0.27692 -0.64985,0.39663 -0.0993,-0.2164 -0.53871,0.35256 -0.048,-0.20851 -0.92414,0.32033 z"
       style="fill:#225500;fill-rule:evenodd;stroke:#ffffff;stroke-width:0.30000001;stroke-miterlimit:4;stroke-dasharray:none"
       inkscape:connector-curvature="0" />
    <path
       id="path227"
       stroke-miterlimit="4"
       d="m 76.015437,176.03702 3.7828,-4.9633 0.25982,0.20982 -4.0426,4.7537 z"
       style="fill:#ffffff;fill-rule:evenodd;stroke:#ffffff;stroke-width:0.1;stroke-miterlimit:4;stroke-dasharray:none"
       inkscape:connector-curvature="0" />
    <path
       id="path229"
       stroke-miterlimit="4"
       d="m 83.813437,172.91702 -0.97742,0.0381 0.0309,0.21179 -0.63012,-0.13155 -0.0132,0.23746 -0.75049,-0.13221 0.0737,0.26836 -0.75513,-0.1447 0.0474,0.35058 -0.74724,-0.22166 -0.0125,0.26968 -0.98403,-0.45123 -0.0211,0.21509 c -0.45649,-0.21048 -0.83273,-0.5354 -1.0327,-1.111 l -0.123,0.0967 c -0.0428,-0.91033 0.0493,-1.801 0.42163,-2.6264 0.52292,-0.73998 1.2438,-1.2702 2.0502,-1.6951 l -0.0204,0.15524 c 0.59727,-0.11972 1.0682,0.0401 1.4806,0.3269 l -0.17431,0.12696 0.88734,0.61961 -0.22627,0.148 0.57028,0.53145 -0.32625,0.13682 0.50778,0.57684 -0.26902,0.073 0.49396,0.58015 -0.19798,0.13155 0.43347,0.47622 -0.19865,0.0802 0.46241,0.86297 z"
       style="fill:#225500;fill-rule:evenodd;stroke:#ffffff;stroke-width:0.30000001;stroke-miterlimit:4;stroke-dasharray:none"
       inkscape:connector-curvature="0" />
    <path
       id="path231"
       stroke-miterlimit="4"
       d="m 83.754437,172.88702 -5.4981,-2.952 0.16576,-0.29008 5.3323,3.2421 z"
       style="fill:#ffffff;fill-rule:evenodd;stroke:#ffffff;stroke-width:0.1;stroke-miterlimit:4;stroke-dasharray:none"
       inkscape:connector-curvature="0" />
    <path
       id="path233"
       stroke-miterlimit="4"
       d="m 87.532437,113.55702 v 4.8227 l -2.7074,4.6293 1.8292,-0.0414 -1.9851,3.2855 2.0397,-0.25258 -1.211,3.7492 2.7034,-1.1129 h 14.468003 l 2.7034,1.1129 -1.211,-3.7492 2.0404,0.25258 -1.9858,-3.2855 1.8292,0.0414 -2.7067,-4.6293 v -4.9505 l -15.807003,0.1276 z"
       style="fill:#d40000;fill-rule:evenodd;stroke:#ffffff;stroke-width:0.5;stroke-miterlimit:4;stroke-dasharray:none"
       inkscape:connector-curvature="0" />
    <path
       id="path235"
       stroke-miterlimit="4"
       d="m 95.435437,121.03702 h -5.9278 l -1.797,3.2099 0.89129,-0.0112 -1.724,3.2704 1.259,-0.29862 -0.20917,3.667 1.524,-0.93273 0.40387,2.2496 1.6023,-0.96494 0.97614,2.2259 1.6286,-1.138 1.3728,1.6819 1.3728,-1.6819 1.6286,1.138 0.97614,-2.2259 1.601703,0.96494 0.40386,-2.2496 1.5247,0.93273 -0.20917,-3.667 1.259,0.29862 -1.724,-3.2704 0.89129,0.0112 -1.797,-3.2099 h -5.927803 z"
       style="fill:#d40000;fill-rule:evenodd;stroke:#ffffff;stroke-width:0.5;stroke-miterlimit:4;stroke-dasharray:none"
       inkscape:connector-curvature="0" />
    <path
       id="path237"
       stroke-miterlimit="4"
       d="m 101.95744,116.63702 c -0.25389,3.7538 -0.91891,6.6051 -2.227803,8.0436 l -8.5897,-6.4e-4 c -1.3096,-1.4385 -1.9753,-4.2899 -2.2298,-8.0431 l 6.5651,-4.1512 6.482303,4.1512 z"
       style="fill:#d40000;fill-rule:evenodd;stroke:#ffffff;stroke-width:0.5;stroke-miterlimit:4;stroke-dasharray:none"
       inkscape:connector-curvature="0" />
    <path
       id="path239"
       stroke-miterlimit="4"
       d="m 91.277437,125.57702 c -0.22496,1.3826 0.38414,2.7744 2.7422,3.0895 0.88931,-0.62618 1.8306,-0.62687 2.8244,0 2.3587,-0.31507 2.9678,-1.7069 2.7429,-3.0895"
       style="fill:none;stroke:#ffffff;stroke-width:0.5;stroke-miterlimit:4;stroke-dasharray:none"
       inkscape:connector-curvature="0" />
    <path
       id="path241"
       stroke-miterlimit="4"
       d="m 95.435437,119.17702 v 3.0931"
       style="fill:none;stroke:#ffffff;stroke-width:0.75;stroke-linecap:round;stroke-miterlimit:4;stroke-dasharray:none"
       inkscape:connector-curvature="0" />
    <path
       id="path243"
       stroke-miterlimit="4"
       d="m 90.477437,118.61702 c 1.699,-1.2991 2.7758,0.15589 4.1636,0"
       style="fill:none;stroke:#ffffff;stroke-width:0.64999998;stroke-miterlimit:4;stroke-dasharray:none"
       inkscape:connector-curvature="0" />
    <path
       id="path245"
       stroke-miterlimit="4"
       d="m 91.158437,119.34702 c 0.90707,-0.58409 1.6227,-0.1184 2.612,0"
       style="fill:none;stroke:#ffffff;stroke-width:0.5;stroke-miterlimit:4;stroke-dasharray:none"
       inkscape:connector-curvature="0" />
    <path
       id="path247"
       stroke-miterlimit="4"
       d="m 100.38844,118.61702 c -1.699603,-1.2991 -2.775803,0.15589 -4.164303,0"
       style="fill:none;stroke:#ffffff;stroke-width:0.64999998;stroke-miterlimit:4;stroke-dasharray:none"
       inkscape:connector-curvature="0" />
    <path
       id="path249"
       stroke-miterlimit="4"
       d="m 99.712437,119.34702 c -0.90707,-0.58409 -1.6227,-0.1184 -2.612,0"
       style="fill:none;stroke:#ffffff;stroke-width:0.5;stroke-miterlimit:4;stroke-dasharray:none"
       inkscape:connector-curvature="0" />
    <path
       id="path251"
       stroke-miterlimit="4"
       d="m 91.686437,119.10702 v 0.34841 c 0,0.40321 0.32757,0.73076 0.73076,0.73076 0.40255,0 0.73012,-0.32757 0.73012,-0.73076 v -0.22237"
       style="fill:none;stroke:#ffffff;stroke-width:0.5;stroke-miterlimit:4;stroke-dasharray:none"
       inkscape:connector-curvature="0" />
    <path
       id="path253"
       stroke-miterlimit="4"
       d="m 97.719437,119.20702 v 0.25037 c 0,0.40321 0.3269,0.73076 0.73012,0.73076 0.40321,0 0.73012,-0.32756 0.73012,-0.73076 v -0.3204"
       style="fill:none;stroke:#ffffff;stroke-width:0.5;stroke-miterlimit:4;stroke-dasharray:none"
       inkscape:connector-curvature="0" />
    <path
       id="path255"
       stroke-miterlimit="4"
       d="m 99.417437,124.27702 c 0.22825,0.33743 0.49135,0.65844 0.876783,0.84393 -0.999823,1.032 -3.392703,1.2248 -4.858203,0.43347 -1.4655,0.79129 -3.8584,0.59854 -4.8589,-0.43347 0.40584,-0.19536 0.6762,-0.54068 0.91363,-0.89721 1.1287,-1.6957 1.655,-0.38742 3.1401,-0.84457 0.56372,0.38151 1.0465,0.38151 1.6102,0 1.5425,0.47425 1.9976,-0.83998 3.1764,0.89785 z"
       style="fill:#d40000;fill-rule:evenodd;stroke:#ffffff;stroke-width:0.5;stroke-miterlimit:4;stroke-dasharray:none"
       inkscape:connector-curvature="0" />
    <path
       id="path257"
       stroke-miterlimit="4"
       d="m 107.52744,114.96702 -0.68473,0.28612 0.0783,0.14208 -0.4828,0.0724 0.0533,0.17299 -0.56831,0.10458 0.123,0.17168 -0.57487,0.096 0.12629,0.23679 -0.59001,0.0401 0.0625,0.19536 -0.81892,-0.0612 0.0421,0.15852 c -0.38084,-0.0289 -0.73406,-0.15984 -1.0281,-0.51636 l -0.0625,0.10129 c -0.271,-0.63604 -0.4407,-1.2938 -0.39466,-1.9792 0.17628,-0.66436 0.54858,-1.232 1.0097,-1.7477 l 0.0263,0.11577 c 0.39334,-0.24271 0.77022,-0.2539 1.1399,-0.15918 l -0.0908,0.13682 0.7946,0.20587 -0.12168,0.16444 0.54596,0.22759 -0.19536,0.18351 0.51306,0.27626 -0.17168,0.123 0.50452,0.28153 -0.1059,0.14602 0.43412,0.2243 -0.11971,0.10919 0.55647,0.49135 z"
       style="fill:#225500;fill-rule:evenodd;stroke:#ffffff;stroke-width:0.30000001;stroke-miterlimit:4;stroke-dasharray:none"
       inkscape:connector-curvature="0" />
    <path
       id="path259"
       stroke-miterlimit="4"
       d="m 107.47744,114.95702 -4.6899,-0.64527 0.0414,-0.24995 4.6484,0.89524 z"
       style="fill:#ffffff;fill-rule:evenodd;stroke:#ffffff;stroke-width:0.1;stroke-miterlimit:4;stroke-dasharray:none"
       inkscape:connector-curvature="0" />
    <path
       id="path261"
       stroke-miterlimit="4"
       d="m 105.39644,111.44702 -0.36506,0.6466 0.14931,0.0645 -0.33678,0.35387 0.148,0.10327 -0.38414,0.43149 0.20259,0.0599 -0.39466,0.42886 0.24469,0.10919 -0.4407,0.394 0.16904,0.11577 -0.68409,0.45517 0.13089,0.0993 c -0.31836,0.21049 -0.67748,0.32362 -1.1287,0.22298 l 0.0132,0.1184 c -0.60447,-0.33612 -1.1425,-0.75049 -1.5267,-1.3201 -0.26902,-0.63279 -0.32362,-1.3089 -0.27626,-1.9989 l 0.0921,0.075 c 0.16115,-0.43281 0.45188,-0.67289 0.8018,-0.82483 l 0.0118,0.16312 0.7538,-0.32559 0.005,0.20457 0.57028,-0.15524 -0.0414,0.26442 0.57487,-0.0967 -0.0598,0.20259 0.57092,-0.0875 0.006,0.18023 0.48017,-0.0895 -0.027,0.15984 0.74062,0.0454 z"
       style="fill:#225500;fill-rule:evenodd;stroke:#ffffff;stroke-width:0.30000001;stroke-miterlimit:4;stroke-dasharray:none"
       inkscape:connector-curvature="0" />
    <path
       id="path263"
       stroke-miterlimit="4"
       d="m 105.35144,111.46702 -4.0979,2.3699 -0.12103,-0.22232 4.2189,-2.1476 z"
       style="fill:#ffffff;fill-rule:evenodd;stroke:#ffffff;stroke-width:0.1;stroke-miterlimit:4;stroke-dasharray:none"
       inkscape:connector-curvature="0" />
    <path
       id="path265"
       stroke-miterlimit="4"
       d="m 105.73144,118.73702 -0.72553,-0.15655 -0.0171,0.16116 -0.43807,-0.21641 -0.0546,0.17168 -0.52623,-0.23877 0.002,0.21114 -0.52687,-0.24929 -0.0316,0.26639 -0.50649,-0.30454 -0.0612,0.19601 -0.63673,-0.51833 -0.0559,0.15392 c -0.29599,-0.24075 -0.51044,-0.55055 -0.54857,-1.0117 l -0.10853,0.048 c 0.14076,-0.67748 0.37755,-1.3136 0.80772,-1.8496 0.52425,-0.44465 1.1544,-0.69721 1.8273,-0.85641 l -0.0448,0.10985 c 0.46175,0.0257 0.77684,0.23219 1.0261,0.52095 l -0.1526,0.0605 0.53476,0.62292 -0.19404,0.0658 0.3177,0.4986 -0.26508,0.0388 0.2631,0.51962 -0.21114,0.003 0.25258,0.51898 -0.17036,0.0599 0.22824,0.4315 -0.16115,0.0217 0.17628,0.72089 z"
       style="fill:#225500;fill-rule:evenodd;stroke:#ffffff;stroke-width:0.30000001;stroke-miterlimit:4;stroke-dasharray:none"
       inkscape:connector-curvature="0" />
    <path
       id="path267"
       stroke-miterlimit="4"
       d="m 105.69744,118.69702 -3.4783,-3.2105 0.17628,-0.18155 3.302,3.3921 z"
       style="fill:#ffffff;fill-rule:evenodd;stroke:#ffffff;stroke-width:0.1;stroke-miterlimit:4;stroke-dasharray:none"
       inkscape:connector-curvature="0" />
    <path
       id="path269"
       stroke-miterlimit="4"
       d="m 103.33344,116.09702 -0.73076,0.13089 0.0454,0.15589 -0.4874,-0.0335 0.0151,0.17957 -0.57753,-0.0204 0.0829,0.19404 -0.58212,-0.0296 0.0724,0.25784 -0.58474,-0.0888 0.0184,0.20457 -0.786703,-0.2368 0.007,0.16379 c -0.36506,-0.11051 -0.68212,-0.31507 -0.89193,-0.72681 l -0.0829,0.0855 c -0.12695,-0.67945 -0.15063,-1.3576 0.0428,-2.0173 0.31573,-0.61039 0.8018,-1.0847 1.363503,-1.4879 l 5e-4,0.11905 c 0.43675,-0.1526 0.80708,-0.0816 1.1471,0.0908 l -0.1184,0.1138 0.73209,0.37295 -0.15457,0.13484 0.48346,0.3394 -0.23022,0.13682 0.44136,0.38084 -0.19404,0.0829 0.43149,0.38414 -0.13484,0.11971 0.37492,0.31244 -0.1401,0.0816 0.43742,0.59988 z"
       style="fill:#225500;fill-rule:evenodd;stroke:#ffffff;stroke-width:0.30000001;stroke-miterlimit:4;stroke-dasharray:none"
       inkscape:connector-curvature="0" />
    <path
       id="path271"
       stroke-miterlimit="4"
       d="m 103.28444,116.07702 -4.439303,-1.6438 0.0941,-0.23548 4.345203,1.8792 z"
       style="fill:#ffffff;fill-rule:evenodd;stroke:#ffffff;stroke-width:0.1;stroke-miterlimit:4;stroke-dasharray:none"
       inkscape:connector-curvature="0" />
    <path
       id="path273"
       stroke-miterlimit="4"
       d="m 101.94744,110.67702 -0.36506,0.64591 0.14865,0.0645 -0.33612,0.35388 0.148,0.10327 -0.38414,0.43149 0.20194,0.0599 -0.394,0.42952 0.24469,0.10918 -0.44136,0.39334 0.1697,0.11643 -0.68409,0.45451 0.13089,0.0993 c -0.31836,0.21049 -0.678173,0.32428 -1.129403,0.22364 l 0.0132,0.11774 c -0.60447,-0.33546 -1.1419,-0.74985 -1.5267,-1.3195 -0.26837,-0.63278 -0.32362,-1.3096 -0.2756,-1.9996 l 0.0914,0.0756 c 0.16115,-0.43347 0.45254,-0.67354 0.8018,-0.82548 l 0.0125,0.16378 0.7538,-0.32624 0.005,0.20522 0.57028,-0.15589 -0.0414,0.26507 0.574233,-0.0973 -0.0599,0.20259 0.57092,-0.0875 0.007,0.18022 0.48017,-0.0894 -0.0276,0.15984 0.74132,0.046 z"
       style="fill:#225500;fill-rule:evenodd;stroke:#ffffff;stroke-width:0.30000001;stroke-miterlimit:4;stroke-dasharray:none"
       inkscape:connector-curvature="0" />
    <path
       id="path275"
       stroke-miterlimit="4"
       d="m 101.90344,110.69702 -4.098503,2.3706 -0.12103,-0.22299 4.219503,-2.1476 z"
       style="fill:#ffffff;fill-rule:evenodd;stroke:#ffffff;stroke-width:0.1;stroke-miterlimit:4;stroke-dasharray:none"
       inkscape:connector-curvature="0" />
    <path
       id="path277"
       stroke-miterlimit="4"
       d="m 97.966437,109.72702 -0.18154,0.71961 0.16115,0.023 -0.23088,0.43018 0.1697,0.0605 -0.25653,0.51764 0.21114,0.004 -0.26639,0.51833 0.26442,0.0408 -0.32099,0.49594 0.19404,0.0671 -0.53935,0.61962 0.15194,0.0612 c -0.25061,0.28744 -0.56767,0.492 -1.0294,0.51439 l 0.044,0.10984 c -0.67225,-0.16378 -1.3004,-0.42096 -1.8213,-0.86888 -0.42689,-0.53871 -0.65844,-1.1767 -0.79524,-1.8549 l 0.10853,0.048 c 0.0408,-0.46044 0.25784,-0.76825 0.55514,-1.0077 l 0.0553,0.15457 0.64068,-0.5137 0.0592,0.19601 0.50911,-0.30059 0.0296,0.26639 0.5282,-0.246 -0.004,0.21114 0.52751,-0.23482 0.0539,0.17167 0.43939,-0.21311 0.0158,0.16181 0.72681,-0.15194 z"
       style="fill:#225500;fill-rule:evenodd;stroke:#ffffff;stroke-width:0.30000001;stroke-miterlimit:4;stroke-dasharray:none"
       inkscape:connector-curvature="0" />
    <path
       id="path279"
       stroke-miterlimit="4"
       d="m 97.927437,109.75702 -3.3256,3.3697 -0.17562,-0.18286 3.5013,-3.1869 z"
       style="fill:#ffffff;fill-rule:evenodd;stroke:#ffffff;stroke-width:0.1;stroke-miterlimit:4;stroke-dasharray:none"
       inkscape:connector-curvature="0" />
    <path
       id="path281"
       stroke-miterlimit="4"
       d="m 99.821437,114.65702 -0.62618,0.39795 0.1013,0.12695 -0.46372,0.15392 0.0816,0.16049 -0.54201,0.1993 0.15063,0.14865 -0.55055,0.19273 0.16444,0.2118 -0.57423,0.13945 0.0947,0.18154 -0.81758,0.0796 0.0684,0.14865 c -0.37953,0.0362 -0.75049,-0.0335 -1.1011,-0.3348 l -0.044,0.1105 c -0.37492,-0.58079 -0.6538,-1.1998 -0.72484,-1.8838 0.0612,-0.68409 0.33151,-1.307 0.69854,-1.893 l 0.0454,0.10985 c 0.34664,-0.30652 0.7163,-0.38084 1.0965,-0.35059 l -0.0664,0.14997 0.81827,0.0677 -0.0914,0.18351 0.5762,0.13156 -0.16181,0.21377 0.55316,0.18483 -0.14865,0.15063 0.54527,0.19207 -0.0796,0.16181 0.4657,0.14734 -0.0993,0.12826 0.63145,0.38939 z"
       style="fill:#225500;fill-rule:evenodd;stroke:#ffffff;stroke-width:0.30000001;stroke-miterlimit:4;stroke-dasharray:none"
       inkscape:connector-curvature="0" />
    <path
       id="path283"
       stroke-miterlimit="4"
       d="m 99.772437,114.65702 -4.7313,0.15984 -0.002,-0.25324 z"
       style="fill:#ffffff;fill-rule:evenodd;stroke:#ffffff;stroke-width:0.1;stroke-miterlimit:4;stroke-dasharray:none"
       inkscape:connector-curvature="0" />
    <path
       id="path285"
       stroke-miterlimit="4"
       d="m 94.217437,109.55702 -0.0599,0.73999 0.16181,-0.004 -0.15655,0.4624 0.1776,0.0316 -0.16773,0.55252 0.20917,-0.0303 -0.17825,0.55514 0.26837,-0.004 -0.23482,0.54266 0.20193,0.0342 -0.42952,0.69988 0.15984,0.0355 c -0.19996,0.32427 -0.47885,0.57817 -0.93075,0.67619 l 0.0618,0.10196 c -0.69001,-0.0506 -1.3517,-0.20128 -1.9397,-0.55711 -0.50975,-0.4611 -0.84324,-1.0524 -1.0899,-1.699 l 0.11511,0.0302 c -0.0355,-0.46109 0.12761,-0.80115 0.38151,-1.086 l 0.0796,0.14339 0.54724,-0.61236 0.0908,0.18417 0.45254,-0.38084 0.073,0.25784 0.48082,-0.32953 0.0309,0.20916 0.48148,-0.31901 0.0809,0.16115 0.3986,-0.28284 0.0421,0.15655 0.69198,-0.26968 z"
       style="fill:#225500;fill-rule:evenodd;stroke:#ffffff;stroke-width:0.30000001;stroke-miterlimit:4;stroke-dasharray:none"
       inkscape:connector-curvature="0" />
    <path
       id="path287"
       stroke-miterlimit="4"
       d="m 94.187437,109.59702 -2.7245,3.8716 -0.20325,-0.15128 2.9277,-3.7203 z"
       style="fill:#ffffff;fill-rule:evenodd;stroke:#ffffff;stroke-width:0.1;stroke-miterlimit:4;stroke-dasharray:none"
       inkscape:connector-curvature="0" />
    <path
       id="path289"
       stroke-miterlimit="4"
       d="m 96.200437,113.94702 -0.52228,0.52687 0.12695,0.1013 -0.41768,0.25323 0.11511,0.13879 -0.48411,0.31441 0.17957,0.11116 -0.49396,0.31046 0.20786,0.1697 -0.52948,0.26377 0.13287,0.15655 -0.77945,0.2585 0.1,0.13023 c -0.36242,0.11972 -0.73934,0.13419 -1.1478,-0.0816 l -0.0184,0.11708 c -0.4953,-0.4828 -0.90441,-1.0241 -1.1254,-1.6753 -0.0927,-0.68079 0.0322,-1.3478 0.25982,-2.0009 l 0.0691,0.0967 c 0.26968,-0.37558 0.61305,-0.53017 0.99059,-0.58473 l -0.0309,0.16049 0.813,-0.11577 -0.0493,0.19931 h 0.59135 l -0.10985,0.24468 0.58015,0.0572 -0.11116,0.17957 0.57423,0.0658 -0.0414,0.17563 0.48609,0.0401 -0.0684,0.14734 0.70313,0.23942 z"
       style="fill:#225500;fill-rule:evenodd;stroke:#ffffff;stroke-width:0.30000001;stroke-miterlimit:4;stroke-dasharray:none"
       inkscape:connector-curvature="0" />
    <path
       id="path291"
       stroke-miterlimit="4"
       d="m 96.151437,113.95702 -4.5774,1.2076 -0.0579,-0.24666 4.6353,-0.96099 z"
       style="fill:#ffffff;fill-rule:evenodd;stroke:#ffffff;stroke-width:0.1;stroke-miterlimit:4;stroke-dasharray:none"
       inkscape:connector-curvature="0" />
    <path
       id="path293"
       stroke-miterlimit="4"
       d="m 84.252437,113.63702 0.72089,-0.17825 -0.0559,-0.15194 0.48872,0.002 -0.0263,-0.17891 0.57753,-0.0165 -0.0954,-0.18811 0.58276,-0.008 -0.0888,-0.25258 0.58937,0.0507 -0.0316,-0.20259 0.79982,0.18549 -0.0171,-0.16313 c 0.37098,0.0868 0.70052,0.27034 0.93667,0.66761 l 0.077,-0.0901 c 0.17036,0.67028 0.23811,1.3451 0.0868,2.0161 -0.2756,0.62948 -0.73012,1.134 -1.2649,1.5721 l -0.008,-0.1184 c -0.42623,0.18023 -0.80051,0.13287 -1.1511,-0.0171 l 0.1105,-0.12103 -0.7538,-0.32493 0.14536,-0.14405 -0.50452,-0.30849 0.22101,-0.15129 -0.46504,-0.35125 0.18878,-0.0954 -0.45517,-0.35585 0.12695,-0.12826 -0.39466,-0.28745 0.13484,-0.0901 -0.47491,-0.57028 z"
       style="fill:#225500;fill-rule:evenodd;stroke:#ffffff;stroke-width:0.30000001;stroke-miterlimit:4;stroke-dasharray:none"
       inkscape:connector-curvature="0" />
    <path
       id="path295"
       stroke-miterlimit="4"
       d="m 84.301437,113.64702 4.5353,1.3556 -0.0789,0.24074 -4.4563,-1.5964 z"
       style="fill:#ffffff;fill-rule:evenodd;stroke:#ffffff;stroke-width:0.1;stroke-miterlimit:4;stroke-dasharray:none"
       inkscape:connector-curvature="0" />
    <path
       id="path297"
       stroke-miterlimit="4"
       d="m 84.947437,119.01702 0.24534,-0.70052 -0.15786,-0.0368 0.26902,-0.40781 -0.16378,-0.0756 0.30257,-0.49267 -0.20982,-0.023 0.31244,-0.49201 -0.26048,-0.0645 0.36506,-0.46504 -0.18681,-0.0842 0.59263,-0.56831 -0.14602,-0.075 c 0.27626,-0.2631 0.61039,-0.43807 1.0721,-0.41834 l -0.0335,-0.11379 c 0.6538,0.22363 1.2563,0.53673 1.7352,1.03 0.37558,0.57556 0.54922,1.232 0.62356,1.9194 l -0.0937,-0.0567 c -0.0822,0.45518 -0.32625,0.7426 -0.64393,0.95374 l -0.0408,-0.15918 -0.68473,0.45386 -0.0408,-0.20062 -0.53412,0.25324 -0.006,-0.26771 -0.54858,0.19667 0.0237,-0.20983 -0.54724,0.18681 -0.0375,-0.17694 -0.45715,0.17299 -10e-4,-0.16246 -0.73737,0.0855 z"
       style="fill:#225500;fill-rule:evenodd;stroke:#ffffff;stroke-width:0.30000001;stroke-miterlimit:4;stroke-dasharray:none"
       inkscape:connector-curvature="0" />
    <path
       id="path299"
       stroke-miterlimit="4"
       d="m 84.987437,118.98702 3.617,-3.0546 0.15786,0.19798 -3.7749,2.8567 z"
       style="fill:#ffffff;fill-rule:evenodd;stroke:#ffffff;stroke-width:0.1;stroke-miterlimit:4;stroke-dasharray:none"
       inkscape:connector-curvature="0" />
    <path
       id="path301"
       stroke-miterlimit="4"
       d="m 90.394437,109.76702 0.14997,0.7275 0.15457,-0.05 -0.0204,0.48806 0.17891,-0.0191 -0.006,0.57753 0.19207,-0.0881 -0.0145,0.58276 0.25587,-0.0789 -0.073,0.58671 0.20325,-0.0237 -0.21574,0.79193 0.16378,-0.0112 c -0.10129,0.36835 -0.29731,0.69001 -0.70382,0.91102 l 0.0881,0.0803 c -0.67684,0.14471 -1.3543,0.18615 -2.0187,0.01 -0.61828,-0.29994 -1.1044,-0.77353 -1.5227,-1.3247 l 0.11906,-0.004 c -0.16378,-0.43215 -0.10196,-0.80446 0.0612,-1.1491 l 0.11708,0.11576 0.35322,-0.74131 0.13879,0.15062 0.32757,-0.492 0.14274,0.22693 0.36901,-0.45123 0.0881,0.19207 0.3723,-0.44137 0.12366,0.13156 0.30257,-0.38348 0.0848,0.13879 0.58804,-0.4532 z"
       style="fill:#225500;fill-rule:evenodd;stroke:#ffffff;stroke-width:0.30000001;stroke-miterlimit:4;stroke-dasharray:none"
       inkscape:connector-curvature="0" />
    <path
       id="path303"
       stroke-miterlimit="4"
       d="m 90.374437,109.81702 -1.5287,4.4807 -0.23745,-0.0888 1.7661,-4.3919 z"
       style="fill:#ffffff;fill-rule:evenodd;stroke:#ffffff;stroke-width:0.1;stroke-miterlimit:4;stroke-dasharray:none"
       inkscape:connector-curvature="0" />
    <path
       id="path305"
       stroke-miterlimit="4"
       d="m 92.120437,113.44702 -0.24864,0.69919 0.1572,0.0375 -0.271,0.4065 0.16378,0.0763 -0.3052,0.4907 0.20983,0.0243 -0.31507,0.49069 0.25982,0.0658 -0.36703,0.46307 0.18614,0.0855 -0.59593,0.56501 0.14537,0.0756 c -0.27692,0.26179 -0.61236,0.43478 -1.0741,0.41242 l 0.0336,0.11445 c -0.65316,-0.22759 -1.2537,-0.54399 -1.7299,-1.0399 -0.37295,-0.57684 -0.54266,-1.2346 -0.61369,-1.9226 l 0.10327,0.0592 c 0.0849,-0.45451 0.33086,-0.74062 0.64921,-0.95048 l 0.0401,0.15918 0.6867,-0.44991 0.0401,0.20062 0.5354,-0.25061 0.004,0.26837 0.54922,-0.19404 -0.0243,0.20983 0.54793,-0.18418 0.0369,0.17694 0.4578,-0.17036 5e-4,0.16247 0.73737,-0.0816 z"
       style="fill:#225500;fill-rule:evenodd;stroke:#ffffff;stroke-width:0.30000001;stroke-miterlimit:4;stroke-dasharray:none"
       inkscape:connector-curvature="0" />
    <path
       id="path307"
       stroke-miterlimit="4"
       d="m 92.081437,113.47702 -3.6322,3.0356 -0.15786,-0.19864 3.79,-2.837 z"
       style="fill:#ffffff;fill-rule:evenodd;stroke:#ffffff;stroke-width:0.1;stroke-miterlimit:4;stroke-dasharray:none"
       inkscape:connector-curvature="0" />
    <path
       id="path309"
       stroke-miterlimit="4"
       d="m 73.772437,233.52702 c 1.117,-0.47315 1.3618,0.60999 0.69139,0.86425"
       style="fill:none;stroke:#ffffff;stroke-width:0.24666131;stroke-linecap:butt;stroke-linejoin:miter;stroke-miterlimit:4;stroke-dasharray:none"
       inkscape:connector-curvature="0" />
    <path
       id="path311"
       stroke-miterlimit="4"
       d="m 117.28044,233.48702 c -1.117,-0.47314 -1.3618,0.61 -0.69139,0.86426"
       style="fill:none;stroke:#ffffff;stroke-width:0.24666131;stroke-linecap:butt;stroke-linejoin:miter;stroke-miterlimit:4;stroke-dasharray:none"
       inkscape:connector-curvature="0" />
  </g>
</svg>
