<!-- Created with Inkscape (http://www.inkscape.org/) -->
<svg xmlns:rdf="http://www.w3.org/1999/02/22-rdf-syntax-ns#" xmlns="http://www.w3.org/2000/svg" height="300" width="248" version="1.0" xmlns:cc="http://creativecommons.org/ns#" xmlns:dc="http://purl.org/dc/elements/1.1/">
 <metadata>
  <rdf:RDF>
   <cc:Work rdf:about="">
    <dc:format>image/svg+xml</dc:format>
    <dc:type rdf:resource="http://purl.org/dc/dcmitype/StillImage"/>
    <dc:title/>
   </cc:Work>
  </rdf:RDF>
 </metadata>
 <g transform="matrix(0.96001114,0,0,0.96001114,-203.89329,-351.60423)">
  <path fill="#800080" d="m388.09,524.8c-1.3977,0-2.5311,1.1334-2.5311,2.5311v2.5311h10.124v5.0622h-15.187v-7.5933c0.0143-4.13,3.4002-7.5933,7.5933-7.5933,1.3965,0.00095,2.5311-1.1334,2.5311-2.5311,0-1.3965-1.1346-2.5299-2.5311-2.5299h-7.5933l5.0622-5.0622h2.5311c4.1288,0.0143,7.5933,3.4002,7.5933,7.5921,0,4.1931-3.4014,7.5933-7.5933,7.5933zm58.213-15.185,0,25.31-5.0622,0,0-20.248zm-229.75-0.00095,5.0622,0,0,20.249,10.124,0,0,5.0622-15.186,0zm201.91-5.0622c-9.7827,0-17.716,7.935-17.716,17.718,0,9.7839,7.9338,17.718,17.716,17.718,9.7839,0,17.718-7.9338,17.718-17.718,0-9.7827-7.9338-17.718-17.718-17.718zm12.655,17.718c0,6.9885-5.667,12.655-12.655,12.655-6.9873,0-12.655-5.667-12.655-12.655,0-6.9873,5.6682-12.655,12.655-12.655,6.9885,0,12.655,5.6682,12.655,12.655zm-88.014-7.5921c2.7954,0,5.0622,2.2668,5.0622,5.0622v5.061c0,2.7954-2.2668,5.0622-5.0622,5.0622h-5.0622v-15.185zm0,20.248c5.5908,0,10.124-4.5336,10.124-10.124v-5.061c0-5.5908-4.5336-10.124-10.124-10.124h-10.13v25.31zm-20.249-25.31,5.0624,0,0,25.31-5.0624,0zm-86.054,0,15.186,0,0,5.0622-10.124,0,0,5.061,10.124,0,0,5.0622-10.124,0,0,5.0622,10.124,0,0,5.0622-15.186,0zm75.931,0,5.0621,0,0,25.31-5.0621,0-10.124-15.89,0,15.89-5.0621,0,0-25.31,5.0621,0,10.124,15.89zm-43.026,5.061,5.0608,0c4.1928,0,7.5933,3.4002,7.5933,7.5933s-3.4635,7.579-7.5933,7.5933h-5.0608v-5.0622h5.0608c1.3976,0,2.5311-1.1334,2.5311-2.5311s-1.1335-2.5311-2.5311-2.5311h-5.0608zm5.0608,25.311c9.7835,0,17.718-7.9338,17.718-17.718,0-9.7827-7.934-17.718-17.718-17.718-9.7834,0-17.718,7.935-17.718,17.718,0,9.7839,7.9341,17.718,17.718,17.718zm-12.66-17.74c0-6.9873,5.6672-12.655,12.655-12.655,6.9881,0,12.655,5.6682,12.655,12.655,0,6.9885-5.6672,12.655-12.655,12.655-6.9881,0-12.655-5.667-12.655-12.655zm196.85,2.5311-7.5933,0,0-5.0622,7.5933,0c1.3977,0.00096,2.5311-1.1334,2.5311-2.5311,0-1.3965-1.1334-2.5299-2.5311-2.5299h-7.5933l5.0622-5.0622h2.5311c4.13,0.0143,7.5933,3.4002,7.5933,7.5921,0,1.9454-0.73218,3.7193-1.9346,5.0634,1.2024,1.3429,1.9346,3.1168,1.9346,5.061,0,4.1931-3.4633,7.579-7.5933,7.5933h-7.5933v-5.0622h7.5933c1.3977,0,2.5311-1.1334,2.5311-2.5311s-1.1334-2.5311-2.5311-2.5311z"/>
 </g>
 <path d="m247,1.0001,0,214.77c0,82.42-84.912,44.012-123,82.791-38.089-38.77-123-0.37-123-82.79v-214.77z" stroke="#000" stroke-miterlimit="4" stroke-dasharray="none" stroke-width="2" fill="#FFF"/>
 <path fill-rule="evenodd" fill="#ffcd50" d="m36.048,52.971c1.748-2.8732,3.4903-2.4108,3.5504,1.0938,0.16607,9.7951,5.3056,13,11.366,17.343-3.9713,0.40944-7.3299,2.836-8.8388,6.3764-7.745-8.5925-9.4902-19.202-6.0772-24.813z"/>
 <path fill-rule="evenodd" fill="#ffcd50" d="m36.048,52.971c1.748-2.8732,3.4903-2.4108,3.5504,1.0938,0.16893,9.964,5.4859,13.109,11.681,17.57l1.025,6.6098-7.3714,2.3235c-10.102-8.954-12.678-21.364-8.885-27.597z"/>
 <path d="m32.201,118.25c-2.8045,1.9513-5.254,1.1009-6.2977-0.83034,3.3514-2.3049,9.5088-3.8868,12.939-4.6284,1.4044-0.30351,0.58982-2.335-0.59269-2.2634-4.2633,0.25769-8.4379,3.151-13.142,5.1595-4.1374,0.0601-8.5968-7.619-4.7172-10.936,3.5833-3.0636,7.2082-5.967,9.9941-10.162,3.4115-5.1381,6.3449-10.069,12.087-13.799,0.37938-4.4938,4.7558-7.7765,9.1638-8.0027,6.7229-0.34359,12.801,3.5719,20.239,2.5397,9.5646-1.33,20.093,2.8575,31.042,9.0993,22.007,10.587,43.624,9.4716,66.02,4.2476,8.2661-1.9284,18.05-3.1238,26.913-1.8382,5.0479,0.73299,9.5532,3.0393,14.726,2.9205,12.704-0.29205,15.049-13.958,8.4709-22.31-8.4623-10.746-31.1-9.1151-42.161-7.0793-18.287,3.3643-43.764,12.786-61.807,4.1417-5.3442-2.5597-11.852-6.6656-16.61-0.14602-1.6779-6.8832,3.7265-10.595,9.1251-11.343-1.9141-5.9527-14.942,1.9542-15.102-9.2396,7.065,6.7959,17.801-8.7787,25.675,3.4416,2.67-3.6449,7.5861-5.778,13.665-2.9434-6.6312,1.8468-6.7544,8.1588-4.7802,11.608,7.0335,12.283,38.22,0.27201,48.709-1.6592,14.031-2.5812,37.825-3.171,47.992,9.0607,8.9748,10.799,7.1438,30.282-9.2296,32.78,2.8747,3.3299,4.9978,7.6634,6.05,13.234,2.8174,14.935-0.5612,28.21-5.8625,41.407-3.4044,8.4766-1.5204,21.865,5.8625,26.088,1.3271,1.3772,1.3271,3.1968,0,5.4602-0.85038,1.4574-1.5089,2.879-2.0172,4.2719-2.0028,5.4917-2.6556,14.455-2.4194,20.317,0.12455,3.1352,1.1825,5.9798,0.91624,7.37-0.23622,1.8067-2.3836,1.8253-2.7659,0.11596-0.37079-1.6535-2.6055-0.51682-1.8897,1.0394,0.30779,0.66999,0.39512,1.2741,0.37508,2.093l-1.5533,0.92912-11.616-7.3327c-1.8224-4.3593,2.9377-5.8224,4.4767-9.0779,0.96777-2.0472,1.6879-4.1145,1.8053-6.2275,0.40515-3.7924,0.65855-7.5833-0.15175-11.376-1.7594-4.8632-3.9956-9.7278-7.609-14.592-2.272-3.0565-4.186-6.2791-6.4194-9.1466-1.8668-2.3951-3.5805-4.929-5.1968-7.5203-2.6356-4.229-4.2261-8.279-7.7436-11.307-3.2297-2.7802-7.1838-3.5275-12.484-3.3471l-0.51681,0.71294c6.3163,0.25483,11.145,2.637,13.958,6.6126-12.471,2.7-23.693,9.6434-33.498,17.961l-0.30207-7.5847c-7.4072,1.3472-15.784,4.3994-23.918,6.6312,1.0021-3.8725,4.1087-9.5231,6.9777-12.06l-0.90907-0.18324c-7.1022,6.2762-8.3191,11.902-10.083,20.191-0.64566,3.0264-0.66857,5.9068-0.97779,9.0621-0.50536,5.1724-0.79885,10.332-0.76019,15.533,0.0544,7.2168,4.2977,14.946,4.4237,16.952,0.2219,1.8081-1.8554,2.3579-2.6499,0.79741-0.77164-1.5075-2.6528,0.14459-1.5734,1.4746,0.43808,0.53972,0.72583,1.005,0.64996,1.8711l-1.0895,1.0594-12.751-5.8396c0.53113-2.126,0.0415-4.7243,0.46957-7.0092,0.65997-3.5189,1.3987-6.3621,1.2441-10.177-0.11596-4.4366-0.68431-7.9698-2.2405-9.5202-4.2376-3.0737-5.5017-7.6377-5.4144-12.88,0.15748-4.9663-0.45668-9.3943-4.7043-13.071-5.5146-4.7687-8.8946-12.212-9.3126-19.43l-0.71294,0.0386c0.04438,8.1402,2.4738,15.536,8.7028,20.92,2.3149,2.0057,3.8224,4.3249,4.0243,7.8939-14.024-0.083-21.489-12.929-28.136-28.332-4.4208-10.245-10.686-16.883-18.927-17.897-3.9112-0.48102-6.2003-1.6793-7.5532-4.0171,3.3729-0.6428,6.793,0.64423,10.296,0.31639,9.1265-0.85468,12.017-8.7543,11.681-17.015l-0.71294-0.0344c-0.31352,6.9605-3.4516,14.289-11.118,15.026-3.5189,0.3393-6.5997-0.78452-10.011-0.46098-2.8375,0.26772-6.1159,0.88188-8.6326,2.2405zm125.25,84.125c4.5898-3.2884,8.3005-6.8617,12.004-14.405,1.9112-3.8897,3.7766-11.731,1.9771-15.958-2.5254-5.9298-5.1123-12.269-7.0965-18.328,5.2554-2.7745,10.726-4.8031,16.561-6.0715,3.1997,5.6291,6.4924,10.495,10.242,15.653,0.0387,3.1968-0.0601,6.4251-0.3579,9.735-0.21045,2.3292,1.4259,7.0149-1.9771,10.309-6.5196,6.3091-13.121,12.771-16.995,21.814-1.5118,3.5304-1.1453,5.0923-1.6249,7.5775-0.23478,1.8081-2.3836,1.8267-2.7659,0.11596-0.37078-1.6535-2.6055-0.51825-1.8897,1.0394,0.32927,0.71438,0.41231,1.1868,0.38511,1.9513l-0.74587,0.98495-12.424-7.3871c-0.49391-2.7516,2.2806-5.2898,4.7072-7.0307zm-79.257-39.68c-5.2411,0.41946-9.8552-2.9448-13.257-1.1596-4.3807,2.2992-4.3063,6.093-6.8374,8.5496-1.7494,1.6993-5.9083,3.6678-5.7737,6.3206,0.08017,1.5519,1.2341,2.6786,2.0243,4.501,0.82032,1.6263-0.94487,2.8504-2.2233,1.6521-1.2355-1.161-2.4438,1.0379-0.97779,1.9198,0.53686,0.32211,1.2455,0.90621,1.4016,1.4975l-0.68145,1.3128-13.905-0.0215c-1.0923-2.7702-1.0079-5.516,0.21331-7.7923,3.3342-4.793,4.8102-10.472,7.2225-16.768,1.33-3.476,2.0673-7.4372,3.9212-10.628,1.9227-3.3085,5.3056-7.5804,9.4386-9.2754,2.5397-1.0422,4.5039-1.6621,6.4365-2.1131,3.2397,7.4902,7.1695,15.964,12.998,22.005z" fill-rule="evenodd" stroke="#FFF" stroke-miterlimit="4" stroke-dasharray="none" stroke-width="0.3" fill="#d40000"/>
 <path d="m70.949,79.965c1.36-0.47243,2.6012-1.3643,4.093-1.3844,1.7494-0.02147,2.4867,1.3772,2.3149,3.7895-0.49248,6.8832-6.6541,13.764-14.176,11.079l0.24051-0.67286c5.924,2.1145,11.721-5.254,12.15-10.479,0.12026-1.476-0.18038-1.9728-0.87328-1.8038-1.1324,0.27916-2.083,0.82175-3.1095,1.2455-3.0135,1.2441-6.9405-0.09306-9.3713,2.5068-1.6421,1.7552-1.7337,4.1517-4.7487,4.5196,2.1846-1.5361,1.8081-3.8697,3.4287-5.6778,2.8403-3.1581,6.6055-1.927,10.051-3.1224zm-9.4801,7.4229c2.5526-2.3421,5.4487-3.204,9.5231-3.5776,0,0-3.5833,1.7552-5.6549,2.9663-0.92053,0.55117-4.3736,2.6685-1.6793,3.7995,0,0-1.0866,0.1131-1.8153-0.21188-1.0193-0.45382-1.1381-2.272-0.37365-2.9763z" fill-rule="evenodd" stroke="#FFF" stroke-miterlimit="4" stroke-dasharray="none" stroke-width="0.3" fill="#FFF"/>
 <path d="m71.134,117.59c-2.1217,6.8918-2.6972,15.733,3.7666,20.491l-0.42233,0.57551c-7.6248-5.6119-7.8223-13.417-5.3414-21.47,1.4588-4.7372,3.5876-9.5961,2.3894-14.675l0.69576-0.16178c1.3157,5.5776,0.5526,9.9096-1.088,15.241z" fill-rule="evenodd" stroke="#FFF" stroke-miterlimit="4" stroke-dasharray="none" stroke-width="0.3" fill="#FFF"/>
 <path fill-rule="evenodd" fill="#FFF" d="m26.596,104.02c1.3457,0.51109-0.35504,2.7072,0.34072,5.1624,0.80743,2.846-3.6907,4.7902-4.647,0.11309-0.44237-2.1546,2.962-5.7852,4.3063-5.2755z"/>
 <path d="m175.88,147.77c0.56549,2.1489,0.86899,5.6348,0.52397,8.04-1.297,9.0406,10.338,11.224,13.532,4.2032" stroke="#FFF" stroke-dasharray="none" stroke-miterlimit="4" stroke-width="2" fill="none"/>
 <path fill-rule="evenodd" fill="#ffcd50" d="m199.6,211.06c-1.1381,1.5791-5.7422,6.8274-11.89,11.042,1.1811,0.53256,2.544,0.76162,3.8453,0.89619l4.4122-3.9398-1.9384,5.8854c3.6835,0.61273,14.935,0.79169,16.771-2.4495,0.8604-1.5204,1.5834-3.3113,1.9685-5.0307-4.7916-0.84036-8.2203-6.8832-13.169-6.4036z"/>
 <path fill-rule="evenodd" fill="#ffcd50" d="m103.26,211.66c-0.94057,1.7036-4.8832,7.4644-10.482,12.385,1.2355,0.38796,2.617,0.45095,3.9241,0.42948l3.9097-4.4394-1.2212,6.0758c3.7308,0.1675,14.923-1.0021,16.359-4.4394,0.67143-1.612,1.1739-3.4774,1.3514-5.2311-4.8575-0.26055-8.9848-5.8496-13.841-4.7802z"/>
 <path fill-rule="evenodd" fill="#ffcd50" d="m37.963,187.27c-0.16177,1.9398-1.4073,8.8087-4.5082,15.587,1.2856-0.15175,2.5726-0.65711,3.7566-1.2112l1.7566-5.6492,1.3658,6.0443c3.4745-1.3715,13.212-7.0092,13.119-10.734-0.04581-1.7451-0.34931-3.6535-0.90335-5.327-4.5396,1.748-10.59-1.6678-14.587,1.2899z"/>
 <path fill-rule="evenodd" fill="#ffcd50" d="m152.74,209.4c-1.1381,1.5791-5.7422,6.8274-11.888,11.042,1.1796,0.53256,2.5426,0.76162,3.8439,0.89619l4.4122-3.9398-1.9384,5.8854c3.6835,0.61273,14.935,0.79168,16.771-2.4495,0.8604-1.5204,1.5834-3.3128,1.9685-5.0321-4.7916-0.83893-8.2203-6.8818-13.169-6.4022z"/>
 <path d="m23.043,110.34c1.3658,1.1396,1.8539,3.3328,1.0666,5.4201-0.95202,2.5196-3.4029,3.9283-5.4759,3.1467-2.0715-0.78452-2.9792-3.4602-2.0315-5.9813,0.45812-1.2126,1.2655-2.166,2.209-2.743-0.22476-0.74158-0.33786-1.496-0.30923-2.2219-1.7237,0.93914-3.214,2.617-4.0329,4.7902-1.5948,4.219-0.07301,8.7056,3.3972,10.016,3.4702,1.3099,7.5761-1.0508,9.1695-5.2712,1.3744-3.6406,0.5025-8.8703-3.778-10.142-0.62848,0.60843-0.70006,2.3793-0.21474,2.9863z" fill-rule="evenodd" stroke="#FFF" stroke-dasharray="none" stroke-miterlimit="4" stroke-width="0.5" fill="#ffcd50"/>
 <path fill-rule="evenodd" fill="#ffcd50" d="m49.942,47.21c2.1073-2.6213,3.675-2.0558,3.5719,1.4502-0.13744,4.6499,1.7795,8.425,4.3764,11.784,3.4545,4.4681,7.327,8.6742,5.4788,15.022-0.73156,2.5139-2.9706,5.1323-5.5547,6.1001-4.9548,1.8568-9.1237-3.5246-7.2053-8.4651,1.4101-3.6306,1.5089-7.2182,0.0029-10.826-2.567-5.525-2.904-12.285-0.67-15.065z"/>
 <path fill-rule="evenodd" fill="#ffcd50" d="m49.942,47.21c2.1073-2.6213,3.675-2.0558,3.5719,1.4502-0.13744,4.6499,1.7795,8.425,4.3764,11.784,3.4545,4.4681,7.327,8.6742,5.4788,15.022-0.73156,2.5139-2.9706,5.1323-5.5547,6.1001-4.9548,1.8568-9.1237-3.5246-7.2053-8.4651,1.4101-3.6306,1.5089-7.2182,0.0029-10.826-2.567-5.525-2.904-12.285-0.67-15.065z"/>
 <path d="m43.459,87.66,10.368-1.2942,0.26771,0.66284-15.819,6.3907-0.26628-0.6614l5.449-5.099z" fill-rule="evenodd" stroke="#FFF" stroke-miterlimit="4" stroke-dasharray="none" stroke-width="0.3" fill="#FFF"/>
 <path d="m44.156,87.494c2.1231-0.8561,4.4452-0.06729,5.1839,1.7623,0.74014,1.8296-0.38224,4.01-2.5053,4.8675-2.1217,0.85754-4.4437,0.06872-5.1839-1.7609-0.73871-1.8296,0.38367-4.0114,2.5053-4.8689z" fill-rule="evenodd" stroke="#FFF" stroke-miterlimit="4" stroke-dasharray="none" stroke-width="1.5" fill="#d40000"/>
 <path fill-rule="evenodd" fill="#FFF" d="m44.474,87.878c1.2312,0,2.2305,0.99927,2.2305,2.2305,0,1.2298-0.99927,2.229-2.2305,2.229s-2.229-0.99927-2.229-2.229c0-1.2312,0.99784-2.2305,2.229-2.2305z"/>
</svg>
