<!-- Created with Inkscape (http://www.inkscape.org/) -->
<svg xmlns:rdf="http://www.w3.org/1999/02/22-rdf-syntax-ns#" xmlns="http://www.w3.org/2000/svg" height="300" width="248" version="1.0" xmlns:cc="http://creativecommons.org/ns#" xmlns:dc="http://purl.org/dc/elements/1.1/">
 <metadata>
  <rdf:RDF>
   <cc:Work rdf:about="">
    <dc:format>image/svg+xml</dc:format>
    <dc:type rdf:resource="http://purl.org/dc/dcmitype/StillImage"/>
    <dc:title/>
   </cc:Work>
  </rdf:RDF>
 </metadata>
 <path stroke-miterlimit="4" d="m247,1.0001,0,214.77c0,82.42-84.912,44.012-123,82.791-38.089-38.77-123-0.37-123-82.79v-214.77z" fill="#003d8f"/>
 <path fill-rule="evenodd" fill="#FFF" d="m247,212.83c0,4.8-0.3,9.172-0.84934,13.192-8.4773-6.1573-15.707-14.155-28.085-14.155-20.124,0-26.636,21.139-47.033,21.139-20.396,0-26.908-21.139-47.032-21.139-20.123,0-26.636,21.139-47.032,21.139-20.397,0-26.909-21.139-47.033-21.139-12.379,0-19.607,7.9987-28.085,14.155-0.55067-4.0187-0.84933-8.392-0.84933-13.191v-154.48c8.8533-6.224,16.144-14.765,28.935-14.765,20.124,0,26.636,21.14,47.033,21.14,20.396,0,26.909-21.14,47.032-21.14,20.124,0,26.636,21.14,47.033,21.14,20.396,0,26.908-21.14,47.032-21.14,12.789,0,20.081,8.54,28.935,14.764v154.48z"/>
 <path fill-rule="evenodd" fill="#d40000" d="m1,170.54,0-56.093c8.8533-6.224,16.144-14.765,28.935-14.765,20.124,0,26.636,21.14,47.033,21.14,20.396,0,26.909-21.14,47.032-21.14,20.124,0,26.636,21.14,47.032,21.14,20.397,0,26.909-21.14,47.033-21.14,12.789,0,20.081,8.54,28.935,14.764v56.093c-8.8533-6.224-16.145-14.764-28.935-14.764-20.124,0-26.636,21.14-47.033,21.14-20.396,0-26.908-21.14-47.032-21.14-20.123,0-26.636,21.14-47.032,21.14-20.397,0-26.909-21.14-47.033-21.14-12.791,0-20.081,8.5413-28.935,14.765z"/>
 <path d="m247,1.0001,0,214.77c0,82.42-84.912,44.012-123,82.791-38.089-38.77-123-0.37-123-82.79v-214.77h246z" stroke="#000" stroke-dasharray="none" stroke-miterlimit="4" stroke-width="2" fill="none"/>
</svg>
