<?xml version="1.0" encoding="utf-8"?>
<!-- Generator: Adobe Illustrator 24.2.2, SVG Export Plug-In . SVG Version: 6.00 Build 0)  -->
<svg version="1.1" id="Layer_1" xmlns="http://www.w3.org/2000/svg" xmlns:xlink="http://www.w3.org/1999/xlink" x="0px" y="0px"
	 viewBox="0 0 120 120" style="enable-background:new 0 0 120 120;" xml:space="preserve">
<style type="text/css">
	.st0{fill:#38A8FF;}
	.st1{fill:#FFFFFF;}
	.st2{fill:#FFCC70;}
	.st3{fill:#63C663;}
	.st4{fill:#69E26E;}
</style>
<g>
	<path class="st0" d="M87.1,76.1L63,102.9c-1.7,1.8-4.4,1.8-6.1,0l-24-26.8c-5.9-6.6-9.2-15.2-9.2-24.2l0,0
		c0-20,16.2-36.2,36.2-36.2h0.2c20,0,36.2,16.2,36.2,36.2l0,0C96.3,60.9,93,69.5,87.1,76.1z"/>
	<circle class="st1" cx="60.1" cy="51.9" r="22.4"/>
	<circle class="st2" cx="67.3" cy="43.2" r="5.4"/>
	<path class="st3" d="M81.9,57c-0.8,3.4-2.4,6.6-4.6,9.2c-4.1,5-10.3,8.1-17.3,8.1c-3.3,0-6.4-0.7-9.3-2l22.2-20.9
		c0.9-0.8,2.3-0.8,3.2,0L81.9,57z"/>
	<path class="st4" d="M77.4,66.2c-4.1,5-10.3,8.1-17.3,8.1c-9.1,0-16.9-5.4-20.4-13.2l14.9-14c0.9-0.8,2.3-0.8,3.2,0L77.4,66.2z"/>
</g>
</svg>
