<!-- Created with Inkscape (http://www.inkscape.org/) -->
<svg xmlns:rdf="http://www.w3.org/1999/02/22-rdf-syntax-ns#" xmlns="http://www.w3.org/2000/svg" height="300" width="248" version="1.0" xmlns:cc="http://creativecommons.org/ns#" xmlns:dc="http://purl.org/dc/elements/1.1/">
 <metadata>
  <rdf:RDF>
   <cc:Work rdf:about="">
    <dc:format>image/svg+xml</dc:format>
    <dc:type rdf:resource="http://purl.org/dc/dcmitype/StillImage"/>
    <dc:title/>
   </cc:Work>
  </rdf:RDF>
 </metadata>
 <path d="m247,1.0001,0,214.77c0,82.42-84.912,44.012-123,82.791-38.089-38.77-123-0.37-123-82.79v-214.77z" stroke="#000" stroke-dasharray="none" stroke-miterlimit="4" stroke-width="2" fill="#003d8f"/>
 <path d="m75.564,165.87,0.0058,0.003" fill-rule="evenodd" fill="#156dc1"/>
 <path d="m76.814,165.6,0.0058,0.001" fill-rule="evenodd" fill="#156dc1"/>
 <path d="m23.26,68.322c0.63003,3.6894,4.4016,6.4315,10.379,4.4693,7.3787-2.4264,9.5687-1.224,11.248,1.0914,1.1534,2.6989,0.59831,3.4183,0.59831,3.4183-5.828-7.836-15.022,4.331-21.974,0.835-3.126-1.573-3.96-6.44-0.251-9.813z" fill-rule="evenodd" fill="#d40000"/>
 <path d="m48.148,77.609c2.7321,0.35178,5.6212,0.92846,6.7371,1.6493,0.77708,0.50748,3.2424,1.6133,5.9456,2.5504,4.5299,1.5715,12.601,2.2116,16.423-0.95298-1.4792,6.4618-13.124,3.7283-17.327,3.7701-3.773,0.04037-6.0624,2.0919-8.1889,6.1489,0,0,3.5466-2.2808,5.95-1.3379-0.72518,1.2572-2.7512,8.2475-2.7512,8.2475-4.1983,2.2981-6.4238,8.2212-5.9611,12.107,1.9506-1.9002,6.1561-2.6009,6.1561-2.6009-4.7735,2.4062-10.277,8.0491-9.2774,15.631,1.2413-1.4576,4.4405-2.363,4.4405-2.363s-7.1033,5.2767-4.9177,15.868l3.0795-2.4798s-3.7557,7.9511,2.51,15.354l2.2808-3.0319s-0.39647,4.3309,4.2343,12.637l2.0371-3.228s2.0717,5.2767,8.3922,8.3879l-0.72374-3.623s3.662,1.8122,8.1688,2.9829c-3.5409-3.6-9.1405-10.594-2.6196-19.401l-0.15426,1.6133c-3.747,6.3767,1.609,13.542,6.5555,18.506,2.2808,2.2822,6.7314,17.952,7.1033,23.464,0.39936,5.5131,5.6659,11.616,5.8649,18.19,0.19463,6.9289,1.1563,16.734,0.1139,22.362-1.0034,5.3617-3.1905,5.4641-5.1815,8.1053,4.5674-0.27536,8.7281,4.3165,12.991,3.7398,0.11822-2.5172-0.73672-5.2695,0.26671-8.2625,0.23356-0.78573,1.0337-0.35466,1.0337-0.35466s0.83764,1.0222,1.9622,0.39359c1.7877-0.94577-1.0438-5.196-2.1554-11.968-1.7185-10.393-1.609-25.041-1.5224-30.355,0.0793-5.3545,1.8267-12.125,2.35-14.765,0.43828-2.2822,1.6724-3.7398,2.6672-6.4171,2.2808-6.0624-5.8548-14.622,1.9766-20.827-4.687,9.6162,2.0919,11.496,0.49739,21.418,5.6602,0.39215,14.548,0.42675,24.3-1.8569,9.5802-2.2851,18.953-5.268,29.506-2.3572-4.0541-7.9107-1.2889-12.833-1.472-12.833,0.27537,3.8566,1.2139,8.1616,4.4549,13.91,1.8396,3.1891,4.7952,6.8482,7.7045,9.9204,4.3915,4.6452,10.004,8.5306,16.436,11.525,19.277,7.3989,21.598,7.7939,19.966,19.331-0.96163,6.851-1.6061,16.339-3.6,21.692-1.9175,5.0662-5.6126,6.2008-7.9165,8.6892,4.8456-0.0461,8.8017,5.4223,13.382,4.6856,0.4181-2.4812,0.88233-5.4151,2.363-8.137,0.35899-0.74969,1.077-0.19752,1.077-0.19752s0.68482,1.1404,1.8786,0.73672c1.9117-0.61994-1.4374-5.4627-1.038-12.314,0.67617-12.802,5.3272-24.75,6.9087-37.361,0,0-2.9555-3.8191-4.8759-4.0166-3.6692-0.31429-13.375-2.8748-16.645-10.984-4.1637-10.235-0.33015-19.094,2.1568-23.425,2.8315-5.0806,4.3035-4.6063,3.3145-7.9511-1.0827-3.623-6.8352-12.877-14.347-17.994,7.9626,3.9575,19.496,4.3626,17.781-7.0082-3.1992,1.3682-8.8752,4.2112-25.008,3.3462-7.298-1.6753-14.279-3.2626-21.839-3.5293-13.998-0.49307-28.038,1.7517-40.137,0.81168-18.329-1.4172-21.427-3.76-26.058-6.3162-0.3561,2.1654-1.5311,3.6028-2.8921,4.5846,1.1966-4.5414,1.3177-8.9761,1.9059-13.571,0.69635-5.2305,2.0544-9.9334,2.4495-14.89,0.16724-2.3284,0.2696-5.2796,0.29844-7.2489-11.323,0.40656-13.815-6.3219-14.818-7.8963l0.29844-1.508c3.5711,6.6679,9.6566,8.3937,16.973,6.0451,3.9013-1.2543,6.5122-4.031,9.5312-6.5742,0.77564-0.65021,2.8488-2.3269,2.8085-3.3678-0.11534-1.2774-6.4675-3.1891-8.0851-3.6432-3.3448-0.94432-8.1572-2.0415-11.906-2.3904-3.5423-0.32727-6.3262,0.92558-9.6984,1.7084-1.1317,0.26383-4.9422,0.11534-4.5702-2.0141,1.2629,0.8535,3.711,0.25086,6.0293-0.45126l-11.343-4.672s-3.8292,1.0265-6.5468,1.1433c-2.6657,0.11678-3.8335,2.2822-11.218,3.897-7.3499,1.6147-16.568,2.3226-18.135,2.7566-1.0352,0.31429-1.756,2.324-1.756,2.324s1.0798,0.5911,3.6374,0c-2.1164,2.5187-4.6322,1.8872-4.6322,1.8872s-1.6306,1.9723-1.8367,4.4881c-0.12543,1.4215,3.5985,1.5383,4.8773,1.6551,2.1972,0.13696,6.022,0.32006,6.7602,3.3736,0.58678,2.4091-3.0017,4.057-4.6106,4.674-1.0597,0.45991-2.869,0.48586-3.489,1.2572-0.50604,0.55506,2.6311,3.4082,6.2484,1.6263,2.7739-1.4086,4.1594-2.0516,6.4776-2.7205zm11.875,83.341c-6.0163,0.049-11.593,1.4172-16.505,4.4996-4.2386,2.6571-2.8719,8.4946-1.9809,12.5,1.139,5.1195,0.39936,9.9478,0.58101,15.073,0.19175,4.86-0.8708,7.6656,2.8402,11.984,2.3976,2.7739,2.3687,4.7476,2.5273,7.9453,2.9757-3.2857,9.0453-3.7485,10.728-7.7463-0.87512-0.81457-2.1092-1.5052-3.3578-2.2044-1.7935-1.0063-3.9676-2.141-4.9494-4.0368-0.6084-1.1952,0.09804-1.2182,0.71221-1.0669,0.46135,0.10957,2.1323,0.8607,2.2808,0.0923,0.13264-0.70644-0.46423-1.7142-1.1245-2.8229-0.86647-1.4518-1.8252-3.0752-1.7128-4.86,0.33592-5.2738,0.29267-7.1797,0.26383-8.4398v-0.003c-0.02883-1.3033-0.04325-1.9708,0.34169-4.6366,0.33304-2.1539,4.217-3.6346,6.5093-3.7773,7.494-0.47433,16.136,1.2428,23.644,1.583-0.88089-2.7306-2.0775-5.6991-3.0463-8.4023l-1.1591-0.38349h-0.0029c-1.596-0.51614-4.7317-1.3567-6.9606-2.5057,0.11678,1.3033,0.49018,2.8027,0.49018,4.106-3.3505-1.8829-7.4854-4.0714-10.119-6.8972zm94.931,4.1002-2.3428,3.4918c3.4688-0.14129,7.964,0.10813,11.274,1.113l-2.0285-3.3765c-1.991-0.5219-5.787-1.0827-6.9029-1.2283zm-10.934,1.0395c2.2015,5.9428,5.676,9.883,10.389,15.116,13.812,15.24,13.976,16.46,6.3897,25.355-4.478,5.3142-12.807,10.703-15.307,15.869-2.2577,4.6683-5.9903,5.6659-7.9237,8.522,4.4924-0.31429,8.6474,4.0772,12.838,3.6115,0.0202-2.3716-0.009-3.7629,1.322-5.5996,1.1116-1.5369,1.1851-0.68337,1.3696,0.32872,0.11101,0.58822,0.43252,1.188,1.2702,1.2456,2.0314,0.15715,0.46856-4.8802,3.1055-8.6229,6.1532-8.6229,17.217-16.179,20.929-20.079,3.6807-3.897,4.0801-5.2349,4.0801-5.2349s1.4316-3.982-0.16147-5.0446c-1.1937-1.6147-6.8539-5.715-7.3528-9.5744-3.277-2.6686-6.0566-5.6674-8.3259-9.0021-5.2363-3.4659-11.953-2.4509-16.944-2.5288l2.9007-5.2594c-2.7407-0.0259-5.9831,0.15426-8.5796,0.89675z" fill-rule="evenodd" fill="#ffcd50"/>
 <path d="m56.421,89.168c13.105,1.4518,26.943,2.1856,40.126,1.6652l-1.446,9.757c-13.644,0.41666-27.972-0.40368-41.52-1.9665l2.8402-9.4504z" fill-rule="evenodd" fill="#d40000"/>
 <path d="m195.16,239.16c-0.9126,1.6262-4.7288,7.1206-10.125,11.8,1.1793,0.37629,2.5014,0.44549,3.7528,0.43108l3.7758-4.2286-1.2139,5.8087c3.5711,0.18021,14.293-0.88089,15.693-4.1637,0.65454-1.5398,1.1505-3.3217,1.3322-4.9984-4.6481-0.27537-8.5566-5.6458-13.215-4.6495z" fill-rule="evenodd" fill="#d40000"/>
 <path d="m136.28,233.45c-0.75979,1.7012-4.0512,7.5157-8.992,12.661,1.2096,0.26961,2.5316,0.2177,3.7773,0.0923l3.3693-4.5515-0.67184,5.8937c3.5711-0.14129,14.152-2.1611,15.242-5.5564,0.50893-1.5917,0.83764-3.4125,0.86503-5.0994-4.6553,0.14561-9.0453-4.8514-13.59-3.4399z" fill-rule="evenodd" fill="#d40000"/>
 <path d="m85.73,238.65c-0.77853,1.6926-4.1392,7.4681-9.1405,12.556,1.2067,0.28402,2.5288,0.24798,3.7759,0.13553l3.4226-4.5111-0.74104,5.8851c3.5726-0.0995,14.176-1.9982,15.307-5.3805,0.52767-1.5859,0.878-3.401,0.92414-5.0878-4.6553,0.0908-8.9848-4.9566-13.548-3.5971z" fill-rule="evenodd" fill="#d40000"/>
 <path d="m48.112,216.17c0.87512,1.6464,3.4298,7.8098,4.4261,14.827,0.96883-0.76411,1.7531-1.8137,2.4293-2.8532l-1.5052-5.4338,4.2531,4.194c2.1164-2.8402,7.1163-12.252,5.1051-15.21-0.94432-1.3855-2.1828-2.7739-3.5019-3.8465-2.7897,3.6764-9.4894,3.9402-11.206,8.323z" fill-rule="evenodd" fill="#d40000"/>
 <path d="m185.94,61.334c2.0847-1.8108,3.8739-4.5342,5.9572-6.3753,3.7542-3.3217,10.008-5.6775,14.965-5.813,3.3059-0.0865,2.4956,0.84773,0.19031,1.7315-4.5111,1.7315-8.3259,3.8667-11.289,7.7319-2.089,2.7191-4.2372,6.5439-1.5628,9.5067,3.6591,4.0728,9.8008,5.3286,14.703,5.2406,5.1296-0.09227,11.418-2.1943,15.924-4.4491,2.1943-1.0971,3.437-1.0611,1.1375,1.3148-3.1905,3.3001-7.2691,5.5016-11.351,6.6723-8.8507,2.5389-21.702-0.46135-26.816-4.6913-1.7156-0.97748-3.2626-1.7257-4.1853-1.8468-2.1035-0.27248-12.344,1.3177-18.36,0.87224-4.1161-0.30276-10.155-2.0573-12.193-2.2145-1.7185-0.13552-8.5566,2.1842-14.433,1.4071-5.121-0.67472-10.843-2.6455-14.92-4.2473-3.352-1.3163-6.4632,0.21626-10.679-0.89386l0.006-0.0014c6.5411-5.1873-3.8652-6.913-10.101-8.9271-5.4136-1.7474-9.6566-2.3442-15.088-1.5787-1.2817,0.18022-3.2655,0.92558-5.1988,1.4576-3.9431-0.47144-8.199-3.1127-11.332-4.1882l1.3206-3.5293c1.929-0.60696,3.3952-0.90107,2.4221-2.5634-2.7522-4.7144-3.7903-10.127-3.871-13.786-0.10669-4.6077,1.2947-9.1535,3.8797-12.931,1.8728-2.7407,2.1496-1.5282,1.5052,0.86215-1.0222,3.8047-1.5441,7.3672-1.0308,11.28,0.49883,3.7946,1.769,9.263,7.3311,13.851,2.324,1.9132,4.7995,4.2502,7.8069,2.9829,3.2785-1.3812,3.3678-2.3168,3.0478-5.3243-0.36908-3.4846-0.235-6.8957,0.79294-9.4231,1.6133-3.9633,4.2199-7.2792,8.0102-9.8772,2.7306-1.8713,2.5518-0.64156,1.0928,1.3538-1.9838,2.7047-3.5798,5.3819-4.4174,8.4831-1.149,4.2502-1.8021,13.443,4.9955,18.872,4.0426,2.6744,8.9992,5.1786,13.835,3.4587,3.525-2.1251,6.0927-8.3274,9.1203-10.979,3.2208-2.8258,7.1235-4.602,11.674-5.2219,3.2799-0.44693,2.5706,0.57524,0.37341,1.6998-2.98,1.5282-5.7971,3.1617-7.928,5.5535-2.2995,2.5807-4.8946,7.3888-4.1579,10.884,0.45126,2.1453,2.7162,3.7701,7.4436,4.9826,5.1296,1.3163,9.8599,1.2298,13.221-1.4417,3.9791-3.1602,8.8089-8.7887,13.985-11.404,3.8047-1.9189,7.9395-2.8575,12.517-2.6066,3.3001,0.1831,2.412,1.0553,0.0505,1.7387-3.2006,0.93856-6.6016,2.3759-9.2818,4.0339-3.2886,2.0299-9.3755,6.7862-7.1149,9.7128,1.88,2.4379,12.43,2.745,21.443,1.224,2.3284-0.3907,4.3295-0.66031,6.5612-2.5936z" fill-rule="evenodd" fill="#d40000"/>
 <path d="m114.65,34.523c1.9723-4.4376,1.423-10.855,3.2842-14.417,1.8612-3.5625,4.6625-6.4964,8.6013-8.6676,2.8503-1.5715,2.5936-0.43684,1.0063,1.3177-2.151,2.3832-3.9258,4.7908-4.9609,7.6065-1.0222,2.7811-1.8915,11.103,0.026,13.453,1.9824,2.4307,9.7085-0.87224,16.903-5.1859l-0.0159-0.01153,0.53632-0.30276,0.0216-0.01442c6.1648-3.6533,10.467-11.828,17.928-15.487,3.773-1.8699,7.9626-2.6297,12.516-2.2029,3.2958,0.29267,2.3601,1.0683-0.0332,1.6104-3.2323,0.74392-6.3522,1.6104-8.9603,3.3246-2.4509,1.6104-9.4043,7.36-7.1769,9.9507,1.0827,1.2572,7.4465,1.8959,13.637,2.1236,4.2718,0.15426,8.6474-0.06199,12.024-0.95297,4.775-1.25,7.1581-5.4007,11.181-7.7867,4.1449-2.461,10.226-4.0541,15.047-3.4198,3.2165,0.42531,2.2837,1.162-0.0793,1.6248-4.6524,0.89531-8.6892,2.2707-12.165,5.3589-2.3053,2.0516-5.6486,5.6472-3.884,8.5465,2.4898,4.093,8.8839,6.0826,13.172,7.1697,4.8528,1.2341,11.361,0.97892,16.208,0.12255,2.3659-0.40801,3.5322-0.06488,0.72951,1.4749-3.9085,2.1323-8.3576,3.0363-12.524,3.0262-6.9318-0.01874-16.185-3.1732-21.97-6.6564-2.0847-1.2572-4.429-2.1179-5.7049-2.5446-1.5253-0.50892-8.8925,0.48442-12.752,0.25374-7.9092-0.47288-14.855-2.5821-16.492-2.5792-3.1098,0.0058-14.054,9.7316-28.65,10.474-0.96884,0.04902-7.9871,5.6213-18.246,6.1648-2.1381-2.3471-2.4509-4.1521-2.6167-6.8107,2.0573,0.92414,4.6077,0.12254,7.236-1.2658,2.5879-1.3682,5.0647-2.7825,6.1763-5.2969zm-43.549,13.197c-0.58678-1.658-1.6263-3.0146-2.7811-3.9128-3.3232-2.585-6.0336-5.2277-7.5315-7.6959-2.2635-3.7211-3.1977-8.0722-2.7234-12.305,0.35034-3.091,1.1692-2.2174,1.7502,0.01874,0.88666,3.5827,2.1208,6.7256,4.4189,9.6984,1.3336,1.7272,3.2006,3.5942,5.9831,5.082,0.60408,2.523,1.5484,4.9797,2.8099,7.2475l-1.9261,1.867zm13.489-4.2242c1.4201-1.0784,1.7445-2.3745,0.78141-3.4298-2.2621-2.4769-3.3851-4.7375-3.9604-7.2201-0.90251-3.8926-0.62426-7.8141,1.0294-11.813,1.1923-2.8791,1.7358-1.8411,1.6594,0.46135-0.10957,3.1242,0.08362,6.0206,1.139,8.8449,0.81601,2.1813,2.7133,5.6775,5.738,8.0938-0.10092,1.8656,0.07064,3.685,0.24077,5.5434,0.11822,1.2788-0.33592,1.2529-1.619,1.7575-1.6609,0.6531-3.7499-1.224-5.0085-2.2375z" fill-rule="evenodd" fill="#d40000"/>
 <path d="m85.147,60.185c5.9615-0.94,11.25,0.76555,17.407,3.5423-2.4509-0.31862-15.508-3.4366-17.129-0.98857-1.694,1.6825-0.03358,3.7437-0.03358,3.7437-3.3059-1.1144-4.3165-5.6458-0.24509-6.2974z" fill-rule="evenodd" fill="#003d8f"/>
 <path d="m64.127,57.847c2.2981,0.16291,4.0555,1.8065,3.9229,3.6677-0.13264,1.8613-2.1049,3.2395-4.403,3.0752-2.2995-0.16291-4.057-1.8065-3.9244-3.6677,0.13264-1.8613,2.1063-3.2395,4.4044-3.0752z" fill-rule="evenodd" fill="#003d8f"/>
 <path d="m62.597,57.925c0.74104,0.05334,1.3004,0.69779,1.2471,1.4388-0.0519,0.74248-0.69779,1.3004-1.4388,1.2485-0.74104-0.05334-1.3004-0.69779-1.2471-1.4388,0.05334-0.74248,0.69779-1.3004,1.4388-1.2485z" fill-rule="evenodd" fill="#FFF"/>
 <path d="m65.905,57.136c2.3298,0.71365,4.2963,2.9238,4.4189,4.6495l-2.293-0.163c-0.31718-1.1375-1.3624-2.2476-2.6758-2.7421-1.9723-0.7396-4.3641,0.21049-5.2305,2.1784l-5.5492-0.39503,0.05478-0.76555,4.6034-0.88233c1.5037-1.9982,4.3497-2.5922,6.6708-1.88z" fill-rule="evenodd" fill="#003d8f"/>
</svg>
